<?xml version="1.0" encoding="utf-8"?>
<!-- Generator: Adobe Illustrator 23.1.0, SVG Export Plug-In . SVG Version: 6.00 Build 0)  -->
<svg version="1.1" id="Layer_1" xmlns="http://www.w3.org/2000/svg" xmlns:xlink="http://www.w3.org/1999/xlink" x="0px" y="0px"
	 viewBox="0 0 622.9 467.2" style="enable-background:new 0 0 622.9 467.2;" xml:space="preserve">
<style type="text/css">
	.st0{display:none;opacity:0.5;fill:#FFFFFF;}
	.st1{display:none;fill:#FFFFFF;}
	.st2{display:none;}
	.st3{display:inline;fill:#FFFFFF;}
	.st4{display:inline;fill:#FF4848;}
	.st5{display:inline;fill:#5A8DFF;}
	.st6{display:inline;}
	.st7{font-family:'MyriadPro-Bold';}
	.st8{font-size:72px;}
	.st9{font-family:'MyriadPro-Light';}
	.st10{font-size:20px;}
	.st11{display:inline;fill:#FFFFFF;stroke:#000000;stroke-width:2;stroke-miterlimit:10;}
	.st12{display:inline;fill:none;stroke:#FFFFFF;stroke-width:2;stroke-linecap:round;stroke-linejoin:round;stroke-miterlimit:10;}
	.st13{display:inline;fill:none;stroke:#FF33FF;stroke-miterlimit:10;}
	.st14{font-family:'MyriadPro-Regular';}
	.st15{font-size:48px;}
	.st16{display:inline;fill:#FF33FF;}
	.st17{display:inline;fill:#FFFFFF;stroke:#000000;stroke-miterlimit:10;}
	.st18{fill:none;stroke:#000000;stroke-miterlimit:10;}
	.st19{fill:#FFFFFF;}
	.st20{fill:#FF4848;}
	.st21{fill:#5A8DFF;}
</style>
<rect x="-3295.7" y="-2798.3" class="st0" width="1920" height="1080"/>
<rect x="2070.8" y="-306.4" class="st1" width="1920" height="1080"/>
<g class="st2">
	<rect x="-648.5" y="-306.4" class="st3" width="1920" height="1080"/>
	<circle class="st4" cx="117.6" cy="223.4" r="34.7"/>
	<circle class="st5" cx="508.5" cy="209.1" r="24.5"/>
	<text transform="matrix(1 0 0 1 111.0955 233.6011)" class="st6 st7 st8">Self-Practice</text>
	<text transform="matrix(1 0 0 1 233.02 278.1757)" class="st6 st9 st10">The Journey Marker</text>
	<rect x="-648.5" y="3420.5" class="st3" width="1920" height="500"/>
	<text transform="matrix(1 0 0 1 228.0403 3505.4519)" class="st6 st7" style="font-size:60px;">About</text>
	<text transform="matrix(1 0 0 1 227.1395 3903.0479)" class="st6 st14" style="font-size:12px;">This site is owned by Tunanguyen</text>
	<text transform="matrix(1 0 0 1 126.4696 3543.7073)" class="st6 st9" style="font-size:16px;">Self-Practice is a website that archive my solved problems,</text>
	<circle class="st4" cx="-221.9" cy="3746.5" r="120"/>
	<circle class="st5" cx="893.2" cy="3573.8" r="120"/>
	<path class="st11" d="M-648.5,3420.5h312.3c10.1,0,18.2,8.2,18.2,18.2l0,0c0,10.1,8.2,18.2,18.2,18.2h107.6
		c10.1,0,18.2,8.2,18.2,18.2v40.1c0,10.1-8.2,18.2-18.2,18.2h-224c-10.1,0-18.2,8.2-18.2,18.2v8c0,10.1,8.2,18.2,18.2,18.2H-111
		c10.1,0,18.2,8.2,18.2,18.2v32.5c0,10.1-8.2,18.2-18.2,18.2h-118.3c-10.1,0-18.2,8.2-18.2,18.2v4.9c0,10.1,8.2,18.2,18.2,18.2h32.5
		c10.1,0,18.2,8.2,18.2,18.2v46.3c0,10.1-8.2,18.2-18.2,18.2h-167.3c-10.1,0-18.2,8.2-18.2,18.2v9.5c0,10.1,8.2,18.2,18.2,18.2h63.1
		c10.1,0,18.2,8.2,18.2,18.2v14.1c0,10.1-8.2,18.2-18.2,18.2h-27.9c-10.1,0-18.2,8.2-18.2,18.2v16.6c0,10.1-8.2,18.2-18.2,18.2
		h-283.2"/>
	<path class="st11" d="M1271.5,3920.5H959.2c-10.1,0-18.2-8.2-18.2-18.2l0,0c0-10.1-8.2-18.2-18.2-18.2H815.2
		c-10.1,0-18.2-8.2-18.2-18.2v-40.1c0-10.1,8.2-18.2,18.2-18.2h224c10.1,0,18.2-8.2,18.2-18.2v-8c0-10.1-8.2-18.2-18.2-18.2H734
		c-10.1,0-18.2-8.2-18.2-18.2v-32.5c0-10.1,8.2-18.2,18.2-18.2h118.3c10.1,0,18.2-8.2,18.2-18.2v-4.9c0-10.1-8.2-18.2-18.2-18.2
		h-32.5c-10.1,0-18.2-8.2-18.2-18.2v-46.3c0-10.1,8.2-18.2,18.2-18.2h167.3c10.1,0,18.2-8.2,18.2-18.2v-9.5
		c0-10.1-8.2-18.2-18.2-18.2h-63.1c-10.1,0-18.2-8.2-18.2-18.2v-14.1c0-10.1,8.2-18.2,18.2-18.2h27.9c10.1,0,18.2-8.2,18.2-18.2
		v-16.6c0-10.1,8.2-18.2,18.2-18.2h283.2"/>
	<polyline class="st12" points="1333.4,-306.4 1416.1,-306.4 1416.1,773.6 1333.4,773.6 	"/>
	<polyline class="st12" points="1333.4,3420.5 1416.1,3420.5 1416.1,3920.5 1333.4,3920.5 	"/>
	<text transform="matrix(1 0 0 1 1466.1697 233.6008)" class="st6"><tspan x="0" y="0" class="st19 st7 st8">First page</tspan><tspan x="0" y="57.6" class="st19 st14 st15">1920 x 1080</tspan></text>
	<text transform="matrix(1 0 0 1 1466.1704 -256.6119)" class="st6"><tspan x="0" y="0" class="st19 st9 st15">display: flex;</tspan><tspan x="0" y="57.6" class="st19 st9 st15">backgroud-color: white;</tspan></text>
	<text transform="matrix(1 0 0 1 1466.1698 3670.4521)" class="st6"><tspan x="0" y="0" class="st19 st7 st8">Third page</tspan><tspan x="0" y="57.6" class="st19 st14 st15">1920 x 500</tspan></text>
	<rect x="-648.5" y="138.4" class="st13" width="1920" height="165"/>
	<text transform="matrix(1 0 0 1 602.1705 233.6004)" class="st6 st14 st15">520 x 165</text>
	<text transform="matrix(1 0 0 1 532.9791 18.6217)" class="st6 st14 st15">25</text>
	<rect x="51.9" y="138.4" class="st16" width="25" height="165"/>
	<rect x="546.5" y="138.4" class="st16" width="25" height="165"/>
	<line class="st13" x1="559" y1="138.4" x2="559" y2="31"/>
	<text transform="matrix(1 0 0 1 38.8566 18.6219)" class="st6 st14 st15">25</text>
	<text transform="matrix(1 0 0 1 265.2822 18.6221)" class="st6 st14 st15">72pt</text>
	<text transform="matrix(1 0 0 1 265.197 433.7705)" class="st6 st14 st15">20pt</text>
	<line class="st13" x1="64.9" y1="138.4" x2="64.9" y2="31"/>
	<rect x="226.6" y="260.3" class="st13" width="169.8" height="22.5"/>
	<line class="st13" x1="311.5" y1="138.4" x2="311.5" y2="31"/>
	<line class="st13" x1="311.5" y1="390.1" x2="311.5" y2="282.8"/>
	<rect x="213.4" y="3459.2" class="st13" width="196.1" height="52"/>
	<rect x="213.4" y="3459.2" class="st16" width="10" height="52"/>
	<rect x="399.5" y="3459.2" class="st16" width="10" height="52"/>
	<rect x="111.5" y="3530.8" class="st13" width="400" height="15"/>
	<rect x="111.7" y="3530.8" class="st16" width="10" height="15"/>
	<rect x="501.5" y="3530.8" class="st16" width="10" height="15"/>
	<rect x="-648.5" y="3459.2" class="st13" width="1920" height="52"/>
	<rect x="-648.5" y="3530.8" class="st13" width="1920" height="15"/>
	<rect x="111.5" y="3890.8" class="st13" width="400" height="15"/>
	<rect x="111.7" y="3890.8" class="st16" width="10" height="15"/>
	<rect x="501.5" y="3890.8" class="st16" width="10" height="15"/>
	<rect x="-648.5" y="3890.8" class="st13" width="1920" height="15"/>
	<g class="st6">
		<text transform="matrix(1 0 0 1 -140.2979 3762.771)" class="st14 st15">240</text>
	</g>
	<g class="st6">
		<text transform="matrix(1 0 0 1 721.6597 3591.1965)" class="st14 st15">240</text>
	</g>
	<g class="st6">
		<text transform="matrix(1 0 0 1 520.2129 3718.2605)" class="st14 st15">10</text>
	</g>
	<g class="st6">
		<text transform="matrix(1 0 0 1 379.2767 3379.7073)" class="st19 st14 st15">10</text>
	</g>
	<line class="st13" x1="116.7" y1="3545.8" x2="116.7" y2="3890.8"/>
	<line class="st13" x1="506.5" y1="3545.8" x2="506.5" y2="3890.8"/>
	<line class="st13" x1="404.5" y1="3459.2" x2="404.5" y2="3388.5"/>
	<circle class="st4" cx="2836.9" cy="223.4" r="34.7"/>
	<circle class="st5" cx="3227.8" cy="209.1" r="24.5"/>
	<text transform="matrix(1 0 0 1 2830.3933 233.6011)" class="st6 st7 st8">Self-Practice</text>
	<text transform="matrix(1 0 0 1 2952.3179 278.1757)" class="st6 st9 st10">The Journey Marker</text>
	<g class="st6">
		<text transform="matrix(1 0 0 1 2070.7659 -343.7817)" class="st19 st14 st15">Animate</text>
	</g>
	<path class="st17" d="M3098.3,583c0,45.6-14.3,87.8-38.7,122.5c-15.1,21.5-34.2,40.1-56.1,54.7c-8.4,5.6-17.1,10.6-26.3,15h-183.8
		c-17.2-8.2-33.1-18.7-47.3-31c-17.8-15.4-33-33.6-44.9-54c-2.1-3.5-4-7.1-5.9-10.8c-14.7-28.9-23-61.7-23-96.3
		c0-24.8,4.2-48.6,12-70.8c15.9-45.1,46.5-83.3,86.1-108.6c33.1-21.2,72.5-33.5,114.7-33.5c76.4,0,143.4,40.3,181,100.7
		c15,24.2,25.3,51.5,29.6,80.8C3097.5,561.9,3098.3,572.4,3098.3,583z"/>
	<path class="st17" d="M2395.7,336.9c0,25.6-4.5,50.2-12.8,72.9c-23.6,64.6-77.5,114.6-144.6,132.7c-17.7,4.8-36.3,7.3-55.5,7.3
		c-41.1,0-79.4-11.6-112-31.8V155.8c32.5-20.2,70.9-31.8,112-31.8c86.7,0,161.3,51.8,194.5,126.1
		C2389.1,276.6,2395.7,306,2395.7,336.9z"/>
	<circle class="st17" cx="3203.3" cy="592.2" r="183"/>
	<path class="st17" d="M3582.4,664.2c0,17.4-3.4,34.1-9.6,49.3c-2.7,6.6-5.8,12.9-9.5,18.8c-7.6,12.5-17.3,23.6-28.4,32.8
		c-4.4,3.6-9.1,7-13.9,10h-138.9c-1.6-1-3.2-2-4.7-3.1c-16.5-11.4-30.3-26.4-40.1-44c-1.3-2.4-2.6-4.8-3.8-7.3
		c-8.2-17.1-12.8-36.3-12.8-56.5c0-16.5,3.1-32.3,8.7-46.9c10.2-26.6,28.9-49.1,52.7-64c20.1-12.6,43.9-19.9,69.5-19.9
		c3.9,0,7.9,0.2,11.7,0.5c57.1,5.1,103.6,46.8,115.9,101.4C3581.3,644.6,3582.4,654.3,3582.4,664.2z"/>
	<path class="st17" d="M3990.8,305.1V576c-34,33.1-80.5,53.5-131.8,53.5c-33,0-64-8.5-90.9-23.3c-23.1-12.7-43.2-30.1-59.1-50.8
		c-24.4-31.8-38.9-71.6-38.9-114.8c0-1.3,0-2.6,0-3.8c2-102.6,85.8-185.1,188.9-185.1C3910.2,251.6,3956.7,272,3990.8,305.1z"/>
	<circle class="st17" cx="3612.6" cy="583" r="157.2"/>
	<path class="st17" d="M3990.8,461.8v313.4h-267.5c-12.3-17.6-22-37.2-28.5-58.1c-6.3-20.1-9.6-41.4-9.6-63.6
		c0-21.2,3.1-41.7,8.9-61c3.9-12.9,8.9-25.4,15.1-37.1c10.2-19.5,23.3-37.3,38.7-52.7c38.5-38.4,91.6-62.1,150.3-62.1
		C3931.2,440.6,3962.7,448.2,3990.8,461.8z"/>
	<path class="st17" d="M3378.2,753.1c0,6.4-0.3,12.7-0.8,19c-0.1,1.1-0.2,2.1-0.3,3.1h-423.6c-0.8-7.3-1.1-14.6-1.1-22.1
		c0-30.4,6.4-59.3,17.9-85.5c11.8-26.9,29-50.8,50.2-70.5c21.5-20,47.2-35.6,75.7-45.4c21.7-7.5,45-11.5,69.2-11.5
		c66,0,125,30,164.1,77.2c15,18.1,27,38.7,35.4,61c2,5.3,3.8,10.6,5.3,16.1C3375.3,713.1,3378.2,732.7,3378.2,753.1z"/>
	<path class="st17" d="M3607.1,775.2h-292.3c4.8-17.1,12.4-33,22.5-47.1c9.1-12.8,20.2-24.2,32.8-33.6c25.3-19,56.8-30.3,90.9-30.3
		c6,0,11.9,0.3,17.7,1c23.8,2.8,46,11,65.1,23.5c10.7,7,20.5,15.3,29.1,24.7c7.1,7.7,13.4,16.2,18.8,25.3
		C3598.2,750.1,3603.5,762.3,3607.1,775.2z"/>
	<path class="st17" d="M3836.7,743.9c0,10.7-1.1,21.2-3.2,31.3h-296.9c-0.7-3.3-1.3-6.7-1.8-10c-1-7-1.5-14-1.5-21.3
		c0-8.2,0.6-16.2,1.9-24c1.7-10.8,4.6-21.2,8.4-31.1c7.9-20.3,20.1-38.5,35.5-53.5c27.3-26.6,64.7-43,105.9-43c3,0,5.9,0.1,8.9,0.3
		c26.6,1.5,51.3,9.9,72.4,23.3C3808.6,642.7,3836.7,690,3836.7,743.9z"/>
	<circle class="st17" cx="2509.4" cy="492.1" r="275.7"/>
	<path class="st17" d="M2758.2,673.4c0,24.8-4.2,48.6-12,70.8c-3.8,10.8-8.4,21.1-13.8,31h-374.2c-11.6-21.3-19.7-44.8-23.4-69.7
		c-1.6-10.5-2.4-21.2-2.4-32.1c0-74.9,38.7-140.8,97.2-178.8c33.3-21.6,73.1-34.2,115.7-34.2c53.2,0,101.9,19.5,139.2,51.8
		c33,28.5,57.1,66.9,67.7,110.7c0.1,0.3,0.2,0.7,0.3,1v0C2756.2,639.8,2758.2,656.4,2758.2,673.4z"/>
	<path class="st17" d="M3003.7,767.9c0,2.4-0.1,4.9-0.2,7.3h-333.3c-0.1-2.4-0.2-4.8-0.2-7.3c0-21.2,3.9-41.4,11.1-60
		c3.9-10,8.7-19.5,14.3-28.5c14-22.4,33.2-41.1,55.8-54.7c0,0,0,0,0,0c0.4-0.3,0.8-0.5,1.2-0.7v0c24.8-14.6,53.6-22.9,84.4-22.9
		c54.5,0,102.9,26.1,133.3,66.5c19.6,26,31.8,57.9,33.3,92.6C3003.6,762.8,3003.7,765.3,3003.7,767.9z"/>
	<path class="st17" d="M2444,583c0,59.4-18.8,114.3-50.7,159.3c-8.3,11.6-17.4,22.6-27.3,32.8h-295.3V325
		c30.3-11.5,63.2-17.8,97.5-17.8c41.4,0,80.8,9.1,116,25.5c38.5,17.9,72.2,44.4,98.5,77c20.2,25,36.2,53.7,46.7,84.8
		C2438.9,522.4,2444,552.1,2444,583z"/>
	<g class="st6">
		<polyline class="st18" points="3852.9,370.5 3852.9,96.7 3822.3,135.6 		"/>
		<polyline class="st18" points="3852.9,370.5 3852.9,96.7 3883.5,135.6 		"/>
	</g>
	<g class="st6">
		<polyline class="st18" points="3203.3,507.3 3203.3,233.6 3172.6,272.4 		"/>
		<polyline class="st18" points="3203.3,507.3 3203.3,233.6 3233.9,272.4 		"/>
	</g>
	<g class="st6">
		<polyline class="st18" points="2514.7,345.9 2514.7,72.2 2484,111 		"/>
		<polyline class="st18" points="2514.7,345.9 2514.7,72.2 2545.3,111 		"/>
	</g>
	<g class="st6">
		<polyline class="st18" points="2171.9,425.3 2171.9,151.6 2141.2,190.4 		"/>
		<polyline class="st18" points="2171.9,425.3 2171.9,151.6 2202.5,190.4 		"/>
	</g>
</g>
<rect x="0" y="0" class="st19" width="622.9" height="467.2"/>
<g>
	<circle class="st20" cx="121.1" cy="228.7" r="34.7"/>
	<circle class="st21" cx="512" cy="214.4" r="24.5"/>
	<g>
		<path d="M120.2,227.6c3,1.5,7.5,3,12.2,3c5,0,7.7-2.1,7.7-5.3c0-3-2.3-4.8-8.1-6.8c-8.1-2.8-13.3-7.3-13.3-14.3
			c0-8.3,6.9-14.6,18.4-14.6c5.5,0,9.5,1.2,12.4,2.4l-2.4,8.9c-1.9-0.9-5.4-2.3-10.2-2.3s-7.1,2.2-7.1,4.7c0,3.1,2.7,4.5,9,6.8
			c8.6,3.2,12.6,7.6,12.6,14.5c0,8.1-6.3,15-19.6,15c-5.5,0-11-1.4-13.8-3L120.2,227.6z"/>
		<path d="M167.2,224.8c0.4,4.5,4.8,6.7,9.9,6.7c3.7,0,6.8-0.5,9.7-1.4l1.4,7.4c-3.6,1.4-8,2.2-12.7,2.2c-12,0-18.8-6.9-18.8-17.9
			c0-8.9,5.5-18.8,17.8-18.8c11.4,0,15.7,8.9,15.7,17.6c0,1.9-0.2,3.5-0.4,4.3H167.2z M180.1,217.3c0-2.7-1.2-7.1-6.2-7.1
			c-4.6,0-6.5,4.2-6.8,7.1H180.1z"/>
		<path d="M196.8,187.8h10.9v51.1h-10.9V187.8z"/>
		<path d="M217.9,238.9v-27.1h-4.6v-8.1h4.6v-1.4c0-4.2,1.3-8.9,4.5-11.8c2.7-2.6,6.6-3.5,9.7-3.5c2.4,0,4.3,0.3,5.8,0.7l-0.4,8.4
			c-0.9-0.3-2.1-0.5-3.5-0.5c-3.6,0-5.1,2.8-5.1,6.3v1.8h7.1v8.1h-7v27.1H217.9z"/>
		<path d="M257.6,216.4v7.3h-18.9v-7.3H257.6z"/>
		<path d="M264.5,191.1c3.4-0.6,8.1-1,14.8-1c6.8,0,11.6,1.3,14.8,3.9c3.1,2.4,5.2,6.5,5.2,11.2s-1.6,8.8-4.5,11.5
			c-3.7,3.5-9.3,5.1-15.8,5.1c-1.4,0-2.7-0.1-3.7-0.2v17.4h-10.9V191.1z M275.4,213.1c0.9,0.2,2.1,0.3,3.7,0.3c5.8,0,9.4-3,9.4-7.9
			c0-4.5-3.1-7.1-8.6-7.1c-2.2,0-3.7,0.2-4.5,0.4V213.1z"/>
		<path d="M305.3,215.3c0-5.2-0.1-8.6-0.3-11.6h9.4l0.4,6.5h0.3c1.8-5.1,6.1-7.3,9.5-7.3c1,0,1.5,0,2.3,0.1v10.3
			c-0.8-0.1-1.7-0.3-3-0.3c-4,0-6.8,2.2-7.5,5.5c-0.1,0.7-0.2,1.6-0.2,2.4v17.9h-10.9V215.3z"/>
		<path d="M351.9,238.9l-0.6-3.5h-0.2c-2.3,2.8-5.9,4.3-10.1,4.3c-7.1,0-11.4-5.2-11.4-10.8c0-9.1,8.2-13.5,20.7-13.5V215
			c0-1.9-1-4.5-6.4-4.5c-3.6,0-7.4,1.2-9.7,2.7l-2-7.1c2.4-1.4,7.3-3.1,13.7-3.1c11.7,0,15.5,6.9,15.5,15.2v12.2
			c0,3.4,0.1,6.6,0.5,8.6H351.9z M350.6,222.3c-5.8-0.1-10.2,1.3-10.2,5.5c0,2.8,1.9,4.2,4.3,4.2c2.7,0,5-1.8,5.7-4
			c0.1-0.6,0.2-1.2,0.2-1.9V222.3z"/>
		<path d="M396.3,238.1c-1.9,0.9-5.6,1.6-9.8,1.6c-11.4,0-18.7-6.9-18.7-18c0-10.3,7.1-18.7,20.2-18.7c2.9,0,6,0.5,8.4,1.4l-1.7,8.1
			c-1.3-0.6-3.2-1.1-6.1-1.1c-5.8,0-9.5,4.1-9.4,9.9c0,6.5,4.3,9.9,9.6,9.9c2.6,0,4.6-0.4,6.3-1.1L396.3,238.1z"/>
		<path d="M415.8,193.7v10.1h7.8v8.1h-7.8v12.7c0,4.2,1,6.2,4.3,6.2c1.4,0,2.4-0.1,3.2-0.3l0.1,8.3c-1.4,0.6-4,0.9-7.1,0.9
			c-3.5,0-6.5-1.2-8.2-3c-2-2.1-3-5.5-3-10.4v-14.4h-4.7v-8.1h4.7v-7.6L415.8,193.7z"/>
		<path d="M441.3,193.9c0,3-2.3,5.5-5.9,5.5c-3.5,0-5.8-2.4-5.7-5.5c-0.1-3.2,2.2-5.5,5.8-5.5S441.2,190.8,441.3,193.9z M430,238.9
			v-35.2h10.9v35.2H430z"/>
		<path d="M476.1,238.1c-1.9,0.9-5.6,1.6-9.8,1.6c-11.4,0-18.7-6.9-18.7-18c0-10.3,7.1-18.7,20.2-18.7c2.9,0,6,0.5,8.4,1.4l-1.7,8.1
			c-1.3-0.6-3.2-1.1-6.1-1.1c-5.8,0-9.5,4.1-9.4,9.9c0,6.5,4.3,9.9,9.6,9.9c2.6,0,4.6-0.4,6.3-1.1L476.1,238.1z"/>
		<path d="M489.8,224.8c0.4,4.5,4.8,6.7,9.9,6.7c3.7,0,6.8-0.5,9.7-1.4l1.4,7.4c-3.6,1.4-8,2.2-12.7,2.2c-12,0-18.8-6.9-18.8-17.9
			c0-8.9,5.5-18.8,17.8-18.8c11.4,0,15.7,8.9,15.7,17.6c0,1.9-0.2,3.5-0.4,4.3H489.8z M502.7,217.3c0-2.7-1.2-7.1-6.2-7.1
			c-4.6,0-6.5,4.2-6.8,7.1H502.7z"/>
	</g>
	<g>
		<path d="M240.8,270.8h-4.4V270h9.8v0.8h-4.4v12.7h-1V270.8z"/>
		<path d="M247.4,269.3h1v6.3h0c0.3-0.5,0.7-1.1,1.3-1.4c0.6-0.4,1.2-0.6,1.9-0.6c0.9,0,3.3,0.5,3.3,4v5.8h-1v-5.7
			c0-1.7-0.7-3.3-2.6-3.3c-1.4,0-2.5,1-2.9,2.2c-0.1,0.3-0.1,0.6-0.1,1v5.9h-1V269.3z"/>
		<path d="M258.3,278.6c0,3.1,1.7,4.3,3.7,4.3c1.4,0,2.1-0.3,2.7-0.5l0.2,0.7c-0.4,0.2-1.3,0.6-3,0.6c-2.8,0-4.5-2-4.5-4.8
			c0-3.2,1.8-5.2,4.3-5.2c3.1,0,3.7,3,3.7,4.3c0,0.3,0,0.4,0,0.6H258.3z M264.4,277.9c0-1.3-0.5-3.4-2.9-3.4c-2.1,0-3,1.9-3.2,3.4
			H264.4z"/>
		<path d="M275.1,270h1v9.3c0,3.4-1.7,4.4-3.6,4.4c-0.6,0-1.3-0.2-1.6-0.3l0.2-0.8c0.3,0.1,0.8,0.3,1.4,0.3c1.7,0,2.7-0.8,2.7-3.8
			V270z"/>
		<path d="M287.4,278.6c0,3.6-2.5,5.1-4.6,5.1c-2.5,0-4.4-1.9-4.4-4.9c0-3.3,2.2-5.1,4.5-5.1C285.6,273.7,287.4,275.7,287.4,278.6z
			 M279.4,278.7c0,2.4,1.5,4.2,3.5,4.2c2,0,3.6-1.8,3.6-4.3c0-1.8-1-4.2-3.5-4.2C280.5,274.5,279.4,276.7,279.4,278.7z"/>
		<path d="M297.2,281.2c0,0.8,0,1.6,0.1,2.3h-0.9l-0.1-1.7h0c-0.5,0.9-1.6,1.9-3.3,1.9c-1.2,0-3.3-0.6-3.3-4.2v-5.6h1v5.4
			c0,2.1,0.6,3.6,2.5,3.6c1.4,0,2.4-1,2.8-1.9c0.1-0.3,0.2-0.7,0.2-1.1v-6h1V281.2z"/>
		<path d="M300.4,276.8c0-1,0-1.9-0.1-2.9h0.9l0,1.9h0.1c0.4-1.2,1.4-2.2,2.7-2.2c0.1,0,0.3,0,0.4,0v0.9c-0.1,0-0.3,0-0.5,0
			c-1.3,0-2.3,1.1-2.5,2.7c-0.1,0.3-0.1,0.6-0.1,0.9v5.3h-1V276.8z"/>
		<path d="M306.5,276.2c0-0.9,0-1.5-0.1-2.3h0.9l0.1,1.7h0c0.5-1.1,1.7-2,3.3-2c0.9,0,3.4,0.5,3.4,4.1v5.8h-1v-5.7
			c0-1.7-0.7-3.3-2.7-3.3c-1.3,0-2.5,1-2.9,2.2c-0.1,0.2-0.1,0.6-0.1,0.9v5.9h-1V276.2z"/>
		<path d="M317.4,278.6c0,3.1,1.7,4.3,3.7,4.3c1.4,0,2.1-0.3,2.7-0.5l0.2,0.7c-0.4,0.2-1.3,0.6-3,0.6c-2.8,0-4.5-2-4.5-4.8
			c0-3.2,1.8-5.2,4.3-5.2c3.1,0,3.7,3,3.7,4.3c0,0.3,0,0.4,0,0.6H317.4z M323.5,277.9c0-1.3-0.5-3.4-2.9-3.4c-2.1,0-3,1.9-3.2,3.4
			H323.5z"/>
		<path d="M326.6,273.9l2.5,6.3c0.3,0.7,0.5,1.5,0.7,2.1h0c0.2-0.6,0.4-1.3,0.7-2.1l2.3-6.2h1l-2.9,7.2c-1.2,3-2,4.8-3.2,5.9
			c-0.8,0.6-1.4,0.9-1.7,1l-0.3-0.8c0.5-0.2,1.1-0.5,1.7-1.1c0.5-0.5,1.1-1.3,1.6-2.4c0.1-0.2,0.1-0.3,0.1-0.4c0-0.1,0-0.2-0.1-0.4
			l-3.6-8.9H326.6z"/>
		<path d="M351.6,277.1c-0.1-2-0.3-4.5-0.3-6h0c-0.5,1.5-1,3-1.8,5l-2.8,7.3h-0.7l-2.7-7.2c-0.8-2.1-1.3-3.7-1.7-5.2h0
			c0,1.6-0.1,3.9-0.3,6.2l-0.4,6.2h-0.9l1-13.5h1.1l2.9,7.8c0.6,1.7,1.1,3.1,1.5,4.4h0.1c0.3-1.2,0.8-2.6,1.5-4.4l3-7.8h1.1
			l0.9,13.5H352L351.6,277.1z"/>
		<path d="M361.9,281.2c0,0.8,0,1.5,0.1,2.3h-0.9l-0.1-1.4h0c-0.5,0.7-1.5,1.6-3.1,1.6c-1.9,0-2.8-1.4-2.8-2.6
			c0-2.2,1.9-3.6,5.9-3.5v-0.3c0-0.9-0.2-2.8-2.5-2.8c-0.8,0-1.7,0.2-2.4,0.7l-0.3-0.7c0.9-0.6,2-0.8,2.8-0.8c2.8,0,3.3,2.1,3.3,3.8
			V281.2z M360.9,278.4c-2.1-0.1-4.9,0.3-4.9,2.6c0,1.4,0.9,2,1.9,2c1.6,0,2.5-1,2.8-1.9c0.1-0.2,0.1-0.4,0.1-0.6V278.4z"/>
		<path d="M365,276.8c0-1,0-1.9-0.1-2.9h0.9l0,1.9h0.1c0.4-1.2,1.4-2.2,2.7-2.2c0.1,0,0.3,0,0.4,0v0.9c-0.1,0-0.3,0-0.5,0
			c-1.3,0-2.3,1.1-2.5,2.7c-0.1,0.3-0.1,0.6-0.1,0.9v5.3h-1V276.8z"/>
		<path d="M372,278.5L372,278.5c0.3-0.3,0.7-0.7,1-1.1l3.4-3.6h1.2l-3.9,4l4.4,5.6h-1.2l-3.9-5l-1,1v4h-1v-14.2h1V278.5z"/>
		<path d="M379.9,278.6c0,3.1,1.7,4.3,3.7,4.3c1.4,0,2.1-0.3,2.7-0.5l0.2,0.7c-0.4,0.2-1.3,0.6-3,0.6c-2.8,0-4.5-2-4.5-4.8
			c0-3.2,1.8-5.2,4.3-5.2c3.1,0,3.7,3,3.7,4.3c0,0.3,0,0.4,0,0.6H379.9z M386,277.9c0-1.3-0.5-3.4-2.9-3.4c-2.1,0-3,1.9-3.2,3.4H386
			z"/>
		<path d="M389.4,276.8c0-1,0-1.9-0.1-2.9h0.9l0,1.9h0.1c0.4-1.2,1.4-2.2,2.7-2.2c0.1,0,0.3,0,0.4,0v0.9c-0.1,0-0.3,0-0.5,0
			c-1.3,0-2.3,1.1-2.5,2.7c-0.1,0.3-0.1,0.6-0.1,0.9v5.3h-1V276.8z"/>
	</g>
</g>
</svg>
