<?xml version="1.0" encoding="utf-8"?>
<!-- Generator: Adobe Illustrator 23.1.0, SVG Export Plug-In . SVG Version: 6.00 Build 0)  -->
<svg version="1.1" id="Layer_1" xmlns="http://www.w3.org/2000/svg" xmlns:xlink="http://www.w3.org/1999/xlink" x="0px" y="0px"
	 viewBox="0 0 500 500" style="enable-background:new 0 0 500 500;" xml:space="preserve">
<style type="text/css">
	.st0{fill:#FFFFFF;stroke:#000000;stroke-width:2;stroke-miterlimit:10;}
	.st1{stroke:#000000;stroke-width:2;stroke-miterlimit:10;}
	.st2{display:none;fill:#FFFFFF;}
	.st3{display:none;}
	.st4{display:inline;fill:#FFFFFF;stroke:#000000;stroke-miterlimit:10;}
	.st5{display:inline;}
	.st6{fill:none;stroke:#000000;stroke-miterlimit:10;}
	.st7{display:inline;fill:none;stroke:#000000;stroke-miterlimit:10;}
	.st8{display:inline;fill:#FFFFFF;stroke:#000000;stroke-width:2;stroke-miterlimit:10;}
	.st9{fill:#FFFFFF;stroke:#000000;stroke-miterlimit:10;}
	.st10{fill:#FFFFFF;stroke:#000000;}
	.st11{stroke:#000000;}
	.st12{fill:#FFFFFF;stroke:#000000;stroke-linecap:round;stroke-linejoin:round;stroke-miterlimit:10;}
	.st13{fill:#262626;stroke:#000000;stroke-linecap:round;stroke-linejoin:round;stroke-miterlimit:10;}
	.st14{fill:none;stroke:#000000;stroke-linecap:round;stroke-linejoin:round;stroke-miterlimit:10;}
	.st15{display:inline;stroke:#000000;stroke-miterlimit:10;}
</style>
<g>
	<path class="st0" d="M6.9,241.2l194.5-18.5c3.1-0.3,5.7,3.7,5.7,8.8v36.9c0,5.1-2.6,9.1-5.7,8.8L6.9,258.8c-2.8-0.3-5-4.1-5-8.8
		l0,0C1.9,245.3,4.1,241.4,6.9,241.2z"/>
	<path class="st0" d="M353.6,154.4v191.2H209.8c-52.8,0-95.6-42.8-95.6-95.6s42.8-95.6,95.6-95.6L353.6,154.4L353.6,154.4z"/>
	<circle class="st0" cx="353.6" cy="250" r="95.6"/>
	<path class="st0" d="M391,142.9v214.2h-37.4c-59.1,0-107.1-48-107.1-107.1s48-107.1,107.1-107.1L391,142.9L391,142.9z"/>
	<circle class="st0" cx="391" cy="250" r="107.1"/>
	<circle class="st0" cx="391" cy="250" r="80.7"/>
	<path class="st1" d="M471.7,250c0,44.5-36.1,80.7-80.7,80.7c-2.8,0-5.5-0.1-8.2-0.4c40.7-4.1,72.5-38.5,72.5-80.3
		s-31.8-76.2-72.5-80.3c2.7-0.3,5.4-0.4,8.2-0.4C435.6,169.3,471.7,205.4,471.7,250z"/>
</g>
<rect y="500" class="st2" width="500" height="500"/>
<rect x="-500" y="500" class="st2" width="500" height="500"/>
<rect x="-500" class="st2" width="500" height="500"/>
<g class="st3">
	<path class="st4" d="M-175,750v11.4c0,41.4-33.6,75-75,75s-75-33.6-75-75V750H-175z"/>
	<circle class="st4" cx="-250" cy="750" r="75"/>
	<circle class="st4" cx="-250" cy="750" r="65"/>
	<g class="st5">
		<line class="st6" x1="-250" y1="836.4" x2="-250" y2="825"/>
		<line class="st6" x1="-203.9" y1="820.6" x2="-203.9" y2="809.2"/>
		<line class="st6" x1="-296.1" y1="809.2" x2="-296.1" y2="820.6"/>
	</g>
	<path class="st7" d="M-250,750"/>
	<circle class="st4" cx="-232.3" cy="726" r="16.5"/>
	<path class="st4" d="M-306.1,769.8h12.7c2,0,3.7-1.6,3.7-3.7V747c0-2,1.6-3.7,3.7-3.7h9.7c2,0,3.7-1.6,3.7-3.7v-20.9
		c0-2,1.6-3.7,3.7-3.7h10c2,0,3.7,1.6,3.7,3.7v26c0,2,1.6,3.7,3.7,3.7h2.9c2,0,3.7-1.6,3.7-3.7V728c0-2,1.6-3.7,3.7-3.7h6.3
		c2,0,3.7,1.6,3.7,3.7v5.8c0,2,1.6,3.7,3.7,3.7h1c2,0,3.7,1.6,3.7,3.7v12.3c0,2,1.6,3.7,3.7,3.7l0,0c2,0,3.7,1.6,3.7,3.7v5.3
		c0,2,1.6,3.7,3.7,3.7h15.1"/>
	<path class="st4" d="M-279,769.8h4c2,0,3.6-1.6,3.6-3.6V759c0-2,1.6-3.6,3.6-3.6h5.2c2,0,3.6,1.6,3.6,3.6l0,0c0,2,1.6,3.6,3.6,3.6
		h18.5c2,0,3.6,1.6,3.6,3.6l0,0c0,2,1.6,3.6,3.6,3.6h3"/>
</g>
<g class="st3">
	<circle class="st8" cx="250" cy="765.3" r="165"/>
	<g class="st5">
		<circle class="st0" cx="250" cy="750" r="165"/>
		<circle class="st9" cx="250" cy="750" r="150"/>
		<circle class="st10" cx="250" cy="565.7" r="34.3"/>
		<g>
			<path class="st11" d="M236.6,581.9v-32.4h8.5l6.7,11.9c1.9,3.4,3.8,7.4,5.3,11.1h0.1c-0.5-4.3-0.6-8.6-0.6-13.5v-9.5h6.7v32.4
				h-7.7l-6.9-12.5c-1.9-3.5-4-7.6-5.6-11.4H243c0.2,4.3,0.3,8.8,0.3,14.1v9.7h-6.7V581.9z"/>
		</g>
	</g>
</g>
<g class="st3">
	<g class="st5">
		<g>
			<polygon class="st12" points="400,750 273.6,769.7 250,773.4 250,750 			"/>
		</g>
		<g>
			<polygon class="st12" points="400,750 250,750 250,726.6 250,726.6 273.6,730.3 			"/>
		</g>
	</g>
	<g class="st5">
		<g>
			<polygon class="st13" points="250,726.6 250,750 100,750 226.4,730.3 			"/>
		</g>
		<g>
			<polygon class="st13" points="250,750 250,773.4 226.4,769.7 100,750 			"/>
			<line class="st14" x1="250" y1="773.4" x2="250" y2="773.4"/>
			<line class="st14" x1="250" y1="773.4" x2="250" y2="773.4"/>
		</g>
	</g>
	<g class="st5">
		<circle class="st12" cx="250" cy="750" r="19"/>
		<circle class="st12" cx="250" cy="750" r="10"/>
	</g>
</g>
<g class="st3">
	<path class="st15" d="M-50.9,261.2c0,19.4-15.7,35.1-35.1,35.1h-328.6c-28.5,0-51.6-23.1-51.6-51.6s23.1-51.6,51.6-51.6
		c5.4,0,10.6,0.8,15.5,2.4c0-0.8,0-1.6,0-2.4c0-39.2,31.8-71,71-71c26.4,0,49.5,14.4,61.7,35.9c0.3,0,0.7,0,1,0
		c12.3,0,23.2,6.4,29.5,16c9.4-9.9,22.6-16,37.3-16c23.4,0,43.2,15.6,49.5,37c4.9-2.6,10.5-4.1,16.4-4.1c19.4,0,35.1,15.7,35.1,35.1
		c0,0.7,0,1.3-0.1,2c3.6-1.3,7.5-2,11.6-2C-66.7,226.1-50.9,241.8-50.9,261.2z"/>
	<path class="st4" d="M-42.7,278.7c0,20.2-16.3,36.5-36.5,36.5h-341.6c-29.6,0-53.6-24-53.6-53.6s24-53.6,53.6-53.6
		c5.6,0,11,0.9,16.1,2.5c0-0.8,0-1.6,0-2.5c0-40.8,33-73.8,73.8-73.8c27.5,0,51.4,15,64.1,37.3c0.4,0,0.7,0,1.1,0
		c12.8,0,24.1,6.6,30.6,16.6c9.8-10.3,23.5-16.6,38.8-16.6c24.4,0,44.9,16.2,51.5,38.5c5.1-2.7,10.9-4.3,17.1-4.3
		c20.2,0,36.5,16.4,36.5,36.5c0,0.7,0,1.4-0.1,2c3.8-1.3,7.8-2,12.1-2C-59,242.2-42.7,258.6-42.7,278.7z"/>
	<path class="st15" d="M-414.9,271.9c0-17.8,14.4-32.2,32.2-32.2c8.7,0,16.5,3.4,22.3,9c4.2-18.5,20.8-32.3,40.6-32.3
		c20.5,0,37.6,14.9,41,34.5c6-7.3,15.2-11.9,25.4-11.9c13.2,0,24.6,7.8,29.9,19.1c4.7-4.2,10.9-6.7,17.7-6.7
		c14.8,0,26.7,12,26.7,26.7"/>
	<path class="st15" d="M-264.9,223.7c0-13.6,11-24.6,24.6-24.6c10.8,0,20,7,23.3,16.7c4.4-4.1,10.3-6.6,16.8-6.6
		c13.6,0,24.6,11,24.6,24.6"/>
	<path class="st15" d="M-374.7,200.8c0-16,13-28.9,28.9-28.9c16,0,28.9,13,28.9,28.9"/>
	<path class="st4" d="M-418.5,281.9c0-18.3,14.9-33.2,33.2-33.2c8.9,0,17.1,3.5,23,9.3c4.4-19.1,21.4-33.3,41.8-33.3
		c21.2,0,38.8,15.4,42.3,35.5c6.2-7.5,15.6-12.3,26.2-12.3c13.6,0,25.4,8,30.8,19.7c4.9-4.3,11.2-6.9,18.2-6.9
		c15.2,0,27.6,12.4,27.6,27.6"/>
	<path class="st4" d="M-268.4,232.6c0-14.7,11.9-26.5,26.6-26.5c11.7,0,21.6,7.5,25.1,18c4.7-4.4,11.1-7.1,18.1-7.1
		c14.7,0,26.5,11.9,26.5,26.6"/>
	<path class="st4" d="M-376.4,209.3c0-16.9,13.7-30.6,30.6-30.6s30.6,13.7,30.6,30.6"/>
</g>
</svg>
