<?xml version="1.0" encoding="utf-8"?>
<!-- Generator: Adobe Illustrator 23.1.0, SVG Export Plug-In . SVG Version: 6.00 Build 0)  -->
<svg version="1.1" id="Layer_1" xmlns="http://www.w3.org/2000/svg" xmlns:xlink="http://www.w3.org/1999/xlink" x="0px" y="0px"
	 viewBox="0 0 30.5 30.6" style="enable-background:new 0 0 30.5 30.6;" xml:space="preserve">
<style type="text/css">
	.st0{display:none;fill:#FFFFFF;}
	.st1{display:none;}
	.st2{display:inline;}
	.st3{stroke:#000000;stroke-linecap:round;stroke-linejoin:round;stroke-miterlimit:10;}
	.st4{fill:#FFFFFF;stroke:#000000;stroke-linecap:round;stroke-linejoin:round;stroke-miterlimit:10;}
	.st5{display:inline;fill:#FFFFFF;stroke:#000000;stroke-linecap:round;stroke-linejoin:round;stroke-miterlimit:10;}
	.st6{display:inline;fill:#FFFFFF;}
	.st7{display:inline;fill:none;stroke:#000000;stroke-linecap:round;stroke-linejoin:round;stroke-miterlimit:10;}
	.st8{fill:none;stroke:#000000;stroke-linecap:round;stroke-linejoin:round;stroke-miterlimit:10;}
	.st9{stroke:#000000;stroke-miterlimit:10;}
	.st10{fill:#FFFFFF;stroke:#000000;stroke-miterlimit:10;}
	.st11{fill:#FFFFFF;}
</style>
<rect x="-284.8" y="-188.5" class="st0" width="600" height="300"/>
<g class="st1">
	<g class="st2">
		<path class="st3" d="M-284.8-13.1v-98.2c0-3,2.4-5.4,5.4-5.4h9.1c3,0,5.4,2.4,5.4,5.4v38.8c0,3,2.4,5.4,5.4,5.4h5.1
			c3,0,5.4-2.4,5.4-5.4v-14.8c0-3,2.4-5.4,5.4-5.4h11.2c3,0,5.4,2.4,5.4,5.4v35.1c0,3,2.4,5.4,5.4,5.4h8.7c3,0,5.4-2.4,5.4-5.4
			v-90.2c0-3,2.4-5.4,5.4-5.4h15.8c3,0,5.4,2.4,5.4,5.4v42.4c0,3,2.4,5.4,5.4,5.4h7.1c3,0,5.4-2.4,5.4-5.4v-5.1c0-3,2.4-5.4,5.4-5.4
			h13.3c3,0,5.4,2.4,5.4,5.4v34.7c0,3,2.4,5.4,5.4,5.4h22.5c3,0,5.4,2.4,5.4,5.4v2.9c0,3,2.4,5.4,5.4,5.4h7c3,0,5.4-2.4,5.4-5.4
			v-22.9c0-3,2.4-5.4,5.4-5.4h36.8c3,0,5.4,2.4,5.4,5.4v4.9c0,3,2.4,5.4,5.4,5.4h20.3c3,0,5.4-2.4,5.4-5.4v-4.9c0-3,2.4-5.4,5.4-5.4
			h30.8c3,0,5.4,2.4,5.4,5.4v7.1c0,3,2.4,5.4,5.4,5.4h5.8c3,0,5.4-2.4,5.4-5.4v-18.9c0-3,2.4-5.4,5.4-5.4h14.5c3,0,5.4,2.4,5.4,5.4
			v16.6c0,3,2.4,5.4,5.4,5.4h11.7c3,0,5.4-2.4,5.4-5.4v-32.9c0-3,2.4-5.4,5.4-5.4h19.7c3,0,5.4,2.4,5.4,5.4v0c0,3,2.4,5.4,5.4,5.4
			h8.7c3,0,5.4-2.4,5.4-5.4v-39.9c0-3,2.4-5.4,5.4-5.4h13.8c3,0,5.4,2.4,5.4,5.4v20.5c0,3,2.4,5.4,5.4,5.4h11.7c3,0,5.4,2.4,5.4,5.4
			v34.7c0,3,2.4,5.4,5.4,5.4h14.3c3,0,5.4-2.4,5.4-5.4v-10.7c0-3,2.4-5.4,5.4-5.4h17.9c3,0,5.4,2.4,5.4,5.4v44.2
			c0,3,2.4,5.4,5.4,5.4h13.3c3,0,5.4-2.4,5.4-5.4v-81c0-3,2.4-5.4,5.4-5.4h13.3c3,0,5.4,2.4,5.4,5.4v58.7c0,3,2.4,5.4,5.4,5.4h10.3
			c3,0,5.4-2.4,5.4-5.4v-40.9c0-3,2.4-5.4,5.4-5.4h9.1c3,0,5.4,2.4,5.4,5.4v38.8c0,3,2.4,5.4,5.4,5.4h5.1c3,0,5.4-2.4,5.4-5.4v-14.8
			c0-3,2.4-5.4,5.4-5.4h11.2c3,0,5.4,2.4,5.4,5.4v35.1c0,3,2.4,5.4,5.4,5.4h8.7c3,0,5.4-2.4,5.4-5.4v-90.2c0-3,2.4-5.4,5.4-5.4h15.8
			c3,0,5.4,2.4,5.4,5.4v42.4c0,3,2.4,5.4,5.4,5.4h7.1c3,0,5.4-2.4,5.4-5.4v-5.1c0-3,2.4-5.4,5.4-5.4h13.3c3,0,5.4,2.4,5.4,5.4v34.7
			c0,3,2.4,5.4,5.4,5.4h22.5c3,0,5.4,2.4,5.4,5.4v2.9c0,3,2.4,5.4,5.4,5.4h7c3,0,5.4-2.4,5.4-5.4v-22.9c0-3,2.4-5.4,5.4-5.4h36.8
			c3,0,5.4,2.4,5.4,5.4v4.9c0,3,2.4,5.4,5.4,5.4h20.3c3,0,5.4-2.4,5.4-5.4v-4.9c0-3,2.4-5.4,5.4-5.4h30.8c3,0,5.4,2.4,5.4,5.4v7.1
			c0,3,2.4,5.4,5.4,5.4h5.8c3,0,5.4-2.4,5.4-5.4v-18.9c0-3,2.4-5.4,5.4-5.4h14.5c3,0,5.4,2.4,5.4,5.4v16.6c0,3,2.4,5.4,5.4,5.4h11.7
			c3,0,5.4-2.4,5.4-5.4v-32.9c0-3,2.4-5.4,5.4-5.4h19.7c3,0,5.4,2.4,5.4,5.4v0c0,3,2.4,5.4,5.4,5.4h8.7c3,0,5.4-2.4,5.4-5.4v-39.9
			c0-3,2.4-5.4,5.4-5.4h13.8c3,0,5.4,2.4,5.4,5.4v20.5c0,3,2.4,5.4,5.4,5.4h11.7c3,0,5.4,2.4,5.4,5.4v34.7c0,3,2.4,5.4,5.4,5.4h14.3
			c3,0,5.4-2.4,5.4-5.4v-10.7c0-3,2.4-5.4,5.4-5.4h17.9c3,0,5.4,2.4,5.4,5.4v44.2c0,3,2.4,5.4,5.4,5.4h13.3c3,0,5.4-2.4,5.4-5.4v-81
			c0-3,2.4-5.4,5.4-5.4h13.3c3,0,5.4,2.4,5.4,5.4v110.4c0,3,2.4,5.4,5.4,5.4h15.7"/>
		<path class="st4" d="M915.2-11.6h-15.7c-3,0-5.4-2.4-5.4-5.4l0-105.7c0-3-2.4-5.4-5.4-5.4h-13.3c-3,0-5.4,2.4-5.4,5.4v81
			c0,3-2.4,5.4-5.4,5.4h-13.3c-3,0-5.4-2.4-5.4-5.4v-44.2c0-3-2.4-5.4-5.4-5.4h-17.9c-3,0-5.4,2.4-5.4,5.4v10.7c0,3-2.4,5.4-5.4,5.4
			h-14.3c-3,0-5.4-2.4-5.4-5.4v-34.7c0-3-2.4-5.4-5.4-5.4h-11.7c-3,0-5.4-2.4-5.4-5.4v-20.5c0-3-2.4-5.4-5.4-5.4h-13.8
			c-3,0-5.4,2.4-5.4,5.4v39.9c0,3-2.4,5.4-5.4,5.4h-8.7c-3,0-5.4-2.4-5.4-5.4v0c0-3-2.4-5.4-5.4-5.4H701c-3,0-5.4,2.4-5.4,5.4v32.9
			c0,3-2.4,5.4-5.4,5.4h-11.7c-3,0-5.4-2.4-5.4-5.4v-16.6c0-3-2.4-5.4-5.4-5.4h-14.5c-3,0-5.4,2.4-5.4,5.4V-66c0,3-2.4,5.4-5.4,5.4
			H637c-3,0-5.4-2.4-5.4-5.4v-7.1c0-3-2.4-5.4-5.4-5.4h-30.8c-3,0-5.4,2.4-5.4,5.4v4.9c0,3-2.4,5.4-5.4,5.4h-20.3
			c-3,0-5.4-2.4-5.4-5.4v-4.9c0-3-2.4-5.4-5.4-5.4h-36.8c-3,0-5.4,2.4-5.4,5.4v22.9c0,3-2.4,5.4-5.4,5.4h-7c-3,0-5.4-2.4-5.4-5.4
			v-2.9c0-3-2.4-5.4-5.4-5.4h-22.5c-3,0-5.4-2.4-5.4-5.4v-34.7c0-3-2.4-5.4-5.4-5.4h-13.3c-3,0-5.4,2.4-5.4,5.4v5.1
			c0,3-2.4,5.4-5.4,5.4h-7.1c-3,0-5.4-2.4-5.4-5.4v-42.4c0-3-2.4-5.4-5.4-5.4h-15.8c-3,0-5.4,2.4-5.4,5.4v90.2c0,3-2.4,5.4-5.4,5.4
			h-8.7c-3,0-5.4-2.4-5.4-5.4v-35.1c0-3-2.4-5.4-5.4-5.4h-11.2c-3,0-5.4,2.4-5.4,5.4V-66c0,3-2.4,5.4-5.4,5.4h-5.1
			c-3,0-5.4-2.4-5.4-5.4v-38.8c0-3-2.4-5.4-5.4-5.4h-9.1c-3,0-5.4,2.4-5.4,5.4v40.9c0,3-2.4,5.4-5.4,5.4h-10.3c-3,0-5.4-2.4-5.4-5.4
			v-58.7c0-3-2.4-5.4-5.4-5.4h-13.3c-3,0-5.4,2.4-5.4,5.4v81c0,3-2.4,5.4-5.4,5.4h-13.3c-3,0-5.4-2.4-5.4-5.4v-44.2
			c0-3-2.4-5.4-5.4-5.4h-17.9c-3,0-5.4,2.4-5.4,5.4v10.7c0,3-2.4,5.4-5.4,5.4h-14.3c-3,0-5.4-2.4-5.4-5.4v-34.7c0-3-2.4-5.4-5.4-5.4
			h-11.7c-3,0-5.4-2.4-5.4-5.4v-20.5c0-3-2.4-5.4-5.4-5.4h-13.8c-3,0-5.4,2.4-5.4,5.4v39.9c0,3-2.4,5.4-5.4,5.4h-8.7
			c-3,0-5.4-2.4-5.4-5.4v0c0-3-2.4-5.4-5.4-5.4H101c-3,0-5.4,2.4-5.4,5.4v32.9c0,3-2.4,5.4-5.4,5.4H78.6c-3,0-5.4-2.4-5.4-5.4v-16.6
			c0-3-2.4-5.4-5.4-5.4H53.5c-3,0-5.4,2.4-5.4,5.4V-66c0,3-2.4,5.4-5.4,5.4H37c-3,0-5.4-2.4-5.4-5.4v-7.1c0-3-2.4-5.4-5.4-5.4H-4.6
			c-3,0-5.4,2.4-5.4,5.4v4.9c0,3-2.4,5.4-5.4,5.4h-20.3c-3,0-5.4-2.4-5.4-5.4v-4.9c0-3-2.4-5.4-5.4-5.4h-36.8c-3,0-5.4,2.4-5.4,5.4
			v22.9c0,3-2.4,5.4-5.4,5.4h-7c-3,0-5.4-2.4-5.4-5.4v-2.9c0-3-2.4-5.4-5.4-5.4h-22.5c-3,0-5.4-2.4-5.4-5.4v-34.7
			c0-3-2.4-5.4-5.4-5.4h-13.3c-3,0-5.4,2.4-5.4,5.4v5.1c0,3-2.4,5.4-5.4,5.4h-7.1c-3,0-5.4-2.4-5.4-5.4v-42.4c0-3-2.4-5.4-5.4-5.4
			h-15.8c-3,0-5.4,2.4-5.4,5.4v90.2c0,3-2.4,5.4-5.4,5.4h-8.7c-3,0-5.4-2.4-5.4-5.4v-35.1c0-3-2.4-5.4-5.4-5.4h-11.2
			c-3,0-5.4,2.4-5.4,5.4V-66c0,3-2.4,5.4-5.4,5.4h-5.1c-3,0-5.4-2.4-5.4-5.4v-38.8c0-3-2.4-5.4-5.4-5.4h-9.1c-3,0-5.4,2.4-5.4,5.4
			v93.2"/>
	</g>
	<polygon class="st5" points="15.2,-161.9 24.5,-172.2 23.8,-158.3 37.7,-159 27.3,-149.7 37.7,-140.4 23.8,-141.1 24.5,-127.2 
		15.2,-137.5 5.8,-127.2 6.5,-141.1 -7.3,-140.4 3,-149.7 -7.3,-159 6.5,-158.3 5.8,-172.2 	"/>
	<g class="st2">
		<path class="st3" d="M31.6,99c-3.8,5-9.7,8.2-16.4,8.2C3.8,107.2-5.4,98-5.4,86.6C-5.4,75.2,3.8,66,15.2,66
			c6.7,0,12.7,3.2,16.4,8.2c-2-1.1-4.4-1.8-6.8-1.8c-7.8,0-14.2,6.3-14.2,14.2c0,7.8,6.3,14.2,14.2,14.2
			C27.2,100.8,29.6,100.1,31.6,99z"/>
		<path class="st3" d="M31.6,100.4c-3.8,5-9.7,8.2-16.4,8.2C3.8,108.6-5.4,99.4-5.4,88c0-11.4,9.2-20.6,20.6-20.6
			c6.7,0,12.7,3.2,16.4,8.2c-2-1.1-4.4-1.8-6.8-1.8c-7.8,0-14.2,6.3-14.2,14.2c0,7.8,6.3,14.2,14.2,14.2
			C27.2,102.2,29.6,101.6,31.6,100.4z"/>
	</g>
	<rect x="-284.8" y="61.5" class="st6" width="600" height="50"/>
	<line class="st7" x1="-284.8" y1="61.5" x2="315.2" y2="61.5"/>
	<g class="st2">
		<g>
			
				<rect x="40.4" y="12.3" transform="matrix(0.7071 -0.7071 0.7071 0.7071 -1.444690e-02 34.2189)" class="st4" width="1.7" height="9.7"/>
			
				<rect x="36.8" y="8.8" transform="matrix(0.7071 0.7071 -0.7071 0.7071 20.6439 -22.6037)" class="st4" width="1.7" height="9.7"/>
		</g>
		<polygon class="st4" points="99.1,37 -56,37 -56,19.6 91.3,19.6 		"/>
		<polygon class="st4" points="52.5,19.6 45.9,-1.8 43.7,-1.8 43.7,19.6 		"/>
		<rect x="-56" y="37" class="st4" width="155.1" height="9.7"/>
		<polygon class="st4" points="6.3,19.6 6.3,12.5 9,12.5 12.6,19.6 		"/>
		<polygon class="st4" points="92.2,21.6 99.1,21.6 99.1,29.9 96,29.9 		"/>
		<rect x="1.3" y="46.7" class="st4" width="42.4" height="4.3"/>
		<rect x="43.7" y="46.7" class="st4" width="27.3" height="2.2"/>
		<rect x="-42.8" y="46.7" class="st4" width="44.2" height="2.2"/>
		<rect x="-62.6" y="46.7" class="st4" width="19.8" height="4.1"/>
		<rect x="-72.9" y="47.9" class="st4" width="10.3" height="1.9"/>
		<rect x="9.4" y="19.6" class="st4" width="34.3" height="27.1"/>
		<line class="st4" x1="43.7" y1="41.8" x2="-12.5" y2="41.8"/>
		<rect x="2.7" y="3.3" class="st4" width="3.2" height="16.3"/>
		<rect x="-53.7" y="11.5" class="st4" width="25.6" height="8.1"/>
		<rect x="-56.4" y="3.3" class="st4" width="25.6" height="8.1"/>
		<rect x="-56" y="-4.8" class="st4" width="25.6" height="8.1"/>
		<rect x="-52.1" y="-9.4" class="st4" width="22.4" height="4.5"/>
		<rect x="-43" y="-11.2" class="st4" width="3.5" height="30.8"/>
		<rect x="12.6" y="23.4" class="st4" width="8.2" height="1.5"/>
		<rect x="-58" y="38.2" class="st4" width="2" height="6.5"/>
		<rect x="99.1" y="37" class="st4" width="4.1" height="9.7"/>
		<polygon class="st4" points="103.2,46.7 99.1,51 85.2,51 85.2,46.7 		"/>
		<rect x="-28.1" y="-23" class="st4" width="30.9" height="42.6"/>
		<rect x="-13.4" y="-25.1" class="st4" width="3.5" height="44.7"/>
	</g>
	<g class="st2">
		<circle class="st4" cx="-26.5" cy="46.7" r="14.8"/>
		<circle class="st4" cx="-26.5" cy="46.7" r="11"/>
		<g>
			<line class="st8" x1="-26.5" y1="35.6" x2="-26.5" y2="57.7"/>
			<line class="st8" x1="-18.7" y1="38.9" x2="-34.3" y2="54.5"/>
			<line class="st8" x1="-15.4" y1="46.7" x2="-37.5" y2="46.7"/>
			<line class="st8" x1="-18.7" y1="54.5" x2="-34.3" y2="38.9"/>
		</g>
		<circle class="st4" cx="-26.5" cy="46.7" r="2.3"/>
	</g>
	<polygon class="st5" points="-90.9,51.9 -83.6,51.9 -83.6,50.3 -80.6,50.3 -80.6,48.3 -82.1,48.3 -82.1,45.4 -85.4,45.4 
		-85.4,46.4 -88.3,46.4 -88.3,43.4 -91.5,43.4 -91.5,45.4 -96,45.4 -96,48.3 -94.4,48.3 -94.4,50.1 -90.9,50.1 	"/>
	<g class="st2">
		<circle class="st9" cx="15.2" cy="-150.3" r="8.9"/>
		<circle class="st10" cx="15.2" cy="-149.1" r="8.9"/>
	</g>
</g>
<g class="st1">
	<g class="st2">
		<path d="M-284.8-13.1v-98.2c0-3,2.4-5.4,5.4-5.4h9.1c3,0,5.4,2.4,5.4,5.4v38.8c0,3,2.4,5.4,5.4,5.4h5.1c3,0,5.4-2.4,5.4-5.4v-14.8
			c0-3,2.4-5.4,5.4-5.4h11.2c3,0,5.4,2.4,5.4,5.4v35.1c0,3,2.4,5.4,5.4,5.4h8.7c3,0,5.4-2.4,5.4-5.4v-90.2c0-3,2.4-5.4,5.4-5.4h15.8
			c3,0,5.4,2.4,5.4,5.4v42.4c0,3,2.4,5.4,5.4,5.4h7.1c3,0,5.4-2.4,5.4-5.4v-5.1c0-3,2.4-5.4,5.4-5.4h13.3c3,0,5.4,2.4,5.4,5.4v34.7
			c0,3,2.4,5.4,5.4,5.4h22.5c3,0,5.4,2.4,5.4,5.4v2.9c0,3,2.4,5.4,5.4,5.4h7c3,0,5.4-2.4,5.4-5.4v-22.9c0-3,2.4-5.4,5.4-5.4h36.8
			c3,0,5.4,2.4,5.4,5.4v4.9c0,3,2.4,5.4,5.4,5.4h20.3c3,0,5.4-2.4,5.4-5.4v-4.9c0-3,2.4-5.4,5.4-5.4h30.8c3,0,5.4,2.4,5.4,5.4v7.1
			c0,3,2.4,5.4,5.4,5.4h5.8c3,0,5.4-2.4,5.4-5.4v-18.9c0-3,2.4-5.4,5.4-5.4h14.5c3,0,5.4,2.4,5.4,5.4v16.6c0,3,2.4,5.4,5.4,5.4h11.7
			c3,0,5.4-2.4,5.4-5.4v-32.9c0-3,2.4-5.4,5.4-5.4h19.7c3,0,5.4,2.4,5.4,5.4v0c0,3,2.4,5.4,5.4,5.4h8.7c3,0,5.4-2.4,5.4-5.4v-39.9
			c0-3,2.4-5.4,5.4-5.4h13.8c3,0,5.4,2.4,5.4,5.4v20.5c0,3,2.4,5.4,5.4,5.4h11.7c3,0,5.4,2.4,5.4,5.4v34.7c0,3,2.4,5.4,5.4,5.4h14.3
			c3,0,5.4-2.4,5.4-5.4v-10.7c0-3,2.4-5.4,5.4-5.4h17.9c3,0,5.4,2.4,5.4,5.4v44.2c0,3,2.4,5.4,5.4,5.4h13.3c3,0,5.4-2.4,5.4-5.4v-81
			c0-3,2.4-5.4,5.4-5.4h13.3c3,0,5.4,2.4,5.4,5.4v58.7c0,3,2.4,5.4,5.4,5.4h10.3c3,0,5.4-2.4,5.4-5.4v-40.9c0-3,2.4-5.4,5.4-5.4h9.1
			c3,0,5.4,2.4,5.4,5.4v38.8c0,3,2.4,5.4,5.4,5.4h5.1c3,0,5.4-2.4,5.4-5.4v-14.8c0-3,2.4-5.4,5.4-5.4h11.2c3,0,5.4,2.4,5.4,5.4v35.1
			c0,3,2.4,5.4,5.4,5.4h8.7c3,0,5.4-2.4,5.4-5.4v-90.2c0-3,2.4-5.4,5.4-5.4h15.8c3,0,5.4,2.4,5.4,5.4v42.4c0,3,2.4,5.4,5.4,5.4h7.1
			c3,0,5.4-2.4,5.4-5.4v-5.1c0-3,2.4-5.4,5.4-5.4h13.3c3,0,5.4,2.4,5.4,5.4v34.7c0,3,2.4,5.4,5.4,5.4h22.5c3,0,5.4,2.4,5.4,5.4v2.9
			c0,3,2.4,5.4,5.4,5.4h7c3,0,5.4-2.4,5.4-5.4v-22.9c0-3,2.4-5.4,5.4-5.4h36.8c3,0,5.4,2.4,5.4,5.4v4.9c0,3,2.4,5.4,5.4,5.4h20.3
			c3,0,5.4-2.4,5.4-5.4v-4.9c0-3,2.4-5.4,5.4-5.4h30.8c3,0,5.4,2.4,5.4,5.4v7.1c0,3,2.4,5.4,5.4,5.4h5.8c3,0,5.4-2.4,5.4-5.4v-18.9
			c0-3,2.4-5.4,5.4-5.4h14.5c3,0,5.4,2.4,5.4,5.4v16.6c0,3,2.4,5.4,5.4,5.4h11.7c3,0,5.4-2.4,5.4-5.4v-32.9c0-3,2.4-5.4,5.4-5.4
			h19.7c3,0,5.4,2.4,5.4,5.4v0c0,3,2.4,5.4,5.4,5.4h8.7c3,0,5.4-2.4,5.4-5.4v-39.9c0-3,2.4-5.4,5.4-5.4h13.8c3,0,5.4,2.4,5.4,5.4
			v20.5c0,3,2.4,5.4,5.4,5.4h11.7c3,0,5.4,2.4,5.4,5.4v34.7c0,3,2.4,5.4,5.4,5.4h14.3c3,0,5.4-2.4,5.4-5.4v-10.7
			c0-3,2.4-5.4,5.4-5.4h17.9c3,0,5.4,2.4,5.4,5.4v44.2c0,3,2.4,5.4,5.4,5.4h13.3c3,0,5.4-2.4,5.4-5.4v-81c0-3,2.4-5.4,5.4-5.4h13.3
			c3,0,5.4,2.4,5.4,5.4v110.4c0,3,2.4,5.4,5.4,5.4h15.7"/>
		<path d="M-284.8-12.6c-0.3,0-0.5-0.2-0.5-0.5v-98.2c0-3.2,2.6-5.9,5.9-5.9h9.1c3.2,0,5.9,2.6,5.9,5.9v38.8c0,2.7,2.2,4.9,4.9,4.9
			h5.1c2.7,0,4.9-2.2,4.9-4.9v-14.8c0-3.2,2.6-5.9,5.9-5.9h11.2c3.2,0,5.9,2.6,5.9,5.9v35.1c0,2.7,2.2,4.9,4.9,4.9h8.7
			c2.7,0,4.9-2.2,4.9-4.9v-90.2c0-3.2,2.6-5.9,5.9-5.9h15.8c3.2,0,5.9,2.6,5.9,5.9v42.4c0,2.7,2.2,4.9,4.9,4.9h7.1
			c2.7,0,4.9-2.2,4.9-4.9v-5.1c0-3.2,2.6-5.9,5.9-5.9h13.3c3.2,0,5.9,2.6,5.9,5.9v34.7c0,2.7,2.2,4.9,4.9,4.9h22.5
			c3.2,0,5.9,2.6,5.9,5.9v2.9c0,2.7,2.2,4.9,4.9,4.9h7c2.7,0,4.9-2.2,4.9-4.9v-22.9c0-3.2,2.6-5.9,5.9-5.9h36.8
			c3.2,0,5.9,2.6,5.9,5.9v4.9c0,2.7,2.2,4.9,4.9,4.9h20.3c2.7,0,4.9-2.2,4.9-4.9v-4.9c0-3.2,2.6-5.9,5.9-5.9h30.8
			c3.2,0,5.9,2.6,5.9,5.9v7.1c0,2.7,2.2,4.9,4.9,4.9h5.8c2.7,0,4.9-2.2,4.9-4.9v-18.9c0-3.2,2.6-5.9,5.9-5.9h14.5
			c3.2,0,5.9,2.6,5.9,5.9v16.6c0,2.7,2.2,4.9,4.9,4.9h11.7c2.7,0,4.9-2.2,4.9-4.9v-32.9c0-3.2,2.6-5.9,5.9-5.9h19.7
			c3.2,0,5.9,2.6,5.9,5.9c0,2.7,2.2,4.9,4.9,4.9h8.7c2.7,0,4.9-2.2,4.9-4.9v-39.9c0-3.2,2.6-5.9,5.9-5.9h13.8c3.2,0,5.9,2.6,5.9,5.9
			v20.5c0,2.7,2.2,4.9,4.9,4.9h11.7c3.2,0,5.9,2.6,5.9,5.9v34.7c0,2.7,2.2,4.9,4.9,4.9h14.3c2.7,0,4.9-2.2,4.9-4.9v-10.7
			c0-3.2,2.6-5.9,5.9-5.9h17.9c3.2,0,5.9,2.6,5.9,5.9v44.2c0,2.7,2.2,4.9,4.9,4.9h13.3c2.7,0,4.9-2.2,4.9-4.9v-81
			c0-3.2,2.6-5.9,5.9-5.9h13.3c3.2,0,5.9,2.6,5.9,5.9v58.7c0,2.7,2.2,4.9,4.9,4.9h10.3c2.7,0,4.9-2.2,4.9-4.9v-40.9
			c0-3.2,2.6-5.9,5.9-5.9h9.1c3.2,0,5.9,2.6,5.9,5.9v38.8c0,2.7,2.2,4.9,4.9,4.9h5.1c2.7,0,4.9-2.2,4.9-4.9v-14.8
			c0-3.2,2.6-5.9,5.9-5.9h11.2c3.2,0,5.9,2.6,5.9,5.9v35.1c0,2.7,2.2,4.9,4.9,4.9h8.7c2.7,0,4.9-2.2,4.9-4.9v-90.2
			c0-3.2,2.6-5.9,5.9-5.9h15.8c3.2,0,5.9,2.6,5.9,5.9v42.4c0,2.7,2.2,4.9,4.9,4.9h7.1c2.7,0,4.9-2.2,4.9-4.9v-5.1
			c0-3.2,2.6-5.9,5.9-5.9h13.3c3.2,0,5.9,2.6,5.9,5.9v34.7c0,2.7,2.2,4.9,4.9,4.9h22.5c3.2,0,5.9,2.6,5.9,5.9v2.9
			c0,2.7,2.2,4.9,4.9,4.9h7c2.7,0,4.9-2.2,4.9-4.9v-22.9c0-3.2,2.6-5.9,5.9-5.9h36.8c3.2,0,5.9,2.6,5.9,5.9v4.9
			c0,2.7,2.2,4.9,4.9,4.9h20.3c2.7,0,4.9-2.2,4.9-4.9v-4.9c0-3.2,2.6-5.9,5.9-5.9h30.8c3.2,0,5.9,2.6,5.9,5.9v7.1
			c0,2.7,2.2,4.9,4.9,4.9h5.8c2.7,0,4.9-2.2,4.9-4.9v-18.9c0-3.2,2.6-5.9,5.9-5.9h14.5c3.2,0,5.9,2.6,5.9,5.9v16.6
			c0,2.7,2.2,4.9,4.9,4.9h11.7c2.7,0,4.9-2.2,4.9-4.9v-32.9c0-3.2,2.6-5.9,5.9-5.9h19.7c3.2,0,5.9,2.6,5.9,5.9
			c0,2.7,2.2,4.9,4.9,4.9h8.7c2.7,0,4.9-2.2,4.9-4.9v-39.9c0-3.2,2.6-5.9,5.9-5.9h13.8c3.2,0,5.9,2.6,5.9,5.9v20.5
			c0,2.7,2.2,4.9,4.9,4.9h11.7c3.2,0,5.9,2.6,5.9,5.9v34.7c0,2.7,2.2,4.9,4.9,4.9h14.3c2.7,0,4.9-2.2,4.9-4.9v-10.7
			c0-3.2,2.6-5.9,5.9-5.9h17.9c3.2,0,5.9,2.6,5.9,5.9v44.2c0,2.7,2.2,4.9,4.9,4.9h13.3c2.7,0,4.9-2.2,4.9-4.9v-81
			c0-3.2,2.6-5.9,5.9-5.9h13.3c3.2,0,5.9,2.6,5.9,5.9v110.4c0,2.7,2.2,4.9,4.9,4.9h15.7c0.3,0,0.5,0.2,0.5,0.5s-0.2,0.5-0.5,0.5
			h-15.7c-3.2,0-5.9-2.6-5.9-5.9v-110.4c0-2.7-2.2-4.9-4.9-4.9h-13.3c-2.7,0-4.9,2.2-4.9,4.9v81c0,3.2-2.6,5.9-5.9,5.9h-13.3
			c-3.2,0-5.9-2.6-5.9-5.9v-44.2c0-2.7-2.2-4.9-4.9-4.9h-17.9c-2.7,0-4.9,2.2-4.9,4.9v10.7c0,3.2-2.6,5.9-5.9,5.9h-14.3
			c-3.2,0-5.9-2.6-5.9-5.9v-34.7c0-2.7-2.2-4.9-4.9-4.9h-11.7c-3.2,0-5.9-2.6-5.9-5.9v-20.5c0-2.7-2.2-4.9-4.9-4.9h-13.8
			c-2.7,0-4.9,2.2-4.9,4.9v39.9c0,3.2-2.6,5.9-5.9,5.9h-8.7c-3.2,0-5.9-2.6-5.9-5.9c0-2.7-2.2-4.9-4.9-4.9H701
			c-2.7,0-4.9,2.2-4.9,4.9v32.9c0,3.2-2.6,5.9-5.9,5.9h-11.7c-3.2,0-5.9-2.6-5.9-5.9v-16.6c0-2.7-2.2-4.9-4.9-4.9h-14.5
			c-2.7,0-4.9,2.2-4.9,4.9v18.9c0,3.2-2.6,5.9-5.9,5.9h-5.8c-3.2,0-5.9-2.6-5.9-5.9v-7.1c0-2.7-2.2-4.9-4.9-4.9h-30.8
			c-2.7,0-4.9,2.2-4.9,4.9v4.9c0,3.2-2.6,5.9-5.9,5.9h-20.3c-3.2,0-5.9-2.6-5.9-5.9v-4.9c0-2.7-2.2-4.9-4.9-4.9h-36.8
			c-2.7,0-4.9,2.2-4.9,4.9v22.9c0,3.2-2.6,5.9-5.9,5.9h-7c-3.2,0-5.9-2.6-5.9-5.9v-2.9c0-2.7-2.2-4.9-4.9-4.9h-22.5
			c-3.2,0-5.9-2.6-5.9-5.9v-34.7c0-2.7-2.2-4.9-4.9-4.9h-13.3c-2.7,0-4.9,2.2-4.9,4.9v5.1c0,3.2-2.6,5.9-5.9,5.9h-7.1
			c-3.2,0-5.9-2.6-5.9-5.9v-42.4c0-2.7-2.2-4.9-4.9-4.9h-15.8c-2.7,0-4.9,2.2-4.9,4.9v90.2c0,3.2-2.6,5.9-5.9,5.9h-8.7
			c-3.2,0-5.9-2.6-5.9-5.9v-35.1c0-2.7-2.2-4.9-4.9-4.9h-11.2c-2.7,0-4.9,2.2-4.9,4.9v14.8c0,3.2-2.6,5.9-5.9,5.9h-5.1
			c-3.2,0-5.9-2.6-5.9-5.9v-38.8c0-2.7-2.2-4.9-4.9-4.9h-9.1c-2.7,0-4.9,2.2-4.9,4.9v40.9c0,3.2-2.6,5.9-5.9,5.9h-10.3
			c-3.2,0-5.9-2.6-5.9-5.9v-58.7c0-2.7-2.2-4.9-4.9-4.9h-13.3c-2.7,0-4.9,2.2-4.9,4.9v81c0,3.2-2.6,5.9-5.9,5.9h-13.3
			c-3.2,0-5.9-2.6-5.9-5.9v-44.2c0-2.7-2.2-4.9-4.9-4.9h-17.9c-2.7,0-4.9,2.2-4.9,4.9v10.7c0,3.2-2.6,5.9-5.9,5.9h-14.3
			c-3.2,0-5.9-2.6-5.9-5.9v-34.7c0-2.7-2.2-4.9-4.9-4.9h-11.7c-3.2,0-5.9-2.6-5.9-5.9v-20.5c0-2.7-2.2-4.9-4.9-4.9h-13.8
			c-2.7,0-4.9,2.2-4.9,4.9v39.9c0,3.2-2.6,5.9-5.9,5.9h-8.7c-3.2,0-5.9-2.6-5.9-5.9c0-2.7-2.2-4.9-4.9-4.9H101
			c-2.7,0-4.9,2.2-4.9,4.9v32.9c0,3.2-2.6,5.9-5.9,5.9H78.6c-3.2,0-5.9-2.6-5.9-5.9v-16.6c0-2.7-2.2-4.9-4.9-4.9H53.5
			c-2.7,0-4.9,2.2-4.9,4.9v18.9c0,3.2-2.6,5.9-5.9,5.9h-5.8c-3.2,0-5.9-2.6-5.9-5.9v-7.1c0-2.7-2.2-4.9-4.9-4.9H-4.6
			c-2.7,0-4.9,2.2-4.9,4.9v4.9c0,3.2-2.6,5.9-5.9,5.9h-20.3c-3.2,0-5.9-2.6-5.9-5.9v-4.9c0-2.7-2.2-4.9-4.9-4.9h-36.8
			c-2.7,0-4.9,2.2-4.9,4.9v22.9c0,3.2-2.6,5.9-5.9,5.9h-7c-3.2,0-5.9-2.6-5.9-5.9v-2.9c0-2.7-2.2-4.9-4.9-4.9h-22.5
			c-3.2,0-5.9-2.6-5.9-5.9v-34.7c0-2.7-2.2-4.9-4.9-4.9h-13.3c-2.7,0-4.9,2.2-4.9,4.9v5.1c0,3.2-2.6,5.9-5.9,5.9h-7.1
			c-3.2,0-5.9-2.6-5.9-5.9v-42.4c0-2.7-2.2-4.9-4.9-4.9h-15.8c-2.7,0-4.9,2.2-4.9,4.9v90.2c0,3.2-2.6,5.9-5.9,5.9h-8.7
			c-3.2,0-5.9-2.6-5.9-5.9v-35.1c0-2.7-2.2-4.9-4.9-4.9h-11.2c-2.7,0-4.9,2.2-4.9,4.9v14.8c0,3.2-2.6,5.9-5.9,5.9h-5.1
			c-3.2,0-5.9-2.6-5.9-5.9v-38.8c0-2.7-2.2-4.9-4.9-4.9h-9.1c-2.7,0-4.9,2.2-4.9,4.9v98.2C-284.3-12.8-284.6-12.6-284.8-12.6z"/>
	</g>
	<g class="st2">
		<path class="st11" d="M915.2-11.6h-15.7c-3,0-5.4-2.4-5.4-5.4l0-105.7c0-3-2.4-5.4-5.4-5.4h-13.3c-3,0-5.4,2.4-5.4,5.4v81
			c0,3-2.4,5.4-5.4,5.4h-13.3c-3,0-5.4-2.4-5.4-5.4v-44.2c0-3-2.4-5.4-5.4-5.4h-17.9c-3,0-5.4,2.4-5.4,5.4v10.7c0,3-2.4,5.4-5.4,5.4
			h-14.3c-3,0-5.4-2.4-5.4-5.4v-34.7c0-3-2.4-5.4-5.4-5.4h-11.7c-3,0-5.4-2.4-5.4-5.4v-20.5c0-3-2.4-5.4-5.4-5.4h-13.8
			c-3,0-5.4,2.4-5.4,5.4v39.9c0,3-2.4,5.4-5.4,5.4h-8.7c-3,0-5.4-2.4-5.4-5.4v0c0-3-2.4-5.4-5.4-5.4H701c-3,0-5.4,2.4-5.4,5.4v32.9
			c0,3-2.4,5.4-5.4,5.4h-11.7c-3,0-5.4-2.4-5.4-5.4v-16.6c0-3-2.4-5.4-5.4-5.4h-14.5c-3,0-5.4,2.4-5.4,5.4V-66c0,3-2.4,5.4-5.4,5.4
			H637c-3,0-5.4-2.4-5.4-5.4v-7.1c0-3-2.4-5.4-5.4-5.4h-30.8c-3,0-5.4,2.4-5.4,5.4v4.9c0,3-2.4,5.4-5.4,5.4h-20.3
			c-3,0-5.4-2.4-5.4-5.4v-4.9c0-3-2.4-5.4-5.4-5.4h-36.8c-3,0-5.4,2.4-5.4,5.4v22.9c0,3-2.4,5.4-5.4,5.4h-7c-3,0-5.4-2.4-5.4-5.4
			v-2.9c0-3-2.4-5.4-5.4-5.4h-22.5c-3,0-5.4-2.4-5.4-5.4v-34.7c0-3-2.4-5.4-5.4-5.4h-13.3c-3,0-5.4,2.4-5.4,5.4v5.1
			c0,3-2.4,5.4-5.4,5.4h-7.1c-3,0-5.4-2.4-5.4-5.4v-42.4c0-3-2.4-5.4-5.4-5.4h-15.8c-3,0-5.4,2.4-5.4,5.4v90.2c0,3-2.4,5.4-5.4,5.4
			h-8.7c-3,0-5.4-2.4-5.4-5.4v-35.1c0-3-2.4-5.4-5.4-5.4h-11.2c-3,0-5.4,2.4-5.4,5.4V-66c0,3-2.4,5.4-5.4,5.4h-5.1
			c-3,0-5.4-2.4-5.4-5.4v-38.8c0-3-2.4-5.4-5.4-5.4h-9.1c-3,0-5.4,2.4-5.4,5.4v40.9c0,3-2.4,5.4-5.4,5.4h-10.3c-3,0-5.4-2.4-5.4-5.4
			v-58.7c0-3-2.4-5.4-5.4-5.4h-13.3c-3,0-5.4,2.4-5.4,5.4v81c0,3-2.4,5.4-5.4,5.4h-13.3c-3,0-5.4-2.4-5.4-5.4v-44.2
			c0-3-2.4-5.4-5.4-5.4h-17.9c-3,0-5.4,2.4-5.4,5.4v10.7c0,3-2.4,5.4-5.4,5.4h-14.3c-3,0-5.4-2.4-5.4-5.4v-34.7c0-3-2.4-5.4-5.4-5.4
			h-11.7c-3,0-5.4-2.4-5.4-5.4v-20.5c0-3-2.4-5.4-5.4-5.4h-13.8c-3,0-5.4,2.4-5.4,5.4v39.9c0,3-2.4,5.4-5.4,5.4h-8.7
			c-3,0-5.4-2.4-5.4-5.4v0c0-3-2.4-5.4-5.4-5.4H101c-3,0-5.4,2.4-5.4,5.4v32.9c0,3-2.4,5.4-5.4,5.4H78.6c-3,0-5.4-2.4-5.4-5.4v-16.6
			c0-3-2.4-5.4-5.4-5.4H53.5c-3,0-5.4,2.4-5.4,5.4V-66c0,3-2.4,5.4-5.4,5.4H37c-3,0-5.4-2.4-5.4-5.4v-7.1c0-3-2.4-5.4-5.4-5.4H-4.6
			c-3,0-5.4,2.4-5.4,5.4v4.9c0,3-2.4,5.4-5.4,5.4h-20.3c-3,0-5.4-2.4-5.4-5.4v-4.9c0-3-2.4-5.4-5.4-5.4h-36.8c-3,0-5.4,2.4-5.4,5.4
			v22.9c0,3-2.4,5.4-5.4,5.4h-7c-3,0-5.4-2.4-5.4-5.4v-2.9c0-3-2.4-5.4-5.4-5.4h-22.5c-3,0-5.4-2.4-5.4-5.4v-34.7
			c0-3-2.4-5.4-5.4-5.4h-13.3c-3,0-5.4,2.4-5.4,5.4v5.1c0,3-2.4,5.4-5.4,5.4h-7.1c-3,0-5.4-2.4-5.4-5.4v-42.4c0-3-2.4-5.4-5.4-5.4
			h-15.8c-3,0-5.4,2.4-5.4,5.4v90.2c0,3-2.4,5.4-5.4,5.4h-8.7c-3,0-5.4-2.4-5.4-5.4v-35.1c0-3-2.4-5.4-5.4-5.4h-11.2
			c-3,0-5.4,2.4-5.4,5.4V-66c0,3-2.4,5.4-5.4,5.4h-5.1c-3,0-5.4-2.4-5.4-5.4v-38.8c0-3-2.4-5.4-5.4-5.4h-9.1c-3,0-5.4,2.4-5.4,5.4
			v93.2"/>
		<path d="M915.2-11.1h-15.7c-3.2,0-5.9-2.6-5.9-5.9l0-105.7c0-2.7-2.2-4.9-4.9-4.9h-13.3c-2.7,0-4.9,2.2-4.9,4.9v81
			c0,3.2-2.6,5.9-5.9,5.9h-13.3c-3.2,0-5.9-2.6-5.9-5.9v-44.2c0-2.7-2.2-4.9-4.9-4.9h-17.9c-2.7,0-4.9,2.2-4.9,4.9v10.7
			c0,3.2-2.6,5.9-5.9,5.9h-14.3c-3.2,0-5.9-2.6-5.9-5.9v-34.7c0-2.7-2.2-4.9-4.9-4.9h-11.7c-3.2,0-5.9-2.6-5.9-5.9v-20.5
			c0-2.7-2.2-4.9-4.9-4.9h-13.8c-2.7,0-4.9,2.2-4.9,4.9v39.9c0,3.2-2.6,5.9-5.9,5.9h-8.7c-3.2,0-5.9-2.6-5.9-5.9
			c0-2.7-2.2-4.9-4.9-4.9H701c-2.7,0-4.9,2.2-4.9,4.9v32.9c0,3.2-2.6,5.9-5.9,5.9h-11.7c-3.2,0-5.9-2.6-5.9-5.9v-16.6
			c0-2.7-2.2-4.9-4.9-4.9h-14.5c-2.7,0-4.9,2.2-4.9,4.9V-66c0,3.2-2.6,5.9-5.9,5.9H637c-3.2,0-5.9-2.6-5.9-5.9v-7.1
			c0-2.7-2.2-4.9-4.9-4.9h-30.8c-2.7,0-4.9,2.2-4.9,4.9v4.9c0,3.2-2.6,5.9-5.9,5.9h-20.3c-3.2,0-5.9-2.6-5.9-5.9v-4.9
			c0-2.7-2.2-4.9-4.9-4.9h-36.8c-2.7,0-4.9,2.2-4.9,4.9v22.9c0,3.2-2.6,5.9-5.9,5.9h-7c-3.2,0-5.9-2.6-5.9-5.9v-2.9
			c0-2.7-2.2-4.9-4.9-4.9h-22.5c-3.2,0-5.9-2.6-5.9-5.9v-34.7c0-2.7-2.2-4.9-4.9-4.9h-13.3c-2.7,0-4.9,2.2-4.9,4.9v5.1
			c0,3.2-2.6,5.9-5.9,5.9h-7.1c-3.2,0-5.9-2.6-5.9-5.9v-42.4c0-2.7-2.2-4.9-4.9-4.9h-15.8c-2.7,0-4.9,2.2-4.9,4.9v90.2
			c0,3.2-2.6,5.9-5.9,5.9h-8.7c-3.2,0-5.9-2.6-5.9-5.9v-35.1c0-2.7-2.2-4.9-4.9-4.9h-11.2c-2.7,0-4.9,2.2-4.9,4.9V-66
			c0,3.2-2.6,5.9-5.9,5.9h-5.1c-3.2,0-5.9-2.6-5.9-5.9v-38.8c0-2.7-2.2-4.9-4.9-4.9h-9.1c-2.7,0-4.9,2.2-4.9,4.9v40.9
			c0,3.2-2.6,5.9-5.9,5.9h-10.3c-3.2,0-5.9-2.6-5.9-5.9v-58.7c0-2.7-2.2-4.9-4.9-4.9h-13.3c-2.7,0-4.9,2.2-4.9,4.9v81
			c0,3.2-2.6,5.9-5.9,5.9h-13.3c-3.2,0-5.9-2.6-5.9-5.9v-44.2c0-2.7-2.2-4.9-4.9-4.9h-17.9c-2.7,0-4.9,2.2-4.9,4.9v10.7
			c0,3.2-2.6,5.9-5.9,5.9h-14.3c-3.2,0-5.9-2.6-5.9-5.9v-34.7c0-2.7-2.2-4.9-4.9-4.9h-11.7c-3.2,0-5.9-2.6-5.9-5.9v-20.5
			c0-2.7-2.2-4.9-4.9-4.9h-13.8c-2.7,0-4.9,2.2-4.9,4.9v39.9c0,3.2-2.6,5.9-5.9,5.9h-8.7c-3.2,0-5.9-2.6-5.9-5.9
			c0-2.7-2.2-4.9-4.9-4.9H101c-2.7,0-4.9,2.2-4.9,4.9v32.9c0,3.2-2.6,5.9-5.9,5.9H78.7c-3.2,0-5.9-2.6-5.9-5.9v-16.6
			c0-2.7-2.2-4.9-4.9-4.9H53.5c-2.7,0-4.9,2.2-4.9,4.9V-66c0,3.2-2.6,5.9-5.9,5.9H37c-3.2,0-5.9-2.6-5.9-5.9v-7.1
			c0-2.7-2.2-4.9-4.9-4.9H-4.6c-2.7,0-4.9,2.2-4.9,4.9v4.9c0,3.2-2.6,5.9-5.9,5.9h-20.3c-3.2,0-5.9-2.6-5.9-5.9v-4.9
			c0-2.7-2.2-4.9-4.9-4.9h-36.8c-2.7,0-4.9,2.2-4.9,4.9v22.9c0,3.2-2.6,5.9-5.9,5.9h-7c-3.2,0-5.9-2.6-5.9-5.9v-2.9
			c0-2.7-2.2-4.9-4.9-4.9h-22.5c-3.2,0-5.9-2.6-5.9-5.9v-34.7c0-2.7-2.2-4.9-4.9-4.9h-13.3c-2.7,0-4.9,2.2-4.9,4.9v5.1
			c0,3.2-2.6,5.9-5.9,5.9h-7.1c-3.2,0-5.9-2.6-5.9-5.9v-42.4c0-2.7-2.2-4.9-4.9-4.9h-15.8c-2.7,0-4.9,2.2-4.9,4.9v90.2
			c0,3.2-2.6,5.9-5.9,5.9h-8.7c-3.2,0-5.9-2.6-5.9-5.9v-35.1c0-2.7-2.2-4.9-4.9-4.9h-11.2c-2.7,0-4.9,2.2-4.9,4.9V-66
			c0,3.2-2.6,5.9-5.9,5.9h-5.1c-3.2,0-5.9-2.6-5.9-5.9v-38.8c0-2.7-2.2-4.9-4.9-4.9h-9.1c-2.7,0-4.9,2.2-4.9,4.9v93.2
			c0,0.3-0.2,0.5-0.5,0.5s-0.5-0.2-0.5-0.5v-93.2c0-3.2,2.6-5.9,5.9-5.9h9.1c3.2,0,5.9,2.6,5.9,5.9V-66c0,2.7,2.2,4.9,4.9,4.9h5.1
			c2.7,0,4.9-2.2,4.9-4.9v-14.8c0-3.2,2.6-5.9,5.9-5.9h11.2c3.2,0,5.9,2.6,5.9,5.9v35.1c0,2.7,2.2,4.9,4.9,4.9h8.7
			c2.7,0,4.9-2.2,4.9-4.9v-90.2c0-3.2,2.6-5.9,5.9-5.9h15.8c3.2,0,5.9,2.6,5.9,5.9v42.4c0,2.7,2.2,4.9,4.9,4.9h7.1
			c2.7,0,4.9-2.2,4.9-4.9v-5.1c0-3.2,2.6-5.9,5.9-5.9h13.3c3.2,0,5.9,2.6,5.9,5.9v34.7c0,2.7,2.2,4.9,4.9,4.9h22.5
			c3.2,0,5.9,2.6,5.9,5.9v2.9c0,2.7,2.2,4.9,4.9,4.9h7c2.7,0,4.9-2.2,4.9-4.9v-22.9c0-3.2,2.6-5.9,5.9-5.9h36.8
			c3.2,0,5.9,2.6,5.9,5.9v4.9c0,2.7,2.2,4.9,4.9,4.9h20.3c2.7,0,4.9-2.2,4.9-4.9v-4.9c0-3.2,2.6-5.9,5.9-5.9h30.8
			c3.2,0,5.9,2.6,5.9,5.9v7.1c0,2.7,2.2,4.9,4.9,4.9h5.8c2.7,0,4.9-2.2,4.9-4.9v-18.9c0-3.2,2.6-5.9,5.9-5.9h14.5
			c3.2,0,5.9,2.6,5.9,5.9v16.6c0,2.7,2.2,4.9,4.9,4.9h11.7c2.7,0,4.9-2.2,4.9-4.9v-32.9c0-3.2,2.6-5.9,5.9-5.9h19.7
			c3.2,0,5.9,2.6,5.9,5.9c0,2.7,2.2,4.9,4.9,4.9h8.7c2.7,0,4.9-2.2,4.9-4.9v-39.9c0-3.2,2.6-5.9,5.9-5.9h13.8c3.2,0,5.9,2.6,5.9,5.9
			v20.5c0,2.7,2.2,4.9,4.9,4.9h11.7c3.2,0,5.9,2.6,5.9,5.9v34.7c0,2.7,2.2,4.9,4.9,4.9h14.3c2.7,0,4.9-2.2,4.9-4.9v-10.7
			c0-3.2,2.6-5.9,5.9-5.9h17.9c3.2,0,5.9,2.6,5.9,5.9v44.2c0,2.7,2.2,4.9,4.9,4.9h13.3c2.7,0,4.9-2.2,4.9-4.9v-81
			c0-3.2,2.6-5.9,5.9-5.9h13.3c3.2,0,5.9,2.6,5.9,5.9v58.7c0,2.7,2.2,4.9,4.9,4.9h10.3c2.7,0,4.9-2.2,4.9-4.9v-40.9
			c0-3.2,2.6-5.9,5.9-5.9h9.1c3.2,0,5.9,2.6,5.9,5.9V-66c0,2.7,2.2,4.9,4.9,4.9h5.1c2.7,0,4.9-2.2,4.9-4.9v-14.8
			c0-3.2,2.6-5.9,5.9-5.9h11.2c3.2,0,5.9,2.6,5.9,5.9v35.1c0,2.7,2.2,4.9,4.9,4.9h8.7c2.7,0,4.9-2.2,4.9-4.9v-90.2
			c0-3.2,2.6-5.9,5.9-5.9h15.8c3.2,0,5.9,2.6,5.9,5.9v42.4c0,2.7,2.2,4.9,4.9,4.9h7.1c2.7,0,4.9-2.2,4.9-4.9v-5.1
			c0-3.2,2.6-5.9,5.9-5.9h13.3c3.2,0,5.9,2.6,5.9,5.9v34.7c0,2.7,2.2,4.9,4.9,4.9h22.5c3.2,0,5.9,2.6,5.9,5.9v2.9
			c0,2.7,2.2,4.9,4.9,4.9h7c2.7,0,4.9-2.2,4.9-4.9v-22.9c0-3.2,2.6-5.9,5.9-5.9h36.8c3.2,0,5.9,2.6,5.9,5.9v4.9
			c0,2.7,2.2,4.9,4.9,4.9h20.3c2.7,0,4.9-2.2,4.9-4.9v-4.9c0-3.2,2.6-5.9,5.9-5.9h30.8c3.2,0,5.9,2.6,5.9,5.9v7.1
			c0,2.7,2.2,4.9,4.9,4.9h5.8c2.7,0,4.9-2.2,4.9-4.9v-18.9c0-3.2,2.6-5.9,5.9-5.9h14.5c3.2,0,5.9,2.6,5.9,5.9v16.6
			c0,2.7,2.2,4.9,4.9,4.9h11.7c2.7,0,4.9-2.2,4.9-4.9v-32.9c0-3.2,2.6-5.9,5.9-5.9h19.7c3.2,0,5.9,2.6,5.9,5.9
			c0,2.7,2.2,4.9,4.9,4.9h8.7c2.7,0,4.9-2.2,4.9-4.9v-39.9c0-3.2,2.6-5.9,5.9-5.9h13.8c3.2,0,5.9,2.6,5.9,5.9v20.5
			c0,2.7,2.2,4.9,4.9,4.9h11.7c3.2,0,5.9,2.6,5.9,5.9v34.7c0,2.7,2.2,4.9,4.9,4.9h14.3c2.7,0,4.9-2.2,4.9-4.9v-10.7
			c0-3.2,2.6-5.9,5.9-5.9h17.9c3.2,0,5.9,2.6,5.9,5.9v44.2c0,2.7,2.2,4.9,4.9,4.9h13.3c2.7,0,4.9-2.2,4.9-4.9v-81
			c0-3.2,2.6-5.9,5.9-5.9h13.3c3.2,0,5.9,2.6,5.9,5.9l0,105.7c0,2.7,2.2,4.9,4.9,4.9h15.7c0.3,0,0.5,0.2,0.5,0.5
			S915.4-11.1,915.2-11.1z"/>
	</g>
</g>
<g class="st1">
	<g class="st2">
		<path d="M31.6,24c-3.8,5-9.7,8.2-16.4,8.2C3.8,32.2-5.4,23-5.4,11.6C-5.4,0.2,3.8-9,15.2-9c6.7,0,12.7,3.2,16.4,8.2
			c-2-1.1-4.4-1.8-6.8-1.8c-7.8,0-14.2,6.3-14.2,14.2c0,7.8,6.3,14.2,14.2,14.2C27.2,25.8,29.6,25.1,31.6,24z"/>
		<path d="M15.2,32.7c-11.6,0-21.1-9.5-21.1-21.1C-5.9,0,3.5-9.5,15.2-9.5c6.7,0,12.8,3,16.8,8.4c0.1,0.2,0.1,0.4,0,0.6
			s-0.4,0.2-0.6,0.1c-2-1.1-4.3-1.7-6.6-1.7c-7.5,0-13.7,6.1-13.7,13.7s6.1,13.7,13.7,13.7c2.3,0,4.6-0.6,6.6-1.7
			c0.2-0.1,0.5-0.1,0.6,0.1s0.2,0.4,0,0.6C28,29.6,21.8,32.7,15.2,32.7z M15.2-8.5c-11.1,0-20.1,9-20.1,20.1
			c0,11.1,9,20.1,20.1,20.1c5.6,0,10.8-2.3,14.6-6.3c-1.6,0.6-3.3,0.9-5.1,0.9c-8.1,0-14.7-6.6-14.7-14.7S16.6-3.1,24.7-3.1
			c1.7,0,3.4,0.3,5,0.9C26-6.2,20.8-8.5,15.2-8.5z"/>
	</g>
	<g class="st2">
		<path d="M31.6,25.4c-3.8,5-9.7,8.2-16.4,8.2C3.8,33.6-5.4,24.4-5.4,13c0-11.4,9.2-20.6,20.6-20.6c6.7,0,12.7,3.2,16.4,8.2
			c-2-1.1-4.4-1.8-6.8-1.8c-7.8,0-14.2,6.3-14.2,14.2c0,7.8,6.3,14.2,14.2,14.2C27.2,27.2,29.6,26.6,31.6,25.4z"/>
		<path d="M15.2,34.1C3.5,34.1-5.9,24.7-5.9,13c0-11.6,9.5-21.1,21.1-21.1C21.8-8.1,28-5,32,0.3c0.1,0.2,0.1,0.4,0,0.6
			c-0.2,0.2-0.4,0.2-0.6,0.1c-2-1.1-4.3-1.7-6.6-1.7c-7.5,0-13.7,6.1-13.7,13.7c0,7.5,6.1,13.7,13.7,13.7c2.3,0,4.6-0.6,6.6-1.7
			c0.2-0.1,0.5-0.1,0.6,0.1c0.2,0.2,0.2,0.4,0,0.6C28,31.1,21.8,34.1,15.2,34.1z M15.2-7.1C4.1-7.1-4.9,2-4.9,13
			c0,11.1,9,20.1,20.1,20.1c5.6,0,10.8-2.3,14.6-6.3c-1.6,0.6-3.3,0.9-5.1,0.9c-8.1,0-14.7-6.6-14.7-14.7S16.6-1.7,24.7-1.7
			c1.7,0,3.4,0.3,5,0.9C26-4.8,20.8-7.1,15.2-7.1z"/>
	</g>
</g>
<g class="st1">
	<rect x="-284.8" y="61.5" class="st6" width="600" height="50"/>
</g>
<g class="st1">
	<path class="st2" d="M315.2,62h-600c-0.3,0-0.5-0.2-0.5-0.5s0.2-0.5,0.5-0.5h600c0.3,0,0.5,0.2,0.5,0.5S315.4,62,315.2,62z"/>
</g>
<g class="st1">
	<g class="st2">
		<g>
			
				<rect x="40.4" y="12.3" transform="matrix(0.7071 -0.7071 0.7071 0.7071 -1.444690e-02 34.2189)" class="st11" width="1.7" height="9.7"/>
			<path d="M44.1,21.7c-0.1,0-0.3,0-0.4-0.1l-6.9-6.9c-0.1-0.1-0.1-0.2-0.1-0.4s0.1-0.3,0.1-0.4l1.2-1.2c0.2-0.2,0.5-0.2,0.7,0
				l6.9,6.9c0.1,0.1,0.1,0.2,0.1,0.4s-0.1,0.3-0.1,0.4l-1.2,1.2C44.4,21.6,44.3,21.7,44.1,21.7z M38,14.3l6.2,6.2l0.5-0.5l-6.2-6.2
				L38,14.3z"/>
		</g>
		<g>
			
				<rect x="36.8" y="8.8" transform="matrix(0.7071 0.7071 -0.7071 0.7071 20.6439 -22.6037)" class="st11" width="1.7" height="9.7"/>
			<path d="M34.8,18.1c-0.1,0-0.3,0-0.4-0.1l-1.2-1.2c-0.2-0.2-0.2-0.5,0-0.7l6.9-6.9c0.2-0.2,0.5-0.2,0.7,0l1.2,1.2
				c0.2,0.2,0.2,0.5,0,0.7L35.1,18C35,18.1,34.9,18.1,34.8,18.1z M34.3,16.4l0.5,0.5l6.2-6.2l-0.5-0.5L34.3,16.4z"/>
		</g>
	</g>
	<g class="st2">
		<polygon class="st11" points="99.1,37 -56,37 -56,19.6 91.3,19.6 		"/>
		<path d="M99.1,37.5H-56c-0.3,0-0.5-0.2-0.5-0.5V19.6c0-0.3,0.2-0.5,0.5-0.5H91.3c0.2,0,0.4,0.1,0.5,0.3l7.8,17.4
			c0.1,0.2,0.1,0.3,0,0.5C99.5,37.4,99.3,37.5,99.1,37.5z M-55.5,36.5H98.4L91,20.1H-55.5V36.5z"/>
	</g>
	<g class="st2">
		<polygon class="st11" points="52.5,19.6 45.9,-1.8 43.7,-1.8 43.7,19.6 		"/>
		<path d="M52.5,20.1h-8.8c-0.3,0-0.5-0.2-0.5-0.5V-1.8c0-0.3,0.2-0.5,0.5-0.5h2.1c0.2,0,0.4,0.1,0.5,0.4L53,19.5
			c0,0.2,0,0.3-0.1,0.4C52.8,20,52.6,20.1,52.5,20.1z M44.2,19.1h7.6L45.5-1.3h-1.3V19.1z"/>
	</g>
	<g class="st2">
		<rect x="-56" y="37" class="st11" width="155.1" height="9.7"/>
		<path d="M99.1,47.2H-56c-0.3,0-0.5-0.2-0.5-0.5V37c0-0.3,0.2-0.5,0.5-0.5H99.1c0.3,0,0.5,0.2,0.5,0.5v9.7
			C99.6,46.9,99.4,47.2,99.1,47.2z M-55.5,46.2H98.6v-8.7H-55.5V46.2z"/>
	</g>
	<g class="st2">
		<polygon class="st11" points="6.3,19.6 6.3,12.5 9,12.5 12.6,19.6 		"/>
		<path d="M12.6,20.1H6.3c-0.3,0-0.5-0.2-0.5-0.5v-7.1C5.8,12.3,6,12,6.3,12H9c0.2,0,0.4,0.1,0.4,0.3l3.6,7.1c0.1,0.2,0.1,0.3,0,0.5
			C12.9,20,12.7,20.1,12.6,20.1z M6.8,19.1h5L8.7,13H6.8V19.1z"/>
	</g>
	<g class="st2">
		<polygon class="st11" points="92.2,21.6 99.1,21.6 99.1,29.9 96,29.9 		"/>
		<path d="M99.1,30.4H96c-0.2,0-0.4-0.1-0.5-0.3l-3.8-8.4c-0.1-0.2-0.1-0.3,0-0.5c0.1-0.1,0.3-0.2,0.4-0.2h6.9
			c0.3,0,0.5,0.2,0.5,0.5v8.4C99.6,30.2,99.4,30.4,99.1,30.4z M96.3,29.4h2.3v-7.4H93L96.3,29.4z"/>
	</g>
	<g class="st2">
		<rect x="1.3" y="46.7" class="st11" width="42.4" height="4.3"/>
		<path d="M43.7,51.5H1.3c-0.3,0-0.5-0.2-0.5-0.5v-4.3c0-0.3,0.2-0.5,0.5-0.5h42.4c0.3,0,0.5,0.2,0.5,0.5V51
			C44.2,51.3,44,51.5,43.7,51.5z M1.8,50.5h41.4v-3.3H1.8V50.5z"/>
	</g>
	<g class="st2">
		<rect x="43.7" y="46.7" class="st11" width="27.3" height="2.2"/>
		<path d="M71,49.3H43.7c-0.3,0-0.5-0.2-0.5-0.5v-2.2c0-0.3,0.2-0.5,0.5-0.5H71c0.3,0,0.5,0.2,0.5,0.5v2.2
			C71.5,49.1,71.3,49.3,71,49.3z M44.2,48.3h26.3v-1.2H44.2V48.3z"/>
	</g>
	<g class="st2">
		<rect x="-42.8" y="46.7" class="st11" width="44.2" height="2.2"/>
		<path d="M1.3,49.3h-44.2c-0.3,0-0.5-0.2-0.5-0.5v-2.2c0-0.3,0.2-0.5,0.5-0.5H1.3c0.3,0,0.5,0.2,0.5,0.5v2.2
			C1.8,49.1,1.6,49.3,1.3,49.3z M-42.3,48.3H0.8v-1.2h-43.2V48.3z"/>
	</g>
	<g class="st2">
		<rect x="-62.6" y="46.7" class="st11" width="19.8" height="4.1"/>
		<path d="M-42.8,51.3h-19.8c-0.3,0-0.5-0.2-0.5-0.5v-4.1c0-0.3,0.2-0.5,0.5-0.5h19.8c0.3,0,0.5,0.2,0.5,0.5v4.1
			C-42.3,51-42.6,51.3-42.8,51.3z M-62.1,50.3h18.8v-3.1h-18.8V50.3z"/>
	</g>
	<g class="st2">
		<rect x="-72.9" y="47.9" class="st11" width="10.3" height="1.9"/>
		<path d="M-62.6,50.3h-10.3c-0.3,0-0.5-0.2-0.5-0.5v-1.9c0-0.3,0.2-0.5,0.5-0.5h10.3c0.3,0,0.5,0.2,0.5,0.5v1.9
			C-62.1,50.1-62.3,50.3-62.6,50.3z M-72.4,49.3h9.3v-0.9h-9.3V49.3z"/>
	</g>
	<g class="st2">
		<rect x="9.4" y="19.6" class="st11" width="34.3" height="27.1"/>
		<path d="M43.7,47.2H9.4c-0.3,0-0.5-0.2-0.5-0.5V19.6c0-0.3,0.2-0.5,0.5-0.5h34.3c0.3,0,0.5,0.2,0.5,0.5v27.1
			C44.2,46.9,44,47.2,43.7,47.2z M9.9,46.2h33.3V20.1H9.9V46.2z"/>
	</g>
	<g class="st2">
		<line class="st11" x1="43.7" y1="41.8" x2="-12.5" y2="41.8"/>
		<path d="M43.7,42.3h-56.2c-0.3,0-0.5-0.2-0.5-0.5s0.2-0.5,0.5-0.5h56.2c0.3,0,0.5,0.2,0.5,0.5S44,42.3,43.7,42.3z"/>
	</g>
	<g class="st2">
		<rect x="2.7" y="3.3" class="st11" width="3.2" height="16.3"/>
		<path d="M6,20.1H2.7c-0.3,0-0.5-0.2-0.5-0.5V3.3c0-0.3,0.2-0.5,0.5-0.5H6c0.3,0,0.5,0.2,0.5,0.5v16.3C6.5,19.9,6.3,20.1,6,20.1z
			 M3.2,19.1h2.2V3.8H3.2V19.1z"/>
	</g>
	<g class="st2">
		<rect x="-53.7" y="11.5" class="st11" width="25.6" height="8.1"/>
		<path d="M-28.1,20.1h-25.6c-0.3,0-0.5-0.2-0.5-0.5v-8.1c0-0.3,0.2-0.5,0.5-0.5h25.6c0.3,0,0.5,0.2,0.5,0.5v8.1
			C-27.6,19.9-27.9,20.1-28.1,20.1z M-53.2,19.1h24.6V12h-24.6V19.1z"/>
	</g>
	<g class="st2">
		<rect x="-56.4" y="3.3" class="st11" width="25.6" height="8.1"/>
		<path d="M-30.8,12h-25.6c-0.3,0-0.5-0.2-0.5-0.5V3.3c0-0.3,0.2-0.5,0.5-0.5h25.6c0.3,0,0.5,0.2,0.5,0.5v8.1
			C-30.3,11.7-30.5,12-30.8,12z M-55.9,11h24.6V3.8h-24.6V11z"/>
	</g>
	<g class="st2">
		<rect x="-56" y="-4.8" class="st11" width="25.6" height="8.1"/>
		<path d="M-30.4,3.8H-56c-0.3,0-0.5-0.2-0.5-0.5v-8.1c0-0.3,0.2-0.5,0.5-0.5h25.6c0.3,0,0.5,0.2,0.5,0.5v8.1
			C-29.9,3.6-30.1,3.8-30.4,3.8z M-55.5,2.8h24.6v-7.1h-24.6V2.8z"/>
	</g>
	<g class="st2">
		<rect x="-52.1" y="-9.4" class="st11" width="22.4" height="4.5"/>
		<path d="M-29.7-4.3h-22.4c-0.3,0-0.5-0.2-0.5-0.5v-4.5c0-0.3,0.2-0.5,0.5-0.5h22.4c0.3,0,0.5,0.2,0.5,0.5v4.5
			C-29.2-4.6-29.4-4.3-29.7-4.3z M-51.6-5.3h21.4v-3.5h-21.4V-5.3z"/>
	</g>
	<g class="st2">
		<rect x="-43" y="-11.2" class="st11" width="3.5" height="30.8"/>
		<path d="M-39.6,20.1H-43c-0.3,0-0.5-0.2-0.5-0.5v-30.8c0-0.3,0.2-0.5,0.5-0.5h3.5c0.3,0,0.5,0.2,0.5,0.5v30.8
			C-39.1,19.9-39.3,20.1-39.6,20.1z M-42.5,19.1h2.5v-29.8h-2.5V19.1z"/>
	</g>
	<g class="st2">
		<rect x="12.6" y="23.4" class="st11" width="8.2" height="1.5"/>
		<path d="M20.8,25.5h-8.2c-0.3,0-0.5-0.2-0.5-0.5v-1.5c0-0.3,0.2-0.5,0.5-0.5h8.2c0.3,0,0.5,0.2,0.5,0.5V25
			C21.3,25.2,21.1,25.5,20.8,25.5z M13.1,24.5h7.2v-0.5h-7.2V24.5z"/>
	</g>
	<g class="st2">
		<rect x="-58" y="38.2" class="st11" width="2" height="6.5"/>
		<path d="M-56,45.3h-2c-0.3,0-0.5-0.2-0.5-0.5v-6.5c0-0.3,0.2-0.5,0.5-0.5h2c0.3,0,0.5,0.2,0.5,0.5v6.5C-55.5,45-55.7,45.3-56,45.3
			z M-57.5,44.3h1v-5.5h-1V44.3z"/>
	</g>
	<g class="st2">
		<rect x="99.1" y="37" class="st11" width="4.1" height="9.7"/>
		<path d="M103.2,47.2h-4.1c-0.3,0-0.5-0.2-0.5-0.5V37c0-0.3,0.2-0.5,0.5-0.5h4.1c0.3,0,0.5,0.2,0.5,0.5v9.7
			C103.7,46.9,103.5,47.2,103.2,47.2z M99.6,46.2h3.1v-8.7h-3.1V46.2z"/>
	</g>
	<g class="st2">
		<polygon class="st11" points="103.2,46.7 99.1,51 85.2,51 85.2,46.7 		"/>
		<path d="M99.1,51.5h-14c-0.3,0-0.5-0.2-0.5-0.5v-4.3c0-0.3,0.2-0.5,0.5-0.5h18.1c0.2,0,0.4,0.1,0.5,0.3c0.1,0.2,0,0.4-0.1,0.5
			l-4.1,4.3C99.4,51.5,99.3,51.5,99.1,51.5z M85.7,50.5h13.3l3.1-3.3H85.7V50.5z"/>
	</g>
	<g class="st2">
		<rect x="-28.1" y="-23" class="st11" width="30.9" height="42.6"/>
		<path d="M2.7,20.1h-30.9c-0.3,0-0.5-0.2-0.5-0.5V-23c0-0.3,0.2-0.5,0.5-0.5H2.7c0.3,0,0.5,0.2,0.5,0.5v42.6
			C3.2,19.9,3,20.1,2.7,20.1z M-27.6,19.1H2.2v-41.6h-29.9V19.1z"/>
	</g>
	<g class="st2">
		<rect x="-13.4" y="-25.1" class="st11" width="3.5" height="44.7"/>
		<path d="M-9.9,20.1h-3.5c-0.3,0-0.5-0.2-0.5-0.5v-44.7c0-0.3,0.2-0.5,0.5-0.5h3.5c0.3,0,0.5,0.2,0.5,0.5v44.7
			C-9.4,19.9-9.7,20.1-9.9,20.1z M-12.9,19.1h2.5v-43.7h-2.5V19.1z"/>
	</g>
</g>
<g>
	<g>
		<circle class="st11" cx="15.2" cy="15.3" r="14.8"/>
		<path d="M15.2,30.6c-8.4,0-15.3-6.9-15.3-15.3S6.7,0,15.2,0s15.3,6.9,15.3,15.3S23.6,30.6,15.2,30.6z M15.2,1
			C7.3,1,0.9,7.4,0.9,15.3s6.4,14.3,14.3,14.3s14.3-6.4,14.3-14.3S23,1,15.2,1z"/>
	</g>
	<g>
		<circle class="st11" cx="15.2" cy="15.3" r="11"/>
		<path d="M15.2,26.9c-6.4,0-11.5-5.2-11.5-11.5c0-6.4,5.2-11.5,11.5-11.5s11.5,5.2,11.5,11.5C26.7,21.7,21.5,26.9,15.2,26.9z
			 M15.2,4.8C9.3,4.8,4.6,9.5,4.6,15.3c0,5.8,4.7,10.5,10.5,10.5s10.5-4.7,10.5-10.5C25.7,9.5,21,4.8,15.2,4.8z"/>
	</g>
	<g>
		<g>
			<path d="M15.2,26.9c-0.3,0-0.5-0.2-0.5-0.5V4.3c0-0.3,0.2-0.5,0.5-0.5s0.5,0.2,0.5,0.5v22.1C15.7,26.6,15.4,26.9,15.2,26.9z"/>
		</g>
		<g>
			<path d="M7.4,23.6c-0.1,0-0.3,0-0.4-0.1c-0.2-0.2-0.2-0.5,0-0.7L22.6,7.1c0.2-0.2,0.5-0.2,0.7,0s0.2,0.5,0,0.7L7.7,23.5
				C7.6,23.6,7.5,23.6,7.4,23.6z"/>
		</g>
		<g>
			<path d="M26.2,15.8H4.1c-0.3,0-0.5-0.2-0.5-0.5s0.2-0.5,0.5-0.5h22.1c0.3,0,0.5,0.2,0.5,0.5S26.5,15.8,26.2,15.8z"/>
		</g>
		<g>
			<path d="M23,23.6c-0.1,0-0.3,0-0.4-0.1L7,7.9C6.8,7.7,6.8,7.3,7,7.1s0.5-0.2,0.7,0l15.6,15.6c0.2,0.2,0.2,0.5,0,0.7
				C23.2,23.6,23.1,23.6,23,23.6z"/>
		</g>
	</g>
	<g>
		<circle class="st11" cx="15.2" cy="15.3" r="2.3"/>
		<path d="M15.2,18.1c-1.5,0-2.8-1.3-2.8-2.8s1.3-2.8,2.8-2.8s2.8,1.3,2.8,2.8S16.7,18.1,15.2,18.1z M15.2,13.5
			c-1,0-1.8,0.8-1.8,1.8s0.8,1.8,1.8,1.8s1.8-0.8,1.8-1.8S16.2,13.5,15.2,13.5z"/>
	</g>
</g>
<g class="st1">
	<polygon class="st6" points="12.5,19.5 19.8,19.5 19.8,17.9 22.8,17.9 22.8,15.9 21.4,15.9 21.4,13.1 18.1,13.1 18.1,14 15.2,14 
		15.2,11.1 12,11.1 12,13.1 7.5,13.1 7.5,15.9 9.1,15.9 9.1,17.7 12.5,17.7 	"/>
	<path class="st2" d="M19.8,20h-7.3c-0.3,0-0.5-0.2-0.5-0.5v-1.3H9.1c-0.3,0-0.5-0.2-0.5-0.5v-1.3H7.5c-0.3,0-0.5-0.2-0.5-0.5v-2.9
		c0-0.3,0.2-0.5,0.5-0.5h4v-1.5c0-0.3,0.2-0.5,0.5-0.5h3.1c0.3,0,0.5,0.2,0.5,0.5v2.4h1.9v-0.5c0-0.3,0.2-0.5,0.5-0.5h3.3
		c0.3,0,0.5,0.2,0.5,0.5v2.4h0.9c0.3,0,0.5,0.2,0.5,0.5v2c0,0.3-0.2,0.5-0.5,0.5h-2.5v1.1C20.3,19.8,20.1,20,19.8,20z M13,19h6.3
		v-1.1c0-0.3,0.2-0.5,0.5-0.5h2.5v-1h-0.9c-0.3,0-0.5-0.2-0.5-0.5v-2.4h-2.3V14c0,0.3-0.2,0.5-0.5,0.5h-2.9c-0.3,0-0.5-0.2-0.5-0.5
		v-2.4h-2.1v1.5c0,0.3-0.2,0.5-0.5,0.5H8v1.9h1.1c0.3,0,0.5,0.2,0.5,0.5v1.3h2.9c0.3,0,0.5,0.2,0.5,0.5V19z"/>
</g>
<g class="st1">
	<polygon class="st6" points="15.2,3.1 24.5,-7.2 23.8,6.7 37.7,6 27.3,15.3 37.7,24.6 23.8,23.9 24.5,37.8 15.2,27.5 5.8,37.8 
		6.5,23.9 -7.3,24.6 3,15.3 -7.3,6 6.5,6.7 5.8,-7.2 	"/>
	<path class="st2" d="M5.8,38.3c-0.1,0-0.1,0-0.2,0c-0.2-0.1-0.3-0.3-0.3-0.5L6,24.4l-13.3,0.7c-0.2,0-0.4-0.1-0.5-0.3
		c-0.1-0.2,0-0.4,0.1-0.6l9.9-8.9l-9.9-8.9C-7.8,6.2-7.9,6-7.8,5.8c0.1-0.2,0.3-0.3,0.5-0.3L6,6.2L5.3-7.2c0-0.2,0.1-0.4,0.3-0.5
		c0.2-0.1,0.4,0,0.6,0.1l8.9,9.9l8.9-9.9c0.1-0.2,0.4-0.2,0.6-0.1C24.9-7.6,25-7.4,25-7.2L24.3,6.2l13.3-0.7c0.2,0,0.4,0.1,0.5,0.3
		c0.1,0.2,0,0.4-0.1,0.6l-9.9,8.9l9.9,8.9c0.2,0.1,0.2,0.4,0.1,0.6c-0.1,0.2-0.3,0.3-0.5,0.3l-13.3-0.7L25,37.8
		c0,0.2-0.1,0.4-0.3,0.5c-0.2,0.1-0.4,0-0.6-0.1l-8.9-9.9l-8.9,9.9C6.1,38.3,6,38.3,5.8,38.3z M6.5,23.4c0.1,0,0.3,0.1,0.4,0.1
		C7,23.7,7.1,23.8,7,23.9L6.4,36.4l8.4-9.3C14.9,27,15,27,15.2,27l0,0c0.1,0,0.3,0.1,0.4,0.2l8.4,9.3l-0.6-12.5c0-0.1,0-0.3,0.1-0.4
		c0.1-0.1,0.2-0.2,0.4-0.1l12.5,0.6L27,15.7c-0.1-0.1-0.2-0.2-0.2-0.4s0.1-0.3,0.2-0.4l9.3-8.4L23.8,7.2c-0.1,0-0.3,0-0.4-0.1
		c-0.1-0.1-0.2-0.2-0.1-0.4l0.6-12.5l-8.4,9.3c-0.2,0.2-0.6,0.2-0.7,0L6.4-5.8L7,6.7c0,0.1,0,0.3-0.1,0.4C6.8,7.2,6.7,7.2,6.5,7.2
		L-6,6.6l9.3,8.4c0.1,0.1,0.2,0.2,0.2,0.4s-0.1,0.3-0.2,0.4L-6,24.1L6.5,23.4C6.5,23.4,6.5,23.4,6.5,23.4z"/>
</g>
<g class="st1">
	<g class="st2">
		<circle cx="15.2" cy="14.7" r="8.9"/>
		<path d="M15.2,24.2c-5.2,0-9.4-4.2-9.4-9.4s4.2-9.4,9.4-9.4c5.2,0,9.4,4.2,9.4,9.4S20.4,24.2,15.2,24.2z M15.2,6.3
			c-4.6,0-8.4,3.8-8.4,8.4s3.8,8.4,8.4,8.4c4.6,0,8.4-3.8,8.4-8.4S19.8,6.3,15.2,6.3z"/>
	</g>
	<g class="st2">
		<circle class="st11" cx="15.2" cy="15.9" r="8.9"/>
		<path d="M15.2,25.3c-5.2,0-9.4-4.2-9.4-9.4s4.2-9.4,9.4-9.4c5.2,0,9.4,4.2,9.4,9.4S20.4,25.3,15.2,25.3z M15.2,7.4
			c-4.6,0-8.4,3.8-8.4,8.4s3.8,8.4,8.4,8.4c4.6,0,8.4-3.8,8.4-8.4S19.8,7.4,15.2,7.4z"/>
	</g>
</g>
</svg>
