<?xml version="1.0" encoding="utf-8"?>
<!-- Generator: Adobe Illustrator 23.1.0, SVG Export Plug-In . SVG Version: 6.00 Build 0)  -->
<svg version="1.1" id="Layer_1" xmlns="http://www.w3.org/2000/svg" xmlns:xlink="http://www.w3.org/1999/xlink" x="0px" y="0px"
	 viewBox="0 0 38 43.6" style="enable-background:new 0 0 38 43.6;" xml:space="preserve">
<style type="text/css">
	.st0{display:none;fill:#FFFFFF;}
	.st1{display:none;}
	.st2{display:inline;}
	.st3{stroke:#000000;stroke-linecap:round;stroke-linejoin:round;stroke-miterlimit:10;}
	.st4{fill:#FFFFFF;stroke:#000000;stroke-linecap:round;stroke-linejoin:round;stroke-miterlimit:10;}
	.st5{display:inline;fill:#FFFFFF;stroke:#000000;stroke-linecap:round;stroke-linejoin:round;stroke-miterlimit:10;}
	.st6{display:inline;fill:#FFFFFF;}
	.st7{display:inline;fill:none;stroke:#000000;stroke-linecap:round;stroke-linejoin:round;stroke-miterlimit:10;}
	.st8{fill:none;stroke:#000000;stroke-linecap:round;stroke-linejoin:round;stroke-miterlimit:10;}
	.st9{stroke:#000000;stroke-miterlimit:10;}
	.st10{fill:#FFFFFF;stroke:#000000;stroke-miterlimit:10;}
	.st11{fill:#FFFFFF;}
	.st12{display:inline;stroke:#000000;stroke-linecap:round;stroke-linejoin:round;stroke-miterlimit:10;}
</style>
<rect x="-323.6" y="-84.4" class="st0" width="600" height="300"/>
<g class="st1">
	<g class="st2">
		<path class="st3" d="M-323.4,91V-7.2c0-3,2.4-5.4,5.4-5.4h9.1c3,0,5.4,2.4,5.4,5.4v38.8c0,3,2.4,5.4,5.4,5.4h5.1
			c3,0,5.4-2.4,5.4-5.4V16.8c0-3,2.4-5.4,5.4-5.4h11.2c3,0,5.4,2.4,5.4,5.4v35.1c0,3,2.4,5.4,5.4,5.4h8.7c3,0,5.4-2.4,5.4-5.4v-90.2
			c0-3,2.4-5.4,5.4-5.4h15.8c3,0,5.4,2.4,5.4,5.4V4c0,3,2.4,5.4,5.4,5.4h7.1c3,0,5.4-2.4,5.4-5.4v-5.1c0-3,2.4-5.4,5.4-5.4h13.3
			c3,0,5.4,2.4,5.4,5.4v34.7c0,3,2.4,5.4,5.4,5.4h22.5c3,0,5.4,2.4,5.4,5.4v2.9c0,3,2.4,5.4,5.4,5.4h7c3,0,5.4-2.4,5.4-5.4V24.5
			c0-3,2.4-5.4,5.4-5.4h36.8c3,0,5.4,2.4,5.4,5.4v4.9c0,3,2.4,5.4,5.4,5.4h20.3c3,0,5.4-2.4,5.4-5.4v-4.9c0-3,2.4-5.4,5.4-5.4h30.8
			c3,0,5.4,2.4,5.4,5.4v7.1c0,3,2.4,5.4,5.4,5.4h5.8c3,0,5.4-2.4,5.4-5.4V12.7c0-3,2.4-5.4,5.4-5.4h14.5c3,0,5.4,2.4,5.4,5.4v16.6
			c0,3,2.4,5.4,5.4,5.4h11.7c3,0,5.4-2.4,5.4-5.4V-3.6c0-3,2.4-5.4,5.4-5.4h19.7c3,0,5.4,2.4,5.4,5.4v0c0,3,2.4,5.4,5.4,5.4h8.7
			c3,0,5.4-2.4,5.4-5.4v-39.9c0-3,2.4-5.4,5.4-5.4h13.8c3,0,5.4,2.4,5.4,5.4V-23c0,3,2.4,5.4,5.4,5.4h11.7c3,0,5.4,2.4,5.4,5.4v34.7
			c0,3,2.4,5.4,5.4,5.4h14.3c3,0,5.4-2.4,5.4-5.4V11.7c0-3,2.4-5.4,5.4-5.4h17.9c3,0,5.4,2.4,5.4,5.4v44.2c0,3,2.4,5.4,5.4,5.4h13.3
			c3,0,5.4-2.4,5.4-5.4v-81c0-3,2.4-5.4,5.4-5.4h13.3c3,0,5.4,2.4,5.4,5.4v58.7c0,3,2.4,5.4,5.4,5.4h10.3c3,0,5.4-2.4,5.4-5.4V-7.2
			c0-3,2.4-5.4,5.4-5.4h9.1c3,0,5.4,2.4,5.4,5.4v38.8c0,3,2.4,5.4,5.4,5.4h5.1c3,0,5.4-2.4,5.4-5.4V16.8c0-3,2.4-5.4,5.4-5.4h11.2
			c3,0,5.4,2.4,5.4,5.4v35.1c0,3,2.4,5.4,5.4,5.4h8.7c3,0,5.4-2.4,5.4-5.4v-90.2c0-3,2.4-5.4,5.4-5.4h15.8c3,0,5.4,2.4,5.4,5.4V4
			c0,3,2.4,5.4,5.4,5.4h7.1c3,0,5.4-2.4,5.4-5.4v-5.1c0-3,2.4-5.4,5.4-5.4h13.3c3,0,5.4,2.4,5.4,5.4v34.7c0,3,2.4,5.4,5.4,5.4h22.5
			c3,0,5.4,2.4,5.4,5.4v2.9c0,3,2.4,5.4,5.4,5.4h7c3,0,5.4-2.4,5.4-5.4V24.5c0-3,2.4-5.4,5.4-5.4h36.8c3,0,5.4,2.4,5.4,5.4v4.9
			c0,3,2.4,5.4,5.4,5.4h20.3c3,0,5.4-2.4,5.4-5.4v-4.9c0-3,2.4-5.4,5.4-5.4h30.8c3,0,5.4,2.4,5.4,5.4v7.1c0,3,2.4,5.4,5.4,5.4h5.8
			c3,0,5.4-2.4,5.4-5.4V12.7c0-3,2.4-5.4,5.4-5.4h14.5c3,0,5.4,2.4,5.4,5.4v16.6c0,3,2.4,5.4,5.4,5.4h11.7c3,0,5.4-2.4,5.4-5.4V-3.6
			c0-3,2.4-5.4,5.4-5.4h19.7c3,0,5.4,2.4,5.4,5.4v0c0,3,2.4,5.4,5.4,5.4h8.7c3,0,5.4-2.4,5.4-5.4v-39.9c0-3,2.4-5.4,5.4-5.4h13.8
			c3,0,5.4,2.4,5.4,5.4V-23c0,3,2.4,5.4,5.4,5.4h11.7c3,0,5.4,2.4,5.4,5.4v34.7c0,3,2.4,5.4,5.4,5.4h14.3c3,0,5.4-2.4,5.4-5.4V11.7
			c0-3,2.4-5.4,5.4-5.4h17.9c3,0,5.4,2.4,5.4,5.4v44.2c0,3,2.4,5.4,5.4,5.4h13.3c3,0,5.4-2.4,5.4-5.4v-81c0-3,2.4-5.4,5.4-5.4h13.3
			c3,0,5.4,2.4,5.4,5.4V85.4c0,3,2.4,5.4,5.4,5.4h15.7"/>
		<path class="st4" d="M876.6,92.5h-15.7c-3,0-5.4-2.4-5.4-5.4l0-105.7c0-3-2.4-5.4-5.4-5.4h-13.3c-3,0-5.4,2.4-5.4,5.4v81
			c0,3-2.4,5.4-5.4,5.4h-13.3c-3,0-5.4-2.4-5.4-5.4V18.2c0-3-2.4-5.4-5.4-5.4h-17.9c-3,0-5.4,2.4-5.4,5.4v10.7c0,3-2.4,5.4-5.4,5.4
			h-14.3c-3,0-5.4-2.4-5.4-5.4V-5.8c0-3-2.4-5.4-5.4-5.4h-11.7c-3,0-5.4-2.4-5.4-5.4v-20.5c0-3-2.4-5.4-5.4-5.4h-13.8
			c-3,0-5.4,2.4-5.4,5.4V2.9c0,3-2.4,5.4-5.4,5.4h-8.7c-3,0-5.4-2.4-5.4-5.4v0c0-3-2.4-5.4-5.4-5.4h-19.7c-3,0-5.4,2.4-5.4,5.4v32.9
			c0,3-2.4,5.4-5.4,5.4h-11.7c-3,0-5.4-2.4-5.4-5.4V19.2c0-3-2.4-5.4-5.4-5.4h-14.5c-3,0-5.4,2.4-5.4,5.4v18.9c0,3-2.4,5.4-5.4,5.4
			h-5.8c-3,0-5.4-2.4-5.4-5.4V31c0-3-2.4-5.4-5.4-5.4h-30.8c-3,0-5.4,2.4-5.4,5.4v4.9c0,3-2.4,5.4-5.4,5.4h-20.3
			c-3,0-5.4-2.4-5.4-5.4V31c0-3-2.4-5.4-5.4-5.4h-36.8c-3,0-5.4,2.4-5.4,5.4v22.9c0,3-2.4,5.4-5.4,5.4h-7c-3,0-5.4-2.4-5.4-5.4v-2.9
			c0-3-2.4-5.4-5.4-5.4h-22.5c-3,0-5.4-2.4-5.4-5.4V5.4c0-3-2.4-5.4-5.4-5.4h-13.3c-3,0-5.4,2.4-5.4,5.4v5.1c0,3-2.4,5.4-5.4,5.4
			h-7.1c-3,0-5.4-2.4-5.4-5.4v-42.4c0-3-2.4-5.4-5.4-5.4H359c-3,0-5.4,2.4-5.4,5.4v90.2c0,3-2.4,5.4-5.4,5.4h-8.7
			c-3,0-5.4-2.4-5.4-5.4V23.3c0-3-2.4-5.4-5.4-5.4h-11.2c-3,0-5.4,2.4-5.4,5.4v14.8c0,3-2.4,5.4-5.4,5.4h-5.1c-3,0-5.4-2.4-5.4-5.4
			V-0.7c0-3-2.4-5.4-5.4-5.4H282c-3,0-5.4,2.4-5.4,5.4v40.9c0,3-2.4,5.4-5.4,5.4h-10.3c-3,0-5.4-2.4-5.4-5.4v-58.7
			c0-3-2.4-5.4-5.4-5.4h-13.3c-3,0-5.4,2.4-5.4,5.4v81c0,3-2.4,5.4-5.4,5.4h-13.3c-3,0-5.4-2.4-5.4-5.4V18.2c0-3-2.4-5.4-5.4-5.4
			h-17.9c-3,0-5.4,2.4-5.4,5.4v10.7c0,3-2.4,5.4-5.4,5.4h-14.3c-3,0-5.4-2.4-5.4-5.4V-5.8c0-3-2.4-5.4-5.4-5.4h-11.7
			c-3,0-5.4-2.4-5.4-5.4v-20.5c0-3-2.4-5.4-5.4-5.4h-13.8c-3,0-5.4,2.4-5.4,5.4V2.9c0,3-2.4,5.4-5.4,5.4h-8.7c-3,0-5.4-2.4-5.4-5.4
			v0c0-3-2.4-5.4-5.4-5.4H62.5c-3,0-5.4,2.4-5.4,5.4v32.9c0,3-2.4,5.4-5.4,5.4H40.1c-3,0-5.4-2.4-5.4-5.4V19.2c0-3-2.4-5.4-5.4-5.4
			H14.9c-3,0-5.4,2.4-5.4,5.4v18.9c0,3-2.4,5.4-5.4,5.4h-5.8c-3,0-5.4-2.4-5.4-5.4V31c0-3-2.4-5.4-5.4-5.4h-30.8
			c-3,0-5.4,2.4-5.4,5.4v4.9c0,3-2.4,5.4-5.4,5.4h-20.3c-3,0-5.4-2.4-5.4-5.4V31c0-3-2.4-5.4-5.4-5.4h-36.8c-3,0-5.4,2.4-5.4,5.4
			v22.9c0,3-2.4,5.4-5.4,5.4h-7c-3,0-5.4-2.4-5.4-5.4v-2.9c0-3-2.4-5.4-5.4-5.4h-22.5c-3,0-5.4-2.4-5.4-5.4V5.4c0-3-2.4-5.4-5.4-5.4
			h-13.3c-3,0-5.4,2.4-5.4,5.4v5.1c0,3-2.4,5.4-5.4,5.4h-7.1c-3,0-5.4-2.4-5.4-5.4v-42.4c0-3-2.4-5.4-5.4-5.4H-241
			c-3,0-5.4,2.4-5.4,5.4v90.2c0,3-2.4,5.4-5.4,5.4h-8.7c-3,0-5.4-2.4-5.4-5.4V23.3c0-3-2.4-5.4-5.4-5.4h-11.2c-3,0-5.4,2.4-5.4,5.4
			v14.8c0,3-2.4,5.4-5.4,5.4h-5.1c-3,0-5.4-2.4-5.4-5.4V-0.7c0-3-2.4-5.4-5.4-5.4h-9.1c-3,0-5.4,2.4-5.4,5.4v93.2"/>
	</g>
	<polygon class="st5" points="-23.4,-57.8 -14.1,-68.1 -14.8,-54.2 -0.9,-54.9 -11.2,-45.6 -0.9,-36.3 -14.8,-37 -14.1,-23.1 
		-23.4,-33.4 -32.7,-23.1 -32,-37 -45.9,-36.3 -35.6,-45.6 -45.9,-54.9 -32,-54.2 -32.7,-68.1 	"/>
	<g class="st2">
		<path class="st3" d="M-6.9,203.1c-3.8,5-9.7,8.2-16.4,8.2c-11.4,0-20.6-9.2-20.6-20.6c0-11.4,9.2-20.6,20.6-20.6
			c6.7,0,12.7,3.2,16.4,8.2c-2-1.1-4.4-1.8-6.8-1.8c-7.8,0-14.2,6.3-14.2,14.2c0,7.8,6.3,14.2,14.2,14.2
			C-11.3,204.9-9,204.2-6.9,203.1z"/>
		<path class="st3" d="M-6.9,204.5c-3.8,5-9.7,8.2-16.4,8.2c-11.4,0-20.6-9.2-20.6-20.6c0-11.4,9.2-20.6,20.6-20.6
			c6.7,0,12.7,3.2,16.4,8.2c-2-1.1-4.4-1.8-6.8-1.8c-7.8,0-14.2,6.3-14.2,14.2c0,7.8,6.3,14.2,14.2,14.2
			C-11.3,206.3-9,205.7-6.9,204.5z"/>
	</g>
	<rect x="-323.4" y="165.6" class="st6" width="600" height="50"/>
	<line class="st7" x1="-323.4" y1="165.6" x2="276.6" y2="165.6"/>
	<g class="st2">
		<g>
			
				<rect x="1.9" y="116.4" transform="matrix(0.7071 -0.7071 0.7071 0.7071 -84.9054 37.4556)" class="st4" width="1.7" height="9.7"/>
			
				<rect x="-1.8" y="112.9" transform="matrix(0.7071 0.7071 -0.7071 0.7071 82.9596 35.1346)" class="st4" width="1.7" height="9.7"/>
		</g>
		<polygon class="st4" points="60.6,141.1 -94.5,141.1 -94.5,123.7 52.8,123.7 		"/>
		<polygon class="st4" points="14,123.7 7.3,102.3 5.2,102.3 5.2,123.7 		"/>
		<rect x="-94.5" y="141.1" class="st4" width="155.1" height="9.7"/>
		<polygon class="st4" points="-32.3,123.7 -32.3,116.6 -29.6,116.6 -26,123.7 		"/>
		<polygon class="st4" points="53.7,125.7 60.6,125.7 60.6,134 57.4,134 		"/>
		<rect x="-37.2" y="150.8" class="st4" width="42.4" height="4.3"/>
		<rect x="5.2" y="150.8" class="st4" width="27.3" height="2.2"/>
		<rect x="-81.4" y="150.8" class="st4" width="44.2" height="2.2"/>
		<rect x="-101.2" y="150.8" class="st4" width="19.8" height="4.1"/>
		<rect x="-111.4" y="152" class="st4" width="10.3" height="1.9"/>
		<rect x="-29.1" y="123.7" class="st4" width="34.3" height="27.1"/>
		<line class="st4" x1="5.2" y1="145.9" x2="-51" y2="145.9"/>
		<rect x="-35.8" y="107.4" class="st4" width="3.2" height="16.3"/>
		<rect x="-92.3" y="115.6" class="st4" width="25.6" height="8.1"/>
		<rect x="-94.9" y="107.4" class="st4" width="25.6" height="8.1"/>
		<rect x="-94.5" y="99.3" class="st4" width="25.6" height="8.1"/>
		<rect x="-90.7" y="94.7" class="st4" width="22.4" height="4.5"/>
		<rect x="-81.6" y="92.9" class="st4" width="3.5" height="30.8"/>
		<rect x="-26" y="127.5" class="st4" width="8.2" height="1.5"/>
		<rect x="-96.6" y="142.3" class="st4" width="2" height="6.5"/>
		<rect x="60.6" y="141.1" class="st4" width="4.1" height="9.7"/>
		<polygon class="st4" points="64.7,150.8 60.6,155.1 46.6,155.1 46.6,150.8 		"/>
		<rect x="-66.7" y="81.1" class="st4" width="30.9" height="42.6"/>
		<rect x="-52" y="79" class="st4" width="3.5" height="44.7"/>
	</g>
	<g class="st2">
		<circle class="st4" cx="-65" cy="150.8" r="14.8"/>
		<circle class="st4" cx="-65" cy="150.8" r="11"/>
		<g>
			<line class="st8" x1="-65" y1="139.7" x2="-65" y2="161.8"/>
			<line class="st8" x1="-57.2" y1="143" x2="-72.8" y2="158.6"/>
			<line class="st8" x1="-54" y1="150.8" x2="-76.1" y2="150.8"/>
			<line class="st8" x1="-57.2" y1="158.6" x2="-72.8" y2="143"/>
		</g>
		<circle class="st4" cx="-65" cy="150.8" r="2.3"/>
	</g>
	<polygon class="st5" points="-129.5,156 -122.2,156 -122.2,154.3 -119.2,154.3 -119.2,152.4 -120.6,152.4 -120.6,149.5 -124,149.5 
		-124,150.5 -126.8,150.5 -126.8,147.5 -130,147.5 -130,149.5 -134.5,149.5 -134.5,152.4 -132.9,152.4 -132.9,154.2 -129.5,154.2 	
		"/>
	<g class="st2">
		<circle class="st9" cx="-23.4" cy="-46.2" r="8.9"/>
		<circle class="st10" cx="-23.4" cy="-45" r="8.9"/>
	</g>
</g>
<g class="st1">
	<g class="st2">
		<path d="M-323.1,91V-7.2c0-3,2.4-5.4,5.4-5.4h9.1c3,0,5.4,2.4,5.4,5.4v38.8c0,3,2.4,5.4,5.4,5.4h5.1c3,0,5.4-2.4,5.4-5.4V16.8
			c0-3,2.4-5.4,5.4-5.4h11.2c3,0,5.4,2.4,5.4,5.4v35.1c0,3,2.4,5.4,5.4,5.4h8.7c3,0,5.4-2.4,5.4-5.4v-90.2c0-3,2.4-5.4,5.4-5.4h15.8
			c3,0,5.4,2.4,5.4,5.4V4c0,3,2.4,5.4,5.4,5.4h7.1c3,0,5.4-2.4,5.4-5.4v-5.1c0-3,2.4-5.4,5.4-5.4h13.3c3,0,5.4,2.4,5.4,5.4v34.7
			c0,3,2.4,5.4,5.4,5.4h22.5c3,0,5.4,2.4,5.4,5.4v2.9c0,3,2.4,5.4,5.4,5.4h7c3,0,5.4-2.4,5.4-5.4V24.5c0-3,2.4-5.4,5.4-5.4h36.8
			c3,0,5.4,2.4,5.4,5.4v4.9c0,3,2.4,5.4,5.4,5.4h20.3c3,0,5.4-2.4,5.4-5.4v-4.9c0-3,2.4-5.4,5.4-5.4h30.8c3,0,5.4,2.4,5.4,5.4v7.1
			c0,3,2.4,5.4,5.4,5.4h5.8c3,0,5.4-2.4,5.4-5.4V12.7c0-3,2.4-5.4,5.4-5.4h14.5c3,0,5.4,2.4,5.4,5.4v16.6c0,3,2.4,5.4,5.4,5.4H52
			c3,0,5.4-2.4,5.4-5.4V-3.6c0-3,2.4-5.4,5.4-5.4h19.7c3,0,5.4,2.4,5.4,5.4v0c0,3,2.4,5.4,5.4,5.4h8.7c3,0,5.4-2.4,5.4-5.4v-39.9
			c0-3,2.4-5.4,5.4-5.4h13.8c3,0,5.4,2.4,5.4,5.4V-23c0,3,2.4,5.4,5.4,5.4h11.7c3,0,5.4,2.4,5.4,5.4v34.7c0,3,2.4,5.4,5.4,5.4h14.3
			c3,0,5.4-2.4,5.4-5.4V11.7c0-3,2.4-5.4,5.4-5.4h17.9c3,0,5.4,2.4,5.4,5.4v44.2c0,3,2.4,5.4,5.4,5.4h13.3c3,0,5.4-2.4,5.4-5.4v-81
			c0-3,2.4-5.4,5.4-5.4h13.3c3,0,5.4,2.4,5.4,5.4v58.7c0,3,2.4,5.4,5.4,5.4h10.3c3,0,5.4-2.4,5.4-5.4V-7.2c0-3,2.4-5.4,5.4-5.4h9.1
			c3,0,5.4,2.4,5.4,5.4v38.8c0,3,2.4,5.4,5.4,5.4h5.1c3,0,5.4-2.4,5.4-5.4V16.8c0-3,2.4-5.4,5.4-5.4h11.2c3,0,5.4,2.4,5.4,5.4v35.1
			c0,3,2.4,5.4,5.4,5.4h8.7c3,0,5.4-2.4,5.4-5.4v-90.2c0-3,2.4-5.4,5.4-5.4h15.8c3,0,5.4,2.4,5.4,5.4V4c0,3,2.4,5.4,5.4,5.4h7.1
			c3,0,5.4-2.4,5.4-5.4v-5.1c0-3,2.4-5.4,5.4-5.4h13.3c3,0,5.4,2.4,5.4,5.4v34.7c0,3,2.4,5.4,5.4,5.4h22.5c3,0,5.4,2.4,5.4,5.4v2.9
			c0,3,2.4,5.4,5.4,5.4h7c3,0,5.4-2.4,5.4-5.4V24.5c0-3,2.4-5.4,5.4-5.4h36.8c3,0,5.4,2.4,5.4,5.4v4.9c0,3,2.4,5.4,5.4,5.4h20.3
			c3,0,5.4-2.4,5.4-5.4v-4.9c0-3,2.4-5.4,5.4-5.4h30.8c3,0,5.4,2.4,5.4,5.4v7.1c0,3,2.4,5.4,5.4,5.4h5.8c3,0,5.4-2.4,5.4-5.4V12.7
			c0-3,2.4-5.4,5.4-5.4h14.5c3,0,5.4,2.4,5.4,5.4v16.6c0,3,2.4,5.4,5.4,5.4H652c3,0,5.4-2.4,5.4-5.4V-3.6c0-3,2.4-5.4,5.4-5.4h19.7
			c3,0,5.4,2.4,5.4,5.4v0c0,3,2.4,5.4,5.4,5.4h8.7c3,0,5.4-2.4,5.4-5.4v-39.9c0-3,2.4-5.4,5.4-5.4h13.8c3,0,5.4,2.4,5.4,5.4V-23
			c0,3,2.4,5.4,5.4,5.4h11.7c3,0,5.4,2.4,5.4,5.4v34.7c0,3,2.4,5.4,5.4,5.4h14.3c3,0,5.4-2.4,5.4-5.4V11.7c0-3,2.4-5.4,5.4-5.4h17.9
			c3,0,5.4,2.4,5.4,5.4v44.2c0,3,2.4,5.4,5.4,5.4h13.3c3,0,5.4-2.4,5.4-5.4v-81c0-3,2.4-5.4,5.4-5.4h13.3c3,0,5.4,2.4,5.4,5.4V85.4
			c0,3,2.4,5.4,5.4,5.4h15.7"/>
		<path d="M-323.1,91.5c-0.3,0-0.5-0.2-0.5-0.5V-7.2c0-3.2,2.6-5.9,5.9-5.9h9.1c3.2,0,5.9,2.6,5.9,5.9v38.8c0,2.7,2.2,4.9,4.9,4.9
			h5.1c2.7,0,4.9-2.2,4.9-4.9V16.8c0-3.2,2.6-5.9,5.9-5.9h11.2c3.2,0,5.9,2.6,5.9,5.9v35.1c0,2.7,2.2,4.9,4.9,4.9h8.7
			c2.7,0,4.9-2.2,4.9-4.9v-90.2c0-3.2,2.6-5.9,5.9-5.9h15.8c3.2,0,5.9,2.6,5.9,5.9V4c0,2.7,2.2,4.9,4.9,4.9h7.1
			c2.7,0,4.9-2.2,4.9-4.9v-5.1c0-3.2,2.6-5.9,5.9-5.9h13.3c3.2,0,5.9,2.6,5.9,5.9v34.7c0,2.7,2.2,4.9,4.9,4.9h22.5
			c3.2,0,5.9,2.6,5.9,5.9v2.9c0,2.7,2.2,4.9,4.9,4.9h7c2.7,0,4.9-2.2,4.9-4.9V24.5c0-3.2,2.6-5.9,5.9-5.9h36.8
			c3.2,0,5.9,2.6,5.9,5.9v4.9c0,2.7,2.2,4.9,4.9,4.9h20.3c2.7,0,4.9-2.2,4.9-4.9v-4.9c0-3.2,2.6-5.9,5.9-5.9h30.8
			c3.2,0,5.9,2.6,5.9,5.9v7.1c0,2.7,2.2,4.9,4.9,4.9h5.8c2.7,0,4.9-2.2,4.9-4.9V12.7c0-3.2,2.6-5.9,5.9-5.9h14.5
			c3.2,0,5.9,2.6,5.9,5.9v16.6c0,2.7,2.2,4.9,4.9,4.9H52c2.7,0,4.9-2.2,4.9-4.9V-3.6c0-3.2,2.6-5.9,5.9-5.9h19.7
			c3.2,0,5.9,2.6,5.9,5.9c0,2.7,2.2,4.9,4.9,4.9h8.7c2.7,0,4.9-2.2,4.9-4.9v-39.9c0-3.2,2.6-5.9,5.9-5.9h13.8c3.2,0,5.9,2.6,5.9,5.9
			V-23c0,2.7,2.2,4.9,4.9,4.9h11.7c3.2,0,5.9,2.6,5.9,5.9v34.7c0,2.7,2.2,4.9,4.9,4.9h14.3c2.7,0,4.9-2.2,4.9-4.9V11.7
			c0-3.2,2.6-5.9,5.9-5.9h17.9c3.2,0,5.9,2.6,5.9,5.9v44.2c0,2.7,2.2,4.9,4.9,4.9h13.3c2.7,0,4.9-2.2,4.9-4.9v-81
			c0-3.2,2.6-5.9,5.9-5.9h13.3c3.2,0,5.9,2.6,5.9,5.9v58.7c0,2.7,2.2,4.9,4.9,4.9h10.3c2.7,0,4.9-2.2,4.9-4.9V-7.2
			c0-3.2,2.6-5.9,5.9-5.9h9.1c3.2,0,5.9,2.6,5.9,5.9v38.8c0,2.7,2.2,4.9,4.9,4.9h5.1c2.7,0,4.9-2.2,4.9-4.9V16.8
			c0-3.2,2.6-5.9,5.9-5.9h11.2c3.2,0,5.9,2.6,5.9,5.9v35.1c0,2.7,2.2,4.9,4.9,4.9h8.7c2.7,0,4.9-2.2,4.9-4.9v-90.2
			c0-3.2,2.6-5.9,5.9-5.9h15.8c3.2,0,5.9,2.6,5.9,5.9V4c0,2.7,2.2,4.9,4.9,4.9h7.1c2.7,0,4.9-2.2,4.9-4.9v-5.1
			c0-3.2,2.6-5.9,5.9-5.9h13.3c3.2,0,5.9,2.6,5.9,5.9v34.7c0,2.7,2.2,4.9,4.9,4.9h22.5c3.2,0,5.9,2.6,5.9,5.9v2.9
			c0,2.7,2.2,4.9,4.9,4.9h7c2.7,0,4.9-2.2,4.9-4.9V24.5c0-3.2,2.6-5.9,5.9-5.9h36.8c3.2,0,5.9,2.6,5.9,5.9v4.9
			c0,2.7,2.2,4.9,4.9,4.9h20.3c2.7,0,4.9-2.2,4.9-4.9v-4.9c0-3.2,2.6-5.9,5.9-5.9h30.8c3.2,0,5.9,2.6,5.9,5.9v7.1
			c0,2.7,2.2,4.9,4.9,4.9h5.8c2.7,0,4.9-2.2,4.9-4.9V12.7c0-3.2,2.6-5.9,5.9-5.9h14.5c3.2,0,5.9,2.6,5.9,5.9v16.6
			c0,2.7,2.2,4.9,4.9,4.9H652c2.7,0,4.9-2.2,4.9-4.9V-3.6c0-3.2,2.6-5.9,5.9-5.9h19.7c3.2,0,5.9,2.6,5.9,5.9c0,2.7,2.2,4.9,4.9,4.9
			h8.7c2.7,0,4.9-2.2,4.9-4.9v-39.9c0-3.2,2.6-5.9,5.9-5.9h13.8c3.2,0,5.9,2.6,5.9,5.9V-23c0,2.7,2.2,4.9,4.9,4.9h11.7
			c3.2,0,5.9,2.6,5.9,5.9v34.7c0,2.7,2.2,4.9,4.9,4.9h14.3c2.7,0,4.9-2.2,4.9-4.9V11.7c0-3.2,2.6-5.9,5.9-5.9h17.9
			c3.2,0,5.9,2.6,5.9,5.9v44.2c0,2.7,2.2,4.9,4.9,4.9h13.3c2.7,0,4.9-2.2,4.9-4.9v-81c0-3.2,2.6-5.9,5.9-5.9h13.3
			c3.2,0,5.9,2.6,5.9,5.9V85.4c0,2.7,2.2,4.9,4.9,4.9h15.7c0.3,0,0.5,0.2,0.5,0.5s-0.2,0.5-0.5,0.5h-15.7c-3.2,0-5.9-2.6-5.9-5.9
			V-25.1c0-2.7-2.2-4.9-4.9-4.9h-13.3c-2.7,0-4.9,2.2-4.9,4.9v81c0,3.2-2.6,5.9-5.9,5.9h-13.3c-3.2,0-5.9-2.6-5.9-5.9V11.7
			c0-2.7-2.2-4.9-4.9-4.9h-17.9c-2.7,0-4.9,2.2-4.9,4.9v10.7c0,3.2-2.6,5.9-5.9,5.9h-14.3c-3.2,0-5.9-2.6-5.9-5.9v-34.7
			c0-2.7-2.2-4.9-4.9-4.9h-11.7c-3.2,0-5.9-2.6-5.9-5.9v-20.5c0-2.7-2.2-4.9-4.9-4.9h-13.8c-2.7,0-4.9,2.2-4.9,4.9v39.9
			c0,3.2-2.6,5.9-5.9,5.9h-8.7c-3.2,0-5.9-2.6-5.9-5.9c0-2.7-2.2-4.9-4.9-4.9h-19.7c-2.7,0-4.9,2.2-4.9,4.9v32.9
			c0,3.2-2.6,5.9-5.9,5.9h-11.7c-3.2,0-5.9-2.6-5.9-5.9V12.7c0-2.7-2.2-4.9-4.9-4.9h-14.5c-2.7,0-4.9,2.2-4.9,4.9v18.9
			c0,3.2-2.6,5.9-5.9,5.9h-5.8c-3.2,0-5.9-2.6-5.9-5.9v-7.1c0-2.7-2.2-4.9-4.9-4.9h-30.8c-2.7,0-4.9,2.2-4.9,4.9v4.9
			c0,3.2-2.6,5.9-5.9,5.9h-20.3c-3.2,0-5.9-2.6-5.9-5.9v-4.9c0-2.7-2.2-4.9-4.9-4.9h-36.8c-2.7,0-4.9,2.2-4.9,4.9v22.9
			c0,3.2-2.6,5.9-5.9,5.9h-7c-3.2,0-5.9-2.6-5.9-5.9v-2.9c0-2.7-2.2-4.9-4.9-4.9h-22.5c-3.2,0-5.9-2.6-5.9-5.9V-1.1
			c0-2.7-2.2-4.9-4.9-4.9h-13.3c-2.7,0-4.9,2.2-4.9,4.9V4c0,3.2-2.6,5.9-5.9,5.9h-7.1c-3.2,0-5.9-2.6-5.9-5.9v-42.4
			c0-2.7-2.2-4.9-4.9-4.9h-15.8c-2.7,0-4.9,2.2-4.9,4.9v90.2c0,3.2-2.6,5.9-5.9,5.9h-8.7c-3.2,0-5.9-2.6-5.9-5.9V16.8
			c0-2.7-2.2-4.9-4.9-4.9h-11.2c-2.7,0-4.9,2.2-4.9,4.9v14.8c0,3.2-2.6,5.9-5.9,5.9H302c-3.2,0-5.9-2.6-5.9-5.9V-7.2
			c0-2.7-2.2-4.9-4.9-4.9h-9.1c-2.7,0-4.9,2.2-4.9,4.9v40.9c0,3.2-2.6,5.9-5.9,5.9h-10.3c-3.2,0-5.9-2.6-5.9-5.9v-58.7
			c0-2.7-2.2-4.9-4.9-4.9h-13.3c-2.7,0-4.9,2.2-4.9,4.9v81c0,3.2-2.6,5.9-5.9,5.9h-13.3c-3.2,0-5.9-2.6-5.9-5.9V11.7
			c0-2.7-2.2-4.9-4.9-4.9h-17.9c-2.7,0-4.9,2.2-4.9,4.9v10.7c0,3.2-2.6,5.9-5.9,5.9h-14.3c-3.2,0-5.9-2.6-5.9-5.9v-34.7
			c0-2.7-2.2-4.9-4.9-4.9h-11.7c-3.2,0-5.9-2.6-5.9-5.9v-20.5c0-2.7-2.2-4.9-4.9-4.9h-13.8c-2.7,0-4.9,2.2-4.9,4.9v39.9
			c0,3.2-2.6,5.9-5.9,5.9h-8.7c-3.2,0-5.9-2.6-5.9-5.9c0-2.7-2.2-4.9-4.9-4.9H62.7c-2.7,0-4.9,2.2-4.9,4.9v32.9
			c0,3.2-2.6,5.9-5.9,5.9H40.4c-3.2,0-5.9-2.6-5.9-5.9V12.7c0-2.7-2.2-4.9-4.9-4.9H15.2c-2.7,0-4.9,2.2-4.9,4.9v18.9
			c0,3.2-2.6,5.9-5.9,5.9h-5.8c-3.2,0-5.9-2.6-5.9-5.9v-7.1c0-2.7-2.2-4.9-4.9-4.9h-30.8c-2.7,0-4.9,2.2-4.9,4.9v4.9
			c0,3.2-2.6,5.9-5.9,5.9h-20.3c-3.2,0-5.9-2.6-5.9-5.9v-4.9c0-2.7-2.2-4.9-4.9-4.9h-36.8c-2.7,0-4.9,2.2-4.9,4.9v22.9
			c0,3.2-2.6,5.9-5.9,5.9h-7c-3.2,0-5.9-2.6-5.9-5.9v-2.9c0-2.7-2.2-4.9-4.9-4.9h-22.5c-3.2,0-5.9-2.6-5.9-5.9V-1.1
			c0-2.7-2.2-4.9-4.9-4.9h-13.3c-2.7,0-4.9,2.2-4.9,4.9V4c0,3.2-2.6,5.9-5.9,5.9h-7.1c-3.2,0-5.9-2.6-5.9-5.9v-42.4
			c0-2.7-2.2-4.9-4.9-4.9h-15.8c-2.7,0-4.9,2.2-4.9,4.9v90.2c0,3.2-2.6,5.9-5.9,5.9h-8.7c-3.2,0-5.9-2.6-5.9-5.9V16.8
			c0-2.7-2.2-4.9-4.9-4.9h-11.2c-2.7,0-4.9,2.2-4.9,4.9v14.8c0,3.2-2.6,5.9-5.9,5.9h-5.1c-3.2,0-5.9-2.6-5.9-5.9V-7.2
			c0-2.7-2.2-4.9-4.9-4.9h-9.1c-2.7,0-4.9,2.2-4.9,4.9V91C-322.6,91.3-322.9,91.5-323.1,91.5z"/>
	</g>
	<g class="st2">
		<path class="st11" d="M876.9,92.5h-15.7c-3,0-5.4-2.4-5.4-5.4l0-105.7c0-3-2.4-5.4-5.4-5.4h-13.3c-3,0-5.4,2.4-5.4,5.4v81
			c0,3-2.4,5.4-5.4,5.4h-13.3c-3,0-5.4-2.4-5.4-5.4V18.2c0-3-2.4-5.4-5.4-5.4h-17.9c-3,0-5.4,2.4-5.4,5.4v10.7c0,3-2.4,5.4-5.4,5.4
			h-14.3c-3,0-5.4-2.4-5.4-5.4V-5.8c0-3-2.4-5.4-5.4-5.4h-11.7c-3,0-5.4-2.4-5.4-5.4v-20.5c0-3-2.4-5.4-5.4-5.4h-13.8
			c-3,0-5.4,2.4-5.4,5.4V2.9c0,3-2.4,5.4-5.4,5.4h-8.7c-3,0-5.4-2.4-5.4-5.4v0c0-3-2.4-5.4-5.4-5.4h-19.7c-3,0-5.4,2.4-5.4,5.4v32.9
			c0,3-2.4,5.4-5.4,5.4h-11.7c-3,0-5.4-2.4-5.4-5.4V19.2c0-3-2.4-5.4-5.4-5.4h-14.5c-3,0-5.4,2.4-5.4,5.4v18.9c0,3-2.4,5.4-5.4,5.4
			h-5.8c-3,0-5.4-2.4-5.4-5.4V31c0-3-2.4-5.4-5.4-5.4h-30.8c-3,0-5.4,2.4-5.4,5.4v4.9c0,3-2.4,5.4-5.4,5.4h-20.3
			c-3,0-5.4-2.4-5.4-5.4V31c0-3-2.4-5.4-5.4-5.4h-36.8c-3,0-5.4,2.4-5.4,5.4v22.9c0,3-2.4,5.4-5.4,5.4h-7c-3,0-5.4-2.4-5.4-5.4v-2.9
			c0-3-2.4-5.4-5.4-5.4h-22.5c-3,0-5.4-2.4-5.4-5.4V5.4c0-3-2.4-5.4-5.4-5.4h-13.3c-3,0-5.4,2.4-5.4,5.4v5.1c0,3-2.4,5.4-5.4,5.4
			h-7.1c-3,0-5.4-2.4-5.4-5.4v-42.4c0-3-2.4-5.4-5.4-5.4h-15.8c-3,0-5.4,2.4-5.4,5.4v90.2c0,3-2.4,5.4-5.4,5.4h-8.7
			c-3,0-5.4-2.4-5.4-5.4V23.3c0-3-2.4-5.4-5.4-5.4h-11.2c-3,0-5.4,2.4-5.4,5.4v14.8c0,3-2.4,5.4-5.4,5.4H302c-3,0-5.4-2.4-5.4-5.4
			V-0.7c0-3-2.4-5.4-5.4-5.4h-9.1c-3,0-5.4,2.4-5.4,5.4v40.9c0,3-2.4,5.4-5.4,5.4h-10.3c-3,0-5.4-2.4-5.4-5.4v-58.7
			c0-3-2.4-5.4-5.4-5.4h-13.3c-3,0-5.4,2.4-5.4,5.4v81c0,3-2.4,5.4-5.4,5.4h-13.3c-3,0-5.4-2.4-5.4-5.4V18.2c0-3-2.4-5.4-5.4-5.4
			h-17.9c-3,0-5.4,2.4-5.4,5.4v10.7c0,3-2.4,5.4-5.4,5.4h-14.3c-3,0-5.4-2.4-5.4-5.4V-5.8c0-3-2.4-5.4-5.4-5.4h-11.7
			c-3,0-5.4-2.4-5.4-5.4v-20.5c0-3-2.4-5.4-5.4-5.4h-13.8c-3,0-5.4,2.4-5.4,5.4V2.9c0,3-2.4,5.4-5.4,5.4h-8.7c-3,0-5.4-2.4-5.4-5.4
			v0c0-3-2.4-5.4-5.4-5.4H62.8c-3,0-5.4,2.4-5.4,5.4v32.9c0,3-2.4,5.4-5.4,5.4H40.4c-3,0-5.4-2.4-5.4-5.4V19.2c0-3-2.4-5.4-5.4-5.4
			H15.2c-3,0-5.4,2.4-5.4,5.4v18.9c0,3-2.4,5.4-5.4,5.4h-5.8c-3,0-5.4-2.4-5.4-5.4V31c0-3-2.4-5.4-5.4-5.4h-30.8
			c-3,0-5.4,2.4-5.4,5.4v4.9c0,3-2.4,5.4-5.4,5.4h-20.3c-3,0-5.4-2.4-5.4-5.4V31c0-3-2.4-5.4-5.4-5.4h-36.8c-3,0-5.4,2.4-5.4,5.4
			v22.9c0,3-2.4,5.4-5.4,5.4h-7c-3,0-5.4-2.4-5.4-5.4v-2.9c0-3-2.4-5.4-5.4-5.4h-22.5c-3,0-5.4-2.4-5.4-5.4V5.4c0-3-2.4-5.4-5.4-5.4
			h-13.3c-3,0-5.4,2.4-5.4,5.4v5.1c0,3-2.4,5.4-5.4,5.4h-7.1c-3,0-5.4-2.4-5.4-5.4v-42.4c0-3-2.4-5.4-5.4-5.4h-15.8
			c-3,0-5.4,2.4-5.4,5.4v90.2c0,3-2.4,5.4-5.4,5.4h-8.7c-3,0-5.4-2.4-5.4-5.4V23.3c0-3-2.4-5.4-5.4-5.4h-11.2c-3,0-5.4,2.4-5.4,5.4
			v14.8c0,3-2.4,5.4-5.4,5.4h-5.1c-3,0-5.4-2.4-5.4-5.4V-0.7c0-3-2.4-5.4-5.4-5.4h-9.1c-3,0-5.4,2.4-5.4,5.4v93.2"/>
		<path d="M876.9,93h-15.7c-3.2,0-5.9-2.6-5.9-5.9l0-105.7c0-2.7-2.2-4.9-4.9-4.9h-13.3c-2.7,0-4.9,2.2-4.9,4.9v81
			c0,3.2-2.6,5.9-5.9,5.9h-13.3c-3.2,0-5.9-2.6-5.9-5.9V18.2c0-2.7-2.2-4.9-4.9-4.9h-17.9c-2.7,0-4.9,2.2-4.9,4.9v10.7
			c0,3.2-2.6,5.9-5.9,5.9h-14.3c-3.2,0-5.9-2.6-5.9-5.9V-5.8c0-2.7-2.2-4.9-4.9-4.9h-11.7c-3.2,0-5.9-2.6-5.9-5.9v-20.5
			c0-2.7-2.2-4.9-4.9-4.9h-13.8c-2.7,0-4.9,2.2-4.9,4.9V2.9c0,3.2-2.6,5.9-5.9,5.9h-8.7c-3.2,0-5.9-2.6-5.9-5.9
			c0-2.7-2.2-4.9-4.9-4.9h-19.7c-2.7,0-4.9,2.2-4.9,4.9v32.9c0,3.2-2.6,5.9-5.9,5.9h-11.7c-3.2,0-5.9-2.6-5.9-5.9V19.2
			c0-2.7-2.2-4.9-4.9-4.9h-14.5c-2.7,0-4.9,2.2-4.9,4.9v18.9c0,3.2-2.6,5.9-5.9,5.9h-5.8c-3.2,0-5.9-2.6-5.9-5.9V31
			c0-2.7-2.2-4.9-4.9-4.9h-30.8c-2.7,0-4.9,2.2-4.9,4.9v4.9c0,3.2-2.6,5.9-5.9,5.9h-20.3c-3.2,0-5.9-2.6-5.9-5.9V31
			c0-2.7-2.2-4.9-4.9-4.9h-36.8c-2.7,0-4.9,2.2-4.9,4.9v22.9c0,3.2-2.6,5.9-5.9,5.9h-7c-3.2,0-5.9-2.6-5.9-5.9v-2.9
			c0-2.7-2.2-4.9-4.9-4.9h-22.5c-3.2,0-5.9-2.6-5.9-5.9V5.4c0-2.7-2.2-4.9-4.9-4.9h-13.3c-2.7,0-4.9,2.2-4.9,4.9v5.1
			c0,3.2-2.6,5.9-5.9,5.9h-7.1c-3.2,0-5.9-2.6-5.9-5.9v-42.4c0-2.7-2.2-4.9-4.9-4.9h-15.8c-2.7,0-4.9,2.2-4.9,4.9v90.2
			c0,3.2-2.6,5.9-5.9,5.9h-8.7c-3.2,0-5.9-2.6-5.9-5.9V23.3c0-2.7-2.2-4.9-4.9-4.9h-11.2c-2.7,0-4.9,2.2-4.9,4.9v14.8
			c0,3.2-2.6,5.9-5.9,5.9H302c-3.2,0-5.9-2.6-5.9-5.9V-0.7c0-2.7-2.2-4.9-4.9-4.9h-9.1c-2.7,0-4.9,2.2-4.9,4.9v40.9
			c0,3.2-2.6,5.9-5.9,5.9h-10.3c-3.2,0-5.9-2.6-5.9-5.9v-58.7c0-2.7-2.2-4.9-4.9-4.9h-13.3c-2.7,0-4.9,2.2-4.9,4.9v81
			c0,3.2-2.6,5.9-5.9,5.9h-13.3c-3.2,0-5.9-2.6-5.9-5.9V18.2c0-2.7-2.2-4.9-4.9-4.9h-17.9c-2.7,0-4.9,2.2-4.9,4.9v10.7
			c0,3.2-2.6,5.9-5.9,5.9h-14.3c-3.2,0-5.9-2.6-5.9-5.9V-5.8c0-2.7-2.2-4.9-4.9-4.9h-11.7c-3.2,0-5.9-2.6-5.9-5.9v-20.5
			c0-2.7-2.2-4.9-4.9-4.9h-13.8c-2.7,0-4.9,2.2-4.9,4.9V2.9c0,3.2-2.6,5.9-5.9,5.9h-8.7c-3.2,0-5.9-2.6-5.9-5.9
			c0-2.7-2.2-4.9-4.9-4.9H62.8c-2.7,0-4.9,2.2-4.9,4.9v32.9c0,3.2-2.6,5.9-5.9,5.9H40.4c-3.2,0-5.9-2.6-5.9-5.9V19.2
			c0-2.7-2.2-4.9-4.9-4.9H15.2c-2.7,0-4.9,2.2-4.9,4.9v18.9c0,3.2-2.6,5.9-5.9,5.9h-5.8c-3.2,0-5.9-2.6-5.9-5.9V31
			c0-2.7-2.2-4.9-4.9-4.9h-30.8c-2.7,0-4.9,2.2-4.9,4.9v4.9c0,3.2-2.6,5.9-5.9,5.9h-20.3c-3.2,0-5.9-2.6-5.9-5.9V31
			c0-2.7-2.2-4.9-4.9-4.9h-36.8c-2.7,0-4.9,2.2-4.9,4.9v22.9c0,3.2-2.6,5.9-5.9,5.9h-7c-3.2,0-5.9-2.6-5.9-5.9v-2.9
			c0-2.7-2.2-4.9-4.9-4.9h-22.5c-3.2,0-5.9-2.6-5.9-5.9V5.4c0-2.7-2.2-4.9-4.9-4.9h-13.3c-2.7,0-4.9,2.2-4.9,4.9v5.1
			c0,3.2-2.6,5.9-5.9,5.9h-7.1c-3.2,0-5.9-2.6-5.9-5.9v-42.4c0-2.7-2.2-4.9-4.9-4.9h-15.8c-2.7,0-4.9,2.2-4.9,4.9v90.2
			c0,3.2-2.6,5.9-5.9,5.9h-8.7c-3.2,0-5.9-2.6-5.9-5.9V23.3c0-2.7-2.2-4.9-4.9-4.9h-11.2c-2.7,0-4.9,2.2-4.9,4.9v14.8
			c0,3.2-2.6,5.9-5.9,5.9h-5.1c-3.2,0-5.9-2.6-5.9-5.9V-0.7c0-2.7-2.2-4.9-4.9-4.9h-9.1c-2.7,0-4.9,2.2-4.9,4.9v93.2
			c0,0.3-0.2,0.5-0.5,0.5s-0.5-0.2-0.5-0.5V-0.7c0-3.2,2.6-5.9,5.9-5.9h9.1c3.2,0,5.9,2.6,5.9,5.9v38.8c0,2.7,2.2,4.9,4.9,4.9h5.1
			c2.7,0,4.9-2.2,4.9-4.9V23.3c0-3.2,2.6-5.9,5.9-5.9h11.2c3.2,0,5.9,2.6,5.9,5.9v35.1c0,2.7,2.2,4.9,4.9,4.9h8.7
			c2.7,0,4.9-2.2,4.9-4.9v-90.2c0-3.2,2.6-5.9,5.9-5.9h15.8c3.2,0,5.9,2.6,5.9,5.9v42.4c0,2.7,2.2,4.9,4.9,4.9h7.1
			c2.7,0,4.9-2.2,4.9-4.9V5.4c0-3.2,2.6-5.9,5.9-5.9h13.3c3.2,0,5.9,2.6,5.9,5.9v34.7c0,2.7,2.2,4.9,4.9,4.9h22.5
			c3.2,0,5.9,2.6,5.9,5.9v2.9c0,2.7,2.2,4.9,4.9,4.9h7c2.7,0,4.9-2.2,4.9-4.9V31c0-3.2,2.6-5.9,5.9-5.9h36.8c3.2,0,5.9,2.6,5.9,5.9
			v4.9c0,2.7,2.2,4.9,4.9,4.9h20.3c2.7,0,4.9-2.2,4.9-4.9V31c0-3.2,2.6-5.9,5.9-5.9h30.8c3.2,0,5.9,2.6,5.9,5.9v7.1
			c0,2.7,2.2,4.9,4.9,4.9h5.8c2.7,0,4.9-2.2,4.9-4.9V19.2c0-3.2,2.6-5.9,5.9-5.9h14.5c3.2,0,5.9,2.6,5.9,5.9v16.6
			c0,2.7,2.2,4.9,4.9,4.9H52c2.7,0,4.9-2.2,4.9-4.9V2.9c0-3.2,2.6-5.9,5.9-5.9h19.7c3.2,0,5.9,2.6,5.9,5.9c0,2.7,2.2,4.9,4.9,4.9
			h8.7c2.7,0,4.9-2.2,4.9-4.9v-39.9c0-3.2,2.6-5.9,5.9-5.9h13.8c3.2,0,5.9,2.6,5.9,5.9v20.5c0,2.7,2.2,4.9,4.9,4.9h11.7
			c3.2,0,5.9,2.6,5.9,5.9v34.7c0,2.7,2.2,4.9,4.9,4.9h14.3c2.7,0,4.9-2.2,4.9-4.9V18.2c0-3.2,2.6-5.9,5.9-5.9h17.9
			c3.2,0,5.9,2.6,5.9,5.9v44.2c0,2.7,2.2,4.9,4.9,4.9h13.3c2.7,0,4.9-2.2,4.9-4.9v-81c0-3.2,2.6-5.9,5.9-5.9h13.3
			c3.2,0,5.9,2.6,5.9,5.9v58.7c0,2.7,2.2,4.9,4.9,4.9h10.3c2.7,0,4.9-2.2,4.9-4.9V-0.7c0-3.2,2.6-5.9,5.9-5.9h9.1
			c3.2,0,5.9,2.6,5.9,5.9v38.8c0,2.7,2.2,4.9,4.9,4.9h5.1c2.7,0,4.9-2.2,4.9-4.9V23.3c0-3.2,2.6-5.9,5.9-5.9h11.2
			c3.2,0,5.9,2.6,5.9,5.9v35.1c0,2.7,2.2,4.9,4.9,4.9h8.7c2.7,0,4.9-2.2,4.9-4.9v-90.2c0-3.2,2.6-5.9,5.9-5.9h15.8
			c3.2,0,5.9,2.6,5.9,5.9v42.4c0,2.7,2.2,4.9,4.9,4.9h7.1c2.7,0,4.9-2.2,4.9-4.9V5.4c0-3.2,2.6-5.9,5.9-5.9h13.3
			c3.2,0,5.9,2.6,5.9,5.9v34.7c0,2.7,2.2,4.9,4.9,4.9h22.5c3.2,0,5.9,2.6,5.9,5.9v2.9c0,2.7,2.2,4.9,4.9,4.9h7
			c2.7,0,4.9-2.2,4.9-4.9V31c0-3.2,2.6-5.9,5.9-5.9h36.8c3.2,0,5.9,2.6,5.9,5.9v4.9c0,2.7,2.2,4.9,4.9,4.9h20.3
			c2.7,0,4.9-2.2,4.9-4.9V31c0-3.2,2.6-5.9,5.9-5.9h30.8c3.2,0,5.9,2.6,5.9,5.9v7.1c0,2.7,2.2,4.9,4.9,4.9h5.8
			c2.7,0,4.9-2.2,4.9-4.9V19.2c0-3.2,2.6-5.9,5.9-5.9h14.5c3.2,0,5.9,2.6,5.9,5.9v16.6c0,2.7,2.2,4.9,4.9,4.9H652
			c2.7,0,4.9-2.2,4.9-4.9V2.9c0-3.2,2.6-5.9,5.9-5.9h19.7c3.2,0,5.9,2.6,5.9,5.9c0,2.7,2.2,4.9,4.9,4.9h8.7c2.7,0,4.9-2.2,4.9-4.9
			v-39.9c0-3.2,2.6-5.9,5.9-5.9h13.8c3.2,0,5.9,2.6,5.9,5.9v20.5c0,2.7,2.2,4.9,4.9,4.9h11.7c3.2,0,5.9,2.6,5.9,5.9v34.7
			c0,2.7,2.2,4.9,4.9,4.9h14.3c2.7,0,4.9-2.2,4.9-4.9V18.2c0-3.2,2.6-5.9,5.9-5.9h17.9c3.2,0,5.9,2.6,5.9,5.9v44.2
			c0,2.7,2.2,4.9,4.9,4.9h13.3c2.7,0,4.9-2.2,4.9-4.9v-81c0-3.2,2.6-5.9,5.9-5.9h13.3c3.2,0,5.9,2.6,5.9,5.9l0,105.7
			c0,2.7,2.2,4.9,4.9,4.9h15.7c0.3,0,0.5,0.2,0.5,0.5S877.1,93,876.9,93z"/>
	</g>
</g>
<g>
	<g>
		<path d="M37.5,33.5c-3.8,5-9.7,8.2-16.4,8.2c-11.4,0-20.6-9.2-20.6-20.6C0.5,9.7,9.7,0.5,21.1,0.5c6.7,0,12.7,3.2,16.4,8.2
			c-2-1.1-4.4-1.8-6.8-1.8c-7.8,0-14.2,6.3-14.2,14.2c0,7.8,6.3,14.2,14.2,14.2C33.2,35.3,35.5,34.6,37.5,33.5z"/>
		<path d="M21.1,42.2C9.5,42.2,0,32.7,0,21.1C0,9.5,9.5,0,21.1,0c6.7,0,12.8,3,16.8,8.4c0.1,0.2,0.1,0.4,0,0.6s-0.4,0.2-0.6,0.1
			c-2-1.1-4.3-1.7-6.6-1.7C23.1,7.4,17,13.5,17,21.1s6.1,13.7,13.7,13.7c2.3,0,4.6-0.6,6.6-1.7c0.2-0.1,0.5-0.1,0.6,0.1
			s0.2,0.4,0,0.6C33.9,39.1,27.8,42.2,21.1,42.2z M21.1,1C10,1,1,10,1,21.1c0,11.1,9,20.1,20.1,20.1c5.6,0,10.8-2.3,14.6-6.3
			c-1.6,0.6-3.3,0.9-5.1,0.9c-8.1,0-14.7-6.6-14.7-14.7S22.6,6.4,30.7,6.4c1.7,0,3.4,0.3,5,0.9C31.9,3.3,26.7,1,21.1,1z"/>
	</g>
	<g>
		<path d="M37.5,34.9c-3.8,5-9.7,8.2-16.4,8.2c-11.4,0-20.6-9.2-20.6-20.6c0-11.4,9.2-20.6,20.6-20.6c6.7,0,12.7,3.2,16.4,8.2
			c-2-1.1-4.4-1.8-6.8-1.8c-7.8,0-14.2,6.3-14.2,14.2c0,7.8,6.3,14.2,14.2,14.2C33.2,36.7,35.5,36.1,37.5,34.9z"/>
		<path d="M21.1,43.6C9.5,43.6,0,34.2,0,22.5C0,10.9,9.5,1.4,21.1,1.4c6.7,0,12.8,3,16.8,8.4c0.1,0.2,0.1,0.4,0,0.6
			c-0.2,0.2-0.4,0.2-0.6,0.1c-2-1.1-4.3-1.7-6.6-1.7C23.1,8.8,17,15,17,22.5c0,7.5,6.1,13.7,13.7,13.7c2.3,0,4.6-0.6,6.6-1.7
			c0.2-0.1,0.5-0.1,0.6,0.1c0.2,0.2,0.2,0.4,0,0.6C33.9,40.6,27.8,43.6,21.1,43.6z M21.1,2.4C10,2.4,1,11.4,1,22.5
			c0,11.1,9,20.1,20.1,20.1c5.6,0,10.8-2.3,14.6-6.3c-1.6,0.6-3.3,0.9-5.1,0.9c-8.1,0-14.7-6.6-14.7-14.7S22.6,7.8,30.7,7.8
			c1.7,0,3.4,0.3,5,0.9C31.9,4.7,26.7,2.4,21.1,2.4z"/>
	</g>
</g>
<g class="st1">
	<rect x="-323.6" y="166.1" class="st6" width="600" height="50"/>
</g>
<g class="st1">
	<path class="st2" d="M276.6,166.1h-600c-0.3,0-0.5-0.2-0.5-0.5s0.2-0.5,0.5-0.5h600c0.3,0,0.5,0.2,0.5,0.5S276.9,166.1,276.6,166.1
		z"/>
</g>
<g class="st1">
	<g class="st2">
		<g>
			
				<rect x="1.9" y="116.4" transform="matrix(0.7071 -0.7071 0.7071 0.7071 -84.9054 37.4556)" class="st11" width="1.7" height="9.7"/>
			<path d="M5.6,125.7c-0.1,0-0.3,0-0.4-0.1l-6.9-6.9c-0.1-0.1-0.1-0.2-0.1-0.4s0.1-0.3,0.1-0.4l1.2-1.2c0.2-0.2,0.5-0.2,0.7,0
				l6.9,6.9c0.1,0.1,0.1,0.2,0.1,0.4s-0.1,0.3-0.1,0.4l-1.2,1.2C5.8,125.7,5.7,125.7,5.6,125.7z M-0.6,118.4l6.2,6.2l0.5-0.5
				l-6.2-6.2L-0.6,118.4z"/>
		</g>
		<g>
			
				<rect x="-1.8" y="112.9" transform="matrix(0.7071 0.7071 -0.7071 0.7071 82.9596 35.1346)" class="st11" width="1.7" height="9.7"/>
			<path d="M-3.8,122.2c-0.1,0-0.3,0-0.4-0.1l-1.2-1.2c-0.2-0.2-0.2-0.5,0-0.7l6.9-6.9c0.2-0.2,0.5-0.2,0.7,0l1.2,1.2
				c0.2,0.2,0.2,0.5,0,0.7l-6.9,6.9C-3.5,122.2-3.6,122.2-3.8,122.2z M-4.3,120.5l0.5,0.5l6.2-6.2l-0.5-0.5L-4.3,120.5z"/>
		</g>
	</g>
	<g class="st2">
		<polygon class="st11" points="60.6,141.1 -94.5,141.1 -94.5,123.7 52.8,123.7 		"/>
		<path d="M60.6,141.6H-94.5c-0.3,0-0.5-0.2-0.5-0.5v-17.4c0-0.3,0.2-0.5,0.5-0.5H52.8c0.2,0,0.4,0.1,0.5,0.3l7.8,17.4
			c0.1,0.2,0.1,0.3,0,0.5C60.9,141.5,60.8,141.6,60.6,141.6z M-94,140.6H59.8l-7.3-16.4H-94V140.6z"/>
	</g>
	<g class="st2">
		<polygon class="st11" points="14,123.7 7.3,102.3 5.2,102.3 5.2,123.7 		"/>
		<path d="M14,124.2H5.2c-0.3,0-0.5-0.2-0.5-0.5v-21.4c0-0.3,0.2-0.5,0.5-0.5h2.1c0.2,0,0.4,0.1,0.5,0.4l6.6,21.4
			c0,0.2,0,0.3-0.1,0.4C14.3,124.1,14.1,124.2,14,124.2z M5.7,123.2h7.6l-6.3-20.4H5.7V123.2z"/>
	</g>
	<g class="st2">
		<rect x="-94.5" y="141.1" class="st11" width="155.1" height="9.7"/>
		<path d="M60.6,151.3H-94.5c-0.3,0-0.5-0.2-0.5-0.5v-9.7c0-0.3,0.2-0.5,0.5-0.5H60.6c0.3,0,0.5,0.2,0.5,0.5v9.7
			C61.1,151,60.9,151.3,60.6,151.3z M-94,150.3H60.1v-8.7H-94V150.3z"/>
	</g>
	<g class="st2">
		<polygon class="st11" points="-32.3,123.7 -32.3,116.6 -29.6,116.6 -26,123.7 		"/>
		<path d="M-26,124.2h-6.3c-0.3,0-0.5-0.2-0.5-0.5v-7.1c0-0.3,0.2-0.5,0.5-0.5h2.7c0.2,0,0.4,0.1,0.4,0.3l3.6,7.1
			c0.1,0.2,0.1,0.3,0,0.5C-25.6,124.1-25.8,124.2-26,124.2z M-31.8,123.2h5l-3.1-6.1h-1.9V123.2z"/>
	</g>
	<g class="st2">
		<polygon class="st11" points="53.7,125.7 60.6,125.7 60.6,134 57.4,134 		"/>
		<path d="M60.6,134.5h-3.1c-0.2,0-0.4-0.1-0.5-0.3l-3.8-8.4c-0.1-0.2-0.1-0.3,0-0.5c0.1-0.1,0.3-0.2,0.4-0.2h6.9
			c0.3,0,0.5,0.2,0.5,0.5v8.4C61.1,134.3,60.9,134.5,60.6,134.5z M57.8,133.5h2.3v-7.4h-5.6L57.8,133.5z"/>
	</g>
	<g class="st2">
		<rect x="-37.2" y="150.8" class="st11" width="42.4" height="4.3"/>
		<path d="M5.2,155.6h-42.4c-0.3,0-0.5-0.2-0.5-0.5v-4.3c0-0.3,0.2-0.5,0.5-0.5H5.2c0.3,0,0.5,0.2,0.5,0.5v4.3
			C5.7,155.4,5.5,155.6,5.2,155.6z M-36.7,154.6H4.7v-3.3h-41.4V154.6z"/>
	</g>
	<g class="st2">
		<rect x="5.2" y="150.8" class="st11" width="27.3" height="2.2"/>
		<path d="M32.5,153.4H5.2c-0.3,0-0.5-0.2-0.5-0.5v-2.2c0-0.3,0.2-0.5,0.5-0.5h27.3c0.3,0,0.5,0.2,0.5,0.5v2.2
			C33,153.2,32.7,153.4,32.5,153.4z M5.7,152.4H32v-1.2H5.7V152.4z"/>
	</g>
	<g class="st2">
		<rect x="-81.4" y="150.8" class="st11" width="44.2" height="2.2"/>
		<path d="M-37.2,153.4h-44.2c-0.3,0-0.5-0.2-0.5-0.5v-2.2c0-0.3,0.2-0.5,0.5-0.5h44.2c0.3,0,0.5,0.2,0.5,0.5v2.2
			C-36.7,153.2-36.9,153.4-37.2,153.4z M-80.9,152.4h43.2v-1.2h-43.2V152.4z"/>
	</g>
	<g class="st2">
		<rect x="-101.2" y="150.8" class="st11" width="19.8" height="4.1"/>
		<path d="M-81.4,155.3h-19.8c-0.3,0-0.5-0.2-0.5-0.5v-4.1c0-0.3,0.2-0.5,0.5-0.5h19.8c0.3,0,0.5,0.2,0.5,0.5v4.1
			C-80.9,155.1-81.1,155.3-81.4,155.3z M-100.7,154.3h18.8v-3.1h-18.8V154.3z"/>
	</g>
	<g class="st2">
		<rect x="-111.4" y="152" class="st11" width="10.3" height="1.9"/>
		<path d="M-101.2,154.4h-10.3c-0.3,0-0.5-0.2-0.5-0.5V152c0-0.3,0.2-0.5,0.5-0.5h10.3c0.3,0,0.5,0.2,0.5,0.5v1.9
			C-100.7,154.2-100.9,154.4-101.2,154.4z M-110.9,153.4h9.3v-0.9h-9.3V153.4z"/>
	</g>
	<g class="st2">
		<rect x="-29.1" y="123.7" class="st11" width="34.3" height="27.1"/>
		<path d="M5.2,151.3h-34.3c-0.3,0-0.5-0.2-0.5-0.5v-27.1c0-0.3,0.2-0.5,0.5-0.5H5.2c0.3,0,0.5,0.2,0.5,0.5v27.1
			C5.7,151,5.5,151.3,5.2,151.3z M-28.6,150.3H4.7v-26.1h-33.3V150.3z"/>
	</g>
	<g class="st2">
		<line class="st11" x1="5.2" y1="145.9" x2="-51" y2="145.9"/>
		<path d="M5.2,146.4H-51c-0.3,0-0.5-0.2-0.5-0.5s0.2-0.5,0.5-0.5H5.2c0.3,0,0.5,0.2,0.5,0.5S5.5,146.4,5.2,146.4z"/>
	</g>
	<g class="st2">
		<rect x="-35.8" y="107.4" class="st11" width="3.2" height="16.3"/>
		<path d="M-32.5,124.2h-3.2c-0.3,0-0.5-0.2-0.5-0.5v-16.3c0-0.3,0.2-0.5,0.5-0.5h3.2c0.3,0,0.5,0.2,0.5,0.5v16.3
			C-32,124-32.3,124.2-32.5,124.2z M-35.3,123.2h2.2v-15.3h-2.2V123.2z"/>
	</g>
	<g class="st2">
		<rect x="-92.3" y="115.6" class="st11" width="25.6" height="8.1"/>
		<path d="M-66.7,124.2h-25.6c-0.3,0-0.5-0.2-0.5-0.5v-8.1c0-0.3,0.2-0.5,0.5-0.5h25.6c0.3,0,0.5,0.2,0.5,0.5v8.1
			C-66.2,124-66.4,124.2-66.7,124.2z M-91.8,123.2h24.6v-7.1h-24.6V123.2z"/>
	</g>
	<g class="st2">
		<rect x="-94.9" y="107.4" class="st11" width="25.6" height="8.1"/>
		<path d="M-69.3,116h-25.6c-0.3,0-0.5-0.2-0.5-0.5v-8.1c0-0.3,0.2-0.5,0.5-0.5h25.6c0.3,0,0.5,0.2,0.5,0.5v8.1
			C-68.8,115.8-69.1,116-69.3,116z M-94.4,115h24.6v-7.1h-24.6V115z"/>
	</g>
	<g class="st2">
		<rect x="-94.5" y="99.3" class="st11" width="25.6" height="8.1"/>
		<path d="M-68.9,107.9h-25.6c-0.3,0-0.5-0.2-0.5-0.5v-8.1c0-0.3,0.2-0.5,0.5-0.5h25.6c0.3,0,0.5,0.2,0.5,0.5v8.1
			C-68.4,107.7-68.7,107.9-68.9,107.9z M-94,106.9h24.6v-7.1H-94V106.9z"/>
	</g>
	<g class="st2">
		<rect x="-90.7" y="94.7" class="st11" width="22.4" height="4.5"/>
		<path d="M-68.3,99.8h-22.4c-0.3,0-0.5-0.2-0.5-0.5v-4.5c0-0.3,0.2-0.5,0.5-0.5h22.4c0.3,0,0.5,0.2,0.5,0.5v4.5
			C-67.8,99.5-68,99.8-68.3,99.8z M-90.2,98.8h21.4v-3.5h-21.4V98.8z"/>
	</g>
	<g class="st2">
		<rect x="-81.6" y="92.9" class="st11" width="3.5" height="30.8"/>
		<path d="M-78.1,124.2h-3.5c-0.3,0-0.5-0.2-0.5-0.5V92.9c0-0.3,0.2-0.5,0.5-0.5h3.5c0.3,0,0.5,0.2,0.5,0.5v30.8
			C-77.6,124-77.8,124.2-78.1,124.2z M-81.1,123.2h2.5V93.4h-2.5V123.2z"/>
	</g>
	<g class="st2">
		<rect x="-26" y="127.5" class="st11" width="8.2" height="1.5"/>
		<path d="M-17.7,129.6H-26c-0.3,0-0.5-0.2-0.5-0.5v-1.5c0-0.3,0.2-0.5,0.5-0.5h8.2c0.3,0,0.5,0.2,0.5,0.5v1.5
			C-17.2,129.3-17.5,129.6-17.7,129.6z M-25.5,128.6h7.2V128h-7.2V128.6z"/>
	</g>
	<g class="st2">
		<rect x="-96.6" y="142.3" class="st11" width="2" height="6.5"/>
		<path d="M-94.5,149.3h-2c-0.3,0-0.5-0.2-0.5-0.5v-6.5c0-0.3,0.2-0.5,0.5-0.5h2c0.3,0,0.5,0.2,0.5,0.5v6.5
			C-94,149.1-94.2,149.3-94.5,149.3z M-96.1,148.3h1v-5.5h-1V148.3z"/>
	</g>
	<g class="st2">
		<rect x="60.6" y="141.1" class="st11" width="4.1" height="9.7"/>
		<path d="M64.7,151.3h-4.1c-0.3,0-0.5-0.2-0.5-0.5v-9.7c0-0.3,0.2-0.5,0.5-0.5h4.1c0.3,0,0.5,0.2,0.5,0.5v9.7
			C65.2,151,65,151.3,64.7,151.3z M61.1,150.3h3.1v-8.7h-3.1V150.3z"/>
	</g>
	<g class="st2">
		<polygon class="st11" points="64.7,150.8 60.6,155.1 46.6,155.1 46.6,150.8 		"/>
		<path d="M60.6,155.6h-14c-0.3,0-0.5-0.2-0.5-0.5v-4.3c0-0.3,0.2-0.5,0.5-0.5h18.1c0.2,0,0.4,0.1,0.5,0.3c0.1,0.2,0,0.4-0.1,0.5
			l-4.1,4.3C60.9,155.5,60.7,155.6,60.6,155.6z M47.1,154.6h13.3l3.1-3.3H47.1V154.6z"/>
	</g>
	<g class="st2">
		<rect x="-66.7" y="81.1" class="st11" width="30.9" height="42.6"/>
		<path d="M-35.8,124.2h-30.9c-0.3,0-0.5-0.2-0.5-0.5V81.1c0-0.3,0.2-0.5,0.5-0.5h30.9c0.3,0,0.5,0.2,0.5,0.5v42.6
			C-35.3,124-35.5,124.2-35.8,124.2z M-66.2,123.2h29.9V81.6h-29.9V123.2z"/>
	</g>
	<g class="st2">
		<rect x="-52" y="79" class="st11" width="3.5" height="44.7"/>
		<path d="M-48.5,124.2H-52c-0.3,0-0.5-0.2-0.5-0.5V79c0-0.3,0.2-0.5,0.5-0.5h3.5c0.3,0,0.5,0.2,0.5,0.5v44.7
			C-48,124-48.2,124.2-48.5,124.2z M-51.5,123.2h2.5V79.5h-2.5V123.2z"/>
	</g>
</g>
<g class="st1">
	<g class="st2">
		<circle class="st11" cx="-23.4" cy="119.4" r="14.8"/>
		<path d="M-23.4,134.7c-8.4,0-15.3-6.9-15.3-15.3s6.9-15.3,15.3-15.3s15.3,6.9,15.3,15.3S-14.9,134.7-23.4,134.7z M-23.4,105.1
			c-7.9,0-14.3,6.4-14.3,14.3s6.4,14.3,14.3,14.3s14.3-6.4,14.3-14.3S-15.5,105.1-23.4,105.1z"/>
	</g>
	<g class="st2">
		<circle class="st11" cx="-23.4" cy="119.4" r="11"/>
		<path d="M-23.4,130.9c-6.4,0-11.5-5.2-11.5-11.5c0-6.4,5.2-11.5,11.5-11.5s11.5,5.2,11.5,11.5C-11.8,125.8-17,130.9-23.4,130.9z
			 M-23.4,108.9c-5.8,0-10.5,4.7-10.5,10.5c0,5.8,4.7,10.5,10.5,10.5s10.5-4.7,10.5-10.5C-12.8,113.6-17.6,108.9-23.4,108.9z"/>
	</g>
	<g class="st2">
		<g>
			<path d="M-23.4,130.9c-0.3,0-0.5-0.2-0.5-0.5v-22.1c0-0.3,0.2-0.5,0.5-0.5s0.5,0.2,0.5,0.5v22.1
				C-22.9,130.7-23.1,130.9-23.4,130.9z"/>
		</g>
		<g>
			<path d="M-31.2,127.7c-0.1,0-0.3,0-0.4-0.1c-0.2-0.2-0.2-0.5,0-0.7l15.6-15.6c0.2-0.2,0.5-0.2,0.7,0s0.2,0.5,0,0.7l-15.6,15.6
				C-30.9,127.7-31.1,127.7-31.2,127.7z"/>
		</g>
		<g>
			<path d="M-12.3,119.9h-22.1c-0.3,0-0.5-0.2-0.5-0.5s0.2-0.5,0.5-0.5h22.1c0.3,0,0.5,0.2,0.5,0.5S-12.1,119.9-12.3,119.9z"/>
		</g>
		<g>
			<path d="M-15.6,127.7c-0.1,0-0.3,0-0.4-0.1l-15.6-15.6c-0.2-0.2-0.2-0.5,0-0.7s0.5-0.2,0.7,0l15.6,15.6c0.2,0.2,0.2,0.5,0,0.7
				C-15.3,127.7-15.4,127.7-15.6,127.7z"/>
		</g>
	</g>
	<g class="st2">
		<circle class="st11" cx="-23.4" cy="119.4" r="2.3"/>
		<path d="M-23.4,122.2c-1.5,0-2.8-1.3-2.8-2.8s1.3-2.8,2.8-2.8s2.8,1.3,2.8,2.8S-21.8,122.2-23.4,122.2z M-23.4,117.6
			c-1,0-1.8,0.8-1.8,1.8s0.8,1.8,1.8,1.8s1.8-0.8,1.8-1.8S-22.4,117.6-23.4,117.6z"/>
	</g>
</g>
<g class="st1">
	<polygon class="st6" points="-26,123.6 -18.7,123.6 -18.7,122 -15.7,122 -15.7,120 -17.2,120 -17.2,117.2 -20.5,117.2 -20.5,118.1 
		-23.4,118.1 -23.4,115.2 -26.5,115.2 -26.5,117.2 -31,117.2 -31,120 -29.4,120 -29.4,121.8 -26,121.8 	"/>
	<path class="st2" d="M-18.7,124.1H-26c-0.3,0-0.5-0.2-0.5-0.5v-1.3h-2.9c-0.3,0-0.5-0.2-0.5-0.5v-1.3H-31c-0.3,0-0.5-0.2-0.5-0.5
		v-2.9c0-0.3,0.2-0.5,0.5-0.5h4v-1.5c0-0.3,0.2-0.5,0.5-0.5h3.1c0.3,0,0.5,0.2,0.5,0.5v2.4h1.9v-0.5c0-0.3,0.2-0.5,0.5-0.5h3.3
		c0.3,0,0.5,0.2,0.5,0.5v2.4h0.9c0.3,0,0.5,0.2,0.5,0.5v2c0,0.3-0.2,0.5-0.5,0.5h-2.5v1.1C-18.2,123.9-18.4,124.1-18.7,124.1z
		 M-25.5,123.1h6.3V122c0-0.3,0.2-0.5,0.5-0.5h2.5v-1h-0.9c-0.3,0-0.5-0.2-0.5-0.5v-2.4H-20v0.5c0,0.3-0.2,0.5-0.5,0.5h-2.9
		c-0.3,0-0.5-0.2-0.5-0.5v-2.4H-26v1.5c0,0.3-0.2,0.5-0.5,0.5h-4v1.9h1.1c0.3,0,0.5,0.2,0.5,0.5v1.3h2.9c0.3,0,0.5,0.2,0.5,0.5
		V123.1z"/>
</g>
<g class="st1">
	<polygon class="st6" points="-23.4,107.2 -14.1,96.9 -14.8,110.8 -0.9,110.1 -11.2,119.4 -0.9,128.7 -14.8,128 -14.1,141.9 
		-23.4,131.6 -32.7,141.9 -32,128 -45.9,128.7 -35.6,119.4 -45.9,110.1 -32,110.8 -32.7,96.9 	"/>
	<path class="st2" d="M-32.7,142.4c-0.1,0-0.1,0-0.2,0c-0.2-0.1-0.3-0.3-0.3-0.5l0.7-13.3l-13.3,0.7c-0.2,0-0.4-0.1-0.5-0.3
		c-0.1-0.2,0-0.4,0.1-0.6l9.9-8.9l-9.9-8.9c-0.2-0.1-0.2-0.4-0.1-0.6c0.1-0.2,0.3-0.3,0.5-0.3l13.3,0.7l-0.7-13.3
		c0-0.2,0.1-0.4,0.3-0.5c0.2-0.1,0.4,0,0.6,0.1l8.9,9.9l8.9-9.9c0.1-0.2,0.4-0.2,0.6-0.1c0.2,0.1,0.3,0.3,0.3,0.5l-0.7,13.3
		l13.3-0.7c0.2,0,0.4,0.1,0.5,0.3c0.1,0.2,0,0.4-0.1,0.6l-9.9,8.9l9.9,8.9c0.2,0.1,0.2,0.4,0.1,0.6c-0.1,0.2-0.3,0.3-0.5,0.3
		l-13.3-0.7l0.7,13.3c0,0.2-0.1,0.4-0.3,0.5c-0.2,0.1-0.4,0-0.6-0.1l-8.9-9.9l-8.9,9.9C-32.4,142.3-32.6,142.4-32.7,142.4z
		 M-32,127.5c0.1,0,0.3,0.1,0.4,0.1c0.1,0.1,0.2,0.2,0.1,0.4l-0.6,12.5l8.4-9.3c0.1-0.1,0.2-0.2,0.4-0.2l0,0c0.1,0,0.3,0.1,0.4,0.2
		l8.4,9.3l-0.6-12.5c0-0.1,0-0.3,0.1-0.4c0.1-0.1,0.2-0.2,0.4-0.1l12.5,0.6l-9.3-8.4c-0.1-0.1-0.2-0.2-0.2-0.4s0.1-0.3,0.2-0.4
		l9.3-8.4l-12.5,0.6c-0.1,0-0.3,0-0.4-0.1c-0.1-0.1-0.2-0.2-0.1-0.4l0.6-12.5l-8.4,9.3c-0.2,0.2-0.6,0.2-0.7,0l-8.4-9.3l0.6,12.5
		c0,0.1,0,0.3-0.1,0.4c-0.1,0.1-0.2,0.2-0.4,0.1l-12.5-0.6l9.3,8.4c0.1,0.1,0.2,0.2,0.2,0.4s-0.1,0.3-0.2,0.4l-9.3,8.4L-32,127.5
		C-32,127.5-32,127.5-32,127.5z"/>
</g>
<g class="st1">
	<g class="st2">
		<circle cx="-23.4" cy="118.8" r="8.9"/>
		<path d="M-23.4,128.3c-5.2,0-9.4-4.2-9.4-9.4s4.2-9.4,9.4-9.4c5.2,0,9.4,4.2,9.4,9.4S-18.2,128.3-23.4,128.3z M-23.4,110.4
			c-4.6,0-8.4,3.8-8.4,8.4s3.8,8.4,8.4,8.4c4.6,0,8.4-3.8,8.4-8.4S-18.7,110.4-23.4,110.4z"/>
	</g>
	<g class="st2">
		<circle class="st11" cx="-23.4" cy="120" r="8.9"/>
		<path d="M-23.4,129.4c-5.2,0-9.4-4.2-9.4-9.4s4.2-9.4,9.4-9.4c5.2,0,9.4,4.2,9.4,9.4S-18.2,129.4-23.4,129.4z M-23.4,111.5
			c-4.6,0-8.4,3.8-8.4,8.4s3.8,8.4,8.4,8.4c4.6,0,8.4-3.8,8.4-8.4S-18.7,111.5-23.4,111.5z"/>
	</g>
</g>
<g class="st1">
	<path class="st12" d="M-323.4,91V-7.2c0-3,2.4-5.4,5.4-5.4h9.1c3,0,5.4,2.4,5.4,5.4v38.8c0,3,2.4,5.4,5.4,5.4h5.1
		c3,0,5.4-2.4,5.4-5.4V16.8c0-3,2.4-5.4,5.4-5.4h11.2c3,0,5.4,2.4,5.4,5.4v35.1c0,3,2.4,5.4,5.4,5.4h8.7c3,0,5.4-2.4,5.4-5.4v-90.2
		c0-3,2.4-5.4,5.4-5.4h15.8c3,0,5.4,2.4,5.4,5.4V4c0,3,2.4,5.4,5.4,5.4h7.1c3,0,5.4-2.4,5.4-5.4v-5.1c0-3,2.4-5.4,5.4-5.4h13.3
		c3,0,5.4,2.4,5.4,5.4v34.7c0,3,2.4,5.4,5.4,5.4h22.5c3,0,5.4,2.4,5.4,5.4v2.9c0,3,2.4,5.4,5.4,5.4h7c3,0,5.4-2.4,5.4-5.4V24.5
		c0-3,2.4-5.4,5.4-5.4h36.8c3,0,5.4,2.4,5.4,5.4v4.9c0,3,2.4,5.4,5.4,5.4h20.3c3,0,5.4-2.4,5.4-5.4v-4.9c0-3,2.4-5.4,5.4-5.4h30.8
		c3,0,5.4,2.4,5.4,5.4v7.1c0,3,2.4,5.4,5.4,5.4h5.8c3,0,5.4-2.4,5.4-5.4V12.7c0-3,2.4-5.4,5.4-5.4h14.5c3,0,5.4,2.4,5.4,5.4v16.6
		c0,3,2.4,5.4,5.4,5.4h11.7c3,0,5.4-2.4,5.4-5.4V-3.6c0-3,2.4-5.4,5.4-5.4h19.7c3,0,5.4,2.4,5.4,5.4v0c0,3,2.4,5.4,5.4,5.4h8.7
		c3,0,5.4-2.4,5.4-5.4v-39.9c0-3,2.4-5.4,5.4-5.4h13.8c3,0,5.4,2.4,5.4,5.4V-23c0,3,2.4,5.4,5.4,5.4h11.7c3,0,5.4,2.4,5.4,5.4v34.7
		c0,3,2.4,5.4,5.4,5.4h14.3c3,0,5.4-2.4,5.4-5.4V11.7c0-3,2.4-5.4,5.4-5.4h17.9c3,0,5.4,2.4,5.4,5.4v44.2c0,3,2.4,5.4,5.4,5.4h13.3
		c3,0,5.4-2.4,5.4-5.4v-81c0-3,2.4-5.4,5.4-5.4h13.3c3,0,5.4,2.4,5.4,5.4v58.7c0,3,2.4,5.4,5.4,5.4h10.3c3,0,5.4-2.4,5.4-5.4V-7.2
		c0-3,2.4-5.4,5.4-5.4h9.1c3,0,5.4,2.4,5.4,5.4v38.8c0,3,2.4,5.4,5.4,5.4h5.1c3,0,5.4-2.4,5.4-5.4V16.8c0-3,2.4-5.4,5.4-5.4h11.2
		c3,0,5.4,2.4,5.4,5.4v35.1c0,3,2.4,5.4,5.4,5.4h8.7c3,0,5.4-2.4,5.4-5.4v-90.2c0-3,2.4-5.4,5.4-5.4h15.8c3,0,5.4,2.4,5.4,5.4V4
		c0,3,2.4,5.4,5.4,5.4h7.1c3,0,5.4-2.4,5.4-5.4v-5.1c0-3,2.4-5.4,5.4-5.4h13.3c3,0,5.4,2.4,5.4,5.4v34.7c0,3,2.4,5.4,5.4,5.4h22.5
		c3,0,5.4,2.4,5.4,5.4v2.9c0,3,2.4,5.4,5.4,5.4h7c3,0,5.4-2.4,5.4-5.4V24.5c0-3,2.4-5.4,5.4-5.4h36.8c3,0,5.4,2.4,5.4,5.4v4.9
		c0,3,2.4,5.4,5.4,5.4h20.3c3,0,5.4-2.4,5.4-5.4v-4.9c0-3,2.4-5.4,5.4-5.4h30.8c3,0,5.4,2.4,5.4,5.4v7.1c0,3,2.4,5.4,5.4,5.4h5.8
		c3,0,5.4-2.4,5.4-5.4V12.7c0-3,2.4-5.4,5.4-5.4h14.5c3,0,5.4,2.4,5.4,5.4v16.6c0,3,2.4,5.4,5.4,5.4h11.7c3,0,5.4-2.4,5.4-5.4V-3.6
		c0-3,2.4-5.4,5.4-5.4h19.7c3,0,5.4,2.4,5.4,5.4v0c0,3,2.4,5.4,5.4,5.4h8.7c3,0,5.4-2.4,5.4-5.4v-39.9c0-3,2.4-5.4,5.4-5.4h13.8
		c3,0,5.4,2.4,5.4,5.4V-23c0,3,2.4,5.4,5.4,5.4h11.7c3,0,5.4,2.4,5.4,5.4v34.7c0,3,2.4,5.4,5.4,5.4h14.3c3,0,5.4-2.4,5.4-5.4V11.7
		c0-3,2.4-5.4,5.4-5.4h17.9c3,0,5.4,2.4,5.4,5.4v44.2c0,3,2.4,5.4,5.4,5.4h13.3c3,0,5.4-2.4,5.4-5.4v-81c0-3,2.4-5.4,5.4-5.4h13.3
		c3,0,5.4,2.4,5.4,5.4V85.4c0,3,2.4,5.4,5.4,5.4h15.7"/>
	<path class="st5" d="M876.6,92.5h-15.7c-3,0-5.4-2.4-5.4-5.4l0-105.7c0-3-2.4-5.4-5.4-5.4h-13.3c-3,0-5.4,2.4-5.4,5.4v81
		c0,3-2.4,5.4-5.4,5.4h-13.3c-3,0-5.4-2.4-5.4-5.4V18.2c0-3-2.4-5.4-5.4-5.4h-17.9c-3,0-5.4,2.4-5.4,5.4v10.7c0,3-2.4,5.4-5.4,5.4
		h-14.3c-3,0-5.4-2.4-5.4-5.4V-5.8c0-3-2.4-5.4-5.4-5.4h-11.7c-3,0-5.4-2.4-5.4-5.4v-20.5c0-3-2.4-5.4-5.4-5.4h-13.8
		c-3,0-5.4,2.4-5.4,5.4V2.9c0,3-2.4,5.4-5.4,5.4h-8.7c-3,0-5.4-2.4-5.4-5.4v0c0-3-2.4-5.4-5.4-5.4h-19.7c-3,0-5.4,2.4-5.4,5.4v32.9
		c0,3-2.4,5.4-5.4,5.4h-11.7c-3,0-5.4-2.4-5.4-5.4V19.2c0-3-2.4-5.4-5.4-5.4h-14.5c-3,0-5.4,2.4-5.4,5.4v18.9c0,3-2.4,5.4-5.4,5.4
		h-5.8c-3,0-5.4-2.4-5.4-5.4V31c0-3-2.4-5.4-5.4-5.4h-30.8c-3,0-5.4,2.4-5.4,5.4v4.9c0,3-2.4,5.4-5.4,5.4h-20.3
		c-3,0-5.4-2.4-5.4-5.4V31c0-3-2.4-5.4-5.4-5.4h-36.8c-3,0-5.4,2.4-5.4,5.4v22.9c0,3-2.4,5.4-5.4,5.4h-7c-3,0-5.4-2.4-5.4-5.4v-2.9
		c0-3-2.4-5.4-5.4-5.4h-22.5c-3,0-5.4-2.4-5.4-5.4V5.4c0-3-2.4-5.4-5.4-5.4h-13.3c-3,0-5.4,2.4-5.4,5.4v5.1c0,3-2.4,5.4-5.4,5.4
		h-7.1c-3,0-5.4-2.4-5.4-5.4v-42.4c0-3-2.4-5.4-5.4-5.4H359c-3,0-5.4,2.4-5.4,5.4v90.2c0,3-2.4,5.4-5.4,5.4h-8.7
		c-3,0-5.4-2.4-5.4-5.4V23.3c0-3-2.4-5.4-5.4-5.4h-11.2c-3,0-5.4,2.4-5.4,5.4v14.8c0,3-2.4,5.4-5.4,5.4h-5.1c-3,0-5.4-2.4-5.4-5.4
		V-0.7c0-3-2.4-5.4-5.4-5.4H282c-3,0-5.4,2.4-5.4,5.4v40.9c0,3-2.4,5.4-5.4,5.4h-10.3c-3,0-5.4-2.4-5.4-5.4v-58.7
		c0-3-2.4-5.4-5.4-5.4h-13.3c-3,0-5.4,2.4-5.4,5.4v81c0,3-2.4,5.4-5.4,5.4h-13.3c-3,0-5.4-2.4-5.4-5.4V18.2c0-3-2.4-5.4-5.4-5.4
		h-17.9c-3,0-5.4,2.4-5.4,5.4v10.7c0,3-2.4,5.4-5.4,5.4h-14.3c-3,0-5.4-2.4-5.4-5.4V-5.8c0-3-2.4-5.4-5.4-5.4h-11.7
		c-3,0-5.4-2.4-5.4-5.4v-20.5c0-3-2.4-5.4-5.4-5.4h-13.8c-3,0-5.4,2.4-5.4,5.4V2.9c0,3-2.4,5.4-5.4,5.4h-8.7c-3,0-5.4-2.4-5.4-5.4v0
		c0-3-2.4-5.4-5.4-5.4H62.5c-3,0-5.4,2.4-5.4,5.4v32.9c0,3-2.4,5.4-5.4,5.4H40.1c-3,0-5.4-2.4-5.4-5.4V19.2c0-3-2.4-5.4-5.4-5.4
		H14.9c-3,0-5.4,2.4-5.4,5.4v18.9c0,3-2.4,5.4-5.4,5.4h-5.8c-3,0-5.4-2.4-5.4-5.4V31c0-3-2.4-5.4-5.4-5.4h-30.8
		c-3,0-5.4,2.4-5.4,5.4v4.9c0,3-2.4,5.4-5.4,5.4h-20.3c-3,0-5.4-2.4-5.4-5.4V31c0-3-2.4-5.4-5.4-5.4h-36.8c-3,0-5.4,2.4-5.4,5.4
		v22.9c0,3-2.4,5.4-5.4,5.4h-7c-3,0-5.4-2.4-5.4-5.4v-2.9c0-3-2.4-5.4-5.4-5.4h-22.5c-3,0-5.4-2.4-5.4-5.4V5.4c0-3-2.4-5.4-5.4-5.4
		h-13.3c-3,0-5.4,2.4-5.4,5.4v5.1c0,3-2.4,5.4-5.4,5.4h-7.1c-3,0-5.4-2.4-5.4-5.4v-42.4c0-3-2.4-5.4-5.4-5.4H-241
		c-3,0-5.4,2.4-5.4,5.4v90.2c0,3-2.4,5.4-5.4,5.4h-8.7c-3,0-5.4-2.4-5.4-5.4V23.3c0-3-2.4-5.4-5.4-5.4h-11.2c-3,0-5.4,2.4-5.4,5.4
		v14.8c0,3-2.4,5.4-5.4,5.4h-5.1c-3,0-5.4-2.4-5.4-5.4V-0.7c0-3-2.4-5.4-5.4-5.4h-9.1c-3,0-5.4,2.4-5.4,5.4v93.2"/>
</g>
</svg>
