<?xml version="1.0" encoding="utf-8"?>
<!-- Generator: Adobe Illustrator 23.1.0, SVG Export Plug-In . SVG Version: 6.00 Build 0)  -->
<svg version="1.1" id="Layer_1" xmlns="http://www.w3.org/2000/svg" xmlns:xlink="http://www.w3.org/1999/xlink" x="0px" y="0px"
	 viewBox="0 0 16.3 9.4" style="enable-background:new 0 0 16.3 9.4;" xml:space="preserve">
<style type="text/css">
	.st0{display:none;fill:#FFFFFF;}
	.st1{display:none;}
	.st2{display:inline;}
	.st3{stroke:#000000;stroke-linecap:round;stroke-linejoin:round;stroke-miterlimit:10;}
	.st4{fill:#FFFFFF;stroke:#000000;stroke-linecap:round;stroke-linejoin:round;stroke-miterlimit:10;}
	.st5{display:inline;fill:#FFFFFF;stroke:#000000;stroke-linecap:round;stroke-linejoin:round;stroke-miterlimit:10;}
	.st6{display:inline;fill:#FFFFFF;}
	.st7{display:inline;fill:none;stroke:#000000;stroke-linecap:round;stroke-linejoin:round;stroke-miterlimit:10;}
	.st8{fill:none;stroke:#000000;stroke-linecap:round;stroke-linejoin:round;stroke-miterlimit:10;}
	.st9{stroke:#000000;stroke-miterlimit:10;}
	.st10{fill:#FFFFFF;stroke:#000000;stroke-miterlimit:10;}
	.st11{fill:#FFFFFF;}
</style>
<rect x="-291.8" y="-199.1" class="st0" width="600" height="300"/>
<g class="st1">
	<g class="st2">
		<path class="st3" d="M-291.8-23.6v-98.2c0-3,2.4-5.4,5.4-5.4h9.1c3,0,5.4,2.4,5.4,5.4v38.8c0,3,2.4,5.4,5.4,5.4h5.1
			c3,0,5.4-2.4,5.4-5.4v-14.8c0-3,2.4-5.4,5.4-5.4h11.2c3,0,5.4,2.4,5.4,5.4v35.1c0,3,2.4,5.4,5.4,5.4h8.7c3,0,5.4-2.4,5.4-5.4V-153
			c0-3,2.4-5.4,5.4-5.4h15.8c3,0,5.4,2.4,5.4,5.4v42.4c0,3,2.4,5.4,5.4,5.4h7.1c3,0,5.4-2.4,5.4-5.4v-5.1c0-3,2.4-5.4,5.4-5.4h13.3
			c3,0,5.4,2.4,5.4,5.4V-81c0,3,2.4,5.4,5.4,5.4h22.5c3,0,5.4,2.4,5.4,5.4v2.9c0,3,2.4,5.4,5.4,5.4h7c3,0,5.4-2.4,5.4-5.4v-22.9
			c0-3,2.4-5.4,5.4-5.4h36.8c3,0,5.4,2.4,5.4,5.4v4.9c0,3,2.4,5.4,5.4,5.4h20.3c3,0,5.4-2.4,5.4-5.4v-4.9c0-3,2.4-5.4,5.4-5.4h30.8
			c3,0,5.4,2.4,5.4,5.4v7.1c0,3,2.4,5.4,5.4,5.4h5.8c3,0,5.4-2.4,5.4-5.4V-102c0-3,2.4-5.4,5.4-5.4h14.5c3,0,5.4,2.4,5.4,5.4v16.6
			c0,3,2.4,5.4,5.4,5.4h11.7c3,0,5.4-2.4,5.4-5.4v-32.9c0-3,2.4-5.4,5.4-5.4h19.7c3,0,5.4,2.4,5.4,5.4v0c0,3,2.4,5.4,5.4,5.4h8.7
			c3,0,5.4-2.4,5.4-5.4v-39.9c0-3,2.4-5.4,5.4-5.4h13.8c3,0,5.4,2.4,5.4,5.4v20.5c0,3,2.4,5.4,5.4,5.4h11.7c3,0,5.4,2.4,5.4,5.4
			v34.7c0,3,2.4,5.4,5.4,5.4h14.3c3,0,5.4-2.4,5.4-5.4V-103c0-3,2.4-5.4,5.4-5.4h17.9c3,0,5.4,2.4,5.4,5.4v44.2c0,3,2.4,5.4,5.4,5.4
			h13.3c3,0,5.4-2.4,5.4-5.4v-81c0-3,2.4-5.4,5.4-5.4h13.3c3,0,5.4,2.4,5.4,5.4V-81c0,3,2.4,5.4,5.4,5.4h10.3c3,0,5.4-2.4,5.4-5.4
			v-40.9c0-3,2.4-5.4,5.4-5.4h9.1c3,0,5.4,2.4,5.4,5.4v38.8c0,3,2.4,5.4,5.4,5.4h5.1c3,0,5.4-2.4,5.4-5.4v-14.8c0-3,2.4-5.4,5.4-5.4
			h11.2c3,0,5.4,2.4,5.4,5.4v35.1c0,3,2.4,5.4,5.4,5.4h8.7c3,0,5.4-2.4,5.4-5.4V-153c0-3,2.4-5.4,5.4-5.4h15.8c3,0,5.4,2.4,5.4,5.4
			v42.4c0,3,2.4,5.4,5.4,5.4h7.1c3,0,5.4-2.4,5.4-5.4v-5.1c0-3,2.4-5.4,5.4-5.4h13.3c3,0,5.4,2.4,5.4,5.4V-81c0,3,2.4,5.4,5.4,5.4
			h22.5c3,0,5.4,2.4,5.4,5.4v2.9c0,3,2.4,5.4,5.4,5.4h7c3,0,5.4-2.4,5.4-5.4v-22.9c0-3,2.4-5.4,5.4-5.4h36.8c3,0,5.4,2.4,5.4,5.4
			v4.9c0,3,2.4,5.4,5.4,5.4h20.3c3,0,5.4-2.4,5.4-5.4v-4.9c0-3,2.4-5.4,5.4-5.4h30.8c3,0,5.4,2.4,5.4,5.4v7.1c0,3,2.4,5.4,5.4,5.4
			h5.8c3,0,5.4-2.4,5.4-5.4V-102c0-3,2.4-5.4,5.4-5.4h14.5c3,0,5.4,2.4,5.4,5.4v16.6c0,3,2.4,5.4,5.4,5.4h11.7c3,0,5.4-2.4,5.4-5.4
			v-32.9c0-3,2.4-5.4,5.4-5.4h19.7c3,0,5.4,2.4,5.4,5.4v0c0,3,2.4,5.4,5.4,5.4h8.7c3,0,5.4-2.4,5.4-5.4v-39.9c0-3,2.4-5.4,5.4-5.4
			h13.8c3,0,5.4,2.4,5.4,5.4v20.5c0,3,2.4,5.4,5.4,5.4h11.7c3,0,5.4,2.4,5.4,5.4v34.7c0,3,2.4,5.4,5.4,5.4h14.3c3,0,5.4-2.4,5.4-5.4
			V-103c0-3,2.4-5.4,5.4-5.4h17.9c3,0,5.4,2.4,5.4,5.4v44.2c0,3,2.4,5.4,5.4,5.4h13.3c3,0,5.4-2.4,5.4-5.4v-81c0-3,2.4-5.4,5.4-5.4
			h13.3c3,0,5.4,2.4,5.4,5.4v110.4c0,3,2.4,5.4,5.4,5.4h15.7"/>
		<path class="st4" d="M908.2-22.2h-15.7c-3,0-5.4-2.4-5.4-5.4l0-105.7c0-3-2.4-5.4-5.4-5.4h-13.3c-3,0-5.4,2.4-5.4,5.4v81
			c0,3-2.4,5.4-5.4,5.4h-13.3c-3,0-5.4-2.4-5.4-5.4v-44.2c0-3-2.4-5.4-5.4-5.4h-17.9c-3,0-5.4,2.4-5.4,5.4v10.7c0,3-2.4,5.4-5.4,5.4
			h-14.3c-3,0-5.4-2.4-5.4-5.4v-34.7c0-3-2.4-5.4-5.4-5.4h-11.7c-3,0-5.4-2.4-5.4-5.4v-20.5c0-3-2.4-5.4-5.4-5.4h-13.8
			c-3,0-5.4,2.4-5.4,5.4v39.9c0,3-2.4,5.4-5.4,5.4h-8.7c-3,0-5.4-2.4-5.4-5.4v0c0-3-2.4-5.4-5.4-5.4H694c-3,0-5.4,2.4-5.4,5.4v32.9
			c0,3-2.4,5.4-5.4,5.4h-11.7c-3,0-5.4-2.4-5.4-5.4v-16.6c0-3-2.4-5.4-5.4-5.4h-14.5c-3,0-5.4,2.4-5.4,5.4v18.9c0,3-2.4,5.4-5.4,5.4
			H630c-3,0-5.4-2.4-5.4-5.4v-7.1c0-3-2.4-5.4-5.4-5.4h-30.8c-3,0-5.4,2.4-5.4,5.4v4.9c0,3-2.4,5.4-5.4,5.4h-20.3
			c-3,0-5.4-2.4-5.4-5.4v-4.9c0-3-2.4-5.4-5.4-5.4h-36.8c-3,0-5.4,2.4-5.4,5.4v22.9c0,3-2.4,5.4-5.4,5.4h-7c-3,0-5.4-2.4-5.4-5.4
			v-2.9c0-3-2.4-5.4-5.4-5.4h-22.5c-3,0-5.4-2.4-5.4-5.4v-34.7c0-3-2.4-5.4-5.4-5.4h-13.3c-3,0-5.4,2.4-5.4,5.4v5.1
			c0,3-2.4,5.4-5.4,5.4h-7.1c-3,0-5.4-2.4-5.4-5.4v-42.4c0-3-2.4-5.4-5.4-5.4h-15.8c-3,0-5.4,2.4-5.4,5.4v90.2c0,3-2.4,5.4-5.4,5.4
			h-8.7c-3,0-5.4-2.4-5.4-5.4v-35.1c0-3-2.4-5.4-5.4-5.4h-11.2c-3,0-5.4,2.4-5.4,5.4v14.8c0,3-2.4,5.4-5.4,5.4h-5.1
			c-3,0-5.4-2.4-5.4-5.4v-38.8c0-3-2.4-5.4-5.4-5.4h-9.1c-3,0-5.4,2.4-5.4,5.4v40.9c0,3-2.4,5.4-5.4,5.4h-10.3c-3,0-5.4-2.4-5.4-5.4
			v-58.7c0-3-2.4-5.4-5.4-5.4h-13.3c-3,0-5.4,2.4-5.4,5.4v81c0,3-2.4,5.4-5.4,5.4h-13.3c-3,0-5.4-2.4-5.4-5.4v-44.2
			c0-3-2.4-5.4-5.4-5.4h-17.9c-3,0-5.4,2.4-5.4,5.4v10.7c0,3-2.4,5.4-5.4,5.4h-14.3c-3,0-5.4-2.4-5.4-5.4v-34.7c0-3-2.4-5.4-5.4-5.4
			h-11.7c-3,0-5.4-2.4-5.4-5.4v-20.5c0-3-2.4-5.4-5.4-5.4h-13.8c-3,0-5.4,2.4-5.4,5.4v39.9c0,3-2.4,5.4-5.4,5.4h-8.7
			c-3,0-5.4-2.4-5.4-5.4v0c0-3-2.4-5.4-5.4-5.4H94c-3,0-5.4,2.4-5.4,5.4v32.9c0,3-2.4,5.4-5.4,5.4H71.6c-3,0-5.4-2.4-5.4-5.4v-16.6
			c0-3-2.4-5.4-5.4-5.4H46.5c-3,0-5.4,2.4-5.4,5.4v18.9c0,3-2.4,5.4-5.4,5.4H30c-3,0-5.4-2.4-5.4-5.4v-7.1c0-3-2.4-5.4-5.4-5.4
			h-30.8c-3,0-5.4,2.4-5.4,5.4v4.9c0,3-2.4,5.4-5.4,5.4h-20.3c-3,0-5.4-2.4-5.4-5.4v-4.9c0-3-2.4-5.4-5.4-5.4h-36.8
			c-3,0-5.4,2.4-5.4,5.4v22.9c0,3-2.4,5.4-5.4,5.4h-7c-3,0-5.4-2.4-5.4-5.4v-2.9c0-3-2.4-5.4-5.4-5.4h-22.5c-3,0-5.4-2.4-5.4-5.4
			v-34.7c0-3-2.4-5.4-5.4-5.4h-13.3c-3,0-5.4,2.4-5.4,5.4v5.1c0,3-2.4,5.4-5.4,5.4h-7.1c-3,0-5.4-2.4-5.4-5.4v-42.4
			c0-3-2.4-5.4-5.4-5.4h-15.8c-3,0-5.4,2.4-5.4,5.4v90.2c0,3-2.4,5.4-5.4,5.4h-8.7c-3,0-5.4-2.4-5.4-5.4v-35.1c0-3-2.4-5.4-5.4-5.4
			h-11.2c-3,0-5.4,2.4-5.4,5.4v14.8c0,3-2.4,5.4-5.4,5.4h-5.1c-3,0-5.4-2.4-5.4-5.4v-38.8c0-3-2.4-5.4-5.4-5.4h-9.1
			c-3,0-5.4,2.4-5.4,5.4v93.2"/>
	</g>
	<polygon class="st5" points="8.2,-172.5 17.5,-182.8 16.8,-168.9 30.7,-169.6 20.3,-160.3 30.7,-151 16.8,-151.7 17.5,-137.8 
		8.2,-148.1 -1.2,-137.8 -0.5,-151.7 -14.3,-151 -4,-160.3 -14.3,-169.6 -0.5,-168.9 -1.2,-182.8 	"/>
	<g class="st2">
		<path class="st3" d="M24.6,88.4c-3.8,5-9.7,8.2-16.4,8.2c-11.4,0-20.6-9.2-20.6-20.6c0-11.4,9.2-20.6,20.6-20.6
			c6.7,0,12.7,3.2,16.4,8.2c-2-1.1-4.4-1.8-6.8-1.8C9.9,61.8,3.5,68.2,3.5,76c0,7.8,6.3,14.2,14.2,14.2
			C20.2,90.2,22.6,89.5,24.6,88.4z"/>
		<path class="st3" d="M24.6,89.9c-3.8,5-9.7,8.2-16.4,8.2c-11.4,0-20.6-9.2-20.6-20.6c0-11.4,9.2-20.6,20.6-20.6
			c6.7,0,12.7,3.2,16.4,8.2c-2-1.1-4.4-1.8-6.8-1.8c-7.8,0-14.2,6.3-14.2,14.2c0,7.8,6.3,14.2,14.2,14.2
			C20.2,91.6,22.6,91,24.6,89.9z"/>
	</g>
	<rect x="-291.8" y="50.9" class="st6" width="600" height="50"/>
	<line class="st7" x1="-291.8" y1="50.9" x2="308.2" y2="50.9"/>
	<g class="st2">
		<g>
			<rect x="33.4" y="1.7" transform="matrix(0.7071 -0.7071 0.7071 0.7071 5.4275 26.1654)" class="st4" width="1.7" height="9.7"/>
			
				<rect x="29.8" y="-1.8" transform="matrix(0.7071 0.7071 -0.7071 0.7071 11.1012 -20.757)" class="st4" width="1.7" height="9.7"/>
		</g>
		<polygon class="st4" points="92.1,26.4 -63,26.4 -63,9 84.3,9 		"/>
		<polygon class="st4" points="45.5,9 38.9,-12.4 36.7,-12.4 36.7,9 		"/>
		<rect x="-63" y="26.4" class="st4" width="155.1" height="9.7"/>
		<polygon class="st4" points="-0.7,9 -0.7,1.9 2,1.9 5.6,9 		"/>
		<polygon class="st4" points="85.2,11 92.1,11 92.1,19.4 89,19.4 		"/>
		<rect x="-5.7" y="36.1" class="st4" width="42.4" height="4.3"/>
		<rect x="36.7" y="36.1" class="st4" width="27.3" height="2.2"/>
		<rect x="-49.8" y="36.1" class="st4" width="44.2" height="2.2"/>
		<rect x="-69.6" y="36.1" class="st4" width="19.8" height="4.1"/>
		<rect x="-79.9" y="37.3" class="st4" width="10.3" height="1.9"/>
		<rect x="2.4" y="9" class="st4" width="34.3" height="27.1"/>
		<line class="st4" x1="36.7" y1="31.2" x2="-19.5" y2="31.2"/>
		<rect x="-4.3" y="-7.3" class="st4" width="3.2" height="16.3"/>
		<rect x="-60.7" y="0.9" class="st4" width="25.6" height="8.1"/>
		<rect x="-63.4" y="-7.3" class="st4" width="25.6" height="8.1"/>
		<rect x="-63" y="-15.4" class="st4" width="25.6" height="8.1"/>
		<rect x="-59.1" y="-20" class="st4" width="22.4" height="4.5"/>
		<rect x="-50" y="-21.8" class="st4" width="3.5" height="30.8"/>
		<rect x="5.6" y="12.8" class="st4" width="8.2" height="1.5"/>
		<rect x="-65" y="27.6" class="st4" width="2" height="6.5"/>
		<rect x="92.1" y="26.4" class="st4" width="4.1" height="9.7"/>
		<polygon class="st4" points="96.2,36.1 92.1,40.4 78.2,40.4 78.2,36.1 		"/>
		<rect x="-35.1" y="-33.6" class="st4" width="30.9" height="42.6"/>
		<rect x="-20.4" y="-35.7" class="st4" width="3.5" height="44.7"/>
	</g>
	<g class="st2">
		<circle class="st4" cx="-33.5" cy="36.1" r="14.8"/>
		<circle class="st4" cx="-33.5" cy="36.1" r="11"/>
		<g>
			<line class="st8" x1="-33.5" y1="25" x2="-33.5" y2="47.1"/>
			<line class="st8" x1="-25.7" y1="28.3" x2="-41.3" y2="43.9"/>
			<line class="st8" x1="-22.4" y1="36.1" x2="-44.5" y2="36.1"/>
			<line class="st8" x1="-25.7" y1="43.9" x2="-41.3" y2="28.3"/>
		</g>
		<circle class="st4" cx="-33.5" cy="36.1" r="2.3"/>
	</g>
	<polygon class="st5" points="-97.9,41.3 -90.6,41.3 -90.6,39.7 -87.6,39.7 -87.6,37.7 -89.1,37.7 -89.1,34.8 -92.4,34.8 
		-92.4,35.8 -95.3,35.8 -95.3,32.9 -98.5,32.9 -98.5,34.8 -103,34.8 -103,37.7 -101.4,37.7 -101.4,39.5 -97.9,39.5 	"/>
	<g class="st2">
		<circle class="st9" cx="8.2" cy="-160.8" r="8.9"/>
		<circle class="st10" cx="8.2" cy="-159.7" r="8.9"/>
	</g>
</g>
<g class="st1">
	<g class="st2">
		<path d="M-291.8-23.6v-98.2c0-3,2.4-5.4,5.4-5.4h9.1c3,0,5.4,2.4,5.4,5.4v38.8c0,3,2.4,5.4,5.4,5.4h5.1c3,0,5.4-2.4,5.4-5.4v-14.8
			c0-3,2.4-5.4,5.4-5.4h11.2c3,0,5.4,2.4,5.4,5.4v35.1c0,3,2.4,5.4,5.4,5.4h8.7c3,0,5.4-2.4,5.4-5.4V-153c0-3,2.4-5.4,5.4-5.4h15.8
			c3,0,5.4,2.4,5.4,5.4v42.4c0,3,2.4,5.4,5.4,5.4h7.1c3,0,5.4-2.4,5.4-5.4v-5.1c0-3,2.4-5.4,5.4-5.4h13.3c3,0,5.4,2.4,5.4,5.4V-81
			c0,3,2.4,5.4,5.4,5.4h22.5c3,0,5.4,2.4,5.4,5.4v2.9c0,3,2.4,5.4,5.4,5.4h7c3,0,5.4-2.4,5.4-5.4v-22.9c0-3,2.4-5.4,5.4-5.4h36.8
			c3,0,5.4,2.4,5.4,5.4v4.9c0,3,2.4,5.4,5.4,5.4h20.3c3,0,5.4-2.4,5.4-5.4v-4.9c0-3,2.4-5.4,5.4-5.4h30.8c3,0,5.4,2.4,5.4,5.4v7.1
			c0,3,2.4,5.4,5.4,5.4h5.8c3,0,5.4-2.4,5.4-5.4V-102c0-3,2.4-5.4,5.4-5.4h14.5c3,0,5.4,2.4,5.4,5.4v16.6c0,3,2.4,5.4,5.4,5.4h11.7
			c3,0,5.4-2.4,5.4-5.4v-32.9c0-3,2.4-5.4,5.4-5.4h19.7c3,0,5.4,2.4,5.4,5.4v0c0,3,2.4,5.4,5.4,5.4h8.7c3,0,5.4-2.4,5.4-5.4v-39.9
			c0-3,2.4-5.4,5.4-5.4h13.8c3,0,5.4,2.4,5.4,5.4v20.5c0,3,2.4,5.4,5.4,5.4h11.7c3,0,5.4,2.4,5.4,5.4v34.7c0,3,2.4,5.4,5.4,5.4h14.3
			c3,0,5.4-2.4,5.4-5.4V-103c0-3,2.4-5.4,5.4-5.4h17.9c3,0,5.4,2.4,5.4,5.4v44.2c0,3,2.4,5.4,5.4,5.4h13.3c3,0,5.4-2.4,5.4-5.4v-81
			c0-3,2.4-5.4,5.4-5.4h13.3c3,0,5.4,2.4,5.4,5.4V-81c0,3,2.4,5.4,5.4,5.4h10.3c3,0,5.4-2.4,5.4-5.4v-40.9c0-3,2.4-5.4,5.4-5.4h9.1
			c3,0,5.4,2.4,5.4,5.4v38.8c0,3,2.4,5.4,5.4,5.4h5.1c3,0,5.4-2.4,5.4-5.4v-14.8c0-3,2.4-5.4,5.4-5.4h11.2c3,0,5.4,2.4,5.4,5.4v35.1
			c0,3,2.4,5.4,5.4,5.4h8.7c3,0,5.4-2.4,5.4-5.4V-153c0-3,2.4-5.4,5.4-5.4h15.8c3,0,5.4,2.4,5.4,5.4v42.4c0,3,2.4,5.4,5.4,5.4h7.1
			c3,0,5.4-2.4,5.4-5.4v-5.1c0-3,2.4-5.4,5.4-5.4h13.3c3,0,5.4,2.4,5.4,5.4V-81c0,3,2.4,5.4,5.4,5.4h22.5c3,0,5.4,2.4,5.4,5.4v2.9
			c0,3,2.4,5.4,5.4,5.4h7c3,0,5.4-2.4,5.4-5.4v-22.9c0-3,2.4-5.4,5.4-5.4h36.8c3,0,5.4,2.4,5.4,5.4v4.9c0,3,2.4,5.4,5.4,5.4h20.3
			c3,0,5.4-2.4,5.4-5.4v-4.9c0-3,2.4-5.4,5.4-5.4h30.8c3,0,5.4,2.4,5.4,5.4v7.1c0,3,2.4,5.4,5.4,5.4h5.8c3,0,5.4-2.4,5.4-5.4V-102
			c0-3,2.4-5.4,5.4-5.4h14.5c3,0,5.4,2.4,5.4,5.4v16.6c0,3,2.4,5.4,5.4,5.4h11.7c3,0,5.4-2.4,5.4-5.4v-32.9c0-3,2.4-5.4,5.4-5.4
			h19.7c3,0,5.4,2.4,5.4,5.4v0c0,3,2.4,5.4,5.4,5.4h8.7c3,0,5.4-2.4,5.4-5.4v-39.9c0-3,2.4-5.4,5.4-5.4h13.8c3,0,5.4,2.4,5.4,5.4
			v20.5c0,3,2.4,5.4,5.4,5.4h11.7c3,0,5.4,2.4,5.4,5.4v34.7c0,3,2.4,5.4,5.4,5.4h14.3c3,0,5.4-2.4,5.4-5.4V-103c0-3,2.4-5.4,5.4-5.4
			h17.9c3,0,5.4,2.4,5.4,5.4v44.2c0,3,2.4,5.4,5.4,5.4h13.3c3,0,5.4-2.4,5.4-5.4v-81c0-3,2.4-5.4,5.4-5.4h13.3c3,0,5.4,2.4,5.4,5.4
			v110.4c0,3,2.4,5.4,5.4,5.4h15.7"/>
		<path d="M-291.8-23.1c-0.3,0-0.5-0.2-0.5-0.5v-98.2c0-3.2,2.6-5.9,5.9-5.9h9.1c3.2,0,5.9,2.6,5.9,5.9v38.8c0,2.7,2.2,4.9,4.9,4.9
			h5.1c2.7,0,4.9-2.2,4.9-4.9v-14.8c0-3.2,2.6-5.9,5.9-5.9h11.2c3.2,0,5.9,2.6,5.9,5.9v35.1c0,2.7,2.2,4.9,4.9,4.9h8.7
			c2.7,0,4.9-2.2,4.9-4.9V-153c0-3.2,2.6-5.9,5.9-5.9h15.8c3.2,0,5.9,2.6,5.9,5.9v42.4c0,2.7,2.2,4.9,4.9,4.9h7.1
			c2.7,0,4.9-2.2,4.9-4.9v-5.1c0-3.2,2.6-5.9,5.9-5.9h13.3c3.2,0,5.9,2.6,5.9,5.9V-81c0,2.7,2.2,4.9,4.9,4.9h22.5
			c3.2,0,5.9,2.6,5.9,5.9v2.9c0,2.7,2.2,4.9,4.9,4.9h7c2.7,0,4.9-2.2,4.9-4.9v-22.9c0-3.2,2.6-5.9,5.9-5.9h36.8
			c3.2,0,5.9,2.6,5.9,5.9v4.9c0,2.7,2.2,4.9,4.9,4.9h20.3c2.7,0,4.9-2.2,4.9-4.9v-4.9c0-3.2,2.6-5.9,5.9-5.9h30.8
			c3.2,0,5.9,2.6,5.9,5.9v7.1c0,2.7,2.2,4.9,4.9,4.9h5.8c2.7,0,4.9-2.2,4.9-4.9V-102c0-3.2,2.6-5.9,5.9-5.9h14.5
			c3.2,0,5.9,2.6,5.9,5.9v16.6c0,2.7,2.2,4.9,4.9,4.9h11.7c2.7,0,4.9-2.2,4.9-4.9v-32.9c0-3.2,2.6-5.9,5.9-5.9h19.7
			c3.2,0,5.9,2.6,5.9,5.9c0,2.7,2.2,4.9,4.9,4.9h8.7c2.7,0,4.9-2.2,4.9-4.9v-39.9c0-3.2,2.6-5.9,5.9-5.9h13.8c3.2,0,5.9,2.6,5.9,5.9
			v20.5c0,2.7,2.2,4.9,4.9,4.9h11.7c3.2,0,5.9,2.6,5.9,5.9v34.7c0,2.7,2.2,4.9,4.9,4.9h14.3c2.7,0,4.9-2.2,4.9-4.9V-103
			c0-3.2,2.6-5.9,5.9-5.9h17.9c3.2,0,5.9,2.6,5.9,5.9v44.2c0,2.7,2.2,4.9,4.9,4.9h13.3c2.7,0,4.9-2.2,4.9-4.9v-81
			c0-3.2,2.6-5.9,5.9-5.9h13.3c3.2,0,5.9,2.6,5.9,5.9V-81c0,2.7,2.2,4.9,4.9,4.9h10.3c2.7,0,4.9-2.2,4.9-4.9v-40.9
			c0-3.2,2.6-5.9,5.9-5.9h9.1c3.2,0,5.9,2.6,5.9,5.9v38.8c0,2.7,2.2,4.9,4.9,4.9h5.1c2.7,0,4.9-2.2,4.9-4.9v-14.8
			c0-3.2,2.6-5.9,5.9-5.9h11.2c3.2,0,5.9,2.6,5.9,5.9v35.1c0,2.7,2.2,4.9,4.9,4.9h8.7c2.7,0,4.9-2.2,4.9-4.9V-153
			c0-3.2,2.6-5.9,5.9-5.9h15.8c3.2,0,5.9,2.6,5.9,5.9v42.4c0,2.7,2.2,4.9,4.9,4.9h7.1c2.7,0,4.9-2.2,4.9-4.9v-5.1
			c0-3.2,2.6-5.9,5.9-5.9h13.3c3.2,0,5.9,2.6,5.9,5.9V-81c0,2.7,2.2,4.9,4.9,4.9h22.5c3.2,0,5.9,2.6,5.9,5.9v2.9
			c0,2.7,2.2,4.9,4.9,4.9h7c2.7,0,4.9-2.2,4.9-4.9v-22.9c0-3.2,2.6-5.9,5.9-5.9h36.8c3.2,0,5.9,2.6,5.9,5.9v4.9
			c0,2.7,2.2,4.9,4.9,4.9h20.3c2.7,0,4.9-2.2,4.9-4.9v-4.9c0-3.2,2.6-5.9,5.9-5.9h30.8c3.2,0,5.9,2.6,5.9,5.9v7.1
			c0,2.7,2.2,4.9,4.9,4.9h5.8c2.7,0,4.9-2.2,4.9-4.9V-102c0-3.2,2.6-5.9,5.9-5.9h14.5c3.2,0,5.9,2.6,5.9,5.9v16.6
			c0,2.7,2.2,4.9,4.9,4.9h11.7c2.7,0,4.9-2.2,4.9-4.9v-32.9c0-3.2,2.6-5.9,5.9-5.9h19.7c3.2,0,5.9,2.6,5.9,5.9
			c0,2.7,2.2,4.9,4.9,4.9h8.7c2.7,0,4.9-2.2,4.9-4.9v-39.9c0-3.2,2.6-5.9,5.9-5.9h13.8c3.2,0,5.9,2.6,5.9,5.9v20.5
			c0,2.7,2.2,4.9,4.9,4.9h11.7c3.2,0,5.9,2.6,5.9,5.9v34.7c0,2.7,2.2,4.9,4.9,4.9h14.3c2.7,0,4.9-2.2,4.9-4.9V-103
			c0-3.2,2.6-5.9,5.9-5.9h17.9c3.2,0,5.9,2.6,5.9,5.9v44.2c0,2.7,2.2,4.9,4.9,4.9h13.3c2.7,0,4.9-2.2,4.9-4.9v-81
			c0-3.2,2.6-5.9,5.9-5.9h13.3c3.2,0,5.9,2.6,5.9,5.9v110.4c0,2.7,2.2,4.9,4.9,4.9h15.7c0.3,0,0.5,0.2,0.5,0.5s-0.2,0.5-0.5,0.5
			h-15.7c-3.2,0-5.9-2.6-5.9-5.9v-110.4c0-2.7-2.2-4.9-4.9-4.9h-13.3c-2.7,0-4.9,2.2-4.9,4.9v81c0,3.2-2.6,5.9-5.9,5.9h-13.3
			c-3.2,0-5.9-2.6-5.9-5.9V-103c0-2.7-2.2-4.9-4.9-4.9h-17.9c-2.7,0-4.9,2.2-4.9,4.9v10.7c0,3.2-2.6,5.9-5.9,5.9h-14.3
			c-3.2,0-5.9-2.6-5.9-5.9V-127c0-2.7-2.2-4.9-4.9-4.9h-11.7c-3.2,0-5.9-2.6-5.9-5.9v-20.5c0-2.7-2.2-4.9-4.9-4.9h-13.8
			c-2.7,0-4.9,2.2-4.9,4.9v39.9c0,3.2-2.6,5.9-5.9,5.9h-8.7c-3.2,0-5.9-2.6-5.9-5.9c0-2.7-2.2-4.9-4.9-4.9H694
			c-2.7,0-4.9,2.2-4.9,4.9v32.9c0,3.2-2.6,5.9-5.9,5.9h-11.7c-3.2,0-5.9-2.6-5.9-5.9V-102c0-2.7-2.2-4.9-4.9-4.9h-14.5
			c-2.7,0-4.9,2.2-4.9,4.9v18.9c0,3.2-2.6,5.9-5.9,5.9h-5.8c-3.2,0-5.9-2.6-5.9-5.9v-7.1c0-2.7-2.2-4.9-4.9-4.9h-30.8
			c-2.7,0-4.9,2.2-4.9,4.9v4.9c0,3.2-2.6,5.9-5.9,5.9h-20.3c-3.2,0-5.9-2.6-5.9-5.9v-4.9c0-2.7-2.2-4.9-4.9-4.9h-36.8
			c-2.7,0-4.9,2.2-4.9,4.9v22.9c0,3.2-2.6,5.9-5.9,5.9h-7c-3.2,0-5.9-2.6-5.9-5.9v-2.9c0-2.7-2.2-4.9-4.9-4.9h-22.5
			c-3.2,0-5.9-2.6-5.9-5.9v-34.7c0-2.7-2.2-4.9-4.9-4.9h-13.3c-2.7,0-4.9,2.2-4.9,4.9v5.1c0,3.2-2.6,5.9-5.9,5.9h-7.1
			c-3.2,0-5.9-2.6-5.9-5.9V-153c0-2.7-2.2-4.9-4.9-4.9h-15.8c-2.7,0-4.9,2.2-4.9,4.9v90.2c0,3.2-2.6,5.9-5.9,5.9h-8.7
			c-3.2,0-5.9-2.6-5.9-5.9v-35.1c0-2.7-2.2-4.9-4.9-4.9h-11.2c-2.7,0-4.9,2.2-4.9,4.9v14.8c0,3.2-2.6,5.9-5.9,5.9h-5.1
			c-3.2,0-5.9-2.6-5.9-5.9v-38.8c0-2.7-2.2-4.9-4.9-4.9h-9.1c-2.7,0-4.9,2.2-4.9,4.9V-81c0,3.2-2.6,5.9-5.9,5.9h-10.3
			c-3.2,0-5.9-2.6-5.9-5.9v-58.7c0-2.7-2.2-4.9-4.9-4.9h-13.3c-2.7,0-4.9,2.2-4.9,4.9v81c0,3.2-2.6,5.9-5.9,5.9h-13.3
			c-3.2,0-5.9-2.6-5.9-5.9V-103c0-2.7-2.2-4.9-4.9-4.9h-17.9c-2.7,0-4.9,2.2-4.9,4.9v10.7c0,3.2-2.6,5.9-5.9,5.9h-14.3
			c-3.2,0-5.9-2.6-5.9-5.9V-127c0-2.7-2.2-4.9-4.9-4.9h-11.7c-3.2,0-5.9-2.6-5.9-5.9v-20.5c0-2.7-2.2-4.9-4.9-4.9h-13.8
			c-2.7,0-4.9,2.2-4.9,4.9v39.9c0,3.2-2.6,5.9-5.9,5.9h-8.7c-3.2,0-5.9-2.6-5.9-5.9c0-2.7-2.2-4.9-4.9-4.9H94
			c-2.7,0-4.9,2.2-4.9,4.9v32.9c0,3.2-2.6,5.9-5.9,5.9H71.6c-3.2,0-5.9-2.6-5.9-5.9V-102c0-2.7-2.2-4.9-4.9-4.9H46.5
			c-2.7,0-4.9,2.2-4.9,4.9v18.9c0,3.2-2.6,5.9-5.9,5.9h-5.8c-3.2,0-5.9-2.6-5.9-5.9v-7.1c0-2.7-2.2-4.9-4.9-4.9h-30.8
			c-2.7,0-4.9,2.2-4.9,4.9v4.9c0,3.2-2.6,5.9-5.9,5.9h-20.3c-3.2,0-5.9-2.6-5.9-5.9v-4.9c0-2.7-2.2-4.9-4.9-4.9h-36.8
			c-2.7,0-4.9,2.2-4.9,4.9v22.9c0,3.2-2.6,5.9-5.9,5.9h-7c-3.2,0-5.9-2.6-5.9-5.9v-2.9c0-2.7-2.2-4.9-4.9-4.9h-22.5
			c-3.2,0-5.9-2.6-5.9-5.9v-34.7c0-2.7-2.2-4.9-4.9-4.9h-13.3c-2.7,0-4.9,2.2-4.9,4.9v5.1c0,3.2-2.6,5.9-5.9,5.9h-7.1
			c-3.2,0-5.9-2.6-5.9-5.9V-153c0-2.7-2.2-4.9-4.9-4.9h-15.8c-2.7,0-4.9,2.2-4.9,4.9v90.2c0,3.2-2.6,5.9-5.9,5.9h-8.7
			c-3.2,0-5.9-2.6-5.9-5.9v-35.1c0-2.7-2.2-4.9-4.9-4.9h-11.2c-2.7,0-4.9,2.2-4.9,4.9v14.8c0,3.2-2.6,5.9-5.9,5.9h-5.1
			c-3.2,0-5.9-2.6-5.9-5.9v-38.8c0-2.7-2.2-4.9-4.9-4.9h-9.1c-2.7,0-4.9,2.2-4.9,4.9v98.2C-291.3-23.4-291.6-23.1-291.8-23.1z"/>
	</g>
	<g class="st2">
		<path class="st11" d="M908.2-22.2h-15.7c-3,0-5.4-2.4-5.4-5.4l0-105.7c0-3-2.4-5.4-5.4-5.4h-13.3c-3,0-5.4,2.4-5.4,5.4v81
			c0,3-2.4,5.4-5.4,5.4h-13.3c-3,0-5.4-2.4-5.4-5.4v-44.2c0-3-2.4-5.4-5.4-5.4h-17.9c-3,0-5.4,2.4-5.4,5.4v10.7c0,3-2.4,5.4-5.4,5.4
			h-14.3c-3,0-5.4-2.4-5.4-5.4v-34.7c0-3-2.4-5.4-5.4-5.4h-11.7c-3,0-5.4-2.4-5.4-5.4v-20.5c0-3-2.4-5.4-5.4-5.4h-13.8
			c-3,0-5.4,2.4-5.4,5.4v39.9c0,3-2.4,5.4-5.4,5.4h-8.7c-3,0-5.4-2.4-5.4-5.4v0c0-3-2.4-5.4-5.4-5.4H694c-3,0-5.4,2.4-5.4,5.4v32.9
			c0,3-2.4,5.4-5.4,5.4h-11.7c-3,0-5.4-2.4-5.4-5.4v-16.6c0-3-2.4-5.4-5.4-5.4h-14.5c-3,0-5.4,2.4-5.4,5.4v18.9c0,3-2.4,5.4-5.4,5.4
			H630c-3,0-5.4-2.4-5.4-5.4v-7.1c0-3-2.4-5.4-5.4-5.4h-30.8c-3,0-5.4,2.4-5.4,5.4v4.9c0,3-2.4,5.4-5.4,5.4h-20.3
			c-3,0-5.4-2.4-5.4-5.4v-4.9c0-3-2.4-5.4-5.4-5.4h-36.8c-3,0-5.4,2.4-5.4,5.4v22.9c0,3-2.4,5.4-5.4,5.4h-7c-3,0-5.4-2.4-5.4-5.4
			v-2.9c0-3-2.4-5.4-5.4-5.4h-22.5c-3,0-5.4-2.4-5.4-5.4v-34.7c0-3-2.4-5.4-5.4-5.4h-13.3c-3,0-5.4,2.4-5.4,5.4v5.1
			c0,3-2.4,5.4-5.4,5.4h-7.1c-3,0-5.4-2.4-5.4-5.4v-42.4c0-3-2.4-5.4-5.4-5.4h-15.8c-3,0-5.4,2.4-5.4,5.4v90.2c0,3-2.4,5.4-5.4,5.4
			h-8.7c-3,0-5.4-2.4-5.4-5.4v-35.1c0-3-2.4-5.4-5.4-5.4h-11.2c-3,0-5.4,2.4-5.4,5.4v14.8c0,3-2.4,5.4-5.4,5.4h-5.1
			c-3,0-5.4-2.4-5.4-5.4v-38.8c0-3-2.4-5.4-5.4-5.4h-9.1c-3,0-5.4,2.4-5.4,5.4v40.9c0,3-2.4,5.4-5.4,5.4h-10.3c-3,0-5.4-2.4-5.4-5.4
			v-58.7c0-3-2.4-5.4-5.4-5.4h-13.3c-3,0-5.4,2.4-5.4,5.4v81c0,3-2.4,5.4-5.4,5.4h-13.3c-3,0-5.4-2.4-5.4-5.4v-44.2
			c0-3-2.4-5.4-5.4-5.4h-17.9c-3,0-5.4,2.4-5.4,5.4v10.7c0,3-2.4,5.4-5.4,5.4h-14.3c-3,0-5.4-2.4-5.4-5.4v-34.7c0-3-2.4-5.4-5.4-5.4
			h-11.7c-3,0-5.4-2.4-5.4-5.4v-20.5c0-3-2.4-5.4-5.4-5.4h-13.8c-3,0-5.4,2.4-5.4,5.4v39.9c0,3-2.4,5.4-5.4,5.4h-8.7
			c-3,0-5.4-2.4-5.4-5.4v0c0-3-2.4-5.4-5.4-5.4H94c-3,0-5.4,2.4-5.4,5.4v32.9c0,3-2.4,5.4-5.4,5.4H71.6c-3,0-5.4-2.4-5.4-5.4v-16.6
			c0-3-2.4-5.4-5.4-5.4H46.5c-3,0-5.4,2.4-5.4,5.4v18.9c0,3-2.4,5.4-5.4,5.4H30c-3,0-5.4-2.4-5.4-5.4v-7.1c0-3-2.4-5.4-5.4-5.4
			h-30.8c-3,0-5.4,2.4-5.4,5.4v4.9c0,3-2.4,5.4-5.4,5.4h-20.3c-3,0-5.4-2.4-5.4-5.4v-4.9c0-3-2.4-5.4-5.4-5.4h-36.8
			c-3,0-5.4,2.4-5.4,5.4v22.9c0,3-2.4,5.4-5.4,5.4h-7c-3,0-5.4-2.4-5.4-5.4v-2.9c0-3-2.4-5.4-5.4-5.4h-22.5c-3,0-5.4-2.4-5.4-5.4
			v-34.7c0-3-2.4-5.4-5.4-5.4h-13.3c-3,0-5.4,2.4-5.4,5.4v5.1c0,3-2.4,5.4-5.4,5.4h-7.1c-3,0-5.4-2.4-5.4-5.4v-42.4
			c0-3-2.4-5.4-5.4-5.4h-15.8c-3,0-5.4,2.4-5.4,5.4v90.2c0,3-2.4,5.4-5.4,5.4h-8.7c-3,0-5.4-2.4-5.4-5.4v-35.1c0-3-2.4-5.4-5.4-5.4
			h-11.2c-3,0-5.4,2.4-5.4,5.4v14.8c0,3-2.4,5.4-5.4,5.4h-5.1c-3,0-5.4-2.4-5.4-5.4v-38.8c0-3-2.4-5.4-5.4-5.4h-9.1
			c-3,0-5.4,2.4-5.4,5.4v93.2"/>
		<path d="M908.2-21.7h-15.7c-3.2,0-5.9-2.6-5.9-5.9l0-105.7c0-2.7-2.2-4.9-4.9-4.9h-13.3c-2.7,0-4.9,2.2-4.9,4.9v81
			c0,3.2-2.6,5.9-5.9,5.9h-13.3c-3.2,0-5.9-2.6-5.9-5.9v-44.2c0-2.7-2.2-4.9-4.9-4.9h-17.9c-2.7,0-4.9,2.2-4.9,4.9v10.7
			c0,3.2-2.6,5.9-5.9,5.9h-14.3c-3.2,0-5.9-2.6-5.9-5.9v-34.7c0-2.7-2.2-4.9-4.9-4.9h-11.7c-3.2,0-5.9-2.6-5.9-5.9v-20.5
			c0-2.7-2.2-4.9-4.9-4.9h-13.8c-2.7,0-4.9,2.2-4.9,4.9v39.9c0,3.2-2.6,5.9-5.9,5.9h-8.7c-3.2,0-5.9-2.6-5.9-5.9
			c0-2.7-2.2-4.9-4.9-4.9H694c-2.7,0-4.9,2.2-4.9,4.9v32.9c0,3.2-2.6,5.9-5.9,5.9h-11.7c-3.2,0-5.9-2.6-5.9-5.9v-16.6
			c0-2.7-2.2-4.9-4.9-4.9h-14.5c-2.7,0-4.9,2.2-4.9,4.9v18.9c0,3.2-2.6,5.9-5.9,5.9H630c-3.2,0-5.9-2.6-5.9-5.9v-7.1
			c0-2.7-2.2-4.9-4.9-4.9h-30.8c-2.7,0-4.9,2.2-4.9,4.9v4.9c0,3.2-2.6,5.9-5.9,5.9h-20.3c-3.2,0-5.9-2.6-5.9-5.9v-4.9
			c0-2.7-2.2-4.9-4.9-4.9h-36.8c-2.7,0-4.9,2.2-4.9,4.9v22.9c0,3.2-2.6,5.9-5.9,5.9h-7c-3.2,0-5.9-2.6-5.9-5.9v-2.9
			c0-2.7-2.2-4.9-4.9-4.9h-22.5c-3.2,0-5.9-2.6-5.9-5.9v-34.7c0-2.7-2.2-4.9-4.9-4.9h-13.3c-2.7,0-4.9,2.2-4.9,4.9v5.1
			c0,3.2-2.6,5.9-5.9,5.9h-7.1c-3.2,0-5.9-2.6-5.9-5.9v-42.4c0-2.7-2.2-4.9-4.9-4.9h-15.8c-2.7,0-4.9,2.2-4.9,4.9v90.2
			c0,3.2-2.6,5.9-5.9,5.9h-8.7c-3.2,0-5.9-2.6-5.9-5.9v-35.1c0-2.7-2.2-4.9-4.9-4.9h-11.2c-2.7,0-4.9,2.2-4.9,4.9v14.8
			c0,3.2-2.6,5.9-5.9,5.9h-5.1c-3.2,0-5.9-2.6-5.9-5.9v-38.8c0-2.7-2.2-4.9-4.9-4.9h-9.1c-2.7,0-4.9,2.2-4.9,4.9v40.9
			c0,3.2-2.6,5.9-5.9,5.9h-10.3c-3.2,0-5.9-2.6-5.9-5.9v-58.7c0-2.7-2.2-4.9-4.9-4.9h-13.3c-2.7,0-4.9,2.2-4.9,4.9v81
			c0,3.2-2.6,5.9-5.9,5.9h-13.3c-3.2,0-5.9-2.6-5.9-5.9v-44.2c0-2.7-2.2-4.9-4.9-4.9h-17.9c-2.7,0-4.9,2.2-4.9,4.9v10.7
			c0,3.2-2.6,5.9-5.9,5.9h-14.3c-3.2,0-5.9-2.6-5.9-5.9v-34.7c0-2.7-2.2-4.9-4.9-4.9h-11.7c-3.2,0-5.9-2.6-5.9-5.9v-20.5
			c0-2.7-2.2-4.9-4.9-4.9h-13.8c-2.7,0-4.9,2.2-4.9,4.9v39.9c0,3.2-2.6,5.9-5.9,5.9h-8.7c-3.2,0-5.9-2.6-5.9-5.9
			c0-2.7-2.2-4.9-4.9-4.9H94c-2.7,0-4.9,2.2-4.9,4.9v32.9c0,3.2-2.6,5.9-5.9,5.9H71.6c-3.2,0-5.9-2.6-5.9-5.9v-16.6
			c0-2.7-2.2-4.9-4.9-4.9H46.5c-2.7,0-4.9,2.2-4.9,4.9v18.9c0,3.2-2.6,5.9-5.9,5.9H30c-3.2,0-5.9-2.6-5.9-5.9v-7.1
			c0-2.7-2.2-4.9-4.9-4.9h-30.8c-2.7,0-4.9,2.2-4.9,4.9v4.9c0,3.2-2.6,5.9-5.9,5.9h-20.3c-3.2,0-5.9-2.6-5.9-5.9v-4.9
			c0-2.7-2.2-4.9-4.9-4.9h-36.8c-2.7,0-4.9,2.2-4.9,4.9v22.9c0,3.2-2.6,5.9-5.9,5.9h-7c-3.2,0-5.9-2.6-5.9-5.9v-2.9
			c0-2.7-2.2-4.9-4.9-4.9h-22.5c-3.2,0-5.9-2.6-5.9-5.9v-34.7c0-2.7-2.2-4.9-4.9-4.9h-13.3c-2.7,0-4.9,2.2-4.9,4.9v5.1
			c0,3.2-2.6,5.9-5.9,5.9h-7.1c-3.2,0-5.9-2.6-5.9-5.9v-42.4c0-2.7-2.2-4.9-4.9-4.9h-15.8c-2.7,0-4.9,2.2-4.9,4.9v90.2
			c0,3.2-2.6,5.9-5.9,5.9h-8.7c-3.2,0-5.9-2.6-5.9-5.9v-35.1c0-2.7-2.2-4.9-4.9-4.9h-11.2c-2.7,0-4.9,2.2-4.9,4.9v14.8
			c0,3.2-2.6,5.9-5.9,5.9h-5.1c-3.2,0-5.9-2.6-5.9-5.9v-38.8c0-2.7-2.2-4.9-4.9-4.9h-9.1c-2.7,0-4.9,2.2-4.9,4.9v93.2
			c0,0.3-0.2,0.5-0.5,0.5s-0.5-0.2-0.5-0.5v-93.2c0-3.2,2.6-5.9,5.9-5.9h9.1c3.2,0,5.9,2.6,5.9,5.9v38.8c0,2.7,2.2,4.9,4.9,4.9h5.1
			c2.7,0,4.9-2.2,4.9-4.9v-14.8c0-3.2,2.6-5.9,5.9-5.9h11.2c3.2,0,5.9,2.6,5.9,5.9v35.1c0,2.7,2.2,4.9,4.9,4.9h8.7
			c2.7,0,4.9-2.2,4.9-4.9v-90.2c0-3.2,2.6-5.9,5.9-5.9h15.8c3.2,0,5.9,2.6,5.9,5.9v42.4c0,2.7,2.2,4.9,4.9,4.9h7.1
			c2.7,0,4.9-2.2,4.9-4.9v-5.1c0-3.2,2.6-5.9,5.9-5.9h13.3c3.2,0,5.9,2.6,5.9,5.9v34.7c0,2.7,2.2,4.9,4.9,4.9h22.5
			c3.2,0,5.9,2.6,5.9,5.9v2.9c0,2.7,2.2,4.9,4.9,4.9h7c2.7,0,4.9-2.2,4.9-4.9v-22.9c0-3.2,2.6-5.9,5.9-5.9h36.8
			c3.2,0,5.9,2.6,5.9,5.9v4.9c0,2.7,2.2,4.9,4.9,4.9h20.3c2.7,0,4.9-2.2,4.9-4.9v-4.9c0-3.2,2.6-5.9,5.9-5.9h30.8
			c3.2,0,5.9,2.6,5.9,5.9v7.1c0,2.7,2.2,4.9,4.9,4.9h5.8c2.7,0,4.9-2.2,4.9-4.9v-18.9c0-3.2,2.6-5.9,5.9-5.9h14.5
			c3.2,0,5.9,2.6,5.9,5.9v16.6c0,2.7,2.2,4.9,4.9,4.9h11.7c2.7,0,4.9-2.2,4.9-4.9v-32.9c0-3.2,2.6-5.9,5.9-5.9h19.7
			c3.2,0,5.9,2.6,5.9,5.9c0,2.7,2.2,4.9,4.9,4.9h8.7c2.7,0,4.9-2.2,4.9-4.9v-39.9c0-3.2,2.6-5.9,5.9-5.9h13.8c3.2,0,5.9,2.6,5.9,5.9
			v20.5c0,2.7,2.2,4.9,4.9,4.9h11.7c3.2,0,5.9,2.6,5.9,5.9v34.7c0,2.7,2.2,4.9,4.9,4.9h14.3c2.7,0,4.9-2.2,4.9-4.9v-10.7
			c0-3.2,2.6-5.9,5.9-5.9h17.9c3.2,0,5.9,2.6,5.9,5.9v44.2c0,2.7,2.2,4.9,4.9,4.9h13.3c2.7,0,4.9-2.2,4.9-4.9v-81
			c0-3.2,2.6-5.9,5.9-5.9h13.3c3.2,0,5.9,2.6,5.9,5.9v58.7c0,2.7,2.2,4.9,4.9,4.9h10.3c2.7,0,4.9-2.2,4.9-4.9v-40.9
			c0-3.2,2.6-5.9,5.9-5.9h9.1c3.2,0,5.9,2.6,5.9,5.9v38.8c0,2.7,2.2,4.9,4.9,4.9h5.1c2.7,0,4.9-2.2,4.9-4.9v-14.8
			c0-3.2,2.6-5.9,5.9-5.9h11.2c3.2,0,5.9,2.6,5.9,5.9v35.1c0,2.7,2.2,4.9,4.9,4.9h8.7c2.7,0,4.9-2.2,4.9-4.9v-90.2
			c0-3.2,2.6-5.9,5.9-5.9h15.8c3.2,0,5.9,2.6,5.9,5.9v42.4c0,2.7,2.2,4.9,4.9,4.9h7.1c2.7,0,4.9-2.2,4.9-4.9v-5.1
			c0-3.2,2.6-5.9,5.9-5.9h13.3c3.2,0,5.9,2.6,5.9,5.9v34.7c0,2.7,2.2,4.9,4.9,4.9h22.5c3.2,0,5.9,2.6,5.9,5.9v2.9
			c0,2.7,2.2,4.9,4.9,4.9h7c2.7,0,4.9-2.2,4.9-4.9v-22.9c0-3.2,2.6-5.9,5.9-5.9h36.8c3.2,0,5.9,2.6,5.9,5.9v4.9
			c0,2.7,2.2,4.9,4.9,4.9h20.3c2.7,0,4.9-2.2,4.9-4.9v-4.9c0-3.2,2.6-5.9,5.9-5.9h30.8c3.2,0,5.9,2.6,5.9,5.9v7.1
			c0,2.7,2.2,4.9,4.9,4.9h5.8c2.7,0,4.9-2.2,4.9-4.9v-18.9c0-3.2,2.6-5.9,5.9-5.9h14.5c3.2,0,5.9,2.6,5.9,5.9v16.6
			c0,2.7,2.2,4.9,4.9,4.9h11.7c2.7,0,4.9-2.2,4.9-4.9v-32.9c0-3.2,2.6-5.9,5.9-5.9h19.7c3.2,0,5.9,2.6,5.9,5.9
			c0,2.7,2.2,4.9,4.9,4.9h8.7c2.7,0,4.9-2.2,4.9-4.9v-39.9c0-3.2,2.6-5.9,5.9-5.9h13.8c3.2,0,5.9,2.6,5.9,5.9v20.5
			c0,2.7,2.2,4.9,4.9,4.9h11.7c3.2,0,5.9,2.6,5.9,5.9v34.7c0,2.7,2.2,4.9,4.9,4.9h14.3c2.7,0,4.9-2.2,4.9-4.9v-10.7
			c0-3.2,2.6-5.9,5.9-5.9h17.9c3.2,0,5.9,2.6,5.9,5.9v44.2c0,2.7,2.2,4.9,4.9,4.9h13.3c2.7,0,4.9-2.2,4.9-4.9v-81
			c0-3.2,2.6-5.9,5.9-5.9h13.3c3.2,0,5.9,2.6,5.9,5.9l0,105.7c0,2.7,2.2,4.9,4.9,4.9h15.7c0.3,0,0.5,0.2,0.5,0.5
			S908.4-21.7,908.2-21.7z"/>
	</g>
</g>
<g class="st1">
	<g class="st2">
		<path d="M24.6,13.4c-3.8,5-9.7,8.2-16.4,8.2c-11.4,0-20.6-9.2-20.6-20.6c0-11.4,9.2-20.6,20.6-20.6c6.7,0,12.7,3.2,16.4,8.2
			c-2-1.1-4.4-1.8-6.8-1.8C9.9-13.2,3.5-6.8,3.5,1c0,7.8,6.3,14.2,14.2,14.2C20.2,15.2,22.6,14.5,24.6,13.4z"/>
		<path d="M8.2,22.1c-11.6,0-21.1-9.5-21.1-21.1c0-11.6,9.5-21.1,21.1-21.1c6.7,0,12.8,3,16.8,8.4c0.1,0.2,0.1,0.4,0,0.6
			s-0.4,0.2-0.6,0.1c-2-1.1-4.3-1.7-6.6-1.7C10.2-12.7,4-6.5,4,1s6.1,13.7,13.7,13.7c2.3,0,4.6-0.6,6.6-1.7c0.2-0.1,0.5-0.1,0.6,0.1
			s0.2,0.4,0,0.6C21,19.1,14.8,22.1,8.2,22.1z M8.2-19.1c-11.1,0-20.1,9-20.1,20.1c0,11.1,9,20.1,20.1,20.1c5.6,0,10.8-2.3,14.6-6.3
			c-1.6,0.6-3.3,0.9-5.1,0.9C9.6,15.7,3,9.1,3,1s6.6-14.7,14.7-14.7c1.7,0,3.4,0.3,5,0.9C19-16.8,13.8-19.1,8.2-19.1z"/>
	</g>
	<g class="st2">
		<path d="M24.6,14.9c-3.8,5-9.7,8.2-16.4,8.2c-11.4,0-20.6-9.2-20.6-20.6c0-11.4,9.2-20.6,20.6-20.6c6.7,0,12.7,3.2,16.4,8.2
			c-2-1.1-4.4-1.8-6.8-1.8C9.9-11.7,3.5-5.4,3.5,2.4c0,7.8,6.3,14.2,14.2,14.2C20.2,16.6,22.6,16,24.6,14.9z"/>
		<path d="M8.2,23.5c-11.6,0-21.1-9.5-21.1-21.1c0-11.6,9.5-21.1,21.1-21.1c6.7,0,12.8,3,16.8,8.4c0.1,0.2,0.1,0.4,0,0.6
			c-0.2,0.2-0.4,0.2-0.6,0.1c-2-1.1-4.3-1.7-6.6-1.7C10.2-11.2,4-5.1,4,2.4c0,7.5,6.1,13.7,13.7,13.7c2.3,0,4.6-0.6,6.6-1.7
			c0.2-0.1,0.5-0.1,0.6,0.1c0.2,0.2,0.2,0.4,0,0.6C21,20.5,14.8,23.5,8.2,23.5z M8.2-17.7c-11.1,0-20.1,9-20.1,20.1
			c0,11.1,9,20.1,20.1,20.1c5.6,0,10.8-2.3,14.6-6.3c-1.6,0.6-3.3,0.9-5.1,0.9C9.6,17.1,3,10.5,3,2.4s6.6-14.7,14.7-14.7
			c1.7,0,3.4,0.3,5,0.9C19-15.4,13.8-17.7,8.2-17.7z"/>
	</g>
</g>
<g class="st1">
	<rect x="-291.8" y="50.9" class="st6" width="600" height="50"/>
</g>
<g class="st1">
	<path class="st2" d="M308.2,51.4h-600c-0.3,0-0.5-0.2-0.5-0.5s0.2-0.5,0.5-0.5h600c0.3,0,0.5,0.2,0.5,0.5S308.4,51.4,308.2,51.4z"
		/>
</g>
<g class="st1">
	<g class="st2">
		<g>
			
				<rect x="33.4" y="1.7" transform="matrix(0.7071 -0.7071 0.7071 0.7071 5.4275 26.1654)" class="st11" width="1.7" height="9.7"/>
			<path d="M37.1,11.1c-0.1,0-0.3,0-0.4-0.1l-6.9-6.9c-0.1-0.1-0.1-0.2-0.1-0.4s0.1-0.3,0.1-0.4l1.2-1.2c0.2-0.2,0.5-0.2,0.7,0
				L38.7,9c0.1,0.1,0.1,0.2,0.1,0.4s-0.1,0.3-0.1,0.4l-1.2,1.2C37.4,11,37.3,11.1,37.1,11.1z M31,3.7l6.2,6.2l0.5-0.5l-6.2-6.2
				L31,3.7z"/>
		</g>
		<g>
			
				<rect x="29.8" y="-1.8" transform="matrix(0.7071 0.7071 -0.7071 0.7071 11.1012 -20.757)" class="st11" width="1.7" height="9.7"/>
			<path d="M27.8,7.6c-0.1,0-0.3,0-0.4-0.1l-1.2-1.2C26,6,26,5.7,26.2,5.5l6.9-6.9c0.2-0.2,0.5-0.2,0.7,0L35-0.2
				c0.2,0.2,0.2,0.5,0,0.7l-6.9,6.9C28,7.5,27.9,7.6,27.8,7.6z M27.3,5.9l0.5,0.5l6.2-6.2l-0.5-0.5L27.3,5.9z"/>
		</g>
	</g>
	<g class="st2">
		<polygon class="st11" points="92.1,26.4 -63,26.4 -63,9 84.3,9 		"/>
		<path d="M92.1,26.9H-63c-0.3,0-0.5-0.2-0.5-0.5V9c0-0.3,0.2-0.5,0.5-0.5H84.3c0.2,0,0.4,0.1,0.5,0.3l7.8,17.4
			c0.1,0.2,0.1,0.3,0,0.5C92.5,26.8,92.3,26.9,92.1,26.9z M-62.5,25.9H91.4L84,9.5H-62.5V25.9z"/>
	</g>
	<g class="st2">
		<polygon class="st11" points="45.5,9 38.9,-12.4 36.7,-12.4 36.7,9 		"/>
		<path d="M45.5,9.5h-8.8c-0.3,0-0.5-0.2-0.5-0.5v-21.4c0-0.3,0.2-0.5,0.5-0.5h2.1c0.2,0,0.4,0.1,0.5,0.4L46,8.9
			c0,0.2,0,0.3-0.1,0.4C45.8,9.4,45.6,9.5,45.5,9.5z M37.2,8.5h7.6l-6.3-20.4h-1.3V8.5z"/>
	</g>
	<g class="st2">
		<rect x="-63" y="26.4" class="st11" width="155.1" height="9.7"/>
		<path d="M92.1,36.6H-63c-0.3,0-0.5-0.2-0.5-0.5v-9.7c0-0.3,0.2-0.5,0.5-0.5H92.1c0.3,0,0.5,0.2,0.5,0.5v9.7
			C92.6,36.4,92.4,36.6,92.1,36.6z M-62.5,35.6H91.6v-8.7H-62.5V35.6z"/>
	</g>
	<g class="st2">
		<polygon class="st11" points="-0.7,9 -0.7,1.9 2,1.9 5.6,9 		"/>
		<path d="M5.6,9.5h-6.3C-1,9.5-1.2,9.3-1.2,9V1.9c0-0.3,0.2-0.5,0.5-0.5H2c0.2,0,0.4,0.1,0.4,0.3L6,8.8c0.1,0.2,0.1,0.3,0,0.5
			C5.9,9.4,5.7,9.5,5.6,9.5z M-0.2,8.5h5L1.7,2.4h-1.9V8.5z"/>
	</g>
	<g class="st2">
		<polygon class="st11" points="85.2,11 92.1,11 92.1,19.4 89,19.4 		"/>
		<path d="M92.1,19.9H89c-0.2,0-0.4-0.1-0.5-0.3l-3.8-8.4c-0.1-0.2-0.1-0.3,0-0.5c0.1-0.1,0.3-0.2,0.4-0.2h6.9
			c0.3,0,0.5,0.2,0.5,0.5v8.4C92.6,19.6,92.4,19.9,92.1,19.9z M89.3,18.9h2.3v-7.4H86L89.3,18.9z"/>
	</g>
	<g class="st2">
		<rect x="-5.7" y="36.1" class="st11" width="42.4" height="4.3"/>
		<path d="M36.7,40.9H-5.7c-0.3,0-0.5-0.2-0.5-0.5v-4.3c0-0.3,0.2-0.5,0.5-0.5h42.4c0.3,0,0.5,0.2,0.5,0.5v4.3
			C37.2,40.7,37,40.9,36.7,40.9z M-5.2,39.9h41.4v-3.3H-5.2V39.9z"/>
	</g>
	<g class="st2">
		<rect x="36.7" y="36.1" class="st11" width="27.3" height="2.2"/>
		<path d="M64,38.7H36.7c-0.3,0-0.5-0.2-0.5-0.5v-2.2c0-0.3,0.2-0.5,0.5-0.5H64c0.3,0,0.5,0.2,0.5,0.5v2.2
			C64.5,38.5,64.3,38.7,64,38.7z M37.2,37.7h26.3v-1.2H37.2V37.7z"/>
	</g>
	<g class="st2">
		<rect x="-49.8" y="36.1" class="st11" width="44.2" height="2.2"/>
		<path d="M-5.7,38.7h-44.2c-0.3,0-0.5-0.2-0.5-0.5v-2.2c0-0.3,0.2-0.5,0.5-0.5h44.2c0.3,0,0.5,0.2,0.5,0.5v2.2
			C-5.2,38.5-5.4,38.7-5.7,38.7z M-49.3,37.7h43.2v-1.2h-43.2V37.7z"/>
	</g>
	<g class="st2">
		<rect x="-69.6" y="36.1" class="st11" width="19.8" height="4.1"/>
		<path d="M-49.8,40.7h-19.8c-0.3,0-0.5-0.2-0.5-0.5v-4.1c0-0.3,0.2-0.5,0.5-0.5h19.8c0.3,0,0.5,0.2,0.5,0.5v4.1
			C-49.3,40.4-49.6,40.7-49.8,40.7z M-69.1,39.7h18.8v-3.1h-18.8V39.7z"/>
	</g>
	<g class="st2">
		<rect x="-79.9" y="37.3" class="st11" width="10.3" height="1.9"/>
		<path d="M-69.6,39.7h-10.3c-0.3,0-0.5-0.2-0.5-0.5v-1.9c0-0.3,0.2-0.5,0.5-0.5h10.3c0.3,0,0.5,0.2,0.5,0.5v1.9
			C-69.1,39.5-69.3,39.7-69.6,39.7z M-79.4,38.7h9.3v-0.9h-9.3V38.7z"/>
	</g>
	<g class="st2">
		<rect x="2.4" y="9" class="st11" width="34.3" height="27.1"/>
		<path d="M36.7,36.6H2.4c-0.3,0-0.5-0.2-0.5-0.5V9c0-0.3,0.2-0.5,0.5-0.5h34.3c0.3,0,0.5,0.2,0.5,0.5v27.1
			C37.2,36.4,37,36.6,36.7,36.6z M2.9,35.6h33.3V9.5H2.9V35.6z"/>
	</g>
	<g class="st2">
		<line class="st11" x1="36.7" y1="31.2" x2="-19.5" y2="31.2"/>
		<path d="M36.7,31.7h-56.2c-0.3,0-0.5-0.2-0.5-0.5s0.2-0.5,0.5-0.5h56.2c0.3,0,0.5,0.2,0.5,0.5S37,31.7,36.7,31.7z"/>
	</g>
	<g class="st2">
		<rect x="-4.3" y="-7.3" class="st11" width="3.2" height="16.3"/>
		<path d="M-1,9.5h-3.2c-0.3,0-0.5-0.2-0.5-0.5V-7.3c0-0.3,0.2-0.5,0.5-0.5H-1c0.3,0,0.5,0.2,0.5,0.5V9C-0.5,9.3-0.7,9.5-1,9.5z
			 M-3.8,8.5h2.2V-6.8h-2.2V8.5z"/>
	</g>
	<g class="st2">
		<rect x="-60.7" y="0.9" class="st11" width="25.6" height="8.1"/>
		<path d="M-35.1,9.5h-25.6c-0.3,0-0.5-0.2-0.5-0.5V0.9c0-0.3,0.2-0.5,0.5-0.5h25.6c0.3,0,0.5,0.2,0.5,0.5V9
			C-34.6,9.3-34.9,9.5-35.1,9.5z M-60.2,8.5h24.6V1.4h-24.6V8.5z"/>
	</g>
	<g class="st2">
		<rect x="-63.4" y="-7.3" class="st11" width="25.6" height="8.1"/>
		<path d="M-37.8,1.4h-25.6c-0.3,0-0.5-0.2-0.5-0.5v-8.1c0-0.3,0.2-0.5,0.5-0.5h25.6c0.3,0,0.5,0.2,0.5,0.5v8.1
			C-37.3,1.1-37.5,1.4-37.8,1.4z M-62.9,0.4h24.6v-7.1h-24.6V0.4z"/>
	</g>
	<g class="st2">
		<rect x="-63" y="-15.4" class="st11" width="25.6" height="8.1"/>
		<path d="M-37.4-6.8H-63c-0.3,0-0.5-0.2-0.5-0.5v-8.1c0-0.3,0.2-0.5,0.5-0.5h25.6c0.3,0,0.5,0.2,0.5,0.5v8.1
			C-36.9-7-37.1-6.8-37.4-6.8z M-62.5-7.8h24.6v-7.1h-24.6V-7.8z"/>
	</g>
	<g class="st2">
		<rect x="-59.1" y="-20" class="st11" width="22.4" height="4.5"/>
		<path d="M-36.7-14.9h-22.4c-0.3,0-0.5-0.2-0.5-0.5V-20c0-0.3,0.2-0.5,0.5-0.5h22.4c0.3,0,0.5,0.2,0.5,0.5v4.5
			C-36.2-15.2-36.4-14.9-36.7-14.9z M-58.6-15.9h21.4v-3.5h-21.4V-15.9z"/>
	</g>
	<g class="st2">
		<rect x="-50" y="-21.8" class="st11" width="3.5" height="30.8"/>
		<path d="M-46.6,9.5H-50c-0.3,0-0.5-0.2-0.5-0.5v-30.8c0-0.3,0.2-0.5,0.5-0.5h3.5c0.3,0,0.5,0.2,0.5,0.5V9
			C-46.1,9.3-46.3,9.5-46.6,9.5z M-49.5,8.5h2.5v-29.8h-2.5V8.5z"/>
	</g>
	<g class="st2">
		<rect x="5.6" y="12.8" class="st11" width="8.2" height="1.5"/>
		<path d="M13.8,14.9H5.6c-0.3,0-0.5-0.2-0.5-0.5v-1.5c0-0.3,0.2-0.5,0.5-0.5h8.2c0.3,0,0.5,0.2,0.5,0.5v1.5
			C14.3,14.6,14.1,14.9,13.8,14.9z M6.1,13.9h7.2v-0.5H6.1V13.9z"/>
	</g>
	<g class="st2">
		<rect x="-65" y="27.6" class="st11" width="2" height="6.5"/>
		<path d="M-63,34.7h-2c-0.3,0-0.5-0.2-0.5-0.5v-6.5c0-0.3,0.2-0.5,0.5-0.5h2c0.3,0,0.5,0.2,0.5,0.5v6.5
			C-62.5,34.4-62.7,34.7-63,34.7z M-64.5,33.7h1v-5.5h-1V33.7z"/>
	</g>
	<g class="st2">
		<rect x="92.1" y="26.4" class="st11" width="4.1" height="9.7"/>
		<path d="M96.2,36.6h-4.1c-0.3,0-0.5-0.2-0.5-0.5v-9.7c0-0.3,0.2-0.5,0.5-0.5h4.1c0.3,0,0.5,0.2,0.5,0.5v9.7
			C96.7,36.4,96.5,36.6,96.2,36.6z M92.6,35.6h3.1v-8.7h-3.1V35.6z"/>
	</g>
	<g class="st2">
		<polygon class="st11" points="96.2,36.1 92.1,40.4 78.2,40.4 78.2,36.1 		"/>
		<path d="M92.1,40.9h-14c-0.3,0-0.5-0.2-0.5-0.5v-4.3c0-0.3,0.2-0.5,0.5-0.5h18.1c0.2,0,0.4,0.1,0.5,0.3c0.1,0.2,0,0.4-0.1,0.5
			l-4.1,4.3C92.4,40.9,92.3,40.9,92.1,40.9z M78.7,39.9h13.3l3.1-3.3H78.7V39.9z"/>
	</g>
	<g class="st2">
		<rect x="-35.1" y="-33.6" class="st11" width="30.9" height="42.6"/>
		<path d="M-4.3,9.5h-30.9c-0.3,0-0.5-0.2-0.5-0.5v-42.6c0-0.3,0.2-0.5,0.5-0.5h30.9c0.3,0,0.5,0.2,0.5,0.5V9
			C-3.8,9.3-4,9.5-4.3,9.5z M-34.6,8.5h29.9v-41.6h-29.9V8.5z"/>
	</g>
	<g class="st2">
		<rect x="-20.4" y="-35.7" class="st11" width="3.5" height="44.7"/>
		<path d="M-16.9,9.5h-3.5c-0.3,0-0.5-0.2-0.5-0.5v-44.7c0-0.3,0.2-0.5,0.5-0.5h3.5c0.3,0,0.5,0.2,0.5,0.5V9
			C-16.4,9.3-16.7,9.5-16.9,9.5z M-19.9,8.5h2.5v-43.7h-2.5V8.5z"/>
	</g>
</g>
<g class="st1">
	<g class="st2">
		<circle class="st11" cx="-33.5" cy="36.1" r="14.8"/>
		<path d="M-33.5,51.4c-8.4,0-15.3-6.9-15.3-15.3s6.9-15.3,15.3-15.3s15.3,6.9,15.3,15.3S-25,51.4-33.5,51.4z M-33.5,21.8
			c-7.9,0-14.3,6.4-14.3,14.3s6.4,14.3,14.3,14.3s14.3-6.4,14.3-14.3S-25.6,21.8-33.5,21.8z"/>
	</g>
	<g class="st2">
		<circle class="st11" cx="-33.5" cy="36.1" r="11"/>
		<path d="M-33.5,47.6c-6.4,0-11.5-5.2-11.5-11.5c0-6.4,5.2-11.5,11.5-11.5s11.5,5.2,11.5,11.5C-21.9,42.4-27.1,47.6-33.5,47.6z
			 M-33.5,25.5c-5.8,0-10.5,4.7-10.5,10.5c0,5.8,4.7,10.5,10.5,10.5s10.5-4.7,10.5-10.5C-22.9,30.3-27.7,25.5-33.5,25.5z"/>
	</g>
	<g class="st2">
		<g>
			<path d="M-33.5,47.6c-0.3,0-0.5-0.2-0.5-0.5V25c0-0.3,0.2-0.5,0.5-0.5S-33,24.8-33,25v22.1C-33,47.4-33.2,47.6-33.5,47.6z"/>
		</g>
		<g>
			<path d="M-41.3,44.4c-0.1,0-0.3,0-0.4-0.1c-0.2-0.2-0.2-0.5,0-0.7L-26,27.9c0.2-0.2,0.5-0.2,0.7,0s0.2,0.5,0,0.7l-15.6,15.6
				C-41,44.3-41.2,44.4-41.3,44.4z"/>
		</g>
		<g>
			<path d="M-22.4,36.6h-22.1c-0.3,0-0.5-0.2-0.5-0.5s0.2-0.5,0.5-0.5h22.1c0.3,0,0.5,0.2,0.5,0.5S-22.2,36.6-22.4,36.6z"/>
		</g>
		<g>
			<path d="M-25.7,44.4c-0.1,0-0.3,0-0.4-0.1l-15.6-15.6c-0.2-0.2-0.2-0.5,0-0.7s0.5-0.2,0.7,0l15.6,15.6c0.2,0.2,0.2,0.5,0,0.7
				C-25.4,44.3-25.6,44.4-25.7,44.4z"/>
		</g>
	</g>
	<g class="st2">
		<circle class="st11" cx="-33.5" cy="36.1" r="2.3"/>
		<path d="M-33.5,38.9c-1.5,0-2.8-1.3-2.8-2.8s1.3-2.8,2.8-2.8s2.8,1.3,2.8,2.8S-31.9,38.9-33.5,38.9z M-33.5,34.3
			c-1,0-1.8,0.8-1.8,1.8s0.8,1.8,1.8,1.8s1.8-0.8,1.8-1.8S-32.5,34.3-33.5,34.3z"/>
	</g>
</g>
<g>
	<polygon class="st11" points="5.5,8.9 12.8,8.9 12.8,7.3 15.8,7.3 15.8,5.4 14.4,5.4 14.4,2.5 11.1,2.5 11.1,3.4 8.2,3.4 8.2,0.5 
		5,0.5 5,2.5 0.5,2.5 0.5,5.4 2.1,5.4 2.1,7.1 5.5,7.1 	"/>
	<path d="M12.8,9.4H5.5C5.2,9.4,5,9.2,5,8.9V7.6H2.1c-0.3,0-0.5-0.2-0.5-0.5V5.9H0.5C0.2,5.9,0,5.6,0,5.4V2.5C0,2.2,0.2,2,0.5,2h4
		V0.5C4.5,0.2,4.7,0,5,0h3.1c0.3,0,0.5,0.2,0.5,0.5v2.4h1.9V2.5c0-0.3,0.2-0.5,0.5-0.5h3.3c0.3,0,0.5,0.2,0.5,0.5v2.4h0.9
		c0.3,0,0.5,0.2,0.5,0.5v2c0,0.3-0.2,0.5-0.5,0.5h-2.5v1.1C13.3,9.2,13.1,9.4,12.8,9.4z M6,8.4h6.3V7.3c0-0.3,0.2-0.5,0.5-0.5h2.5
		v-1h-0.9c-0.3,0-0.5-0.2-0.5-0.5V3h-2.3v0.5c0,0.3-0.2,0.5-0.5,0.5H8.2c-0.3,0-0.5-0.2-0.5-0.5V1H5.5v1.5C5.5,2.8,5.3,3,5,3H1v1.9
		h1.1c0.3,0,0.5,0.2,0.5,0.5v1.3h2.9C5.8,6.6,6,6.9,6,7.1V8.4z"/>
</g>
<g class="st1">
	<polygon class="st6" points="8.2,-7.5 17.5,-17.8 16.8,-3.9 30.7,-4.6 20.3,4.7 30.7,14 16.8,13.3 17.5,27.2 8.2,16.9 -1.2,27.2 
		-0.5,13.3 -14.3,14 -4,4.7 -14.3,-4.6 -0.5,-3.9 -1.2,-17.8 	"/>
	<path class="st2" d="M-1.2,27.7c-0.1,0-0.1,0-0.2,0c-0.2-0.1-0.3-0.3-0.3-0.5L-1,13.9l-13.3,0.7c-0.2,0-0.4-0.1-0.5-0.3
		c-0.1-0.2,0-0.4,0.1-0.6l9.9-8.9l-9.9-8.9c-0.2-0.1-0.2-0.4-0.1-0.6c0.1-0.2,0.3-0.3,0.5-0.3L-1-4.4l-0.7-13.3
		c0-0.2,0.1-0.4,0.3-0.5c0.2-0.1,0.4,0,0.6,0.1l8.9,9.9l8.9-9.9c0.1-0.2,0.4-0.2,0.6-0.1c0.2,0.1,0.3,0.3,0.3,0.5L17.3-4.4l13.3-0.7
		c0.2,0,0.4,0.1,0.5,0.3c0.1,0.2,0,0.4-0.1,0.6l-9.9,8.9l9.9,8.9c0.2,0.1,0.2,0.4,0.1,0.6c-0.1,0.2-0.3,0.3-0.5,0.3l-13.3-0.7
		L18,27.2c0,0.2-0.1,0.4-0.3,0.5c-0.2,0.1-0.4,0-0.6-0.1l-8.9-9.9l-8.9,9.9C-0.9,27.7-1,27.7-1.2,27.7z M-0.5,12.8
		c0.1,0,0.3,0.1,0.4,0.1C0,13.1,0.1,13.2,0,13.3l-0.6,12.5l8.4-9.3c0.1-0.1,0.2-0.2,0.4-0.2l0,0c0.1,0,0.3,0.1,0.4,0.2l8.4,9.3
		l-0.6-12.5c0-0.1,0-0.3,0.1-0.4c0.1-0.1,0.2-0.2,0.4-0.1l12.5,0.6L20,5.1c-0.1-0.1-0.2-0.2-0.2-0.4s0.1-0.3,0.2-0.4L29.3-4
		L16.8-3.4c-0.1,0-0.3,0-0.4-0.1c-0.1-0.1-0.2-0.2-0.1-0.4l0.6-12.5L8.5-7.1C8.3-6.9,8-6.9,7.8-7.1l-8.4-9.3L0-3.9
		c0,0.1,0,0.3-0.1,0.4c-0.1,0.1-0.2,0.2-0.4,0.1L-13-4l9.3,8.4c0.1,0.1,0.2,0.2,0.2,0.4S-3.6,5-3.7,5.1l-9.3,8.4L-0.5,12.8
		C-0.5,12.8-0.5,12.8-0.5,12.8z"/>
</g>
<g class="st1">
	<g class="st2">
		<circle cx="8.2" cy="4.2" r="8.9"/>
		<path d="M8.2,13.6c-5.2,0-9.4-4.2-9.4-9.4S3-5.3,8.2-5.3c5.2,0,9.4,4.2,9.4,9.4S13.4,13.6,8.2,13.6z M8.2-4.3
			c-4.6,0-8.4,3.8-8.4,8.4s3.8,8.4,8.4,8.4c4.6,0,8.4-3.8,8.4-8.4S12.8-4.3,8.2-4.3z"/>
	</g>
	<g class="st2">
		<circle class="st11" cx="8.2" cy="5.3" r="8.9"/>
		<path d="M8.2,14.7c-5.2,0-9.4-4.2-9.4-9.4S3-4.2,8.2-4.2c5.2,0,9.4,4.2,9.4,9.4S13.4,14.7,8.2,14.7z M8.2-3.2
			c-4.6,0-8.4,3.8-8.4,8.4s3.8,8.4,8.4,8.4c4.6,0,8.4-3.8,8.4-8.4S12.8-3.2,8.2-3.2z"/>
	</g>
</g>
</svg>
