<?xml version="1.0" encoding="utf-8"?>
<!-- Generator: Adobe Illustrator 23.1.0, SVG Export Plug-In . SVG Version: 6.00 Build 0)  -->
<svg version="1.1" id="Layer_1" xmlns="http://www.w3.org/2000/svg" xmlns:xlink="http://www.w3.org/1999/xlink" x="0px" y="0px"
	 viewBox="0 0 600 300" style="enable-background:new 0 0 600 300;" xml:space="preserve">
<style type="text/css">
	.st0{fill:#FFFFFF;}
	.st1{display:none;}
	.st2{display:inline;}
	.st3{stroke:#000000;stroke-linecap:round;stroke-linejoin:round;stroke-miterlimit:10;}
	.st4{fill:#FFFFFF;stroke:#000000;stroke-linecap:round;stroke-linejoin:round;stroke-miterlimit:10;}
	.st5{display:inline;fill:#FFFFFF;stroke:#000000;stroke-linecap:round;stroke-linejoin:round;stroke-miterlimit:10;}
	.st6{display:inline;fill:#FFFFFF;}
	.st7{display:inline;fill:none;stroke:#000000;stroke-linecap:round;stroke-linejoin:round;stroke-miterlimit:10;}
	.st8{fill:none;stroke:#000000;stroke-linecap:round;stroke-linejoin:round;stroke-miterlimit:10;}
	.st9{stroke:#000000;stroke-miterlimit:10;}
	.st10{fill:#FFFFFF;stroke:#000000;stroke-miterlimit:10;}
</style>
<rect class="st0" width="600" height="300"/>
<g class="st1">
	<g class="st2">
		<path class="st3" d="M0.2,175.5V77.2c0-3,2.4-5.4,5.4-5.4h9.1c3,0,5.4,2.4,5.4,5.4V116c0,3,2.4,5.4,5.4,5.4h5.1
			c3,0,5.4-2.4,5.4-5.4v-14.8c0-3,2.4-5.4,5.4-5.4h11.2c3,0,5.4,2.4,5.4,5.4v35.1c0,3,2.4,5.4,5.4,5.4h8.7c3,0,5.4-2.4,5.4-5.4V46.1
			c0-3,2.4-5.4,5.4-5.4h15.8c3,0,5.4,2.4,5.4,5.4v42.4c0,3,2.4,5.4,5.4,5.4h7.1c3,0,5.4-2.4,5.4-5.4v-5.1c0-3,2.4-5.4,5.4-5.4h13.3
			c3,0,5.4,2.4,5.4,5.4v34.7c0,3,2.4,5.4,5.4,5.4h22.5c3,0,5.4,2.4,5.4,5.4v2.9c0,3,2.4,5.4,5.4,5.4h7c3,0,5.4-2.4,5.4-5.4v-22.9
			c0-3,2.4-5.4,5.4-5.4h36.8c3,0,5.4,2.4,5.4,5.4v4.9c0,3,2.4,5.4,5.4,5.4h20.3c3,0,5.4-2.4,5.4-5.4v-4.9c0-3,2.4-5.4,5.4-5.4h30.8
			c3,0,5.4,2.4,5.4,5.4v7.1c0,3,2.4,5.4,5.4,5.4h5.8c3,0,5.4-2.4,5.4-5.4V97.1c0-3,2.4-5.4,5.4-5.4H353c3,0,5.4,2.4,5.4,5.4v16.6
			c0,3,2.4,5.4,5.4,5.4h11.7c3,0,5.4-2.4,5.4-5.4V80.8c0-3,2.4-5.4,5.4-5.4h19.7c3,0,5.4,2.4,5.4,5.4v0c0,3,2.4,5.4,5.4,5.4h8.7
			c3,0,5.4-2.4,5.4-5.4V40.9c0-3,2.4-5.4,5.4-5.4h13.8c3,0,5.4,2.4,5.4,5.4v20.5c0,3,2.4,5.4,5.4,5.4h11.7c3,0,5.4,2.4,5.4,5.4v34.7
			c0,3,2.4,5.4,5.4,5.4h14.3c3,0,5.4-2.4,5.4-5.4V96.1c0-3,2.4-5.4,5.4-5.4h17.9c3,0,5.4,2.4,5.4,5.4v44.2c0,3,2.4,5.4,5.4,5.4h13.3
			c3,0,5.4-2.4,5.4-5.4v-81c0-3,2.4-5.4,5.4-5.4h13.3c3,0,5.4,2.4,5.4,5.4v58.7c0,3,2.4,5.4,5.4,5.4h10.3c3,0,5.4-2.4,5.4-5.4V77.2
			c0-3,2.4-5.4,5.4-5.4h9.1c3,0,5.4,2.4,5.4,5.4V116c0,3,2.4,5.4,5.4,5.4h5.1c3,0,5.4-2.4,5.4-5.4v-14.8c0-3,2.4-5.4,5.4-5.4h11.2
			c3,0,5.4,2.4,5.4,5.4v35.1c0,3,2.4,5.4,5.4,5.4h8.7c3,0,5.4-2.4,5.4-5.4V46.1c0-3,2.4-5.4,5.4-5.4h15.8c3,0,5.4,2.4,5.4,5.4v42.4
			c0,3,2.4,5.4,5.4,5.4h7.1c3,0,5.4-2.4,5.4-5.4v-5.1c0-3,2.4-5.4,5.4-5.4h13.3c3,0,5.4,2.4,5.4,5.4v34.7c0,3,2.4,5.4,5.4,5.4h22.5
			c3,0,5.4,2.4,5.4,5.4v2.9c0,3,2.4,5.4,5.4,5.4h7c3,0,5.4-2.4,5.4-5.4v-22.9c0-3,2.4-5.4,5.4-5.4h36.8c3,0,5.4,2.4,5.4,5.4v4.9
			c0,3,2.4,5.4,5.4,5.4h20.3c3,0,5.4-2.4,5.4-5.4v-4.9c0-3,2.4-5.4,5.4-5.4h30.8c3,0,5.4,2.4,5.4,5.4v7.1c0,3,2.4,5.4,5.4,5.4h5.8
			c3,0,5.4-2.4,5.4-5.4V97.1c0-3,2.4-5.4,5.4-5.4H953c3,0,5.4,2.4,5.4,5.4v16.6c0,3,2.4,5.4,5.4,5.4h11.7c3,0,5.4-2.4,5.4-5.4V80.8
			c0-3,2.4-5.4,5.4-5.4h19.7c3,0,5.4,2.4,5.4,5.4v0c0,3,2.4,5.4,5.4,5.4h8.7c3,0,5.4-2.4,5.4-5.4V40.9c0-3,2.4-5.4,5.4-5.4h13.8
			c3,0,5.4,2.4,5.4,5.4v20.5c0,3,2.4,5.4,5.4,5.4h11.7c3,0,5.4,2.4,5.4,5.4v34.7c0,3,2.4,5.4,5.4,5.4h14.3c3,0,5.4-2.4,5.4-5.4V96.1
			c0-3,2.4-5.4,5.4-5.4h17.9c3,0,5.4,2.4,5.4,5.4v44.2c0,3,2.4,5.4,5.4,5.4h13.3c3,0,5.4-2.4,5.4-5.4v-81c0-3,2.4-5.4,5.4-5.4h13.3
			c3,0,5.4,2.4,5.4,5.4v110.4c0,3,2.4,5.4,5.4,5.4h15.7"/>
		<path class="st4" d="M1200.3,177h-15.7c-3,0-5.4-2.4-5.4-5.4l0-105.7c0-3-2.4-5.4-5.4-5.4h-13.3c-3,0-5.4,2.4-5.4,5.4v81
			c0,3-2.4,5.4-5.4,5.4h-13.3c-3,0-5.4-2.4-5.4-5.4v-44.2c0-3-2.4-5.4-5.4-5.4H1108c-3,0-5.4,2.4-5.4,5.4v10.7c0,3-2.4,5.4-5.4,5.4
			H1083c-3,0-5.4-2.4-5.4-5.4V78.6c0-3-2.4-5.4-5.4-5.4h-11.7c-3,0-5.4-2.4-5.4-5.4V47.4c0-3-2.4-5.4-5.4-5.4H1036
			c-3,0-5.4,2.4-5.4,5.4v39.9c0,3-2.4,5.4-5.4,5.4h-8.7c-3,0-5.4-2.4-5.4-5.4v0c0-3-2.4-5.4-5.4-5.4h-19.7c-3,0-5.4,2.4-5.4,5.4
			v32.9c0,3-2.4,5.4-5.4,5.4h-11.7c-3,0-5.4-2.4-5.4-5.4v-16.6c0-3-2.4-5.4-5.4-5.4h-14.5c-3,0-5.4,2.4-5.4,5.4v18.9
			c0,3-2.4,5.4-5.4,5.4H922c-3,0-5.4-2.4-5.4-5.4v-7.1c0-3-2.4-5.4-5.4-5.4h-30.8c-3,0-5.4,2.4-5.4,5.4v4.9c0,3-2.4,5.4-5.4,5.4
			h-20.3c-3,0-5.4-2.4-5.4-5.4v-4.9c0-3-2.4-5.4-5.4-5.4H802c-3,0-5.4,2.4-5.4,5.4v22.9c0,3-2.4,5.4-5.4,5.4h-7
			c-3,0-5.4-2.4-5.4-5.4v-2.9c0-3-2.4-5.4-5.4-5.4H751c-3,0-5.4-2.4-5.4-5.4V89.9c0-3-2.4-5.4-5.4-5.4H727c-3,0-5.4,2.4-5.4,5.4V95
			c0,3-2.4,5.4-5.4,5.4h-7.1c-3,0-5.4-2.4-5.4-5.4V52.6c0-3-2.4-5.4-5.4-5.4h-15.8c-3,0-5.4,2.4-5.4,5.4v90.2c0,3-2.4,5.4-5.4,5.4
			h-8.7c-3,0-5.4-2.4-5.4-5.4v-35.1c0-3-2.4-5.4-5.4-5.4h-11.2c-3,0-5.4,2.4-5.4,5.4v14.8c0,3-2.4,5.4-5.4,5.4h-5.1
			c-3,0-5.4-2.4-5.4-5.4V83.7c0-3-2.4-5.4-5.4-5.4h-9.1c-3,0-5.4,2.4-5.4,5.4v40.9c0,3-2.4,5.4-5.4,5.4h-10.3c-3,0-5.4-2.4-5.4-5.4
			V65.9c0-3-2.4-5.4-5.4-5.4h-13.3c-3,0-5.4,2.4-5.4,5.4v81c0,3-2.4,5.4-5.4,5.4h-13.3c-3,0-5.4-2.4-5.4-5.4v-44.2
			c0-3-2.4-5.4-5.4-5.4H508c-3,0-5.4,2.4-5.4,5.4v10.7c0,3-2.4,5.4-5.4,5.4H483c-3,0-5.4-2.4-5.4-5.4V78.6c0-3-2.4-5.4-5.4-5.4
			h-11.7c-3,0-5.4-2.4-5.4-5.4V47.4c0-3-2.4-5.4-5.4-5.4H436c-3,0-5.4,2.4-5.4,5.4v39.9c0,3-2.4,5.4-5.4,5.4h-8.7
			c-3,0-5.4-2.4-5.4-5.4v0c0-3-2.4-5.4-5.4-5.4h-19.7c-3,0-5.4,2.4-5.4,5.4v32.9c0,3-2.4,5.4-5.4,5.4h-11.7c-3,0-5.4-2.4-5.4-5.4
			v-16.6c0-3-2.4-5.4-5.4-5.4h-14.5c-3,0-5.4,2.4-5.4,5.4v18.9c0,3-2.4,5.4-5.4,5.4H322c-3,0-5.4-2.4-5.4-5.4v-7.1
			c0-3-2.4-5.4-5.4-5.4h-30.8c-3,0-5.4,2.4-5.4,5.4v4.9c0,3-2.4,5.4-5.4,5.4h-20.3c-3,0-5.4-2.4-5.4-5.4v-4.9c0-3-2.4-5.4-5.4-5.4
			H202c-3,0-5.4,2.4-5.4,5.4v22.9c0,3-2.4,5.4-5.4,5.4h-7c-3,0-5.4-2.4-5.4-5.4v-2.9c0-3-2.4-5.4-5.4-5.4H151c-3,0-5.4-2.4-5.4-5.4
			V89.9c0-3-2.4-5.4-5.4-5.4H127c-3,0-5.4,2.4-5.4,5.4V95c0,3-2.4,5.4-5.4,5.4h-7.1c-3,0-5.4-2.4-5.4-5.4V52.6c0-3-2.4-5.4-5.4-5.4
			H82.6c-3,0-5.4,2.4-5.4,5.4v90.2c0,3-2.4,5.4-5.4,5.4h-8.7c-3,0-5.4-2.4-5.4-5.4v-35.1c0-3-2.4-5.4-5.4-5.4H41.3
			c-3,0-5.4,2.4-5.4,5.4v14.8c0,3-2.4,5.4-5.4,5.4h-5.1c-3,0-5.4-2.4-5.4-5.4V83.7c0-3-2.4-5.4-5.4-5.4H5.6c-3,0-5.4,2.4-5.4,5.4
			V177"/>
	</g>
	<polygon class="st5" points="300.3,26.7 309.6,16.3 308.9,30.2 322.8,29.5 312.4,38.8 322.8,48.1 308.9,47.4 309.6,61.3 300.3,51 
		290.9,61.3 291.6,47.4 277.8,48.1 288.1,38.8 277.8,29.5 291.6,30.2 290.9,16.3 	"/>
	<g class="st2">
		<path class="st3" d="M316.7,287.5c-3.8,5-9.7,8.2-16.4,8.2c-11.4,0-20.6-9.2-20.6-20.6c0-11.4,9.2-20.6,20.6-20.6
			c6.7,0,12.7,3.2,16.4,8.2c-2-1.1-4.4-1.8-6.8-1.8c-7.8,0-14.2,6.3-14.2,14.2c0,7.8,6.3,14.2,14.2,14.2
			C312.3,289.3,314.7,288.7,316.7,287.5z"/>
		<path class="st3" d="M316.7,289c-3.8,5-9.7,8.2-16.4,8.2c-11.4,0-20.6-9.2-20.6-20.6c0-11.4,9.2-20.6,20.6-20.6
			c6.7,0,12.7,3.2,16.4,8.2c-2-1.1-4.4-1.8-6.8-1.8c-7.8,0-14.2,6.3-14.2,14.2c0,7.8,6.3,14.2,14.2,14.2
			C312.3,290.7,314.7,290.1,316.7,289z"/>
	</g>
	<rect x="0.3" y="250" class="st6" width="600" height="50"/>
	<line class="st7" x1="0.2" y1="250" x2="600.2" y2="250"/>
	<g class="st2">
		<g>
			
				<rect x="325.5" y="200.8" transform="matrix(0.7071 -0.7071 0.7071 0.7071 -49.8172 291.0263)" class="st4" width="1.7" height="9.7"/>
			
				<rect x="321.8" y="197.3" transform="matrix(0.7071 0.7071 -0.7071 0.7071 237.4501 -168.9781)" class="st4" width="1.7" height="9.7"/>
		</g>
		<polygon class="st4" points="384.2,225.5 229.1,225.5 229.1,208.1 376.4,208.1 		"/>
		<polygon class="st4" points="337.6,208.1 330.9,186.7 328.8,186.7 328.8,208.1 		"/>
		<rect x="229.1" y="225.5" class="st4" width="155.1" height="9.7"/>
		<polygon class="st4" points="291.4,208.1 291.4,201.1 294.1,201.1 297.7,208.1 		"/>
		<polygon class="st4" points="377.3,210.1 384.2,210.1 384.2,218.5 381.1,218.5 		"/>
		<rect x="286.4" y="235.2" class="st4" width="42.4" height="4.3"/>
		<rect x="328.8" y="235.2" class="st4" width="27.3" height="2.2"/>
		<rect x="242.3" y="235.2" class="st4" width="44.2" height="2.2"/>
		<rect x="222.5" y="235.2" class="st4" width="19.8" height="4.1"/>
		<rect x="212.2" y="236.4" class="st4" width="10.3" height="1.9"/>
		<rect x="294.5" y="208.1" class="st4" width="34.3" height="27.1"/>
		<line class="st4" x1="328.8" y1="230.3" x2="272.6" y2="230.3"/>
		<rect x="287.8" y="191.8" class="st4" width="3.2" height="16.3"/>
		<rect x="231.4" y="200" class="st4" width="25.6" height="8.1"/>
		<rect x="228.7" y="191.8" class="st4" width="25.6" height="8.1"/>
		<rect x="229.1" y="183.7" class="st4" width="25.6" height="8.1"/>
		<rect x="232.9" y="179.2" class="st4" width="22.4" height="4.5"/>
		<rect x="242.1" y="177.4" class="st4" width="3.5" height="30.8"/>
		<rect x="297.7" y="212" class="st4" width="8.2" height="1.5"/>
		<rect x="227.1" y="226.8" class="st4" width="2" height="6.5"/>
		<rect x="384.2" y="225.5" class="st4" width="4.1" height="9.7"/>
		<polygon class="st4" points="388.3,235.2 384.2,239.5 370.2,239.5 370.2,235.2 		"/>
		<rect x="256.9" y="165.5" class="st4" width="30.9" height="42.6"/>
		<rect x="271.7" y="163.4" class="st4" width="3.5" height="44.7"/>
	</g>
	<g class="st2">
		<circle class="st4" cx="258.6" cy="235.2" r="14.8"/>
		<circle class="st4" cx="258.6" cy="235.2" r="11"/>
		<g>
			<line class="st8" x1="258.6" y1="224.1" x2="258.6" y2="246.2"/>
			<line class="st8" x1="266.4" y1="227.4" x2="250.8" y2="243"/>
			<line class="st8" x1="269.6" y1="235.2" x2="247.6" y2="235.2"/>
			<line class="st8" x1="266.4" y1="243" x2="250.8" y2="227.4"/>
		</g>
		<circle class="st4" cx="258.6" cy="235.2" r="2.3"/>
	</g>
	<polygon class="st5" points="194.1,240.4 201.5,240.4 201.5,238.8 204.4,238.8 204.4,236.8 203,236.8 203,233.9 199.7,233.9 
		199.7,234.9 196.8,234.9 196.8,232 193.6,232 193.6,233.9 189.1,233.9 189.1,236.8 190.7,236.8 190.7,238.6 194.1,238.6 	"/>
	<g class="st2">
		<circle class="st9" cx="300.3" cy="38.3" r="8.9"/>
		<circle class="st10" cx="300.3" cy="39.4" r="8.9"/>
	</g>
</g>
<g class="st1">
	<g class="st2">
		<path d="M0.2,175.5V77.2c0-3,2.4-5.4,5.4-5.4h9.1c3,0,5.4,2.4,5.4,5.4V116c0,3,2.4,5.4,5.4,5.4h5.1c3,0,5.4-2.4,5.4-5.4v-14.8
			c0-3,2.4-5.4,5.4-5.4h11.2c3,0,5.4,2.4,5.4,5.4v35.1c0,3,2.4,5.4,5.4,5.4h8.7c3,0,5.4-2.4,5.4-5.4V46.1c0-3,2.4-5.4,5.4-5.4h15.8
			c3,0,5.4,2.4,5.4,5.4v42.4c0,3,2.4,5.4,5.4,5.4h7.1c3,0,5.4-2.4,5.4-5.4v-5.1c0-3,2.4-5.4,5.4-5.4h13.3c3,0,5.4,2.4,5.4,5.4v34.7
			c0,3,2.4,5.4,5.4,5.4h22.5c3,0,5.4,2.4,5.4,5.4v2.9c0,3,2.4,5.4,5.4,5.4h7c3,0,5.4-2.4,5.4-5.4v-22.9c0-3,2.4-5.4,5.4-5.4h36.8
			c3,0,5.4,2.4,5.4,5.4v4.9c0,3,2.4,5.4,5.4,5.4h20.3c3,0,5.4-2.4,5.4-5.4v-4.9c0-3,2.4-5.4,5.4-5.4h30.8c3,0,5.4,2.4,5.4,5.4v7.1
			c0,3,2.4,5.4,5.4,5.4h5.8c3,0,5.4-2.4,5.4-5.4V97.1c0-3,2.4-5.4,5.4-5.4H353c3,0,5.4,2.4,5.4,5.4v16.6c0,3,2.4,5.4,5.4,5.4h11.7
			c3,0,5.4-2.4,5.4-5.4V80.8c0-3,2.4-5.4,5.4-5.4h19.7c3,0,5.4,2.4,5.4,5.4v0c0,3,2.4,5.4,5.4,5.4h8.7c3,0,5.4-2.4,5.4-5.4V40.9
			c0-3,2.4-5.4,5.4-5.4h13.8c3,0,5.4,2.4,5.4,5.4v20.5c0,3,2.4,5.4,5.4,5.4h11.7c3,0,5.4,2.4,5.4,5.4v34.7c0,3,2.4,5.4,5.4,5.4h14.3
			c3,0,5.4-2.4,5.4-5.4V96.1c0-3,2.4-5.4,5.4-5.4h17.9c3,0,5.4,2.4,5.4,5.4v44.2c0,3,2.4,5.4,5.4,5.4h13.3c3,0,5.4-2.4,5.4-5.4v-81
			c0-3,2.4-5.4,5.4-5.4h13.3c3,0,5.4,2.4,5.4,5.4v58.7c0,3,2.4,5.4,5.4,5.4h10.3c3,0,5.4-2.4,5.4-5.4V77.2c0-3,2.4-5.4,5.4-5.4h9.1
			c3,0,5.4,2.4,5.4,5.4V116c0,3,2.4,5.4,5.4,5.4h5.1c3,0,5.4-2.4,5.4-5.4v-14.8c0-3,2.4-5.4,5.4-5.4h11.2c3,0,5.4,2.4,5.4,5.4v35.1
			c0,3,2.4,5.4,5.4,5.4h8.7c3,0,5.4-2.4,5.4-5.4V46.1c0-3,2.4-5.4,5.4-5.4h15.8c3,0,5.4,2.4,5.4,5.4v42.4c0,3,2.4,5.4,5.4,5.4h7.1
			c3,0,5.4-2.4,5.4-5.4v-5.1c0-3,2.4-5.4,5.4-5.4h13.3c3,0,5.4,2.4,5.4,5.4v34.7c0,3,2.4,5.4,5.4,5.4h22.5c3,0,5.4,2.4,5.4,5.4v2.9
			c0,3,2.4,5.4,5.4,5.4h7c3,0,5.4-2.4,5.4-5.4v-22.9c0-3,2.4-5.4,5.4-5.4h36.8c3,0,5.4,2.4,5.4,5.4v4.9c0,3,2.4,5.4,5.4,5.4h20.3
			c3,0,5.4-2.4,5.4-5.4v-4.9c0-3,2.4-5.4,5.4-5.4h30.8c3,0,5.4,2.4,5.4,5.4v7.1c0,3,2.4,5.4,5.4,5.4h5.8c3,0,5.4-2.4,5.4-5.4V97.1
			c0-3,2.4-5.4,5.4-5.4H953c3,0,5.4,2.4,5.4,5.4v16.6c0,3,2.4,5.4,5.4,5.4h11.7c3,0,5.4-2.4,5.4-5.4V80.8c0-3,2.4-5.4,5.4-5.4h19.7
			c3,0,5.4,2.4,5.4,5.4v0c0,3,2.4,5.4,5.4,5.4h8.7c3,0,5.4-2.4,5.4-5.4V40.9c0-3,2.4-5.4,5.4-5.4h13.8c3,0,5.4,2.4,5.4,5.4v20.5
			c0,3,2.4,5.4,5.4,5.4h11.7c3,0,5.4,2.4,5.4,5.4v34.7c0,3,2.4,5.4,5.4,5.4h14.3c3,0,5.4-2.4,5.4-5.4V96.1c0-3,2.4-5.4,5.4-5.4h17.9
			c3,0,5.4,2.4,5.4,5.4v44.2c0,3,2.4,5.4,5.4,5.4h13.3c3,0,5.4-2.4,5.4-5.4v-81c0-3,2.4-5.4,5.4-5.4h13.3c3,0,5.4,2.4,5.4,5.4v110.4
			c0,3,2.4,5.4,5.4,5.4h15.7"/>
		<path d="M0.3,176c-0.3,0-0.5-0.2-0.5-0.5V77.2c0-3.2,2.6-5.9,5.9-5.9h9.1c3.2,0,5.9,2.6,5.9,5.9V116c0,2.7,2.2,4.9,4.9,4.9h5.1
			c2.7,0,4.9-2.2,4.9-4.9v-14.8c0-3.2,2.6-5.9,5.9-5.9h11.2c3.2,0,5.9,2.6,5.9,5.9v35.1c0,2.7,2.2,4.9,4.9,4.9h8.7
			c2.7,0,4.9-2.2,4.9-4.9V46.1c0-3.2,2.6-5.9,5.9-5.9h15.8c3.2,0,5.9,2.6,5.9,5.9v42.4c0,2.7,2.2,4.9,4.9,4.9h7.1
			c2.7,0,4.9-2.2,4.9-4.9v-5.1c0-3.2,2.6-5.9,5.9-5.9h13.3c3.2,0,5.9,2.6,5.9,5.9v34.7c0,2.7,2.2,4.9,4.9,4.9h22.5
			c3.2,0,5.9,2.6,5.9,5.9v2.9c0,2.7,2.2,4.9,4.9,4.9h7c2.7,0,4.9-2.2,4.9-4.9v-22.9c0-3.2,2.6-5.9,5.9-5.9h36.8
			c3.2,0,5.9,2.6,5.9,5.9v4.9c0,2.7,2.2,4.9,4.9,4.9h20.3c2.7,0,4.9-2.2,4.9-4.9v-4.9c0-3.2,2.6-5.9,5.9-5.9h30.8
			c3.2,0,5.9,2.6,5.9,5.9v7.1c0,2.7,2.2,4.9,4.9,4.9h5.8c2.7,0,4.9-2.2,4.9-4.9V97.1c0-3.2,2.6-5.9,5.9-5.9H353
			c3.2,0,5.9,2.6,5.9,5.9v16.6c0,2.7,2.2,4.9,4.9,4.9h11.7c2.7,0,4.9-2.2,4.9-4.9V80.8c0-3.2,2.6-5.9,5.9-5.9h19.7
			c3.2,0,5.9,2.6,5.9,5.9c0,2.7,2.2,4.9,4.9,4.9h8.7c2.7,0,4.9-2.2,4.9-4.9V40.9c0-3.2,2.6-5.9,5.9-5.9h13.8c3.2,0,5.9,2.6,5.9,5.9
			v20.5c0,2.7,2.2,4.9,4.9,4.9h11.7c3.2,0,5.9,2.6,5.9,5.9v34.7c0,2.7,2.2,4.9,4.9,4.9h14.3c2.7,0,4.9-2.2,4.9-4.9V96.1
			c0-3.2,2.6-5.9,5.9-5.9h17.9c3.2,0,5.9,2.6,5.9,5.9v44.2c0,2.7,2.2,4.9,4.9,4.9h13.3c2.7,0,4.9-2.2,4.9-4.9v-81
			c0-3.2,2.6-5.9,5.9-5.9h13.3c3.2,0,5.9,2.6,5.9,5.9v58.7c0,2.7,2.2,4.9,4.9,4.9h10.3c2.7,0,4.9-2.2,4.9-4.9V77.2
			c0-3.2,2.6-5.9,5.9-5.9h9.1c3.2,0,5.9,2.6,5.9,5.9V116c0,2.7,2.2,4.9,4.9,4.9h5.1c2.7,0,4.9-2.2,4.9-4.9v-14.8
			c0-3.2,2.6-5.9,5.9-5.9h11.2c3.2,0,5.9,2.6,5.9,5.9v35.1c0,2.7,2.2,4.9,4.9,4.9h8.7c2.7,0,4.9-2.2,4.9-4.9V46.1
			c0-3.2,2.6-5.9,5.9-5.9h15.8c3.2,0,5.9,2.6,5.9,5.9v42.4c0,2.7,2.2,4.9,4.9,4.9h7.1c2.7,0,4.9-2.2,4.9-4.9v-5.1
			c0-3.2,2.6-5.9,5.9-5.9h13.3c3.2,0,5.9,2.6,5.9,5.9v34.7c0,2.7,2.2,4.9,4.9,4.9h22.5c3.2,0,5.9,2.6,5.9,5.9v2.9
			c0,2.7,2.2,4.9,4.9,4.9h7c2.7,0,4.9-2.2,4.9-4.9v-22.9c0-3.2,2.6-5.9,5.9-5.9h36.8c3.2,0,5.9,2.6,5.9,5.9v4.9
			c0,2.7,2.2,4.9,4.9,4.9h20.3c2.7,0,4.9-2.2,4.9-4.9v-4.9c0-3.2,2.6-5.9,5.9-5.9h30.8c3.2,0,5.9,2.6,5.9,5.9v7.1
			c0,2.7,2.2,4.9,4.9,4.9h5.8c2.7,0,4.9-2.2,4.9-4.9V97.1c0-3.2,2.6-5.9,5.9-5.9H953c3.2,0,5.9,2.6,5.9,5.9v16.6
			c0,2.7,2.2,4.9,4.9,4.9h11.7c2.7,0,4.9-2.2,4.9-4.9V80.8c0-3.2,2.6-5.9,5.9-5.9h19.7c3.2,0,5.9,2.6,5.9,5.9c0,2.7,2.2,4.9,4.9,4.9
			h8.7c2.7,0,4.9-2.2,4.9-4.9V40.9c0-3.2,2.6-5.9,5.9-5.9h13.8c3.2,0,5.9,2.6,5.9,5.9v20.5c0,2.7,2.2,4.9,4.9,4.9h11.7
			c3.2,0,5.9,2.6,5.9,5.9v34.7c0,2.7,2.2,4.9,4.9,4.9h14.3c2.7,0,4.9-2.2,4.9-4.9V96.1c0-3.2,2.6-5.9,5.9-5.9h17.9
			c3.2,0,5.9,2.6,5.9,5.9v44.2c0,2.7,2.2,4.9,4.9,4.9h13.3c2.7,0,4.9-2.2,4.9-4.9v-81c0-3.2,2.6-5.9,5.9-5.9h13.3
			c3.2,0,5.9,2.6,5.9,5.9v110.4c0,2.7,2.2,4.9,4.9,4.9h15.7c0.3,0,0.5,0.2,0.5,0.5s-0.2,0.5-0.5,0.5h-15.7c-3.2,0-5.9-2.6-5.9-5.9
			V59.4c0-2.7-2.2-4.9-4.9-4.9h-13.3c-2.7,0-4.9,2.2-4.9,4.9v81c0,3.2-2.6,5.9-5.9,5.9h-13.3c-3.2,0-5.9-2.6-5.9-5.9V96.1
			c0-2.7-2.2-4.9-4.9-4.9H1108c-2.7,0-4.9,2.2-4.9,4.9v10.7c0,3.2-2.6,5.9-5.9,5.9H1083c-3.2,0-5.9-2.6-5.9-5.9V72.1
			c0-2.7-2.2-4.9-4.9-4.9h-11.7c-3.2,0-5.9-2.6-5.9-5.9V40.9c0-2.7-2.2-4.9-4.9-4.9H1036c-2.7,0-4.9,2.2-4.9,4.9v39.9
			c0,3.2-2.6,5.9-5.9,5.9h-8.7c-3.2,0-5.9-2.6-5.9-5.9c0-2.7-2.2-4.9-4.9-4.9h-19.7c-2.7,0-4.9,2.2-4.9,4.9v32.9
			c0,3.2-2.6,5.9-5.9,5.9h-11.7c-3.2,0-5.9-2.6-5.9-5.9V97.1c0-2.7-2.2-4.9-4.9-4.9h-14.5c-2.7,0-4.9,2.2-4.9,4.9V116
			c0,3.2-2.6,5.9-5.9,5.9H922c-3.2,0-5.9-2.6-5.9-5.9v-7.1c0-2.7-2.2-4.9-4.9-4.9h-30.8c-2.7,0-4.9,2.2-4.9,4.9v4.9
			c0,3.2-2.6,5.9-5.9,5.9h-20.3c-3.2,0-5.9-2.6-5.9-5.9v-4.9c0-2.7-2.2-4.9-4.9-4.9H802c-2.7,0-4.9,2.2-4.9,4.9v22.9
			c0,3.2-2.6,5.9-5.9,5.9h-7c-3.2,0-5.9-2.6-5.9-5.9v-2.9c0-2.7-2.2-4.9-4.9-4.9H751c-3.2,0-5.9-2.6-5.9-5.9V83.4
			c0-2.7-2.2-4.9-4.9-4.9H727c-2.7,0-4.9,2.2-4.9,4.9v5.1c0,3.2-2.6,5.9-5.9,5.9h-7.1c-3.2,0-5.9-2.6-5.9-5.9V46.1
			c0-2.7-2.2-4.9-4.9-4.9h-15.8c-2.7,0-4.9,2.2-4.9,4.9v90.2c0,3.2-2.6,5.9-5.9,5.9h-8.7c-3.2,0-5.9-2.6-5.9-5.9v-35.1
			c0-2.7-2.2-4.9-4.9-4.9h-11.2c-2.7,0-4.9,2.2-4.9,4.9V116c0,3.2-2.6,5.9-5.9,5.9h-5.1c-3.2,0-5.9-2.6-5.9-5.9V77.2
			c0-2.7-2.2-4.9-4.9-4.9h-9.1c-2.7,0-4.9,2.2-4.9,4.9v40.9c0,3.2-2.6,5.9-5.9,5.9h-10.3c-3.2,0-5.9-2.6-5.9-5.9V59.4
			c0-2.7-2.2-4.9-4.9-4.9h-13.3c-2.7,0-4.9,2.2-4.9,4.9v81c0,3.2-2.6,5.9-5.9,5.9h-13.3c-3.2,0-5.9-2.6-5.9-5.9V96.1
			c0-2.7-2.2-4.9-4.9-4.9H508c-2.7,0-4.9,2.2-4.9,4.9v10.7c0,3.2-2.6,5.9-5.9,5.9H483c-3.2,0-5.9-2.6-5.9-5.9V72.1
			c0-2.7-2.2-4.9-4.9-4.9h-11.7c-3.2,0-5.9-2.6-5.9-5.9V40.9c0-2.7-2.2-4.9-4.9-4.9H436c-2.7,0-4.9,2.2-4.9,4.9v39.9
			c0,3.2-2.6,5.9-5.9,5.9h-8.7c-3.2,0-5.9-2.6-5.9-5.9c0-2.7-2.2-4.9-4.9-4.9h-19.7c-2.7,0-4.9,2.2-4.9,4.9v32.9
			c0,3.2-2.6,5.9-5.9,5.9h-11.7c-3.2,0-5.9-2.6-5.9-5.9V97.1c0-2.7-2.2-4.9-4.9-4.9h-14.5c-2.7,0-4.9,2.2-4.9,4.9V116
			c0,3.2-2.6,5.9-5.9,5.9H322c-3.2,0-5.9-2.6-5.9-5.9v-7.1c0-2.7-2.2-4.9-4.9-4.9h-30.8c-2.7,0-4.9,2.2-4.9,4.9v4.9
			c0,3.2-2.6,5.9-5.9,5.9h-20.3c-3.2,0-5.9-2.6-5.9-5.9v-4.9c0-2.7-2.2-4.9-4.9-4.9H202c-2.7,0-4.9,2.2-4.9,4.9v22.9
			c0,3.2-2.6,5.9-5.9,5.9h-7c-3.2,0-5.9-2.6-5.9-5.9v-2.9c0-2.7-2.2-4.9-4.9-4.9H151c-3.2,0-5.9-2.6-5.9-5.9V83.4
			c0-2.7-2.2-4.9-4.9-4.9H127c-2.7,0-4.9,2.2-4.9,4.9v5.1c0,3.2-2.6,5.9-5.9,5.9h-7.1c-3.2,0-5.9-2.6-5.9-5.9V46.1
			c0-2.7-2.2-4.9-4.9-4.9H82.6c-2.7,0-4.9,2.2-4.9,4.9v90.2c0,3.2-2.6,5.9-5.9,5.9h-8.7c-3.2,0-5.9-2.6-5.9-5.9v-35.1
			c0-2.7-2.2-4.9-4.9-4.9H41.3c-2.7,0-4.9,2.2-4.9,4.9V116c0,3.2-2.6,5.9-5.9,5.9h-5.1c-3.2,0-5.9-2.6-5.9-5.9V77.2
			c0-2.7-2.2-4.9-4.9-4.9H5.6c-2.7,0-4.9,2.2-4.9,4.9v98.2C0.8,175.7,0.5,176,0.3,176z"/>
	</g>
	<g class="st2">
		<path class="st0" d="M1200.3,177h-15.7c-3,0-5.4-2.4-5.4-5.4l0-105.7c0-3-2.4-5.4-5.4-5.4h-13.3c-3,0-5.4,2.4-5.4,5.4v81
			c0,3-2.4,5.4-5.4,5.4h-13.3c-3,0-5.4-2.4-5.4-5.4v-44.2c0-3-2.4-5.4-5.4-5.4H1108c-3,0-5.4,2.4-5.4,5.4v10.7c0,3-2.4,5.4-5.4,5.4
			H1083c-3,0-5.4-2.4-5.4-5.4V78.6c0-3-2.4-5.4-5.4-5.4h-11.7c-3,0-5.4-2.4-5.4-5.4V47.4c0-3-2.4-5.4-5.4-5.4H1036
			c-3,0-5.4,2.4-5.4,5.4v39.9c0,3-2.4,5.4-5.4,5.4h-8.7c-3,0-5.4-2.4-5.4-5.4v0c0-3-2.4-5.4-5.4-5.4h-19.7c-3,0-5.4,2.4-5.4,5.4
			v32.9c0,3-2.4,5.4-5.4,5.4h-11.7c-3,0-5.4-2.4-5.4-5.4v-16.6c0-3-2.4-5.4-5.4-5.4h-14.5c-3,0-5.4,2.4-5.4,5.4v18.9
			c0,3-2.4,5.4-5.4,5.4H922c-3,0-5.4-2.4-5.4-5.4v-7.1c0-3-2.4-5.4-5.4-5.4h-30.8c-3,0-5.4,2.4-5.4,5.4v4.9c0,3-2.4,5.4-5.4,5.4
			h-20.3c-3,0-5.4-2.4-5.4-5.4v-4.9c0-3-2.4-5.4-5.4-5.4H802c-3,0-5.4,2.4-5.4,5.4v22.9c0,3-2.4,5.4-5.4,5.4h-7
			c-3,0-5.4-2.4-5.4-5.4v-2.9c0-3-2.4-5.4-5.4-5.4H751c-3,0-5.4-2.4-5.4-5.4V89.9c0-3-2.4-5.4-5.4-5.4H727c-3,0-5.4,2.4-5.4,5.4V95
			c0,3-2.4,5.4-5.4,5.4h-7.1c-3,0-5.4-2.4-5.4-5.4V52.6c0-3-2.4-5.4-5.4-5.4h-15.8c-3,0-5.4,2.4-5.4,5.4v90.2c0,3-2.4,5.4-5.4,5.4
			h-8.7c-3,0-5.4-2.4-5.4-5.4v-35.1c0-3-2.4-5.4-5.4-5.4h-11.2c-3,0-5.4,2.4-5.4,5.4v14.8c0,3-2.4,5.4-5.4,5.4h-5.1
			c-3,0-5.4-2.4-5.4-5.4V83.7c0-3-2.4-5.4-5.4-5.4h-9.1c-3,0-5.4,2.4-5.4,5.4v40.9c0,3-2.4,5.4-5.4,5.4h-10.3c-3,0-5.4-2.4-5.4-5.4
			V65.9c0-3-2.4-5.4-5.4-5.4h-13.3c-3,0-5.4,2.4-5.4,5.4v81c0,3-2.4,5.4-5.4,5.4h-13.3c-3,0-5.4-2.4-5.4-5.4v-44.2
			c0-3-2.4-5.4-5.4-5.4H508c-3,0-5.4,2.4-5.4,5.4v10.7c0,3-2.4,5.4-5.4,5.4H483c-3,0-5.4-2.4-5.4-5.4V78.6c0-3-2.4-5.4-5.4-5.4
			h-11.7c-3,0-5.4-2.4-5.4-5.4V47.4c0-3-2.4-5.4-5.4-5.4H436c-3,0-5.4,2.4-5.4,5.4v39.9c0,3-2.4,5.4-5.4,5.4h-8.7
			c-3,0-5.4-2.4-5.4-5.4v0c0-3-2.4-5.4-5.4-5.4h-19.7c-3,0-5.4,2.4-5.4,5.4v32.9c0,3-2.4,5.4-5.4,5.4h-11.7c-3,0-5.4-2.4-5.4-5.4
			v-16.6c0-3-2.4-5.4-5.4-5.4h-14.5c-3,0-5.4,2.4-5.4,5.4v18.9c0,3-2.4,5.4-5.4,5.4H322c-3,0-5.4-2.4-5.4-5.4v-7.1
			c0-3-2.4-5.4-5.4-5.4h-30.8c-3,0-5.4,2.4-5.4,5.4v4.9c0,3-2.4,5.4-5.4,5.4h-20.3c-3,0-5.4-2.4-5.4-5.4v-4.9c0-3-2.4-5.4-5.4-5.4
			H202c-3,0-5.4,2.4-5.4,5.4v22.9c0,3-2.4,5.4-5.4,5.4h-7c-3,0-5.4-2.4-5.4-5.4v-2.9c0-3-2.4-5.4-5.4-5.4H151c-3,0-5.4-2.4-5.4-5.4
			V89.9c0-3-2.4-5.4-5.4-5.4H127c-3,0-5.4,2.4-5.4,5.4V95c0,3-2.4,5.4-5.4,5.4h-7.1c-3,0-5.4-2.4-5.4-5.4V52.6c0-3-2.4-5.4-5.4-5.4
			H82.6c-3,0-5.4,2.4-5.4,5.4v90.2c0,3-2.4,5.4-5.4,5.4h-8.7c-3,0-5.4-2.4-5.4-5.4v-35.1c0-3-2.4-5.4-5.4-5.4H41.3
			c-3,0-5.4,2.4-5.4,5.4v14.8c0,3-2.4,5.4-5.4,5.4h-5.1c-3,0-5.4-2.4-5.4-5.4V83.7c0-3-2.4-5.4-5.4-5.4H5.6c-3,0-5.4,2.4-5.4,5.4
			V177"/>
		<path d="M1200.3,177.5h-15.7c-3.2,0-5.9-2.6-5.9-5.9l0-105.7c0-2.7-2.2-4.9-4.9-4.9h-13.3c-2.7,0-4.9,2.2-4.9,4.9v81
			c0,3.2-2.6,5.9-5.9,5.9h-13.3c-3.2,0-5.9-2.6-5.9-5.9v-44.2c0-2.7-2.2-4.9-4.9-4.9H1108c-2.7,0-4.9,2.2-4.9,4.9v10.7
			c0,3.2-2.6,5.9-5.9,5.9H1083c-3.2,0-5.9-2.6-5.9-5.9V78.6c0-2.7-2.2-4.9-4.9-4.9h-11.7c-3.2,0-5.9-2.6-5.9-5.9V47.4
			c0-2.7-2.2-4.9-4.9-4.9H1036c-2.7,0-4.9,2.2-4.9,4.9v39.9c0,3.2-2.6,5.9-5.9,5.9h-8.7c-3.2,0-5.9-2.6-5.9-5.9
			c0-2.7-2.2-4.9-4.9-4.9h-19.7c-2.7,0-4.9,2.2-4.9,4.9v32.9c0,3.2-2.6,5.9-5.9,5.9h-11.7c-3.2,0-5.9-2.6-5.9-5.9v-16.6
			c0-2.7-2.2-4.9-4.9-4.9h-14.5c-2.7,0-4.9,2.2-4.9,4.9v18.9c0,3.2-2.6,5.9-5.9,5.9H922c-3.2,0-5.9-2.6-5.9-5.9v-7.1
			c0-2.7-2.2-4.9-4.9-4.9h-30.8c-2.7,0-4.9,2.2-4.9,4.9v4.9c0,3.2-2.6,5.9-5.9,5.9h-20.3c-3.2,0-5.9-2.6-5.9-5.9v-4.9
			c0-2.7-2.2-4.9-4.9-4.9H802c-2.7,0-4.9,2.2-4.9,4.9v22.9c0,3.2-2.6,5.9-5.9,5.9h-7c-3.2,0-5.9-2.6-5.9-5.9v-2.9
			c0-2.7-2.2-4.9-4.9-4.9H751c-3.2,0-5.9-2.6-5.9-5.9V89.9c0-2.7-2.2-4.9-4.9-4.9H727c-2.7,0-4.9,2.2-4.9,4.9V95
			c0,3.2-2.6,5.9-5.9,5.9h-7.1c-3.2,0-5.9-2.6-5.9-5.9V52.6c0-2.7-2.2-4.9-4.9-4.9h-15.8c-2.7,0-4.9,2.2-4.9,4.9v90.2
			c0,3.2-2.6,5.9-5.9,5.9h-8.7c-3.2,0-5.9-2.6-5.9-5.9v-35.1c0-2.7-2.2-4.9-4.9-4.9h-11.2c-2.7,0-4.9,2.2-4.9,4.9v14.8
			c0,3.2-2.6,5.9-5.9,5.9h-5.1c-3.2,0-5.9-2.6-5.9-5.9V83.7c0-2.7-2.2-4.9-4.9-4.9h-9.1c-2.7,0-4.9,2.2-4.9,4.9v40.9
			c0,3.2-2.6,5.9-5.9,5.9h-10.3c-3.2,0-5.9-2.6-5.9-5.9V65.9c0-2.7-2.2-4.9-4.9-4.9h-13.3c-2.7,0-4.9,2.2-4.9,4.9v81
			c0,3.2-2.6,5.9-5.9,5.9h-13.3c-3.2,0-5.9-2.6-5.9-5.9v-44.2c0-2.7-2.2-4.9-4.9-4.9H508c-2.7,0-4.9,2.2-4.9,4.9v10.7
			c0,3.2-2.6,5.9-5.9,5.9H483c-3.2,0-5.9-2.6-5.9-5.9V78.6c0-2.7-2.2-4.9-4.9-4.9h-11.7c-3.2,0-5.9-2.6-5.9-5.9V47.4
			c0-2.7-2.2-4.9-4.9-4.9H436c-2.7,0-4.9,2.2-4.9,4.9v39.9c0,3.2-2.6,5.9-5.9,5.9h-8.7c-3.2,0-5.9-2.6-5.9-5.9
			c0-2.7-2.2-4.9-4.9-4.9h-19.7c-2.7,0-4.9,2.2-4.9,4.9v32.9c0,3.2-2.6,5.9-5.9,5.9h-11.7c-3.2,0-5.9-2.6-5.9-5.9v-16.6
			c0-2.7-2.2-4.9-4.9-4.9h-14.5c-2.7,0-4.9,2.2-4.9,4.9v18.9c0,3.2-2.6,5.9-5.9,5.9H322c-3.2,0-5.9-2.6-5.9-5.9v-7.1
			c0-2.7-2.2-4.9-4.9-4.9h-30.8c-2.7,0-4.9,2.2-4.9,4.9v4.9c0,3.2-2.6,5.9-5.9,5.9h-20.3c-3.2,0-5.9-2.6-5.9-5.9v-4.9
			c0-2.7-2.2-4.9-4.9-4.9H202c-2.7,0-4.9,2.2-4.9,4.9v22.9c0,3.2-2.6,5.9-5.9,5.9h-7c-3.2,0-5.9-2.6-5.9-5.9v-2.9
			c0-2.7-2.2-4.9-4.9-4.9H151c-3.2,0-5.9-2.6-5.9-5.9V89.9c0-2.7-2.2-4.9-4.9-4.9H127c-2.7,0-4.9,2.2-4.9,4.9V95
			c0,3.2-2.6,5.9-5.9,5.9h-7.1c-3.2,0-5.9-2.6-5.9-5.9V52.6c0-2.7-2.2-4.9-4.9-4.9H82.6c-2.7,0-4.9,2.2-4.9,4.9v90.2
			c0,3.2-2.6,5.9-5.9,5.9h-8.7c-3.2,0-5.9-2.6-5.9-5.9v-35.1c0-2.7-2.2-4.9-4.9-4.9H41.3c-2.7,0-4.9,2.2-4.9,4.9v14.8
			c0,3.2-2.6,5.9-5.9,5.9h-5.1c-3.2,0-5.9-2.6-5.9-5.9V83.7c0-2.7-2.2-4.9-4.9-4.9H5.6c-2.7,0-4.9,2.2-4.9,4.9V177
			c0,0.3-0.2,0.5-0.5,0.5s-0.5-0.2-0.5-0.5V83.7c0-3.2,2.6-5.9,5.9-5.9h9.1c3.2,0,5.9,2.6,5.9,5.9v38.8c0,2.7,2.2,4.9,4.9,4.9h5.1
			c2.7,0,4.9-2.2,4.9-4.9v-14.8c0-3.2,2.6-5.9,5.9-5.9h11.2c3.2,0,5.9,2.6,5.9,5.9v35.1c0,2.7,2.2,4.9,4.9,4.9h8.7
			c2.7,0,4.9-2.2,4.9-4.9V52.6c0-3.2,2.6-5.9,5.9-5.9h15.8c3.2,0,5.9,2.6,5.9,5.9V95c0,2.7,2.2,4.9,4.9,4.9h7.1
			c2.7,0,4.9-2.2,4.9-4.9v-5.1c0-3.2,2.6-5.9,5.9-5.9h13.3c3.2,0,5.9,2.6,5.9,5.9v34.7c0,2.7,2.2,4.9,4.9,4.9h22.5
			c3.2,0,5.9,2.6,5.9,5.9v2.9c0,2.7,2.2,4.9,4.9,4.9h7c2.7,0,4.9-2.2,4.9-4.9v-22.9c0-3.2,2.6-5.9,5.9-5.9h36.8
			c3.2,0,5.9,2.6,5.9,5.9v4.9c0,2.7,2.2,4.9,4.9,4.9h20.3c2.7,0,4.9-2.2,4.9-4.9v-4.9c0-3.2,2.6-5.9,5.9-5.9h30.8
			c3.2,0,5.9,2.6,5.9,5.9v7.1c0,2.7,2.2,4.9,4.9,4.9h5.8c2.7,0,4.9-2.2,4.9-4.9v-18.9c0-3.2,2.6-5.9,5.9-5.9H353
			c3.2,0,5.9,2.6,5.9,5.9v16.6c0,2.7,2.2,4.9,4.9,4.9h11.7c2.7,0,4.9-2.2,4.9-4.9V87.3c0-3.2,2.6-5.9,5.9-5.9h19.7
			c3.2,0,5.9,2.6,5.9,5.9c0,2.7,2.2,4.9,4.9,4.9h8.7c2.7,0,4.9-2.2,4.9-4.9V47.4c0-3.2,2.6-5.9,5.9-5.9h13.8c3.2,0,5.9,2.6,5.9,5.9
			v20.5c0,2.7,2.2,4.9,4.9,4.9h11.7c3.2,0,5.9,2.6,5.9,5.9v34.7c0,2.7,2.2,4.9,4.9,4.9h14.3c2.7,0,4.9-2.2,4.9-4.9v-10.7
			c0-3.2,2.6-5.9,5.9-5.9h17.9c3.2,0,5.9,2.6,5.9,5.9v44.2c0,2.7,2.2,4.9,4.9,4.9h13.3c2.7,0,4.9-2.2,4.9-4.9v-81
			c0-3.2,2.6-5.9,5.9-5.9h13.3c3.2,0,5.9,2.6,5.9,5.9v58.7c0,2.7,2.2,4.9,4.9,4.9h10.3c2.7,0,4.9-2.2,4.9-4.9V83.7
			c0-3.2,2.6-5.9,5.9-5.9h9.1c3.2,0,5.9,2.6,5.9,5.9v38.8c0,2.7,2.2,4.9,4.9,4.9h5.1c2.7,0,4.9-2.2,4.9-4.9v-14.8
			c0-3.2,2.6-5.9,5.9-5.9h11.2c3.2,0,5.9,2.6,5.9,5.9v35.1c0,2.7,2.2,4.9,4.9,4.9h8.7c2.7,0,4.9-2.2,4.9-4.9V52.6
			c0-3.2,2.6-5.9,5.9-5.9h15.8c3.2,0,5.9,2.6,5.9,5.9V95c0,2.7,2.2,4.9,4.9,4.9h7.1c2.7,0,4.9-2.2,4.9-4.9v-5.1
			c0-3.2,2.6-5.9,5.9-5.9h13.3c3.2,0,5.9,2.6,5.9,5.9v34.7c0,2.7,2.2,4.9,4.9,4.9h22.5c3.2,0,5.9,2.6,5.9,5.9v2.9
			c0,2.7,2.2,4.9,4.9,4.9h7c2.7,0,4.9-2.2,4.9-4.9v-22.9c0-3.2,2.6-5.9,5.9-5.9h36.8c3.2,0,5.9,2.6,5.9,5.9v4.9
			c0,2.7,2.2,4.9,4.9,4.9h20.3c2.7,0,4.9-2.2,4.9-4.9v-4.9c0-3.2,2.6-5.9,5.9-5.9h30.8c3.2,0,5.9,2.6,5.9,5.9v7.1
			c0,2.7,2.2,4.9,4.9,4.9h5.8c2.7,0,4.9-2.2,4.9-4.9v-18.9c0-3.2,2.6-5.9,5.9-5.9H953c3.2,0,5.9,2.6,5.9,5.9v16.6
			c0,2.7,2.2,4.9,4.9,4.9h11.7c2.7,0,4.9-2.2,4.9-4.9V87.3c0-3.2,2.6-5.9,5.9-5.9h19.7c3.2,0,5.9,2.6,5.9,5.9c0,2.7,2.2,4.9,4.9,4.9
			h8.7c2.7,0,4.9-2.2,4.9-4.9V47.4c0-3.2,2.6-5.9,5.9-5.9h13.8c3.2,0,5.9,2.6,5.9,5.9v20.5c0,2.7,2.2,4.9,4.9,4.9h11.7
			c3.2,0,5.9,2.6,5.9,5.9v34.7c0,2.7,2.2,4.9,4.9,4.9h14.3c2.7,0,4.9-2.2,4.9-4.9v-10.7c0-3.2,2.6-5.9,5.9-5.9h17.9
			c3.2,0,5.9,2.6,5.9,5.9v44.2c0,2.7,2.2,4.9,4.9,4.9h13.3c2.7,0,4.9-2.2,4.9-4.9v-81c0-3.2,2.6-5.9,5.9-5.9h13.3
			c3.2,0,5.9,2.6,5.9,5.9l0,105.7c0,2.7,2.2,4.9,4.9,4.9h15.7c0.3,0,0.5,0.2,0.5,0.5S1200.5,177.5,1200.3,177.5z"/>
	</g>
</g>
<g class="st1">
	<g class="st2">
		<path d="M316.7,212.5c-3.8,5-9.7,8.2-16.4,8.2c-11.4,0-20.6-9.2-20.6-20.6c0-11.4,9.2-20.6,20.6-20.6c6.7,0,12.7,3.2,16.4,8.2
			c-2-1.1-4.4-1.8-6.8-1.8c-7.8,0-14.2,6.3-14.2,14.2c0,7.8,6.3,14.2,14.2,14.2C312.3,214.3,314.7,213.7,316.7,212.5z"/>
		<path d="M300.3,221.2c-11.6,0-21.1-9.5-21.1-21.1c0-11.6,9.5-21.1,21.1-21.1c6.7,0,12.8,3,16.8,8.4c0.1,0.2,0.1,0.4,0,0.6
			s-0.4,0.2-0.6,0.1c-2-1.1-4.3-1.7-6.6-1.7c-7.5,0-13.7,6.1-13.7,13.7s6.1,13.7,13.7,13.7c2.3,0,4.6-0.6,6.6-1.7
			c0.2-0.1,0.5-0.1,0.6,0.1s0.2,0.4,0,0.6C313.1,218.2,306.9,221.2,300.3,221.2z M300.3,180c-11.1,0-20.1,9-20.1,20.1
			c0,11.1,9,20.1,20.1,20.1c5.6,0,10.8-2.3,14.6-6.3c-1.6,0.6-3.3,0.9-5.1,0.9c-8.1,0-14.7-6.6-14.7-14.7s6.6-14.7,14.7-14.7
			c1.7,0,3.4,0.3,5,0.9C311.1,182.3,305.9,180,300.3,180z"/>
	</g>
	<g class="st2">
		<path d="M316.7,214c-3.8,5-9.7,8.2-16.4,8.2c-11.4,0-20.6-9.2-20.6-20.6c0-11.4,9.2-20.6,20.6-20.6c6.7,0,12.7,3.2,16.4,8.2
			c-2-1.1-4.4-1.8-6.8-1.8c-7.8,0-14.2,6.3-14.2,14.2c0,7.8,6.3,14.2,14.2,14.2C312.3,215.7,314.7,215.1,316.7,214z"/>
		<path d="M300.3,222.7c-11.6,0-21.1-9.5-21.1-21.1c0-11.6,9.5-21.1,21.1-21.1c6.7,0,12.8,3,16.8,8.4c0.1,0.2,0.1,0.4,0,0.6
			c-0.2,0.2-0.4,0.2-0.6,0.1c-2-1.1-4.3-1.7-6.6-1.7c-7.5,0-13.7,6.1-13.7,13.7c0,7.5,6.1,13.7,13.7,13.7c2.3,0,4.6-0.6,6.6-1.7
			c0.2-0.1,0.5-0.1,0.6,0.1c0.2,0.2,0.2,0.4,0,0.6C313.1,219.6,306.9,222.7,300.3,222.7z M300.3,181.5c-11.1,0-20.1,9-20.1,20.1
			c0,11.1,9,20.1,20.1,20.1c5.6,0,10.8-2.3,14.6-6.3c-1.6,0.6-3.3,0.9-5.1,0.9c-8.1,0-14.7-6.6-14.7-14.7s6.6-14.7,14.7-14.7
			c1.7,0,3.4,0.3,5,0.9C311.1,183.7,305.9,181.5,300.3,181.5z"/>
	</g>
</g>
<g>
	<rect y="250.5" class="st0" width="600" height="50"/>
</g>
<g>
	<path d="M600.2,250.5H0.3c-0.3,0-0.5-0.2-0.5-0.5s0.2-0.5,0.5-0.5h600c0.3,0,0.5,0.2,0.5,0.5S600.5,250.5,600.2,250.5z"/>
</g>
<g class="st1">
	<g class="st2">
		<g>
			
				<rect x="325.5" y="200.8" transform="matrix(0.7071 -0.7071 0.7071 0.7071 -49.8172 291.0263)" class="st0" width="1.7" height="9.7"/>
			<path d="M329.2,210.2c-0.1,0-0.3,0-0.4-0.1l-6.9-6.9c-0.1-0.1-0.1-0.2-0.1-0.4s0.1-0.3,0.1-0.4l1.2-1.2c0.2-0.2,0.5-0.2,0.7,0
				l6.9,6.9c0.1,0.1,0.1,0.2,0.1,0.4s-0.1,0.3-0.1,0.4l-1.2,1.2C329.5,210.1,329.3,210.2,329.2,210.2z M323.1,202.8l6.2,6.2l0.5-0.5
				l-6.2-6.2L323.1,202.8z"/>
		</g>
		<g>
			
				<rect x="321.8" y="197.3" transform="matrix(0.7071 0.7071 -0.7071 0.7071 237.4501 -168.9781)" class="st0" width="1.7" height="9.7"/>
			<path d="M319.9,206.7c-0.1,0-0.3,0-0.4-0.1l-1.2-1.2c-0.2-0.2-0.2-0.5,0-0.7l6.9-6.9c0.2-0.2,0.5-0.2,0.7,0l1.2,1.2
				c0.2,0.2,0.2,0.5,0,0.7l-6.9,6.9C320.1,206.6,320,206.7,319.9,206.7z M319.4,205l0.5,0.5l6.2-6.2l-0.5-0.5L319.4,205z"/>
		</g>
	</g>
	<g class="st2">
		<polygon class="st0" points="384.2,225.5 229.1,225.5 229.1,208.1 376.4,208.1 		"/>
		<path d="M384.2,226H229.1c-0.3,0-0.5-0.2-0.5-0.5v-17.4c0-0.3,0.2-0.5,0.5-0.5h147.3c0.2,0,0.4,0.1,0.5,0.3l7.8,17.4
			c0.1,0.2,0.1,0.3,0,0.5C384.5,225.9,384.4,226,384.2,226z M229.6,225h153.8l-7.3-16.4H229.6V225z"/>
	</g>
	<g class="st2">
		<polygon class="st0" points="337.6,208.1 330.9,186.7 328.8,186.7 328.8,208.1 		"/>
		<path d="M337.6,208.6h-8.8c-0.3,0-0.5-0.2-0.5-0.5v-21.4c0-0.3,0.2-0.5,0.5-0.5h2.1c0.2,0,0.4,0.1,0.5,0.4l6.6,21.4
			c0,0.2,0,0.3-0.1,0.4C337.9,208.6,337.7,208.6,337.6,208.6z M329.3,207.6h7.6l-6.3-20.4h-1.3V207.6z"/>
	</g>
	<g class="st2">
		<rect x="229.1" y="225.5" class="st0" width="155.1" height="9.7"/>
		<path d="M384.2,235.7H229.1c-0.3,0-0.5-0.2-0.5-0.5v-9.7c0-0.3,0.2-0.5,0.5-0.5h155.1c0.3,0,0.5,0.2,0.5,0.5v9.7
			C384.7,235.5,384.5,235.7,384.2,235.7z M229.6,234.7h154.1V226H229.6V234.7z"/>
	</g>
	<g class="st2">
		<polygon class="st0" points="291.4,208.1 291.4,201.1 294.1,201.1 297.7,208.1 		"/>
		<path d="M297.7,208.6h-6.3c-0.3,0-0.5-0.2-0.5-0.5v-7.1c0-0.3,0.2-0.5,0.5-0.5h2.7c0.2,0,0.4,0.1,0.4,0.3l3.6,7.1
			c0.1,0.2,0.1,0.3,0,0.5C298,208.5,297.8,208.6,297.7,208.6z M291.9,207.6h5l-3.1-6.1h-1.9V207.6z"/>
	</g>
	<g class="st2">
		<polygon class="st0" points="377.3,210.1 384.2,210.1 384.2,218.5 381.1,218.5 		"/>
		<path d="M384.2,219h-3.1c-0.2,0-0.4-0.1-0.5-0.3l-3.8-8.4c-0.1-0.2-0.1-0.3,0-0.5c0.1-0.1,0.3-0.2,0.4-0.2h6.9
			c0.3,0,0.5,0.2,0.5,0.5v8.4C384.7,218.7,384.5,219,384.2,219z M381.4,218h2.3v-7.4h-5.6L381.4,218z"/>
	</g>
	<g class="st2">
		<rect x="286.4" y="235.2" class="st0" width="42.4" height="4.3"/>
		<path d="M328.8,240h-42.4c-0.3,0-0.5-0.2-0.5-0.5v-4.3c0-0.3,0.2-0.5,0.5-0.5h42.4c0.3,0,0.5,0.2,0.5,0.5v4.3
			C329.3,239.8,329.1,240,328.8,240z M286.9,239h41.4v-3.3h-41.4V239z"/>
	</g>
	<g class="st2">
		<rect x="328.8" y="235.2" class="st0" width="27.3" height="2.2"/>
		<path d="M356.1,237.9h-27.3c-0.3,0-0.5-0.2-0.5-0.5v-2.2c0-0.3,0.2-0.5,0.5-0.5h27.3c0.3,0,0.5,0.2,0.5,0.5v2.2
			C356.6,237.6,356.4,237.9,356.1,237.9z M329.3,236.9h26.3v-1.2h-26.3V236.9z"/>
	</g>
	<g class="st2">
		<rect x="242.3" y="235.2" class="st0" width="44.2" height="2.2"/>
		<path d="M286.4,237.9h-44.2c-0.3,0-0.5-0.2-0.5-0.5v-2.2c0-0.3,0.2-0.5,0.5-0.5h44.2c0.3,0,0.5,0.2,0.5,0.5v2.2
			C286.9,237.6,286.7,237.9,286.4,237.9z M242.8,236.9h43.2v-1.2h-43.2V236.9z"/>
	</g>
	<g class="st2">
		<rect x="222.5" y="235.2" class="st0" width="19.8" height="4.1"/>
		<path d="M242.3,239.8h-19.8c-0.3,0-0.5-0.2-0.5-0.5v-4.1c0-0.3,0.2-0.5,0.5-0.5h19.8c0.3,0,0.5,0.2,0.5,0.5v4.1
			C242.8,239.6,242.5,239.8,242.3,239.8z M223,238.8h18.8v-3.1H223V238.8z"/>
	</g>
	<g class="st2">
		<rect x="212.2" y="236.4" class="st0" width="10.3" height="1.9"/>
		<path d="M222.5,238.8h-10.3c-0.3,0-0.5-0.2-0.5-0.5v-1.9c0-0.3,0.2-0.5,0.5-0.5h10.3c0.3,0,0.5,0.2,0.5,0.5v1.9
			C223,238.6,222.8,238.8,222.5,238.8z M212.7,237.8h9.3v-0.9h-9.3V237.8z"/>
	</g>
	<g class="st2">
		<rect x="294.5" y="208.1" class="st0" width="34.3" height="27.1"/>
		<path d="M328.8,235.7h-34.3c-0.3,0-0.5-0.2-0.5-0.5v-27.1c0-0.3,0.2-0.5,0.5-0.5h34.3c0.3,0,0.5,0.2,0.5,0.5v27.1
			C329.3,235.5,329.1,235.7,328.8,235.7z M295,234.7h33.3v-26.1H295V234.7z"/>
	</g>
	<g class="st2">
		<line class="st0" x1="328.8" y1="230.3" x2="272.6" y2="230.3"/>
		<path d="M328.8,230.8h-56.2c-0.3,0-0.5-0.2-0.5-0.5s0.2-0.5,0.5-0.5h56.2c0.3,0,0.5,0.2,0.5,0.5S329.1,230.8,328.8,230.8z"/>
	</g>
	<g class="st2">
		<rect x="287.8" y="191.8" class="st0" width="3.2" height="16.3"/>
		<path d="M291.1,208.6h-3.2c-0.3,0-0.5-0.2-0.5-0.5v-16.3c0-0.3,0.2-0.5,0.5-0.5h3.2c0.3,0,0.5,0.2,0.5,0.5v16.3
			C291.6,208.4,291.4,208.6,291.1,208.6z M288.3,207.6h2.2v-15.3h-2.2V207.6z"/>
	</g>
	<g class="st2">
		<rect x="231.4" y="200" class="st0" width="25.6" height="8.1"/>
		<path d="M256.9,208.6h-25.6c-0.3,0-0.5-0.2-0.5-0.5V200c0-0.3,0.2-0.5,0.5-0.5h25.6c0.3,0,0.5,0.2,0.5,0.5v8.1
			C257.4,208.4,257.2,208.6,256.9,208.6z M231.9,207.6h24.6v-7.1h-24.6V207.6z"/>
	</g>
	<g class="st2">
		<rect x="228.7" y="191.8" class="st0" width="25.6" height="8.1"/>
		<path d="M254.3,200.5h-25.6c-0.3,0-0.5-0.2-0.5-0.5v-8.1c0-0.3,0.2-0.5,0.5-0.5h25.6c0.3,0,0.5,0.2,0.5,0.5v8.1
			C254.8,200.3,254.6,200.5,254.3,200.5z M229.2,199.5h24.6v-7.1h-24.6V199.5z"/>
	</g>
	<g class="st2">
		<rect x="229.1" y="183.7" class="st0" width="25.6" height="8.1"/>
		<path d="M254.7,192.3h-25.6c-0.3,0-0.5-0.2-0.5-0.5v-8.1c0-0.3,0.2-0.5,0.5-0.5h25.6c0.3,0,0.5,0.2,0.5,0.5v8.1
			C255.2,192.1,255,192.3,254.7,192.3z M229.6,191.3h24.6v-7.1h-24.6V191.3z"/>
	</g>
	<g class="st2">
		<rect x="232.9" y="179.2" class="st0" width="22.4" height="4.5"/>
		<path d="M255.4,184.2h-22.4c-0.3,0-0.5-0.2-0.5-0.5v-4.5c0-0.3,0.2-0.5,0.5-0.5h22.4c0.3,0,0.5,0.2,0.5,0.5v4.5
			C255.9,184,255.6,184.2,255.4,184.2z M233.4,183.2h21.4v-3.5h-21.4V183.2z"/>
	</g>
	<g class="st2">
		<rect x="242.1" y="177.4" class="st0" width="3.5" height="30.8"/>
		<path d="M245.5,208.6h-3.5c-0.3,0-0.5-0.2-0.5-0.5v-30.8c0-0.3,0.2-0.5,0.5-0.5h3.5c0.3,0,0.5,0.2,0.5,0.5v30.8
			C246,208.4,245.8,208.6,245.5,208.6z M242.6,207.6h2.5v-29.8h-2.5V207.6z"/>
	</g>
	<g class="st2">
		<rect x="297.7" y="212" class="st0" width="8.2" height="1.5"/>
		<path d="M305.9,214h-8.2c-0.3,0-0.5-0.2-0.5-0.5V212c0-0.3,0.2-0.5,0.5-0.5h8.2c0.3,0,0.5,0.2,0.5,0.5v1.5
			C306.4,213.8,306.2,214,305.9,214z M298.2,213h7.2v-0.5h-7.2V213z"/>
	</g>
	<g class="st2">
		<rect x="227.1" y="226.8" class="st0" width="2" height="6.5"/>
		<path d="M229.1,233.8h-2c-0.3,0-0.5-0.2-0.5-0.5v-6.5c0-0.3,0.2-0.5,0.5-0.5h2c0.3,0,0.5,0.2,0.5,0.5v6.5
			C229.6,233.6,229.4,233.8,229.1,233.8z M227.6,232.8h1v-5.5h-1V232.8z"/>
	</g>
	<g class="st2">
		<rect x="384.2" y="225.5" class="st0" width="4.1" height="9.7"/>
		<path d="M388.3,235.7h-4.1c-0.3,0-0.5-0.2-0.5-0.5v-9.7c0-0.3,0.2-0.5,0.5-0.5h4.1c0.3,0,0.5,0.2,0.5,0.5v9.7
			C388.8,235.5,388.6,235.7,388.3,235.7z M384.7,234.7h3.1V226h-3.1V234.7z"/>
	</g>
	<g class="st2">
		<polygon class="st0" points="388.3,235.2 384.2,239.5 370.2,239.5 370.2,235.2 		"/>
		<path d="M384.2,240h-14c-0.3,0-0.5-0.2-0.5-0.5v-4.3c0-0.3,0.2-0.5,0.5-0.5h18.1c0.2,0,0.4,0.1,0.5,0.3c0.1,0.2,0,0.4-0.1,0.5
			l-4.1,4.3C384.5,240,384.4,240,384.2,240z M370.7,239H384l3.1-3.3h-16.4V239z"/>
	</g>
	<g class="st2">
		<rect x="256.9" y="165.5" class="st0" width="30.9" height="42.6"/>
		<path d="M287.8,208.6h-30.9c-0.3,0-0.5-0.2-0.5-0.5v-42.6c0-0.3,0.2-0.5,0.5-0.5h30.9c0.3,0,0.5,0.2,0.5,0.5v42.6
			C288.3,208.4,288.1,208.6,287.8,208.6z M257.4,207.6h29.9V166h-29.9V207.6z"/>
	</g>
	<g class="st2">
		<rect x="271.7" y="163.4" class="st0" width="3.5" height="44.7"/>
		<path d="M275.2,208.6h-3.5c-0.3,0-0.5-0.2-0.5-0.5v-44.7c0-0.3,0.2-0.5,0.5-0.5h3.5c0.3,0,0.5,0.2,0.5,0.5v44.7
			C275.7,208.4,275.4,208.6,275.2,208.6z M272.2,207.6h2.5v-43.7h-2.5V207.6z"/>
	</g>
</g>
<g class="st1">
	<g class="st2">
		<circle class="st0" cx="300.3" cy="203.8" r="14.8"/>
		<path d="M300.3,219.1c-8.4,0-15.3-6.9-15.3-15.3s6.9-15.3,15.3-15.3s15.3,6.9,15.3,15.3S308.7,219.1,300.3,219.1z M300.3,189.5
			c-7.9,0-14.3,6.4-14.3,14.3s6.4,14.3,14.3,14.3s14.3-6.4,14.3-14.3S308.1,189.5,300.3,189.5z"/>
	</g>
	<g class="st2">
		<circle class="st0" cx="300.3" cy="203.8" r="11"/>
		<path d="M300.3,215.4c-6.4,0-11.5-5.2-11.5-11.5c0-6.4,5.2-11.5,11.5-11.5s11.5,5.2,11.5,11.5
			C311.8,210.2,306.6,215.4,300.3,215.4z M300.3,193.3c-5.8,0-10.5,4.7-10.5,10.5c0,5.8,4.7,10.5,10.5,10.5s10.5-4.7,10.5-10.5
			C310.8,198,306.1,193.3,300.3,193.3z"/>
	</g>
	<g class="st2">
		<g>
			<path d="M300.3,215.4c-0.3,0-0.5-0.2-0.5-0.5v-22.1c0-0.3,0.2-0.5,0.5-0.5s0.5,0.2,0.5,0.5v22.1
				C300.8,215.1,300.5,215.4,300.3,215.4z"/>
		</g>
		<g>
			<path d="M292.4,212.1c-0.1,0-0.3,0-0.4-0.1c-0.2-0.2-0.2-0.5,0-0.7l15.6-15.6c0.2-0.2,0.5-0.2,0.7,0s0.2,0.5,0,0.7L292.8,212
				C292.7,212.1,292.6,212.1,292.4,212.1z"/>
		</g>
		<g>
			<path d="M311.3,204.3h-22.1c-0.3,0-0.5-0.2-0.5-0.5s0.2-0.5,0.5-0.5h22.1c0.3,0,0.5,0.2,0.5,0.5S311.6,204.3,311.3,204.3z"/>
		</g>
		<g>
			<path d="M308.1,212.1c-0.1,0-0.3,0-0.4-0.1l-15.6-15.6c-0.2-0.2-0.2-0.5,0-0.7s0.5-0.2,0.7,0l15.6,15.6c0.2,0.2,0.2,0.5,0,0.7
				C308.3,212.1,308.2,212.1,308.1,212.1z"/>
		</g>
	</g>
	<g class="st2">
		<circle class="st0" cx="300.3" cy="203.8" r="2.3"/>
		<path d="M300.3,206.6c-1.5,0-2.8-1.3-2.8-2.8s1.3-2.8,2.8-2.8s2.8,1.3,2.8,2.8S301.8,206.6,300.3,206.6z M300.3,202
			c-1,0-1.8,0.8-1.8,1.8s0.8,1.8,1.8,1.8s1.8-0.8,1.8-1.8S301.2,202,300.3,202z"/>
	</g>
</g>
<g class="st1">
	<polygon class="st6" points="297.6,208 304.9,208 304.9,206.4 307.9,206.4 307.9,204.5 306.5,204.5 306.5,201.6 303.1,201.6 
		303.1,202.6 300.3,202.6 300.3,199.6 297.1,199.6 297.1,201.6 292.6,201.6 292.6,204.5 294.2,204.5 294.2,206.3 297.6,206.3 	"/>
	<path class="st2" d="M304.9,208.5h-7.3c-0.3,0-0.5-0.2-0.5-0.5v-1.3h-2.9c-0.3,0-0.5-0.2-0.5-0.5V205h-1.1c-0.3,0-0.5-0.2-0.5-0.5
		v-2.9c0-0.3,0.2-0.5,0.5-0.5h4v-1.5c0-0.3,0.2-0.5,0.5-0.5h3.1c0.3,0,0.5,0.2,0.5,0.5v2.4h1.9v-0.5c0-0.3,0.2-0.5,0.5-0.5h3.3
		c0.3,0,0.5,0.2,0.5,0.5v2.4h0.9c0.3,0,0.5,0.2,0.5,0.5v2c0,0.3-0.2,0.5-0.5,0.5h-2.5v1.1C305.4,208.3,305.2,208.5,304.9,208.5z
		 M298.1,207.5h6.3v-1.1c0-0.3,0.2-0.5,0.5-0.5h2.5v-1h-0.9c-0.3,0-0.5-0.2-0.5-0.5v-2.4h-2.3v0.5c0,0.3-0.2,0.5-0.5,0.5h-2.9
		c-0.3,0-0.5-0.2-0.5-0.5v-2.4h-2.1v1.5c0,0.3-0.2,0.5-0.5,0.5h-4v1.9h1.1c0.3,0,0.5,0.2,0.5,0.5v1.3h2.9c0.3,0,0.5,0.2,0.5,0.5
		V207.5z"/>
</g>
<g class="st1">
	<polygon class="st6" points="300.3,191.7 309.6,181.3 308.9,195.2 322.8,194.5 312.4,203.8 322.8,213.1 308.9,212.4 309.6,226.3 
		300.3,216 290.9,226.3 291.6,212.4 277.8,213.1 288.1,203.8 277.8,194.5 291.6,195.2 290.9,181.3 	"/>
	<path class="st2" d="M290.9,226.8c-0.1,0-0.1,0-0.2,0c-0.2-0.1-0.3-0.3-0.3-0.5l0.7-13.3l-13.3,0.7c-0.2,0-0.4-0.1-0.5-0.3
		c-0.1-0.2,0-0.4,0.1-0.6l9.9-8.9l-9.9-8.9c-0.2-0.1-0.2-0.4-0.1-0.6c0.1-0.2,0.3-0.3,0.5-0.3l13.3,0.7l-0.7-13.3
		c0-0.2,0.1-0.4,0.3-0.5c0.2-0.1,0.4,0,0.6,0.1l8.9,9.9l8.9-9.9c0.1-0.2,0.4-0.2,0.6-0.1c0.2,0.1,0.3,0.3,0.3,0.5l-0.7,13.3
		l13.3-0.7c0.2,0,0.4,0.1,0.5,0.3c0.1,0.2,0,0.4-0.1,0.6l-9.9,8.9l9.9,8.9c0.2,0.1,0.2,0.4,0.1,0.6c-0.1,0.2-0.3,0.3-0.5,0.3
		l-13.3-0.7l0.7,13.3c0,0.2-0.1,0.4-0.3,0.5c-0.2,0.1-0.4,0-0.6-0.1l-8.9-9.9l-8.9,9.9C291.2,226.8,291.1,226.8,290.9,226.8z
		 M291.6,211.9c0.1,0,0.3,0.1,0.4,0.1c0.1,0.1,0.2,0.2,0.1,0.4l-0.6,12.5l8.4-9.3c0.1-0.1,0.2-0.2,0.4-0.2l0,0
		c0.1,0,0.3,0.1,0.4,0.2l8.4,9.3l-0.6-12.5c0-0.1,0-0.3,0.1-0.4c0.1-0.1,0.2-0.2,0.4-0.1l12.5,0.6l-9.3-8.4
		c-0.1-0.1-0.2-0.2-0.2-0.4s0.1-0.3,0.2-0.4l9.3-8.4l-12.5,0.6c-0.1,0-0.3,0-0.4-0.1c-0.1-0.1-0.2-0.2-0.1-0.4l0.6-12.5l-8.4,9.3
		c-0.2,0.2-0.6,0.2-0.7,0l-8.4-9.3l0.6,12.5c0,0.1,0,0.3-0.1,0.4c-0.1,0.1-0.2,0.2-0.4,0.1l-12.5-0.6l9.3,8.4
		c0.1,0.1,0.2,0.2,0.2,0.4s-0.1,0.3-0.2,0.4l-9.3,8.4L291.6,211.9C291.6,211.9,291.6,211.9,291.6,211.9z"/>
</g>
<g class="st1">
	<g class="st2">
		<circle cx="300.3" cy="203.3" r="8.9"/>
		<path d="M300.3,212.7c-5.2,0-9.4-4.2-9.4-9.4s4.2-9.4,9.4-9.4c5.2,0,9.4,4.2,9.4,9.4S305.5,212.7,300.3,212.7z M300.3,194.8
			c-4.6,0-8.4,3.8-8.4,8.4s3.8,8.4,8.4,8.4c4.6,0,8.4-3.8,8.4-8.4S304.9,194.8,300.3,194.8z"/>
	</g>
	<g class="st2">
		<circle class="st0" cx="300.3" cy="204.4" r="8.9"/>
		<path d="M300.3,213.8c-5.2,0-9.4-4.2-9.4-9.4s4.2-9.4,9.4-9.4c5.2,0,9.4,4.2,9.4,9.4S305.5,213.8,300.3,213.8z M300.3,196
			c-4.6,0-8.4,3.8-8.4,8.4s3.8,8.4,8.4,8.4c4.6,0,8.4-3.8,8.4-8.4S304.9,196,300.3,196z"/>
	</g>
</g>
</svg>
