<?xml version="1.0" encoding="utf-8"?>
<!-- Generator: Adobe Illustrator 23.1.0, SVG Export Plug-In . SVG Version: 6.00 Build 0)  -->
<svg version="1.1" id="Layer_1" xmlns="http://www.w3.org/2000/svg" xmlns:xlink="http://www.w3.org/1999/xlink" x="0px" y="0px"
	 viewBox="0 0 18.9 20" style="enable-background:new 0 0 18.9 20;" xml:space="preserve">
<style type="text/css">
	.st0{display:none;fill:#FFFFFF;}
	.st1{display:none;}
	.st2{display:inline;}
	.st3{stroke:#000000;stroke-linecap:round;stroke-linejoin:round;stroke-miterlimit:10;}
	.st4{fill:#FFFFFF;stroke:#000000;stroke-linecap:round;stroke-linejoin:round;stroke-miterlimit:10;}
	.st5{display:inline;fill:#FFFFFF;stroke:#000000;stroke-linecap:round;stroke-linejoin:round;stroke-miterlimit:10;}
	.st6{display:inline;fill:#FFFFFF;}
	.st7{display:inline;fill:none;stroke:#000000;stroke-linecap:round;stroke-linejoin:round;stroke-miterlimit:10;}
	.st8{fill:none;stroke:#000000;stroke-linecap:round;stroke-linejoin:round;stroke-miterlimit:10;}
	.st9{stroke:#000000;stroke-miterlimit:10;}
	.st10{fill:#FFFFFF;stroke:#000000;stroke-miterlimit:10;}
	.st11{fill:#FFFFFF;}
</style>
<rect x="-290.6" y="-193.8" class="st0" width="600" height="300"/>
<g class="st1">
	<g class="st2">
		<path class="st3" d="M-290.6-18.4v-98.2c0-3,2.4-5.4,5.4-5.4h9.1c3,0,5.4,2.4,5.4,5.4v38.8c0,3,2.4,5.4,5.4,5.4h5.1
			c3,0,5.4-2.4,5.4-5.4v-14.8c0-3,2.4-5.4,5.4-5.4h11.2c3,0,5.4,2.4,5.4,5.4v35.1c0,3,2.4,5.4,5.4,5.4h8.7c3,0,5.4-2.4,5.4-5.4
			v-90.2c0-3,2.4-5.4,5.4-5.4h15.8c3,0,5.4,2.4,5.4,5.4v42.4c0,3,2.4,5.4,5.4,5.4h7.1c3,0,5.4-2.4,5.4-5.4v-5.1c0-3,2.4-5.4,5.4-5.4
			h13.3c3,0,5.4,2.4,5.4,5.4v34.7c0,3,2.4,5.4,5.4,5.4h22.5c3,0,5.4,2.4,5.4,5.4v2.9c0,3,2.4,5.4,5.4,5.4h7c3,0,5.4-2.4,5.4-5.4
			v-22.9c0-3,2.4-5.4,5.4-5.4H-52c3,0,5.4,2.4,5.4,5.4v4.9c0,3,2.4,5.4,5.4,5.4H-21c3,0,5.4-2.4,5.4-5.4v-4.9c0-3,2.4-5.4,5.4-5.4
			h30.8c3,0,5.4,2.4,5.4,5.4v7.1c0,3,2.4,5.4,5.4,5.4H37c3,0,5.4-2.4,5.4-5.4v-18.9c0-3,2.4-5.4,5.4-5.4h14.5c3,0,5.4,2.4,5.4,5.4
			v16.6c0,3,2.4,5.4,5.4,5.4h11.7c3,0,5.4-2.4,5.4-5.4V-113c0-3,2.4-5.4,5.4-5.4H115c3,0,5.4,2.4,5.4,5.4v0c0,3,2.4,5.4,5.4,5.4h8.7
			c3,0,5.4-2.4,5.4-5.4V-153c0-3,2.4-5.4,5.4-5.4h13.8c3,0,5.4,2.4,5.4,5.4v20.5c0,3,2.4,5.4,5.4,5.4h11.7c3,0,5.4,2.4,5.4,5.4V-87
			c0,3,2.4,5.4,5.4,5.4h14.3c3,0,5.4-2.4,5.4-5.4v-10.7c0-3,2.4-5.4,5.4-5.4H235c3,0,5.4,2.4,5.4,5.4v44.2c0,3,2.4,5.4,5.4,5.4H259
			c3,0,5.4-2.4,5.4-5.4v-81c0-3,2.4-5.4,5.4-5.4H283c3,0,5.4,2.4,5.4,5.4v58.7c0,3,2.4,5.4,5.4,5.4h10.3c3,0,5.4-2.4,5.4-5.4v-40.9
			c0-3,2.4-5.4,5.4-5.4h9.1c3,0,5.4,2.4,5.4,5.4v38.8c0,3,2.4,5.4,5.4,5.4h5.1c3,0,5.4-2.4,5.4-5.4v-14.8c0-3,2.4-5.4,5.4-5.4h11.2
			c3,0,5.4,2.4,5.4,5.4v35.1c0,3,2.4,5.4,5.4,5.4h8.7c3,0,5.4-2.4,5.4-5.4v-90.2c0-3,2.4-5.4,5.4-5.4h15.8c3,0,5.4,2.4,5.4,5.4v42.4
			c0,3,2.4,5.4,5.4,5.4h7.1c3,0,5.4-2.4,5.4-5.4v-5.1c0-3,2.4-5.4,5.4-5.4h13.3c3,0,5.4,2.4,5.4,5.4v34.7c0,3,2.4,5.4,5.4,5.4h22.5
			c3,0,5.4,2.4,5.4,5.4v2.9c0,3,2.4,5.4,5.4,5.4h7c3,0,5.4-2.4,5.4-5.4v-22.9c0-3,2.4-5.4,5.4-5.4H548c3,0,5.4,2.4,5.4,5.4v4.9
			c0,3,2.4,5.4,5.4,5.4H579c3,0,5.4-2.4,5.4-5.4v-4.9c0-3,2.4-5.4,5.4-5.4h30.8c3,0,5.4,2.4,5.4,5.4v7.1c0,3,2.4,5.4,5.4,5.4h5.8
			c3,0,5.4-2.4,5.4-5.4v-18.9c0-3,2.4-5.4,5.4-5.4h14.5c3,0,5.4,2.4,5.4,5.4v16.6c0,3,2.4,5.4,5.4,5.4h11.7c3,0,5.4-2.4,5.4-5.4
			V-113c0-3,2.4-5.4,5.4-5.4H715c3,0,5.4,2.4,5.4,5.4v0c0,3,2.4,5.4,5.4,5.4h8.7c3,0,5.4-2.4,5.4-5.4V-153c0-3,2.4-5.4,5.4-5.4h13.8
			c3,0,5.4,2.4,5.4,5.4v20.5c0,3,2.4,5.4,5.4,5.4h11.7c3,0,5.4,2.4,5.4,5.4V-87c0,3,2.4,5.4,5.4,5.4h14.3c3,0,5.4-2.4,5.4-5.4v-10.7
			c0-3,2.4-5.4,5.4-5.4H835c3,0,5.4,2.4,5.4,5.4v44.2c0,3,2.4,5.4,5.4,5.4H859c3,0,5.4-2.4,5.4-5.4v-81c0-3,2.4-5.4,5.4-5.4H883
			c3,0,5.4,2.4,5.4,5.4V-24c0,3,2.4,5.4,5.4,5.4h15.7"/>
		<path class="st4" d="M909.4-16.9h-15.7c-3,0-5.4-2.4-5.4-5.4l0-105.7c0-3-2.4-5.4-5.4-5.4h-13.3c-3,0-5.4,2.4-5.4,5.4v81
			c0,3-2.4,5.4-5.4,5.4h-13.3c-3,0-5.4-2.4-5.4-5.4v-44.2c0-3-2.4-5.4-5.4-5.4h-17.9c-3,0-5.4,2.4-5.4,5.4v10.7c0,3-2.4,5.4-5.4,5.4
			h-14.3c-3,0-5.4-2.4-5.4-5.4v-34.7c0-3-2.4-5.4-5.4-5.4h-11.7c-3,0-5.4-2.4-5.4-5.4v-20.5c0-3-2.4-5.4-5.4-5.4h-13.8
			c-3,0-5.4,2.4-5.4,5.4v39.9c0,3-2.4,5.4-5.4,5.4h-8.7c-3,0-5.4-2.4-5.4-5.4v0c0-3-2.4-5.4-5.4-5.4h-19.7c-3,0-5.4,2.4-5.4,5.4
			v32.9c0,3-2.4,5.4-5.4,5.4h-11.7c-3,0-5.4-2.4-5.4-5.4v-16.6c0-3-2.4-5.4-5.4-5.4h-14.5c-3,0-5.4,2.4-5.4,5.4v18.9
			c0,3-2.4,5.4-5.4,5.4h-5.8c-3,0-5.4-2.4-5.4-5.4v-7.1c0-3-2.4-5.4-5.4-5.4h-30.8c-3,0-5.4,2.4-5.4,5.4v4.9c0,3-2.4,5.4-5.4,5.4
			h-20.3c-3,0-5.4-2.4-5.4-5.4v-4.9c0-3-2.4-5.4-5.4-5.4h-36.8c-3,0-5.4,2.4-5.4,5.4v22.9c0,3-2.4,5.4-5.4,5.4h-7
			c-3,0-5.4-2.4-5.4-5.4v-2.9c0-3-2.4-5.4-5.4-5.4h-22.5c-3,0-5.4-2.4-5.4-5.4V-104c0-3-2.4-5.4-5.4-5.4h-13.3c-3,0-5.4,2.4-5.4,5.4
			v5.1c0,3-2.4,5.4-5.4,5.4h-7.1c-3,0-5.4-2.4-5.4-5.4v-42.4c0-3-2.4-5.4-5.4-5.4h-15.8c-3,0-5.4,2.4-5.4,5.4v90.2
			c0,3-2.4,5.4-5.4,5.4h-8.7c-3,0-5.4-2.4-5.4-5.4v-35.1c0-3-2.4-5.4-5.4-5.4h-11.2c-3,0-5.4,2.4-5.4,5.4v14.8c0,3-2.4,5.4-5.4,5.4
			h-5.1c-3,0-5.4-2.4-5.4-5.4v-38.8c0-3-2.4-5.4-5.4-5.4h-9.1c-3,0-5.4,2.4-5.4,5.4v40.9c0,3-2.4,5.4-5.4,5.4h-10.3
			c-3,0-5.4-2.4-5.4-5.4V-128c0-3-2.4-5.4-5.4-5.4h-13.3c-3,0-5.4,2.4-5.4,5.4v81c0,3-2.4,5.4-5.4,5.4h-13.3c-3,0-5.4-2.4-5.4-5.4
			v-44.2c0-3-2.4-5.4-5.4-5.4h-17.9c-3,0-5.4,2.4-5.4,5.4v10.7c0,3-2.4,5.4-5.4,5.4h-14.3c-3,0-5.4-2.4-5.4-5.4v-34.7
			c0-3-2.4-5.4-5.4-5.4h-11.7c-3,0-5.4-2.4-5.4-5.4v-20.5c0-3-2.4-5.4-5.4-5.4h-13.8c-3,0-5.4,2.4-5.4,5.4v39.9c0,3-2.4,5.4-5.4,5.4
			h-8.7c-3,0-5.4-2.4-5.4-5.4v0c0-3-2.4-5.4-5.4-5.4H95.3c-3,0-5.4,2.4-5.4,5.4v32.9c0,3-2.4,5.4-5.4,5.4H72.9c-3,0-5.4-2.4-5.4-5.4
			v-16.6c0-3-2.4-5.4-5.4-5.4H47.7c-3,0-5.4,2.4-5.4,5.4v18.9c0,3-2.4,5.4-5.4,5.4h-5.8c-3,0-5.4-2.4-5.4-5.4v-7.1
			c0-3-2.4-5.4-5.4-5.4h-30.8c-3,0-5.4,2.4-5.4,5.4v4.9c0,3-2.4,5.4-5.4,5.4h-20.3c-3,0-5.4-2.4-5.4-5.4v-4.9c0-3-2.4-5.4-5.4-5.4
			h-36.8c-3,0-5.4,2.4-5.4,5.4v22.9c0,3-2.4,5.4-5.4,5.4h-7c-3,0-5.4-2.4-5.4-5.4v-2.9c0-3-2.4-5.4-5.4-5.4h-22.5
			c-3,0-5.4-2.4-5.4-5.4V-104c0-3-2.4-5.4-5.4-5.4h-13.3c-3,0-5.4,2.4-5.4,5.4v5.1c0,3-2.4,5.4-5.4,5.4h-7.1c-3,0-5.4-2.4-5.4-5.4
			v-42.4c0-3-2.4-5.4-5.4-5.4h-15.8c-3,0-5.4,2.4-5.4,5.4v90.2c0,3-2.4,5.4-5.4,5.4h-8.7c-3,0-5.4-2.4-5.4-5.4v-35.1
			c0-3-2.4-5.4-5.4-5.4h-11.2c-3,0-5.4,2.4-5.4,5.4v14.8c0,3-2.4,5.4-5.4,5.4h-5.1c-3,0-5.4-2.4-5.4-5.4v-38.8c0-3-2.4-5.4-5.4-5.4
			h-9.1c-3,0-5.4,2.4-5.4,5.4v93.2"/>
	</g>
	<polygon class="st5" points="9.4,-167.2 18.7,-177.5 18,-163.6 31.9,-164.3 21.6,-155 31.9,-145.7 18,-146.4 18.7,-132.5 
		9.4,-142.8 0.1,-132.5 0.8,-146.4 -13.1,-145.7 -2.7,-155 -13.1,-164.3 0.8,-163.6 0.1,-177.5 	"/>
	<g class="st2">
		<path class="st3" d="M25.9,93.7c-3.8,5-9.7,8.2-16.4,8.2c-11.4,0-20.6-9.2-20.6-20.6c0-11.4,9.2-20.6,20.6-20.6
			c6.7,0,12.7,3.2,16.4,8.2c-2-1.1-4.4-1.8-6.8-1.8c-7.8,0-14.2,6.3-14.2,14.2c0,7.8,6.3,14.2,14.2,14.2
			C21.5,95.5,23.8,94.8,25.9,93.7z"/>
		<path class="st3" d="M25.9,95.1c-3.8,5-9.7,8.2-16.4,8.2c-11.4,0-20.6-9.2-20.6-20.6c0-11.4,9.2-20.6,20.6-20.6
			c6.7,0,12.7,3.2,16.4,8.2c-2-1.1-4.4-1.8-6.8-1.8c-7.8,0-14.2,6.3-14.2,14.2c0,7.8,6.3,14.2,14.2,14.2
			C21.5,96.9,23.8,96.3,25.9,95.1z"/>
	</g>
	<rect x="-290.6" y="56.2" class="st6" width="600" height="50"/>
	<line class="st7" x1="-290.6" y1="56.2" x2="309.4" y2="56.2"/>
	<g class="st2">
		<g>
			<rect x="34.7" y="7" transform="matrix(0.7071 -0.7071 0.7071 0.7071 2.0665 28.6098)" class="st4" width="1.7" height="9.7"/>
			<rect x="31" y="3.5" transform="matrix(0.7071 0.7071 -0.7071 0.7071 15.2063 -20.1089)" class="st4" width="1.7" height="9.7"/>
		</g>
		<polygon class="st4" points="93.4,31.7 -61.7,31.7 -61.7,14.3 85.6,14.3 		"/>
		<polygon class="st4" points="46.8,14.3 40.1,-7.2 38,-7.2 38,14.3 		"/>
		<rect x="-61.7" y="31.7" class="st4" width="155.1" height="9.7"/>
		<polygon class="st4" points="0.5,14.3 0.5,7.2 3.3,7.2 6.8,14.3 		"/>
		<polygon class="st4" points="86.5,16.3 93.4,16.3 93.4,24.6 90.2,24.6 		"/>
		<rect x="-4.4" y="41.4" class="st4" width="42.4" height="4.3"/>
		<rect x="38" y="41.4" class="st4" width="27.3" height="2.2"/>
		<rect x="-48.6" y="41.4" class="st4" width="44.2" height="2.2"/>
		<rect x="-68.3" y="41.4" class="st4" width="19.8" height="4.1"/>
		<rect x="-78.6" y="42.6" class="st4" width="10.3" height="1.9"/>
		<rect x="3.7" y="14.3" class="st4" width="34.3" height="27.1"/>
		<line class="st4" x1="38" y1="36.5" x2="-18.2" y2="36.5"/>
		<rect x="-3" y="-2" class="st4" width="3.2" height="16.3"/>
		<rect x="-59.5" y="6.1" class="st4" width="25.6" height="8.1"/>
		<rect x="-62.1" y="-2" class="st4" width="25.6" height="8.1"/>
		<rect x="-61.7" y="-10.1" class="st4" width="25.6" height="8.1"/>
		<rect x="-57.9" y="-14.7" class="st4" width="22.4" height="4.5"/>
		<rect x="-48.8" y="-16.5" class="st4" width="3.5" height="30.8"/>
		<rect x="6.8" y="18.1" class="st4" width="8.2" height="1.5"/>
		<rect x="-63.8" y="32.9" class="st4" width="2" height="6.5"/>
		<rect x="93.4" y="31.7" class="st4" width="4.1" height="9.7"/>
		<polygon class="st4" points="97.5,41.4 93.4,45.7 79.4,45.7 79.4,41.4 		"/>
		<rect x="-33.9" y="-28.3" class="st4" width="30.9" height="42.6"/>
		<rect x="-19.2" y="-30.4" class="st4" width="3.5" height="44.7"/>
	</g>
	<g class="st2">
		<circle class="st4" cx="-32.2" cy="41.4" r="14.8"/>
		<circle class="st4" cx="-32.2" cy="41.4" r="11"/>
		<g>
			<line class="st8" x1="-32.2" y1="30.3" x2="-32.2" y2="52.4"/>
			<line class="st8" x1="-24.4" y1="33.5" x2="-40" y2="49.2"/>
			<line class="st8" x1="-21.2" y1="41.4" x2="-43.3" y2="41.4"/>
			<line class="st8" x1="-24.4" y1="49.2" x2="-40" y2="33.5"/>
		</g>
		<circle class="st4" cx="-32.2" cy="41.4" r="2.3"/>
	</g>
	<polygon class="st5" points="-96.7,46.6 -89.4,46.6 -89.4,44.9 -86.4,44.9 -86.4,43 -87.8,43 -87.8,40.1 -91.1,40.1 -91.1,41.1 
		-94,41.1 -94,38.1 -97.2,38.1 -97.2,40.1 -101.7,40.1 -101.7,43 -100.1,43 -100.1,44.8 -96.7,44.8 	"/>
	<g class="st2">
		<circle class="st9" cx="9.4" cy="-155.6" r="8.9"/>
		<circle class="st10" cx="9.4" cy="-154.4" r="8.9"/>
	</g>
</g>
<g class="st1">
	<g class="st2">
		<path d="M-290.6-18.4v-98.2c0-3,2.4-5.4,5.4-5.4h9.1c3,0,5.4,2.4,5.4,5.4v38.8c0,3,2.4,5.4,5.4,5.4h5.1c3,0,5.4-2.4,5.4-5.4v-14.8
			c0-3,2.4-5.4,5.4-5.4h11.2c3,0,5.4,2.4,5.4,5.4v35.1c0,3,2.4,5.4,5.4,5.4h8.7c3,0,5.4-2.4,5.4-5.4v-90.2c0-3,2.4-5.4,5.4-5.4h15.8
			c3,0,5.4,2.4,5.4,5.4v42.4c0,3,2.4,5.4,5.4,5.4h7.1c3,0,5.4-2.4,5.4-5.4v-5.1c0-3,2.4-5.4,5.4-5.4h13.3c3,0,5.4,2.4,5.4,5.4v34.7
			c0,3,2.4,5.4,5.4,5.4h22.5c3,0,5.4,2.4,5.4,5.4v2.9c0,3,2.4,5.4,5.4,5.4h7c3,0,5.4-2.4,5.4-5.4v-22.9c0-3,2.4-5.4,5.4-5.4H-52
			c3,0,5.4,2.4,5.4,5.4v4.9c0,3,2.4,5.4,5.4,5.4H-21c3,0,5.4-2.4,5.4-5.4v-4.9c0-3,2.4-5.4,5.4-5.4h30.8c3,0,5.4,2.4,5.4,5.4v7.1
			c0,3,2.4,5.4,5.4,5.4H37c3,0,5.4-2.4,5.4-5.4v-18.9c0-3,2.4-5.4,5.4-5.4h14.5c3,0,5.4,2.4,5.4,5.4v16.6c0,3,2.4,5.4,5.4,5.4h11.7
			c3,0,5.4-2.4,5.4-5.4V-113c0-3,2.4-5.4,5.4-5.4H115c3,0,5.4,2.4,5.4,5.4v0c0,3,2.4,5.4,5.4,5.4h8.7c3,0,5.4-2.4,5.4-5.4V-153
			c0-3,2.4-5.4,5.4-5.4h13.8c3,0,5.4,2.4,5.4,5.4v20.5c0,3,2.4,5.4,5.4,5.4h11.7c3,0,5.4,2.4,5.4,5.4V-87c0,3,2.4,5.4,5.4,5.4h14.3
			c3,0,5.4-2.4,5.4-5.4v-10.7c0-3,2.4-5.4,5.4-5.4H235c3,0,5.4,2.4,5.4,5.4v44.2c0,3,2.4,5.4,5.4,5.4H259c3,0,5.4-2.4,5.4-5.4v-81
			c0-3,2.4-5.4,5.4-5.4H283c3,0,5.4,2.4,5.4,5.4v58.7c0,3,2.4,5.4,5.4,5.4h10.3c3,0,5.4-2.4,5.4-5.4v-40.9c0-3,2.4-5.4,5.4-5.4h9.1
			c3,0,5.4,2.4,5.4,5.4v38.8c0,3,2.4,5.4,5.4,5.4h5.1c3,0,5.4-2.4,5.4-5.4v-14.8c0-3,2.4-5.4,5.4-5.4h11.2c3,0,5.4,2.4,5.4,5.4v35.1
			c0,3,2.4,5.4,5.4,5.4h8.7c3,0,5.4-2.4,5.4-5.4v-90.2c0-3,2.4-5.4,5.4-5.4h15.8c3,0,5.4,2.4,5.4,5.4v42.4c0,3,2.4,5.4,5.4,5.4h7.1
			c3,0,5.4-2.4,5.4-5.4v-5.1c0-3,2.4-5.4,5.4-5.4h13.3c3,0,5.4,2.4,5.4,5.4v34.7c0,3,2.4,5.4,5.4,5.4h22.5c3,0,5.4,2.4,5.4,5.4v2.9
			c0,3,2.4,5.4,5.4,5.4h7c3,0,5.4-2.4,5.4-5.4v-22.9c0-3,2.4-5.4,5.4-5.4H548c3,0,5.4,2.4,5.4,5.4v4.9c0,3,2.4,5.4,5.4,5.4H579
			c3,0,5.4-2.4,5.4-5.4v-4.9c0-3,2.4-5.4,5.4-5.4h30.8c3,0,5.4,2.4,5.4,5.4v7.1c0,3,2.4,5.4,5.4,5.4h5.8c3,0,5.4-2.4,5.4-5.4v-18.9
			c0-3,2.4-5.4,5.4-5.4h14.5c3,0,5.4,2.4,5.4,5.4v16.6c0,3,2.4,5.4,5.4,5.4h11.7c3,0,5.4-2.4,5.4-5.4V-113c0-3,2.4-5.4,5.4-5.4H715
			c3,0,5.4,2.4,5.4,5.4v0c0,3,2.4,5.4,5.4,5.4h8.7c3,0,5.4-2.4,5.4-5.4V-153c0-3,2.4-5.4,5.4-5.4h13.8c3,0,5.4,2.4,5.4,5.4v20.5
			c0,3,2.4,5.4,5.4,5.4h11.7c3,0,5.4,2.4,5.4,5.4V-87c0,3,2.4,5.4,5.4,5.4h14.3c3,0,5.4-2.4,5.4-5.4v-10.7c0-3,2.4-5.4,5.4-5.4H835
			c3,0,5.4,2.4,5.4,5.4v44.2c0,3,2.4,5.4,5.4,5.4H859c3,0,5.4-2.4,5.4-5.4v-81c0-3,2.4-5.4,5.4-5.4H883c3,0,5.4,2.4,5.4,5.4V-24
			c0,3,2.4,5.4,5.4,5.4h15.7"/>
		<path d="M-290.6-17.9c-0.3,0-0.5-0.2-0.5-0.5v-98.2c0-3.2,2.6-5.9,5.9-5.9h9.1c3.2,0,5.9,2.6,5.9,5.9v38.8c0,2.7,2.2,4.9,4.9,4.9
			h5.1c2.7,0,4.9-2.2,4.9-4.9v-14.8c0-3.2,2.6-5.9,5.9-5.9h11.2c3.2,0,5.9,2.6,5.9,5.9v35.1c0,2.7,2.2,4.9,4.9,4.9h8.7
			c2.7,0,4.9-2.2,4.9-4.9v-90.2c0-3.2,2.6-5.9,5.9-5.9h15.8c3.2,0,5.9,2.6,5.9,5.9v42.4c0,2.7,2.2,4.9,4.9,4.9h7.1
			c2.7,0,4.9-2.2,4.9-4.9v-5.1c0-3.2,2.6-5.9,5.9-5.9h13.3c3.2,0,5.9,2.6,5.9,5.9v34.7c0,2.7,2.2,4.9,4.9,4.9h22.5
			c3.2,0,5.9,2.6,5.9,5.9v2.9c0,2.7,2.2,4.9,4.9,4.9h7c2.7,0,4.9-2.2,4.9-4.9v-22.9c0-3.2,2.6-5.9,5.9-5.9H-52
			c3.2,0,5.9,2.6,5.9,5.9v4.9c0,2.7,2.2,4.9,4.9,4.9H-21c2.7,0,4.9-2.2,4.9-4.9v-4.9c0-3.2,2.6-5.9,5.9-5.9h30.8
			c3.2,0,5.9,2.6,5.9,5.9v7.1c0,2.7,2.2,4.9,4.9,4.9H37c2.7,0,4.9-2.2,4.9-4.9v-18.9c0-3.2,2.6-5.9,5.9-5.9h14.5
			c3.2,0,5.9,2.6,5.9,5.9v16.6c0,2.7,2.2,4.9,4.9,4.9h11.7c2.7,0,4.9-2.2,4.9-4.9V-113c0-3.2,2.6-5.9,5.9-5.9H115
			c3.2,0,5.9,2.6,5.9,5.9c0,2.7,2.2,4.9,4.9,4.9h8.7c2.7,0,4.9-2.2,4.9-4.9V-153c0-3.2,2.6-5.9,5.9-5.9h13.8c3.2,0,5.9,2.6,5.9,5.9
			v20.5c0,2.7,2.2,4.9,4.9,4.9h11.7c3.2,0,5.9,2.6,5.9,5.9V-87c0,2.7,2.2,4.9,4.9,4.9h14.3c2.7,0,4.9-2.2,4.9-4.9v-10.7
			c0-3.2,2.6-5.9,5.9-5.9H235c3.2,0,5.9,2.6,5.9,5.9v44.2c0,2.7,2.2,4.9,4.9,4.9H259c2.7,0,4.9-2.2,4.9-4.9v-81
			c0-3.2,2.6-5.9,5.9-5.9H283c3.2,0,5.9,2.6,5.9,5.9v58.7c0,2.7,2.2,4.9,4.9,4.9h10.3c2.7,0,4.9-2.2,4.9-4.9v-40.9
			c0-3.2,2.6-5.9,5.9-5.9h9.1c3.2,0,5.9,2.6,5.9,5.9v38.8c0,2.7,2.2,4.9,4.9,4.9h5.1c2.7,0,4.9-2.2,4.9-4.9v-14.8
			c0-3.2,2.6-5.9,5.9-5.9h11.2c3.2,0,5.9,2.6,5.9,5.9v35.1c0,2.7,2.2,4.9,4.9,4.9h8.7c2.7,0,4.9-2.2,4.9-4.9v-90.2
			c0-3.2,2.6-5.9,5.9-5.9h15.8c3.2,0,5.9,2.6,5.9,5.9v42.4c0,2.7,2.2,4.9,4.9,4.9h7.1c2.7,0,4.9-2.2,4.9-4.9v-5.1
			c0-3.2,2.6-5.9,5.9-5.9h13.3c3.2,0,5.9,2.6,5.9,5.9v34.7c0,2.7,2.2,4.9,4.9,4.9h22.5c3.2,0,5.9,2.6,5.9,5.9v2.9
			c0,2.7,2.2,4.9,4.9,4.9h7c2.7,0,4.9-2.2,4.9-4.9v-22.9c0-3.2,2.6-5.9,5.9-5.9H548c3.2,0,5.9,2.6,5.9,5.9v4.9
			c0,2.7,2.2,4.9,4.9,4.9H579c2.7,0,4.9-2.2,4.9-4.9v-4.9c0-3.2,2.6-5.9,5.9-5.9h30.8c3.2,0,5.9,2.6,5.9,5.9v7.1
			c0,2.7,2.2,4.9,4.9,4.9h5.8c2.7,0,4.9-2.2,4.9-4.9v-18.9c0-3.2,2.6-5.9,5.9-5.9h14.5c3.2,0,5.9,2.6,5.9,5.9v16.6
			c0,2.7,2.2,4.9,4.9,4.9h11.7c2.7,0,4.9-2.2,4.9-4.9V-113c0-3.2,2.6-5.9,5.9-5.9H715c3.2,0,5.9,2.6,5.9,5.9c0,2.7,2.2,4.9,4.9,4.9
			h8.7c2.7,0,4.9-2.2,4.9-4.9V-153c0-3.2,2.6-5.9,5.9-5.9h13.8c3.2,0,5.9,2.6,5.9,5.9v20.5c0,2.7,2.2,4.9,4.9,4.9h11.7
			c3.2,0,5.9,2.6,5.9,5.9V-87c0,2.7,2.2,4.9,4.9,4.9h14.3c2.7,0,4.9-2.2,4.9-4.9v-10.7c0-3.2,2.6-5.9,5.9-5.9H835
			c3.2,0,5.9,2.6,5.9,5.9v44.2c0,2.7,2.2,4.9,4.9,4.9H859c2.7,0,4.9-2.2,4.9-4.9v-81c0-3.2,2.6-5.9,5.9-5.9H883
			c3.2,0,5.9,2.6,5.9,5.9V-24c0,2.7,2.2,4.9,4.9,4.9h15.7c0.3,0,0.5,0.2,0.5,0.5s-0.2,0.5-0.5,0.5h-15.7c-3.2,0-5.9-2.6-5.9-5.9
			v-110.4c0-2.7-2.2-4.9-4.9-4.9h-13.3c-2.7,0-4.9,2.2-4.9,4.9v81c0,3.2-2.6,5.9-5.9,5.9h-13.3c-3.2,0-5.9-2.6-5.9-5.9v-44.2
			c0-2.7-2.2-4.9-4.9-4.9h-17.9c-2.7,0-4.9,2.2-4.9,4.9V-87c0,3.2-2.6,5.9-5.9,5.9h-14.3c-3.2,0-5.9-2.6-5.9-5.9v-34.7
			c0-2.7-2.2-4.9-4.9-4.9h-11.7c-3.2,0-5.9-2.6-5.9-5.9V-153c0-2.7-2.2-4.9-4.9-4.9h-13.8c-2.7,0-4.9,2.2-4.9,4.9v39.9
			c0,3.2-2.6,5.9-5.9,5.9h-8.7c-3.2,0-5.9-2.6-5.9-5.9c0-2.7-2.2-4.9-4.9-4.9h-19.7c-2.7,0-4.9,2.2-4.9,4.9v32.9
			c0,3.2-2.6,5.9-5.9,5.9h-11.7c-3.2,0-5.9-2.6-5.9-5.9v-16.6c0-2.7-2.2-4.9-4.9-4.9h-14.5c-2.7,0-4.9,2.2-4.9,4.9v18.9
			c0,3.2-2.6,5.9-5.9,5.9h-5.8c-3.2,0-5.9-2.6-5.9-5.9v-7.1c0-2.7-2.2-4.9-4.9-4.9h-30.8c-2.7,0-4.9,2.2-4.9,4.9v4.9
			c0,3.2-2.6,5.9-5.9,5.9h-20.3c-3.2,0-5.9-2.6-5.9-5.9v-4.9c0-2.7-2.2-4.9-4.9-4.9h-36.8c-2.7,0-4.9,2.2-4.9,4.9v22.9
			c0,3.2-2.6,5.9-5.9,5.9h-7c-3.2,0-5.9-2.6-5.9-5.9V-65c0-2.7-2.2-4.9-4.9-4.9h-22.5c-3.2,0-5.9-2.6-5.9-5.9v-34.7
			c0-2.7-2.2-4.9-4.9-4.9h-13.3c-2.7,0-4.9,2.2-4.9,4.9v5.1c0,3.2-2.6,5.9-5.9,5.9h-7.1c-3.2,0-5.9-2.6-5.9-5.9v-42.4
			c0-2.7-2.2-4.9-4.9-4.9h-15.8c-2.7,0-4.9,2.2-4.9,4.9v90.2c0,3.2-2.6,5.9-5.9,5.9h-8.7c-3.2,0-5.9-2.6-5.9-5.9v-35.1
			c0-2.7-2.2-4.9-4.9-4.9h-11.2c-2.7,0-4.9,2.2-4.9,4.9v14.8c0,3.2-2.6,5.9-5.9,5.9h-5.1c-3.2,0-5.9-2.6-5.9-5.9v-38.8
			c0-2.7-2.2-4.9-4.9-4.9h-9.1c-2.7,0-4.9,2.2-4.9,4.9v40.9c0,3.2-2.6,5.9-5.9,5.9h-10.3c-3.2,0-5.9-2.6-5.9-5.9v-58.7
			c0-2.7-2.2-4.9-4.9-4.9h-13.3c-2.7,0-4.9,2.2-4.9,4.9v81c0,3.2-2.6,5.9-5.9,5.9h-13.3c-3.2,0-5.9-2.6-5.9-5.9v-44.2
			c0-2.7-2.2-4.9-4.9-4.9h-17.9c-2.7,0-4.9,2.2-4.9,4.9V-87c0,3.2-2.6,5.9-5.9,5.9h-14.3c-3.2,0-5.9-2.6-5.9-5.9v-34.7
			c0-2.7-2.2-4.9-4.9-4.9h-11.7c-3.2,0-5.9-2.6-5.9-5.9V-153c0-2.7-2.2-4.9-4.9-4.9h-13.8c-2.7,0-4.9,2.2-4.9,4.9v39.9
			c0,3.2-2.6,5.9-5.9,5.9h-8.7c-3.2,0-5.9-2.6-5.9-5.9c0-2.7-2.2-4.9-4.9-4.9H95.3c-2.7,0-4.9,2.2-4.9,4.9v32.9
			c0,3.2-2.6,5.9-5.9,5.9H72.9c-3.2,0-5.9-2.6-5.9-5.9v-16.6c0-2.7-2.2-4.9-4.9-4.9H47.7c-2.7,0-4.9,2.2-4.9,4.9v18.9
			c0,3.2-2.6,5.9-5.9,5.9h-5.8c-3.2,0-5.9-2.6-5.9-5.9v-7.1c0-2.7-2.2-4.9-4.9-4.9h-30.8c-2.7,0-4.9,2.2-4.9,4.9v4.9
			c0,3.2-2.6,5.9-5.9,5.9h-20.3c-3.2,0-5.9-2.6-5.9-5.9v-4.9c0-2.7-2.2-4.9-4.9-4.9h-36.8c-2.7,0-4.9,2.2-4.9,4.9v22.9
			c0,3.2-2.6,5.9-5.9,5.9h-7c-3.2,0-5.9-2.6-5.9-5.9V-65c0-2.7-2.2-4.9-4.9-4.9h-22.5c-3.2,0-5.9-2.6-5.9-5.9v-34.7
			c0-2.7-2.2-4.9-4.9-4.9h-13.3c-2.7,0-4.9,2.2-4.9,4.9v5.1c0,3.2-2.6,5.9-5.9,5.9h-7.1c-3.2,0-5.9-2.6-5.9-5.9v-42.4
			c0-2.7-2.2-4.9-4.9-4.9h-15.8c-2.7,0-4.9,2.2-4.9,4.9v90.2c0,3.2-2.6,5.9-5.9,5.9h-8.7c-3.2,0-5.9-2.6-5.9-5.9v-35.1
			c0-2.7-2.2-4.9-4.9-4.9h-11.2c-2.7,0-4.9,2.2-4.9,4.9v14.8c0,3.2-2.6,5.9-5.9,5.9h-5.1c-3.2,0-5.9-2.6-5.9-5.9v-38.8
			c0-2.7-2.2-4.9-4.9-4.9h-9.1c-2.7,0-4.9,2.2-4.9,4.9v98.2C-290.1-18.1-290.3-17.9-290.6-17.9z"/>
	</g>
	<g class="st2">
		<path class="st11" d="M909.4-16.9h-15.7c-3,0-5.4-2.4-5.4-5.4l0-105.7c0-3-2.4-5.4-5.4-5.4h-13.3c-3,0-5.4,2.4-5.4,5.4v81
			c0,3-2.4,5.4-5.4,5.4h-13.3c-3,0-5.4-2.4-5.4-5.4v-44.2c0-3-2.4-5.4-5.4-5.4h-17.9c-3,0-5.4,2.4-5.4,5.4v10.7c0,3-2.4,5.4-5.4,5.4
			h-14.3c-3,0-5.4-2.4-5.4-5.4v-34.7c0-3-2.4-5.4-5.4-5.4h-11.7c-3,0-5.4-2.4-5.4-5.4v-20.5c0-3-2.4-5.4-5.4-5.4h-13.8
			c-3,0-5.4,2.4-5.4,5.4v39.9c0,3-2.4,5.4-5.4,5.4h-8.7c-3,0-5.4-2.4-5.4-5.4v0c0-3-2.4-5.4-5.4-5.4h-19.7c-3,0-5.4,2.4-5.4,5.4
			v32.9c0,3-2.4,5.4-5.4,5.4h-11.7c-3,0-5.4-2.4-5.4-5.4v-16.6c0-3-2.4-5.4-5.4-5.4h-14.5c-3,0-5.4,2.4-5.4,5.4v18.9
			c0,3-2.4,5.4-5.4,5.4h-5.8c-3,0-5.4-2.4-5.4-5.4v-7.1c0-3-2.4-5.4-5.4-5.4h-30.8c-3,0-5.4,2.4-5.4,5.4v4.9c0,3-2.4,5.4-5.4,5.4
			h-20.3c-3,0-5.4-2.4-5.4-5.4v-4.9c0-3-2.4-5.4-5.4-5.4h-36.8c-3,0-5.4,2.4-5.4,5.4v22.9c0,3-2.4,5.4-5.4,5.4h-7
			c-3,0-5.4-2.4-5.4-5.4v-2.9c0-3-2.4-5.4-5.4-5.4h-22.5c-3,0-5.4-2.4-5.4-5.4V-104c0-3-2.4-5.4-5.4-5.4h-13.3c-3,0-5.4,2.4-5.4,5.4
			v5.1c0,3-2.4,5.4-5.4,5.4h-7.1c-3,0-5.4-2.4-5.4-5.4v-42.4c0-3-2.4-5.4-5.4-5.4h-15.8c-3,0-5.4,2.4-5.4,5.4v90.2
			c0,3-2.4,5.4-5.4,5.4h-8.7c-3,0-5.4-2.4-5.4-5.4v-35.1c0-3-2.4-5.4-5.4-5.4h-11.2c-3,0-5.4,2.4-5.4,5.4v14.8c0,3-2.4,5.4-5.4,5.4
			h-5.1c-3,0-5.4-2.4-5.4-5.4v-38.8c0-3-2.4-5.4-5.4-5.4h-9.1c-3,0-5.4,2.4-5.4,5.4v40.9c0,3-2.4,5.4-5.4,5.4h-10.3
			c-3,0-5.4-2.4-5.4-5.4V-128c0-3-2.4-5.4-5.4-5.4h-13.3c-3,0-5.4,2.4-5.4,5.4v81c0,3-2.4,5.4-5.4,5.4h-13.3c-3,0-5.4-2.4-5.4-5.4
			v-44.2c0-3-2.4-5.4-5.4-5.4h-17.9c-3,0-5.4,2.4-5.4,5.4v10.7c0,3-2.4,5.4-5.4,5.4h-14.3c-3,0-5.4-2.4-5.4-5.4v-34.7
			c0-3-2.4-5.4-5.4-5.4h-11.7c-3,0-5.4-2.4-5.4-5.4v-20.5c0-3-2.4-5.4-5.4-5.4h-13.8c-3,0-5.4,2.4-5.4,5.4v39.9c0,3-2.4,5.4-5.4,5.4
			h-8.7c-3,0-5.4-2.4-5.4-5.4v0c0-3-2.4-5.4-5.4-5.4H95.3c-3,0-5.4,2.4-5.4,5.4v32.9c0,3-2.4,5.4-5.4,5.4H72.9c-3,0-5.4-2.4-5.4-5.4
			v-16.6c0-3-2.4-5.4-5.4-5.4H47.7c-3,0-5.4,2.4-5.4,5.4v18.9c0,3-2.4,5.4-5.4,5.4h-5.8c-3,0-5.4-2.4-5.4-5.4v-7.1
			c0-3-2.4-5.4-5.4-5.4h-30.8c-3,0-5.4,2.4-5.4,5.4v4.9c0,3-2.4,5.4-5.4,5.4h-20.3c-3,0-5.4-2.4-5.4-5.4v-4.9c0-3-2.4-5.4-5.4-5.4
			h-36.8c-3,0-5.4,2.4-5.4,5.4v22.9c0,3-2.4,5.4-5.4,5.4h-7c-3,0-5.4-2.4-5.4-5.4v-2.9c0-3-2.4-5.4-5.4-5.4h-22.5
			c-3,0-5.4-2.4-5.4-5.4V-104c0-3-2.4-5.4-5.4-5.4h-13.3c-3,0-5.4,2.4-5.4,5.4v5.1c0,3-2.4,5.4-5.4,5.4h-7.1c-3,0-5.4-2.4-5.4-5.4
			v-42.4c0-3-2.4-5.4-5.4-5.4h-15.8c-3,0-5.4,2.4-5.4,5.4v90.2c0,3-2.4,5.4-5.4,5.4h-8.7c-3,0-5.4-2.4-5.4-5.4v-35.1
			c0-3-2.4-5.4-5.4-5.4h-11.2c-3,0-5.4,2.4-5.4,5.4v14.8c0,3-2.4,5.4-5.4,5.4h-5.1c-3,0-5.4-2.4-5.4-5.4v-38.8c0-3-2.4-5.4-5.4-5.4
			h-9.1c-3,0-5.4,2.4-5.4,5.4v93.2"/>
		<path d="M909.4-16.4h-15.7c-3.2,0-5.9-2.6-5.9-5.9l0-105.7c0-2.7-2.2-4.9-4.9-4.9h-13.3c-2.7,0-4.9,2.2-4.9,4.9v81
			c0,3.2-2.6,5.9-5.9,5.9h-13.3c-3.2,0-5.9-2.6-5.9-5.9v-44.2c0-2.7-2.2-4.9-4.9-4.9h-17.9c-2.7,0-4.9,2.2-4.9,4.9v10.7
			c0,3.2-2.6,5.9-5.9,5.9h-14.3c-3.2,0-5.9-2.6-5.9-5.9v-34.7c0-2.7-2.2-4.9-4.9-4.9h-11.7c-3.2,0-5.9-2.6-5.9-5.9v-20.5
			c0-2.7-2.2-4.9-4.9-4.9h-13.8c-2.7,0-4.9,2.2-4.9,4.9v39.9c0,3.2-2.6,5.9-5.9,5.9h-8.7c-3.2,0-5.9-2.6-5.9-5.9
			c0-2.7-2.2-4.9-4.9-4.9h-19.7c-2.7,0-4.9,2.2-4.9,4.9v32.9c0,3.2-2.6,5.9-5.9,5.9h-11.7c-3.2,0-5.9-2.6-5.9-5.9v-16.6
			c0-2.7-2.2-4.9-4.9-4.9h-14.5c-2.7,0-4.9,2.2-4.9,4.9v18.9c0,3.2-2.6,5.9-5.9,5.9h-5.8c-3.2,0-5.9-2.6-5.9-5.9v-7.1
			c0-2.7-2.2-4.9-4.9-4.9h-30.8c-2.7,0-4.9,2.2-4.9,4.9v4.9c0,3.2-2.6,5.9-5.9,5.9h-20.3c-3.2,0-5.9-2.6-5.9-5.9v-4.9
			c0-2.7-2.2-4.9-4.9-4.9h-36.8c-2.7,0-4.9,2.2-4.9,4.9v22.9c0,3.2-2.6,5.9-5.9,5.9h-7c-3.2,0-5.9-2.6-5.9-5.9v-2.9
			c0-2.7-2.2-4.9-4.9-4.9h-22.5c-3.2,0-5.9-2.6-5.9-5.9V-104c0-2.7-2.2-4.9-4.9-4.9h-13.3c-2.7,0-4.9,2.2-4.9,4.9v5.1
			c0,3.2-2.6,5.9-5.9,5.9h-7.1c-3.2,0-5.9-2.6-5.9-5.9v-42.4c0-2.7-2.2-4.9-4.9-4.9h-15.8c-2.7,0-4.9,2.2-4.9,4.9v90.2
			c0,3.2-2.6,5.9-5.9,5.9h-8.7c-3.2,0-5.9-2.6-5.9-5.9v-35.1c0-2.7-2.2-4.9-4.9-4.9h-11.2c-2.7,0-4.9,2.2-4.9,4.9v14.8
			c0,3.2-2.6,5.9-5.9,5.9h-5.1c-3.2,0-5.9-2.6-5.9-5.9v-38.8c0-2.7-2.2-4.9-4.9-4.9h-9.1c-2.7,0-4.9,2.2-4.9,4.9v40.9
			c0,3.2-2.6,5.9-5.9,5.9h-10.3c-3.2,0-5.9-2.6-5.9-5.9V-128c0-2.7-2.2-4.9-4.9-4.9h-13.3c-2.7,0-4.9,2.2-4.9,4.9v81
			c0,3.2-2.6,5.9-5.9,5.9h-13.3c-3.2,0-5.9-2.6-5.9-5.9v-44.2c0-2.7-2.2-4.9-4.9-4.9h-17.9c-2.7,0-4.9,2.2-4.9,4.9v10.7
			c0,3.2-2.6,5.9-5.9,5.9h-14.3c-3.2,0-5.9-2.6-5.9-5.9v-34.7c0-2.7-2.2-4.9-4.9-4.9h-11.7c-3.2,0-5.9-2.6-5.9-5.9v-20.5
			c0-2.7-2.2-4.9-4.9-4.9h-13.8c-2.7,0-4.9,2.2-4.9,4.9v39.9c0,3.2-2.6,5.9-5.9,5.9h-8.7c-3.2,0-5.9-2.6-5.9-5.9
			c0-2.7-2.2-4.9-4.9-4.9H95.3c-2.7,0-4.9,2.2-4.9,4.9v32.9c0,3.2-2.6,5.9-5.9,5.9H72.9c-3.2,0-5.9-2.6-5.9-5.9v-16.6
			c0-2.7-2.2-4.9-4.9-4.9H47.7c-2.7,0-4.9,2.2-4.9,4.9v18.9c0,3.2-2.6,5.9-5.9,5.9h-5.8c-3.2,0-5.9-2.6-5.9-5.9v-7.1
			c0-2.7-2.2-4.9-4.9-4.9h-30.8c-2.7,0-4.9,2.2-4.9,4.9v4.9c0,3.2-2.6,5.9-5.9,5.9h-20.3c-3.2,0-5.9-2.6-5.9-5.9v-4.9
			c0-2.7-2.2-4.9-4.9-4.9h-36.8c-2.7,0-4.9,2.2-4.9,4.9v22.9c0,3.2-2.6,5.9-5.9,5.9h-7c-3.2,0-5.9-2.6-5.9-5.9v-2.9
			c0-2.7-2.2-4.9-4.9-4.9h-22.5c-3.2,0-5.9-2.6-5.9-5.9V-104c0-2.7-2.2-4.9-4.9-4.9h-13.3c-2.7,0-4.9,2.2-4.9,4.9v5.1
			c0,3.2-2.6,5.9-5.9,5.9h-7.1c-3.2,0-5.9-2.6-5.9-5.9v-42.4c0-2.7-2.2-4.9-4.9-4.9h-15.8c-2.7,0-4.9,2.2-4.9,4.9v90.2
			c0,3.2-2.6,5.9-5.9,5.9h-8.7c-3.2,0-5.9-2.6-5.9-5.9v-35.1c0-2.7-2.2-4.9-4.9-4.9h-11.2c-2.7,0-4.9,2.2-4.9,4.9v14.8
			c0,3.2-2.6,5.9-5.9,5.9h-5.1c-3.2,0-5.9-2.6-5.9-5.9v-38.8c0-2.7-2.2-4.9-4.9-4.9h-9.1c-2.7,0-4.9,2.2-4.9,4.9v93.2
			c0,0.3-0.2,0.5-0.5,0.5s-0.5-0.2-0.5-0.5v-93.2c0-3.2,2.6-5.9,5.9-5.9h9.1c3.2,0,5.9,2.6,5.9,5.9v38.8c0,2.7,2.2,4.9,4.9,4.9h5.1
			c2.7,0,4.9-2.2,4.9-4.9v-14.8c0-3.2,2.6-5.9,5.9-5.9h11.2c3.2,0,5.9,2.6,5.9,5.9v35.1c0,2.7,2.2,4.9,4.9,4.9h8.7
			c2.7,0,4.9-2.2,4.9-4.9v-90.2c0-3.2,2.6-5.9,5.9-5.9h15.8c3.2,0,5.9,2.6,5.9,5.9v42.4c0,2.7,2.2,4.9,4.9,4.9h7.1
			c2.7,0,4.9-2.2,4.9-4.9v-5.1c0-3.2,2.6-5.9,5.9-5.9h13.3c3.2,0,5.9,2.6,5.9,5.9v34.7c0,2.7,2.2,4.9,4.9,4.9h22.5
			c3.2,0,5.9,2.6,5.9,5.9v2.9c0,2.7,2.2,4.9,4.9,4.9h7c2.7,0,4.9-2.2,4.9-4.9v-22.9c0-3.2,2.6-5.9,5.9-5.9H-52
			c3.2,0,5.9,2.6,5.9,5.9v4.9c0,2.7,2.2,4.9,4.9,4.9H-21c2.7,0,4.9-2.2,4.9-4.9v-4.9c0-3.2,2.6-5.9,5.9-5.9h30.8
			c3.2,0,5.9,2.6,5.9,5.9v7.1c0,2.7,2.2,4.9,4.9,4.9H37c2.7,0,4.9-2.2,4.9-4.9v-18.9c0-3.2,2.6-5.9,5.9-5.9h14.5
			c3.2,0,5.9,2.6,5.9,5.9v16.6c0,2.7,2.2,4.9,4.9,4.9h11.7c2.7,0,4.9-2.2,4.9-4.9v-32.9c0-3.2,2.6-5.9,5.9-5.9H115
			c3.2,0,5.9,2.6,5.9,5.9c0,2.7,2.2,4.9,4.9,4.9h8.7c2.7,0,4.9-2.2,4.9-4.9v-39.9c0-3.2,2.6-5.9,5.9-5.9h13.8c3.2,0,5.9,2.6,5.9,5.9
			v20.5c0,2.7,2.2,4.9,4.9,4.9h11.7c3.2,0,5.9,2.6,5.9,5.9v34.7c0,2.7,2.2,4.9,4.9,4.9h14.3c2.7,0,4.9-2.2,4.9-4.9v-10.7
			c0-3.2,2.6-5.9,5.9-5.9H235c3.2,0,5.9,2.6,5.9,5.9V-47c0,2.7,2.2,4.9,4.9,4.9H259c2.7,0,4.9-2.2,4.9-4.9v-81
			c0-3.2,2.6-5.9,5.9-5.9H283c3.2,0,5.9,2.6,5.9,5.9v58.7c0,2.7,2.2,4.9,4.9,4.9h10.3c2.7,0,4.9-2.2,4.9-4.9v-40.9
			c0-3.2,2.6-5.9,5.9-5.9h9.1c3.2,0,5.9,2.6,5.9,5.9v38.8c0,2.7,2.2,4.9,4.9,4.9h5.1c2.7,0,4.9-2.2,4.9-4.9v-14.8
			c0-3.2,2.6-5.9,5.9-5.9h11.2c3.2,0,5.9,2.6,5.9,5.9v35.1c0,2.7,2.2,4.9,4.9,4.9h8.7c2.7,0,4.9-2.2,4.9-4.9v-90.2
			c0-3.2,2.6-5.9,5.9-5.9h15.8c3.2,0,5.9,2.6,5.9,5.9v42.4c0,2.7,2.2,4.9,4.9,4.9h7.1c2.7,0,4.9-2.2,4.9-4.9v-5.1
			c0-3.2,2.6-5.9,5.9-5.9h13.3c3.2,0,5.9,2.6,5.9,5.9v34.7c0,2.7,2.2,4.9,4.9,4.9h22.5c3.2,0,5.9,2.6,5.9,5.9v2.9
			c0,2.7,2.2,4.9,4.9,4.9h7c2.7,0,4.9-2.2,4.9-4.9v-22.9c0-3.2,2.6-5.9,5.9-5.9H548c3.2,0,5.9,2.6,5.9,5.9v4.9
			c0,2.7,2.2,4.9,4.9,4.9H579c2.7,0,4.9-2.2,4.9-4.9v-4.9c0-3.2,2.6-5.9,5.9-5.9h30.8c3.2,0,5.9,2.6,5.9,5.9v7.1
			c0,2.7,2.2,4.9,4.9,4.9h5.8c2.7,0,4.9-2.2,4.9-4.9v-18.9c0-3.2,2.6-5.9,5.9-5.9h14.5c3.2,0,5.9,2.6,5.9,5.9v16.6
			c0,2.7,2.2,4.9,4.9,4.9h11.7c2.7,0,4.9-2.2,4.9-4.9v-32.9c0-3.2,2.6-5.9,5.9-5.9H715c3.2,0,5.9,2.6,5.9,5.9c0,2.7,2.2,4.9,4.9,4.9
			h8.7c2.7,0,4.9-2.2,4.9-4.9v-39.9c0-3.2,2.6-5.9,5.9-5.9h13.8c3.2,0,5.9,2.6,5.9,5.9v20.5c0,2.7,2.2,4.9,4.9,4.9h11.7
			c3.2,0,5.9,2.6,5.9,5.9v34.7c0,2.7,2.2,4.9,4.9,4.9h14.3c2.7,0,4.9-2.2,4.9-4.9v-10.7c0-3.2,2.6-5.9,5.9-5.9H835
			c3.2,0,5.9,2.6,5.9,5.9V-47c0,2.7,2.2,4.9,4.9,4.9H859c2.7,0,4.9-2.2,4.9-4.9v-81c0-3.2,2.6-5.9,5.9-5.9H883
			c3.2,0,5.9,2.6,5.9,5.9l0,105.7c0,2.7,2.2,4.9,4.9,4.9h15.7c0.3,0,0.5,0.2,0.5,0.5S909.7-16.4,909.4-16.4z"/>
	</g>
</g>
<g class="st1">
	<g class="st2">
		<path d="M25.9,18.7c-3.8,5-9.7,8.2-16.4,8.2c-11.4,0-20.6-9.2-20.6-20.6c0-11.4,9.2-20.6,20.6-20.6c6.7,0,12.7,3.2,16.4,8.2
			c-2-1.1-4.4-1.8-6.8-1.8C11.2-7.9,4.8-1.5,4.8,6.3c0,7.8,6.3,14.2,14.2,14.2C21.5,20.5,23.8,19.8,25.9,18.7z"/>
		<path d="M9.4,27.4c-11.6,0-21.1-9.5-21.1-21.1c0-11.6,9.5-21.1,21.1-21.1c6.7,0,12.8,3,16.8,8.4c0.1,0.2,0.1,0.4,0,0.6
			s-0.4,0.2-0.6,0.1c-2-1.1-4.3-1.7-6.6-1.7C11.5-7.4,5.3-1.3,5.3,6.3S11.5,20,19,20c2.3,0,4.6-0.6,6.6-1.7c0.2-0.1,0.5-0.1,0.6,0.1
			s0.2,0.4,0,0.6C22.2,24.3,16.1,27.4,9.4,27.4z M9.4-13.8c-11.1,0-20.1,9-20.1,20.1c0,11.1,9,20.1,20.1,20.1
			c5.6,0,10.8-2.3,14.6-6.3C22.4,20.7,20.7,21,19,21C10.9,21,4.3,14.4,4.3,6.3S10.9-8.4,19-8.4c1.7,0,3.4,0.3,5,0.9
			C20.3-11.5,15-13.8,9.4-13.8z"/>
	</g>
	<g class="st2">
		<path d="M25.9,20.1c-3.8,5-9.7,8.2-16.4,8.2c-11.4,0-20.6-9.2-20.6-20.6c0-11.4,9.2-20.6,20.6-20.6c6.7,0,12.7,3.2,16.4,8.2
			c-2-1.1-4.4-1.8-6.8-1.8C11.2-6.5,4.8-0.1,4.8,7.7c0,7.8,6.3,14.2,14.2,14.2C21.5,21.9,23.8,21.3,25.9,20.1z"/>
		<path d="M9.4,28.8c-11.6,0-21.1-9.5-21.1-21.1c0-11.6,9.5-21.1,21.1-21.1c6.7,0,12.8,3,16.8,8.4c0.1,0.2,0.1,0.4,0,0.6
			c-0.2,0.2-0.4,0.2-0.6,0.1C23.6-5.4,21.3-6,19-6C11.5-6,5.3,0.2,5.3,7.7c0,7.5,6.1,13.7,13.7,13.7c2.3,0,4.6-0.6,6.6-1.7
			c0.2-0.1,0.5-0.1,0.6,0.1c0.2,0.2,0.2,0.4,0,0.6C22.2,25.8,16.1,28.8,9.4,28.8z M9.4-12.4c-11.1,0-20.1,9-20.1,20.1
			c0,11.1,9,20.1,20.1,20.1c5.6,0,10.8-2.3,14.6-6.3c-1.6,0.6-3.3,0.9-5.1,0.9c-8.1,0-14.7-6.6-14.7-14.7S10.9-7,19-7
			c1.7,0,3.4,0.3,5,0.9C20.3-10.1,15-12.4,9.4-12.4z"/>
	</g>
</g>
<g class="st1">
	<rect x="-290.6" y="56.2" class="st6" width="600" height="50"/>
</g>
<g class="st1">
	<path class="st2" d="M309.4,56.7h-600c-0.3,0-0.5-0.2-0.5-0.5s0.2-0.5,0.5-0.5h600c0.3,0,0.5,0.2,0.5,0.5S309.7,56.7,309.4,56.7z"
		/>
</g>
<g class="st1">
	<g class="st2">
		<g>
			<rect x="34.7" y="7" transform="matrix(0.7071 -0.7071 0.7071 0.7071 2.0665 28.6098)" class="st11" width="1.7" height="9.7"/>
			<path d="M38.4,16.3c-0.1,0-0.3,0-0.4-0.1l-6.9-6.9C31.1,9.2,31,9.1,31,9s0.1-0.3,0.1-0.4l1.2-1.2c0.2-0.2,0.5-0.2,0.7,0l6.9,6.9
				c0.1,0.1,0.1,0.2,0.1,0.4S40,14.9,40,15l-1.2,1.2C38.7,16.3,38.5,16.3,38.4,16.3z M32.2,9l6.2,6.2l0.5-0.5l-6.2-6.2L32.2,9z"/>
		</g>
		<g>
			
				<rect x="31" y="3.5" transform="matrix(0.7071 0.7071 -0.7071 0.7071 15.2063 -20.1089)" class="st11" width="1.7" height="9.7"/>
			<path d="M29,12.8c-0.1,0-0.3,0-0.4-0.1l-1.2-1.2c-0.2-0.2-0.2-0.5,0-0.7l6.9-6.9c0.2-0.2,0.5-0.2,0.7,0l1.2,1.2
				c0.2,0.2,0.2,0.5,0,0.7l-6.9,6.9C29.3,12.8,29.2,12.8,29,12.8z M28.6,11.1l0.5,0.5l6.2-6.2L34.7,5L28.6,11.1z"/>
		</g>
	</g>
	<g class="st2">
		<polygon class="st11" points="93.4,31.7 -61.7,31.7 -61.7,14.3 85.6,14.3 		"/>
		<path d="M93.4,32.2H-61.7c-0.3,0-0.5-0.2-0.5-0.5V14.3c0-0.3,0.2-0.5,0.5-0.5H85.6c0.2,0,0.4,0.1,0.5,0.3l7.8,17.4
			c0.1,0.2,0.1,0.3,0,0.5C93.7,32.1,93.6,32.2,93.4,32.2z M-61.2,31.2H92.6l-7.3-16.4H-61.2V31.2z"/>
	</g>
	<g class="st2">
		<polygon class="st11" points="46.8,14.3 40.1,-7.2 38,-7.2 38,14.3 		"/>
		<path d="M46.8,14.8H38c-0.3,0-0.5-0.2-0.5-0.5V-7.2c0-0.3,0.2-0.5,0.5-0.5h2.1c0.2,0,0.4,0.1,0.5,0.4l6.6,21.4
			c0,0.2,0,0.3-0.1,0.4C47.1,14.7,46.9,14.8,46.8,14.8z M38.5,13.8h7.6L39.8-6.7h-1.3V13.8z"/>
	</g>
	<g class="st2">
		<rect x="-61.7" y="31.7" class="st11" width="155.1" height="9.7"/>
		<path d="M93.4,41.9H-61.7c-0.3,0-0.5-0.2-0.5-0.5v-9.7c0-0.3,0.2-0.5,0.5-0.5H93.4c0.3,0,0.5,0.2,0.5,0.5v9.7
			C93.9,41.6,93.7,41.9,93.4,41.9z M-61.2,40.9H92.9v-8.7H-61.2V40.9z"/>
	</g>
	<g class="st2">
		<polygon class="st11" points="0.5,14.3 0.5,7.2 3.3,7.2 6.8,14.3 		"/>
		<path d="M6.8,14.8H0.5c-0.3,0-0.5-0.2-0.5-0.5V7.2c0-0.3,0.2-0.5,0.5-0.5h2.7c0.2,0,0.4,0.1,0.4,0.3l3.6,7.1
			c0.1,0.2,0.1,0.3,0,0.5C7.2,14.7,7,14.8,6.8,14.8z M1,13.8h5L2.9,7.7H1V13.8z"/>
	</g>
	<g class="st2">
		<polygon class="st11" points="86.5,16.3 93.4,16.3 93.4,24.6 90.2,24.6 		"/>
		<path d="M93.4,25.1h-3.1c-0.2,0-0.4-0.1-0.5-0.3L86,16.5c-0.1-0.2-0.1-0.3,0-0.5c0.1-0.1,0.3-0.2,0.4-0.2h6.9
			c0.3,0,0.5,0.2,0.5,0.5v8.4C93.9,24.9,93.7,25.1,93.4,25.1z M90.6,24.1h2.3v-7.4h-5.6L90.6,24.1z"/>
	</g>
	<g class="st2">
		<rect x="-4.4" y="41.4" class="st11" width="42.4" height="4.3"/>
		<path d="M38,46.2H-4.4c-0.3,0-0.5-0.2-0.5-0.5v-4.3c0-0.3,0.2-0.5,0.5-0.5H38c0.3,0,0.5,0.2,0.5,0.5v4.3
			C38.5,46,38.3,46.2,38,46.2z M-3.9,45.2h41.4v-3.3H-3.9V45.2z"/>
	</g>
	<g class="st2">
		<rect x="38" y="41.4" class="st11" width="27.3" height="2.2"/>
		<path d="M65.3,44H38c-0.3,0-0.5-0.2-0.5-0.5v-2.2c0-0.3,0.2-0.5,0.5-0.5h27.3c0.3,0,0.5,0.2,0.5,0.5v2.2
			C65.8,43.8,65.5,44,65.3,44z M38.5,43h26.3v-1.2H38.5V43z"/>
	</g>
	<g class="st2">
		<rect x="-48.6" y="41.4" class="st11" width="44.2" height="2.2"/>
		<path d="M-4.4,44h-44.2c-0.3,0-0.5-0.2-0.5-0.5v-2.2c0-0.3,0.2-0.5,0.5-0.5h44.2c0.3,0,0.5,0.2,0.5,0.5v2.2
			C-3.9,43.8-4.1,44-4.4,44z M-48.1,43h43.2v-1.2h-43.2V43z"/>
	</g>
	<g class="st2">
		<rect x="-68.3" y="41.4" class="st11" width="19.8" height="4.1"/>
		<path d="M-48.6,45.9h-19.8c-0.3,0-0.5-0.2-0.5-0.5v-4.1c0-0.3,0.2-0.5,0.5-0.5h19.8c0.3,0,0.5,0.2,0.5,0.5v4.1
			C-48.1,45.7-48.3,45.9-48.6,45.9z M-67.8,44.9h18.8v-3.1h-18.8V44.9z"/>
	</g>
	<g class="st2">
		<rect x="-78.6" y="42.6" class="st11" width="10.3" height="1.9"/>
		<path d="M-68.3,45h-10.3c-0.3,0-0.5-0.2-0.5-0.5v-1.9c0-0.3,0.2-0.5,0.5-0.5h10.3c0.3,0,0.5,0.2,0.5,0.5v1.9
			C-67.8,44.8-68.1,45-68.3,45z M-78.1,44h9.3v-0.9h-9.3V44z"/>
	</g>
	<g class="st2">
		<rect x="3.7" y="14.3" class="st11" width="34.3" height="27.1"/>
		<path d="M38,41.9H3.7c-0.3,0-0.5-0.2-0.5-0.5V14.3c0-0.3,0.2-0.5,0.5-0.5H38c0.3,0,0.5,0.2,0.5,0.5v27.1
			C38.5,41.6,38.3,41.9,38,41.9z M4.2,40.9h33.3V14.8H4.2V40.9z"/>
	</g>
	<g class="st2">
		<line class="st11" x1="38" y1="36.5" x2="-18.2" y2="36.5"/>
		<path d="M38,37h-56.2c-0.3,0-0.5-0.2-0.5-0.5s0.2-0.5,0.5-0.5H38c0.3,0,0.5,0.2,0.5,0.5S38.3,37,38,37z"/>
	</g>
	<g class="st2">
		<rect x="-3" y="-2" class="st11" width="3.2" height="16.3"/>
		<path d="M0.3,14.8H-3c-0.3,0-0.5-0.2-0.5-0.5V-2c0-0.3,0.2-0.5,0.5-0.5h3.2c0.3,0,0.5,0.2,0.5,0.5v16.3
			C0.8,14.6,0.5,14.8,0.3,14.8z M-2.5,13.8h2.2V-1.5h-2.2V13.8z"/>
	</g>
	<g class="st2">
		<rect x="-59.5" y="6.1" class="st11" width="25.6" height="8.1"/>
		<path d="M-33.9,14.8h-25.6c-0.3,0-0.5-0.2-0.5-0.5V6.1c0-0.3,0.2-0.5,0.5-0.5h25.6c0.3,0,0.5,0.2,0.5,0.5v8.1
			C-33.4,14.6-33.6,14.8-33.9,14.8z M-59,13.8h24.6V6.6H-59V13.8z"/>
	</g>
	<g class="st2">
		<rect x="-62.1" y="-2" class="st11" width="25.6" height="8.1"/>
		<path d="M-36.5,6.6h-25.6c-0.3,0-0.5-0.2-0.5-0.5V-2c0-0.3,0.2-0.5,0.5-0.5h25.6c0.3,0,0.5,0.2,0.5,0.5v8.1
			C-36,6.4-36.3,6.6-36.5,6.6z M-61.6,5.6H-37v-7.1h-24.6V5.6z"/>
	</g>
	<g class="st2">
		<rect x="-61.7" y="-10.1" class="st11" width="25.6" height="8.1"/>
		<path d="M-36.1-1.5h-25.6c-0.3,0-0.5-0.2-0.5-0.5v-8.1c0-0.3,0.2-0.5,0.5-0.5h25.6c0.3,0,0.5,0.2,0.5,0.5V-2
			C-35.6-1.7-35.9-1.5-36.1-1.5z M-61.2-2.5h24.6v-7.1h-24.6V-2.5z"/>
	</g>
	<g class="st2">
		<rect x="-57.9" y="-14.7" class="st11" width="22.4" height="4.5"/>
		<path d="M-35.5-9.7h-22.4c-0.3,0-0.5-0.2-0.5-0.5v-4.5c0-0.3,0.2-0.5,0.5-0.5h22.4c0.3,0,0.5,0.2,0.5,0.5v4.5
			C-35-9.9-35.2-9.7-35.5-9.7z M-57.4-10.7H-36v-3.5h-21.4V-10.7z"/>
	</g>
	<g class="st2">
		<rect x="-48.8" y="-16.5" class="st11" width="3.5" height="30.8"/>
		<path d="M-45.3,14.8h-3.5c-0.3,0-0.5-0.2-0.5-0.5v-30.8c0-0.3,0.2-0.5,0.5-0.5h3.5c0.3,0,0.5,0.2,0.5,0.5v30.8
			C-44.8,14.6-45,14.8-45.3,14.8z M-48.3,13.8h2.5V-16h-2.5V13.8z"/>
	</g>
	<g class="st2">
		<rect x="6.8" y="18.1" class="st11" width="8.2" height="1.5"/>
		<path d="M15.1,20.2H6.8c-0.3,0-0.5-0.2-0.5-0.5v-1.5c0-0.3,0.2-0.5,0.5-0.5h8.2c0.3,0,0.5,0.2,0.5,0.5v1.5
			C15.6,19.9,15.4,20.2,15.1,20.2z M7.3,19.2h7.2v-0.5H7.3V19.2z"/>
	</g>
	<g class="st2">
		<rect x="-63.8" y="32.9" class="st11" width="2" height="6.5"/>
		<path d="M-61.7,39.9h-2c-0.3,0-0.5-0.2-0.5-0.5v-6.5c0-0.3,0.2-0.5,0.5-0.5h2c0.3,0,0.5,0.2,0.5,0.5v6.5
			C-61.2,39.7-61.4,39.9-61.7,39.9z M-63.3,38.9h1v-5.5h-1V38.9z"/>
	</g>
	<g class="st2">
		<rect x="93.4" y="31.7" class="st11" width="4.1" height="9.7"/>
		<path d="M97.5,41.9h-4.1c-0.3,0-0.5-0.2-0.5-0.5v-9.7c0-0.3,0.2-0.5,0.5-0.5h4.1c0.3,0,0.5,0.2,0.5,0.5v9.7
			C98,41.6,97.8,41.9,97.5,41.9z M93.9,40.9H97v-8.7h-3.1V40.9z"/>
	</g>
	<g class="st2">
		<polygon class="st11" points="97.5,41.4 93.4,45.7 79.4,45.7 79.4,41.4 		"/>
		<path d="M93.4,46.2h-14c-0.3,0-0.5-0.2-0.5-0.5v-4.3c0-0.3,0.2-0.5,0.5-0.5h18.1c0.2,0,0.4,0.1,0.5,0.3c0.1,0.2,0,0.4-0.1,0.5
			L93.8,46C93.7,46.1,93.5,46.2,93.4,46.2z M79.9,45.2h13.3l3.1-3.3H79.9V45.2z"/>
	</g>
	<g class="st2">
		<rect x="-33.9" y="-28.3" class="st11" width="30.9" height="42.6"/>
		<path d="M-3,14.8h-30.9c-0.3,0-0.5-0.2-0.5-0.5v-42.6c0-0.3,0.2-0.5,0.5-0.5H-3c0.3,0,0.5,0.2,0.5,0.5v42.6
			C-2.5,14.6-2.7,14.8-3,14.8z M-33.4,13.8h29.9v-41.6h-29.9V13.8z"/>
	</g>
	<g class="st2">
		<rect x="-19.2" y="-30.4" class="st11" width="3.5" height="44.7"/>
		<path d="M-15.7,14.8h-3.5c-0.3,0-0.5-0.2-0.5-0.5v-44.7c0-0.3,0.2-0.5,0.5-0.5h3.5c0.3,0,0.5,0.2,0.5,0.5v44.7
			C-15.2,14.6-15.4,14.8-15.7,14.8z M-18.7,13.8h2.5v-43.7h-2.5V13.8z"/>
	</g>
</g>
<g class="st1">
	<g class="st2">
		<circle class="st11" cx="-32.2" cy="41.4" r="14.8"/>
		<path d="M-32.2,56.7c-8.4,0-15.3-6.9-15.3-15.3S-40.7,26-32.2,26s15.3,6.9,15.3,15.3S-23.8,56.7-32.2,56.7z M-32.2,27
			c-7.9,0-14.3,6.4-14.3,14.3s6.4,14.3,14.3,14.3s14.3-6.4,14.3-14.3S-24.3,27-32.2,27z"/>
	</g>
	<g class="st2">
		<circle class="st11" cx="-32.2" cy="41.4" r="11"/>
		<path d="M-32.2,52.9c-6.4,0-11.5-5.2-11.5-11.5c0-6.4,5.2-11.5,11.5-11.5s11.5,5.2,11.5,11.5C-20.7,47.7-25.9,52.9-32.2,52.9z
			 M-32.2,30.8c-5.8,0-10.5,4.7-10.5,10.5c0,5.8,4.7,10.5,10.5,10.5s10.5-4.7,10.5-10.5C-21.7,35.5-26.4,30.8-32.2,30.8z"/>
	</g>
	<g class="st2">
		<g>
			<path d="M-32.2,52.9c-0.3,0-0.5-0.2-0.5-0.5V30.3c0-0.3,0.2-0.5,0.5-0.5s0.5,0.2,0.5,0.5v22.1C-31.7,52.7-31.9,52.9-32.2,52.9z"
				/>
		</g>
		<g>
			<path d="M-40,49.7c-0.1,0-0.3,0-0.4-0.1c-0.2-0.2-0.2-0.5,0-0.7l15.6-15.6c0.2-0.2,0.5-0.2,0.7,0s0.2,0.5,0,0.7l-15.6,15.6
				C-39.8,49.6-39.9,49.7-40,49.7z"/>
		</g>
		<g>
			<path d="M-21.2,41.9h-22.1c-0.3,0-0.5-0.2-0.5-0.5s0.2-0.5,0.5-0.5h22.1c0.3,0,0.5,0.2,0.5,0.5S-20.9,41.9-21.2,41.9z"/>
		</g>
		<g>
			<path d="M-24.4,49.7c-0.1,0-0.3,0-0.4-0.1l-15.6-15.6c-0.2-0.2-0.2-0.5,0-0.7s0.5-0.2,0.7,0l15.6,15.6c0.2,0.2,0.2,0.5,0,0.7
				C-24.2,49.6-24.3,49.7-24.4,49.7z"/>
		</g>
	</g>
	<g class="st2">
		<circle class="st11" cx="-32.2" cy="41.4" r="2.3"/>
		<path d="M-32.2,44.2c-1.5,0-2.8-1.3-2.8-2.8s1.3-2.8,2.8-2.8s2.8,1.3,2.8,2.8S-30.7,44.2-32.2,44.2z M-32.2,39.6
			c-1,0-1.8,0.8-1.8,1.8s0.8,1.8,1.8,1.8s1.8-0.8,1.8-1.8S-31.2,39.6-32.2,39.6z"/>
	</g>
</g>
<g class="st1">
	<polygon class="st6" points="-96.7,46.6 -89.4,46.6 -89.4,44.9 -86.4,44.9 -86.4,43 -87.8,43 -87.8,40.1 -91.1,40.1 -91.1,41.1 
		-94,41.1 -94,38.1 -97.2,38.1 -97.2,40.1 -101.7,40.1 -101.7,43 -100.1,43 -100.1,44.8 -96.7,44.8 	"/>
	<path class="st2" d="M-89.4,47.1h-7.3c-0.3,0-0.5-0.2-0.5-0.5v-1.3h-2.9c-0.3,0-0.5-0.2-0.5-0.5v-1.3h-1.1c-0.3,0-0.5-0.2-0.5-0.5
		v-2.9c0-0.3,0.2-0.5,0.5-0.5h4v-1.5c0-0.3,0.2-0.5,0.5-0.5h3.1c0.3,0,0.5,0.2,0.5,0.5v2.4h1.9v-0.5c0-0.3,0.2-0.5,0.5-0.5h3.3
		c0.3,0,0.5,0.2,0.5,0.5v2.4h0.9c0.3,0,0.5,0.2,0.5,0.5v2c0,0.3-0.2,0.5-0.5,0.5h-2.5v1.1C-88.9,46.8-89.1,47.1-89.4,47.1z
		 M-96.2,46.1h6.3v-1.1c0-0.3,0.2-0.5,0.5-0.5h2.5v-1h-0.9c-0.3,0-0.5-0.2-0.5-0.5v-2.4h-2.3v0.5c0,0.3-0.2,0.5-0.5,0.5H-94
		c-0.3,0-0.5-0.2-0.5-0.5v-2.4h-2.1v1.5c0,0.3-0.2,0.5-0.5,0.5h-4v1.9h1.1c0.3,0,0.5,0.2,0.5,0.5v1.3h2.9c0.3,0,0.5,0.2,0.5,0.5
		V46.1z"/>
</g>
<g class="st1">
	<polygon class="st6" points="9.4,-2.2 18.7,-12.5 18,1.4 31.9,0.7 21.6,10 31.9,19.3 18,18.6 18.7,32.5 9.4,22.2 0.1,32.5 
		0.8,18.6 -13.1,19.3 -2.7,10 -13.1,0.7 0.8,1.4 0.1,-12.5 	"/>
	<path class="st2" d="M0.1,33C0,33,0,33-0.1,33c-0.2-0.1-0.3-0.3-0.3-0.5l0.7-13.3L-13,19.8c-0.2,0-0.4-0.1-0.5-0.3
		c-0.1-0.2,0-0.4,0.1-0.6l9.9-8.9L-13.4,1c-0.2-0.1-0.2-0.4-0.1-0.6c0.1-0.2,0.3-0.3,0.5-0.3L0.3,0.9l-0.7-13.3
		c0-0.2,0.1-0.4,0.3-0.5c0.2-0.1,0.4,0,0.6,0.1l8.9,9.9l8.9-9.9c0.1-0.2,0.4-0.2,0.6-0.1c0.2,0.1,0.3,0.3,0.3,0.5L18.6,0.9l13.3-0.7
		c0.2,0,0.4,0.1,0.5,0.3c0.1,0.2,0,0.4-0.1,0.6L22.4,10l9.9,8.9c0.2,0.1,0.2,0.4,0.1,0.6c-0.1,0.2-0.3,0.3-0.5,0.3l-13.3-0.7
		l0.7,13.3c0,0.2-0.1,0.4-0.3,0.5c-0.2,0.1-0.4,0-0.6-0.1l-8.9-9.9l-8.9,9.9C0.4,32.9,0.2,33,0.1,33z M0.8,18.1
		c0.1,0,0.3,0.1,0.4,0.1c0.1,0.1,0.2,0.2,0.1,0.4L0.7,31.1l8.4-9.3c0.1-0.1,0.2-0.2,0.4-0.2l0,0c0.1,0,0.3,0.1,0.4,0.2l8.4,9.3
		l-0.6-12.5c0-0.1,0-0.3,0.1-0.4c0.1-0.1,0.2-0.2,0.4-0.1l12.5,0.6l-9.3-8.4c-0.1-0.1-0.2-0.2-0.2-0.4s0.1-0.3,0.2-0.4l9.3-8.4
		L18.1,1.9c-0.1,0-0.3,0-0.4-0.1c-0.1-0.1-0.2-0.2-0.1-0.4l0.6-12.5L9.8-1.8c-0.2,0.2-0.6,0.2-0.7,0l-8.4-9.3L1.3,1.4
		c0,0.1,0,0.3-0.1,0.4C1.1,1.8,0.9,1.9,0.8,1.9l-12.5-0.6l9.3,8.4c0.1,0.1,0.2,0.2,0.2,0.4s-0.1,0.3-0.2,0.4l-9.3,8.4L0.8,18.1
		C0.8,18.1,0.8,18.1,0.8,18.1z"/>
</g>
<g>
	<g>
		<circle cx="9.4" cy="9.4" r="8.9"/>
		<path d="M9.4,18.9C4.2,18.9,0,14.6,0,9.4S4.2,0,9.4,0c5.2,0,9.4,4.2,9.4,9.4S14.6,18.9,9.4,18.9z M9.4,1C4.8,1,1,4.8,1,9.4
			s3.8,8.4,8.4,8.4c4.6,0,8.4-3.8,8.4-8.4S14.1,1,9.4,1z"/>
	</g>
	<g>
		<circle class="st11" cx="9.4" cy="10.6" r="8.9"/>
		<path d="M9.4,20C4.2,20,0,15.8,0,10.6s4.2-9.4,9.4-9.4c5.2,0,9.4,4.2,9.4,9.4S14.6,20,9.4,20z M9.4,2.1C4.8,2.1,1,5.9,1,10.6
			S4.8,19,9.4,19c4.6,0,8.4-3.8,8.4-8.4S14.1,2.1,9.4,2.1z"/>
	</g>
</g>
</svg>
