<?xml version="1.0" encoding="utf-8"?>
<!-- Generator: Adobe Illustrator 23.1.0, SVG Export Plug-In . SVG Version: 6.00 Build 0)  -->
<svg version="1.1" id="Layer_1" xmlns="http://www.w3.org/2000/svg" xmlns:xlink="http://www.w3.org/1999/xlink" x="0px" y="0px"
	 viewBox="0 0 1200 142.4" style="enable-background:new 0 0 1200 142.4;" xml:space="preserve">
<style type="text/css">
	.st0{display:none;fill:#FFFFFF;}
	.st1{display:none;}
	.st2{display:inline;}
	.st3{stroke:#000000;stroke-linecap:round;stroke-linejoin:round;stroke-miterlimit:10;}
	.st4{fill:#FFFFFF;stroke:#000000;stroke-linecap:round;stroke-linejoin:round;stroke-miterlimit:10;}
	.st5{display:inline;fill:#FFFFFF;stroke:#000000;stroke-linecap:round;stroke-linejoin:round;stroke-miterlimit:10;}
	.st6{display:inline;fill:#FFFFFF;}
	.st7{display:inline;fill:none;stroke:#000000;stroke-linecap:round;stroke-linejoin:round;stroke-miterlimit:10;}
	.st8{fill:none;stroke:#000000;stroke-linecap:round;stroke-linejoin:round;stroke-miterlimit:10;}
	.st9{stroke:#000000;stroke-miterlimit:10;}
	.st10{fill:#FFFFFF;stroke:#000000;stroke-miterlimit:10;}
	.st11{fill:#FFFFFF;}
</style>
<rect x="0" y="-35" class="st0" width="600" height="300"/>
<g class="st1">
	<g class="st2">
		<path class="st3" d="M0.2,140.4V42.2c0-3,2.4-5.4,5.4-5.4h9.1c3,0,5.4,2.4,5.4,5.4V81c0,3,2.4,5.4,5.4,5.4h5.1
			c3,0,5.4-2.4,5.4-5.4V66.2c0-3,2.4-5.4,5.4-5.4h11.2c3,0,5.4,2.4,5.4,5.4v35.1c0,3,2.4,5.4,5.4,5.4h8.7c3,0,5.4-2.4,5.4-5.4V11.1
			c0-3,2.4-5.4,5.4-5.4h15.8c3,0,5.4,2.4,5.4,5.4v42.4c0,3,2.4,5.4,5.4,5.4h7.1c3,0,5.4-2.4,5.4-5.4v-5.1c0-3,2.4-5.4,5.4-5.4h13.3
			c3,0,5.4,2.4,5.4,5.4v34.7c0,3,2.4,5.4,5.4,5.4h22.5c3,0,5.4,2.4,5.4,5.4v2.9c0,3,2.4,5.4,5.4,5.4h7c3,0,5.4-2.4,5.4-5.4V73.9
			c0-3,2.4-5.4,5.4-5.4h36.8c3,0,5.4,2.4,5.4,5.4v4.9c0,3,2.4,5.4,5.4,5.4h20.3c3,0,5.4-2.4,5.4-5.4v-4.9c0-3,2.4-5.4,5.4-5.4h30.8
			c3,0,5.4,2.4,5.4,5.4V81c0,3,2.4,5.4,5.4,5.4h5.8c3,0,5.4-2.4,5.4-5.4V62.1c0-3,2.4-5.4,5.4-5.4H353c3,0,5.4,2.4,5.4,5.4v16.6
			c0,3,2.4,5.4,5.4,5.4h11.7c3,0,5.4-2.4,5.4-5.4V45.8c0-3,2.4-5.4,5.4-5.4h19.7c3,0,5.4,2.4,5.4,5.4v0c0,3,2.4,5.4,5.4,5.4h8.7
			c3,0,5.4-2.4,5.4-5.4V5.9c0-3,2.4-5.4,5.4-5.4h13.8c3,0,5.4,2.4,5.4,5.4v20.5c0,3,2.4,5.4,5.4,5.4h11.7c3,0,5.4,2.4,5.4,5.4v34.7
			c0,3,2.4,5.4,5.4,5.4h14.3c3,0,5.4-2.4,5.4-5.4V61.1c0-3,2.4-5.4,5.4-5.4h17.9c3,0,5.4,2.4,5.4,5.4v44.2c0,3,2.4,5.4,5.4,5.4h13.3
			c3,0,5.4-2.4,5.4-5.4v-81c0-3,2.4-5.4,5.4-5.4h13.3c3,0,5.4,2.4,5.4,5.4v58.7c0,3,2.4,5.4,5.4,5.4h10.3c3,0,5.4-2.4,5.4-5.4V42.2
			c0-3,2.4-5.4,5.4-5.4h9.1c3,0,5.4,2.4,5.4,5.4V81c0,3,2.4,5.4,5.4,5.4h5.1c3,0,5.4-2.4,5.4-5.4V66.2c0-3,2.4-5.4,5.4-5.4h11.2
			c3,0,5.4,2.4,5.4,5.4v35.1c0,3,2.4,5.4,5.4,5.4h8.7c3,0,5.4-2.4,5.4-5.4V11.1c0-3,2.4-5.4,5.4-5.4h15.8c3,0,5.4,2.4,5.4,5.4v42.4
			c0,3,2.4,5.4,5.4,5.4h7.1c3,0,5.4-2.4,5.4-5.4v-5.1c0-3,2.4-5.4,5.4-5.4h13.3c3,0,5.4,2.4,5.4,5.4v34.7c0,3,2.4,5.4,5.4,5.4h22.5
			c3,0,5.4,2.4,5.4,5.4v2.9c0,3,2.4,5.4,5.4,5.4h7c3,0,5.4-2.4,5.4-5.4V73.9c0-3,2.4-5.4,5.4-5.4h36.8c3,0,5.4,2.4,5.4,5.4v4.9
			c0,3,2.4,5.4,5.4,5.4h20.3c3,0,5.4-2.4,5.4-5.4v-4.9c0-3,2.4-5.4,5.4-5.4h30.8c3,0,5.4,2.4,5.4,5.4V81c0,3,2.4,5.4,5.4,5.4h5.8
			c3,0,5.4-2.4,5.4-5.4V62.1c0-3,2.4-5.4,5.4-5.4H953c3,0,5.4,2.4,5.4,5.4v16.6c0,3,2.4,5.4,5.4,5.4h11.7c3,0,5.4-2.4,5.4-5.4V45.8
			c0-3,2.4-5.4,5.4-5.4h19.7c3,0,5.4,2.4,5.4,5.4v0c0,3,2.4,5.4,5.4,5.4h8.7c3,0,5.4-2.4,5.4-5.4V5.9c0-3,2.4-5.4,5.4-5.4h13.8
			c3,0,5.4,2.4,5.4,5.4v20.5c0,3,2.4,5.4,5.4,5.4h11.7c3,0,5.4,2.4,5.4,5.4v34.7c0,3,2.4,5.4,5.4,5.4h14.3c3,0,5.4-2.4,5.4-5.4V61.1
			c0-3,2.4-5.4,5.4-5.4h17.9c3,0,5.4,2.4,5.4,5.4v44.2c0,3,2.4,5.4,5.4,5.4h13.3c3,0,5.4-2.4,5.4-5.4v-81c0-3,2.4-5.4,5.4-5.4h13.3
			c3,0,5.4,2.4,5.4,5.4v110.4c0,3,2.4,5.4,5.4,5.4h15.7"/>
		<path class="st4" d="M1200.2,141.9h-15.7c-3,0-5.4-2.4-5.4-5.4l0-105.7c0-3-2.4-5.4-5.4-5.4h-13.3c-3,0-5.4,2.4-5.4,5.4v81
			c0,3-2.4,5.4-5.4,5.4h-13.3c-3,0-5.4-2.4-5.4-5.4V67.6c0-3-2.4-5.4-5.4-5.4H1108c-3,0-5.4,2.4-5.4,5.4v10.7c0,3-2.4,5.4-5.4,5.4
			H1083c-3,0-5.4-2.4-5.4-5.4V43.6c0-3-2.4-5.4-5.4-5.4h-11.7c-3,0-5.4-2.4-5.4-5.4V12.4c0-3-2.4-5.4-5.4-5.4H1036
			c-3,0-5.4,2.4-5.4,5.4v39.9c0,3-2.4,5.4-5.4,5.4h-8.7c-3,0-5.4-2.4-5.4-5.4v0c0-3-2.4-5.4-5.4-5.4h-19.7c-3,0-5.4,2.4-5.4,5.4
			v32.9c0,3-2.4,5.4-5.4,5.4h-11.7c-3,0-5.4-2.4-5.4-5.4V68.6c0-3-2.4-5.4-5.4-5.4h-14.5c-3,0-5.4,2.4-5.4,5.4v18.9
			c0,3-2.4,5.4-5.4,5.4H922c-3,0-5.4-2.4-5.4-5.4v-7.1c0-3-2.4-5.4-5.4-5.4h-30.8c-3,0-5.4,2.4-5.4,5.4v4.9c0,3-2.4,5.4-5.4,5.4
			h-20.3c-3,0-5.4-2.4-5.4-5.4v-4.9c0-3-2.4-5.4-5.4-5.4H802c-3,0-5.4,2.4-5.4,5.4v22.9c0,3-2.4,5.4-5.4,5.4h-7
			c-3,0-5.4-2.4-5.4-5.4v-2.9c0-3-2.4-5.4-5.4-5.4H751c-3,0-5.4-2.4-5.4-5.4V54.8c0-3-2.4-5.4-5.4-5.4H727c-3,0-5.4,2.4-5.4,5.4v5.1
			c0,3-2.4,5.4-5.4,5.4h-7.1c-3,0-5.4-2.4-5.4-5.4V17.6c0-3-2.4-5.4-5.4-5.4h-15.8c-3,0-5.4,2.4-5.4,5.4v90.2c0,3-2.4,5.4-5.4,5.4
			h-8.7c-3,0-5.4-2.4-5.4-5.4V72.7c0-3-2.4-5.4-5.4-5.4h-11.2c-3,0-5.4,2.4-5.4,5.4v14.8c0,3-2.4,5.4-5.4,5.4h-5.1
			c-3,0-5.4-2.4-5.4-5.4V48.7c0-3-2.4-5.4-5.4-5.4h-9.1c-3,0-5.4,2.4-5.4,5.4v40.9c0,3-2.4,5.4-5.4,5.4h-10.3c-3,0-5.4-2.4-5.4-5.4
			V30.8c0-3-2.4-5.4-5.4-5.4h-13.3c-3,0-5.4,2.4-5.4,5.4v81c0,3-2.4,5.4-5.4,5.4h-13.3c-3,0-5.4-2.4-5.4-5.4V67.6
			c0-3-2.4-5.4-5.4-5.4H508c-3,0-5.4,2.4-5.4,5.4v10.7c0,3-2.4,5.4-5.4,5.4H483c-3,0-5.4-2.4-5.4-5.4V43.6c0-3-2.4-5.4-5.4-5.4
			h-11.7c-3,0-5.4-2.4-5.4-5.4V12.4c0-3-2.4-5.4-5.4-5.4H436c-3,0-5.4,2.4-5.4,5.4v39.9c0,3-2.4,5.4-5.4,5.4h-8.7
			c-3,0-5.4-2.4-5.4-5.4v0c0-3-2.4-5.4-5.4-5.4h-19.7c-3,0-5.4,2.4-5.4,5.4v32.9c0,3-2.4,5.4-5.4,5.4h-11.7c-3,0-5.4-2.4-5.4-5.4
			V68.6c0-3-2.4-5.4-5.4-5.4h-14.5c-3,0-5.4,2.4-5.4,5.4v18.9c0,3-2.4,5.4-5.4,5.4H322c-3,0-5.4-2.4-5.4-5.4v-7.1
			c0-3-2.4-5.4-5.4-5.4h-30.8c-3,0-5.4,2.4-5.4,5.4v4.9c0,3-2.4,5.4-5.4,5.4h-20.3c-3,0-5.4-2.4-5.4-5.4v-4.9c0-3-2.4-5.4-5.4-5.4
			H202c-3,0-5.4,2.4-5.4,5.4v22.9c0,3-2.4,5.4-5.4,5.4h-7c-3,0-5.4-2.4-5.4-5.4v-2.9c0-3-2.4-5.4-5.4-5.4H151c-3,0-5.4-2.4-5.4-5.4
			V54.8c0-3-2.4-5.4-5.4-5.4H127c-3,0-5.4,2.4-5.4,5.4v5.1c0,3-2.4,5.4-5.4,5.4h-7.1c-3,0-5.4-2.4-5.4-5.4V17.6c0-3-2.4-5.4-5.4-5.4
			H82.6c-3,0-5.4,2.4-5.4,5.4v90.2c0,3-2.4,5.4-5.4,5.4h-8.7c-3,0-5.4-2.4-5.4-5.4V72.7c0-3-2.4-5.4-5.4-5.4H41.3
			c-3,0-5.4,2.4-5.4,5.4v14.8c0,3-2.4,5.4-5.4,5.4h-5.1c-3,0-5.4-2.4-5.4-5.4V48.7c0-3-2.4-5.4-5.4-5.4H5.6c-3,0-5.4,2.4-5.4,5.4
			v93.2"/>
	</g>
	<polygon class="st5" points="300.3,-8.4 309.6,-18.7 308.9,-4.8 322.8,-5.5 312.4,3.8 322.8,13.1 308.9,12.4 309.6,26.3 300.3,16 
		290.9,26.3 291.6,12.4 277.8,13.1 288.1,3.8 277.8,-5.5 291.6,-4.8 290.9,-18.7 	"/>
	<g class="st2">
		<path class="st3" d="M316.7,252.5c-3.8,5-9.7,8.2-16.4,8.2c-11.4,0-20.6-9.2-20.6-20.6c0-11.4,9.2-20.6,20.6-20.6
			c6.7,0,12.7,3.2,16.4,8.2c-2-1.1-4.4-1.8-6.8-1.8c-7.8,0-14.2,6.3-14.2,14.2c0,7.8,6.3,14.2,14.2,14.2
			C312.3,254.3,314.7,253.6,316.7,252.5z"/>
		<path class="st3" d="M316.7,253.9c-3.8,5-9.7,8.2-16.4,8.2c-11.4,0-20.6-9.2-20.6-20.6c0-11.4,9.2-20.6,20.6-20.6
			c6.7,0,12.7,3.2,16.4,8.2c-2-1.1-4.4-1.8-6.8-1.8c-7.8,0-14.2,6.3-14.2,14.2c0,7.8,6.3,14.2,14.2,14.2
			C312.3,255.7,314.7,255.1,316.7,253.9z"/>
	</g>
	<rect x="0.3" y="215" class="st6" width="600" height="50"/>
	<line class="st7" x1="0.2" y1="215" x2="600.2" y2="215"/>
	<g class="st2">
		<g>
			
				<rect x="325.5" y="165.8" transform="matrix(0.7071 -0.7071 0.7071 0.7071 -25.0539 280.7673)" class="st4" width="1.7" height="9.7"/>
			
				<rect x="321.8" y="162.3" transform="matrix(0.7071 0.7071 -0.7071 0.7071 212.6856 -179.2342)" class="st4" width="1.7" height="9.7"/>
		</g>
		<polygon class="st4" points="384.2,190.5 229.1,190.5 229.1,173.1 376.4,173.1 		"/>
		<polygon class="st4" points="337.6,173.1 330.9,151.7 328.8,151.7 328.8,173.1 		"/>
		<rect x="229.1" y="190.5" class="st4" width="155.1" height="9.7"/>
		<polygon class="st4" points="291.4,173.1 291.4,166 294.1,166 297.6,173.1 		"/>
		<polygon class="st4" points="377.3,175.1 384.2,175.1 384.2,183.4 381.1,183.4 		"/>
		<rect x="286.4" y="200.2" class="st4" width="42.4" height="4.3"/>
		<rect x="328.8" y="200.2" class="st4" width="27.3" height="2.2"/>
		<rect x="242.3" y="200.2" class="st4" width="44.2" height="2.2"/>
		<rect x="222.5" y="200.2" class="st4" width="19.8" height="4.1"/>
		<rect x="212.2" y="201.4" class="st4" width="10.3" height="1.9"/>
		<rect x="294.5" y="173.1" class="st4" width="34.3" height="27.1"/>
		<line class="st4" x1="328.8" y1="195.3" x2="272.6" y2="195.3"/>
		<rect x="287.8" y="156.8" class="st4" width="3.2" height="16.3"/>
		<rect x="231.4" y="165" class="st4" width="25.6" height="8.1"/>
		<rect x="228.7" y="156.8" class="st4" width="25.6" height="8.1"/>
		<rect x="229.1" y="148.7" class="st4" width="25.6" height="8.1"/>
		<rect x="232.9" y="144.1" class="st4" width="22.4" height="4.5"/>
		<rect x="242" y="142.3" class="st4" width="3.5" height="30.8"/>
		<rect x="297.6" y="176.9" class="st4" width="8.2" height="1.5"/>
		<rect x="227.1" y="191.7" class="st4" width="2" height="6.5"/>
		<rect x="384.2" y="190.5" class="st4" width="4.1" height="9.7"/>
		<polygon class="st4" points="388.3,200.2 384.2,204.5 370.2,204.5 370.2,200.2 		"/>
		<rect x="256.9" y="130.5" class="st4" width="30.9" height="42.6"/>
		<rect x="271.7" y="128.4" class="st4" width="3.5" height="44.7"/>
	</g>
	<g class="st2">
		<circle class="st4" cx="258.6" cy="200.2" r="14.8"/>
		<circle class="st4" cx="258.6" cy="200.2" r="11"/>
		<g>
			<line class="st8" x1="258.6" y1="189.1" x2="258.6" y2="211.2"/>
			<line class="st8" x1="266.4" y1="192.4" x2="250.8" y2="208"/>
			<line class="st8" x1="269.6" y1="200.2" x2="247.6" y2="200.2"/>
			<line class="st8" x1="266.4" y1="208" x2="250.8" y2="192.4"/>
		</g>
		<circle class="st4" cx="258.6" cy="200.2" r="2.3"/>
	</g>
	<polygon class="st5" points="194.1,205.4 201.5,205.4 201.5,203.8 204.4,203.8 204.4,201.8 203,201.8 203,198.9 199.7,198.9 
		199.7,199.9 196.8,199.9 196.8,196.9 193.6,196.9 193.6,198.9 189.1,198.9 189.1,201.8 190.7,201.8 190.7,203.6 194.1,203.6 	"/>
	<g class="st2">
		<circle class="st9" cx="300.3" cy="3.2" r="8.9"/>
		<circle class="st10" cx="300.3" cy="4.4" r="8.9"/>
	</g>
</g>
<g class="st1">
	<g class="st2">
		<path d="M0.5,140.4V42.2c0-3,2.4-5.4,5.4-5.4h9.1c3,0,5.4,2.4,5.4,5.4V81c0,3,2.4,5.4,5.4,5.4h5.1c3,0,5.4-2.4,5.4-5.4V66.2
			c0-3,2.4-5.4,5.4-5.4h11.2c3,0,5.4,2.4,5.4,5.4v35.1c0,3,2.4,5.4,5.4,5.4h8.7c3,0,5.4-2.4,5.4-5.4V11.1c0-3,2.4-5.4,5.4-5.4h15.8
			c3,0,5.4,2.4,5.4,5.4v42.4c0,3,2.4,5.4,5.4,5.4h7.1c3,0,5.4-2.4,5.4-5.4v-5.1c0-3,2.4-5.4,5.4-5.4h13.3c3,0,5.4,2.4,5.4,5.4v34.7
			c0,3,2.4,5.4,5.4,5.4h22.5c3,0,5.4,2.4,5.4,5.4v2.9c0,3,2.4,5.4,5.4,5.4h7c3,0,5.4-2.4,5.4-5.4V73.9c0-3,2.4-5.4,5.4-5.4H239
			c3,0,5.4,2.4,5.4,5.4v4.9c0,3,2.4,5.4,5.4,5.4H270c3,0,5.4-2.4,5.4-5.4v-4.9c0-3,2.4-5.4,5.4-5.4h30.8c3,0,5.4,2.4,5.4,5.4V81
			c0,3,2.4,5.4,5.4,5.4h5.8c3,0,5.4-2.4,5.4-5.4V62.1c0-3,2.4-5.4,5.4-5.4h14.5c3,0,5.4,2.4,5.4,5.4v16.6c0,3,2.4,5.4,5.4,5.4h11.7
			c3,0,5.4-2.4,5.4-5.4V45.8c0-3,2.4-5.4,5.4-5.4h19.7c3,0,5.4,2.4,5.4,5.4v0c0,3,2.4,5.4,5.4,5.4h8.7c3,0,5.4-2.4,5.4-5.4V5.9
			c0-3,2.4-5.4,5.4-5.4H450c3,0,5.4,2.4,5.4,5.4v20.5c0,3,2.4,5.4,5.4,5.4h11.7c3,0,5.4,2.4,5.4,5.4v34.7c0,3,2.4,5.4,5.4,5.4h14.3
			c3,0,5.4-2.4,5.4-5.4V61.1c0-3,2.4-5.4,5.4-5.4h17.9c3,0,5.4,2.4,5.4,5.4v44.2c0,3,2.4,5.4,5.4,5.4h13.3c3,0,5.4-2.4,5.4-5.4v-81
			c0-3,2.4-5.4,5.4-5.4h13.3c3,0,5.4,2.4,5.4,5.4v58.7c0,3,2.4,5.4,5.4,5.4h10.3c3,0,5.4-2.4,5.4-5.4V42.2c0-3,2.4-5.4,5.4-5.4h9.1
			c3,0,5.4,2.4,5.4,5.4V81c0,3,2.4,5.4,5.4,5.4h5.1c3,0,5.4-2.4,5.4-5.4V66.2c0-3,2.4-5.4,5.4-5.4h11.2c3,0,5.4,2.4,5.4,5.4v35.1
			c0,3,2.4,5.4,5.4,5.4h8.7c3,0,5.4-2.4,5.4-5.4V11.1c0-3,2.4-5.4,5.4-5.4h15.8c3,0,5.4,2.4,5.4,5.4v42.4c0,3,2.4,5.4,5.4,5.4h7.1
			c3,0,5.4-2.4,5.4-5.4v-5.1c0-3,2.4-5.4,5.4-5.4h13.3c3,0,5.4,2.4,5.4,5.4v34.7c0,3,2.4,5.4,5.4,5.4h22.5c3,0,5.4,2.4,5.4,5.4v2.9
			c0,3,2.4,5.4,5.4,5.4h7c3,0,5.4-2.4,5.4-5.4V73.9c0-3,2.4-5.4,5.4-5.4H839c3,0,5.4,2.4,5.4,5.4v4.9c0,3,2.4,5.4,5.4,5.4H870
			c3,0,5.4-2.4,5.4-5.4v-4.9c0-3,2.4-5.4,5.4-5.4h30.8c3,0,5.4,2.4,5.4,5.4V81c0,3,2.4,5.4,5.4,5.4h5.8c3,0,5.4-2.4,5.4-5.4V62.1
			c0-3,2.4-5.4,5.4-5.4h14.5c3,0,5.4,2.4,5.4,5.4v16.6c0,3,2.4,5.4,5.4,5.4h11.7c3,0,5.4-2.4,5.4-5.4V45.8c0-3,2.4-5.4,5.4-5.4h19.7
			c3,0,5.4,2.4,5.4,5.4v0c0,3,2.4,5.4,5.4,5.4h8.7c3,0,5.4-2.4,5.4-5.4V5.9c0-3,2.4-5.4,5.4-5.4h13.8c3,0,5.4,2.4,5.4,5.4v20.5
			c0,3,2.4,5.4,5.4,5.4h11.7c3,0,5.4,2.4,5.4,5.4v34.7c0,3,2.4,5.4,5.4,5.4h14.3c3,0,5.4-2.4,5.4-5.4V61.1c0-3,2.4-5.4,5.4-5.4h17.9
			c3,0,5.4,2.4,5.4,5.4v44.2c0,3,2.4,5.4,5.4,5.4h13.3c3,0,5.4-2.4,5.4-5.4v-81c0-3,2.4-5.4,5.4-5.4h13.3c3,0,5.4,2.4,5.4,5.4v110.4
			c0,3,2.4,5.4,5.4,5.4h15.7"/>
		<path d="M0.5,140.9c-0.3,0-0.5-0.2-0.5-0.5V42.2c0-3.2,2.6-5.9,5.9-5.9h9.1c3.2,0,5.9,2.6,5.9,5.9V81c0,2.7,2.2,4.9,4.9,4.9h5.1
			c2.7,0,4.9-2.2,4.9-4.9V66.2c0-3.2,2.6-5.9,5.9-5.9h11.2c3.2,0,5.9,2.6,5.9,5.9v35.1c0,2.7,2.2,4.9,4.9,4.9h8.7
			c2.7,0,4.9-2.2,4.9-4.9V11.1c0-3.2,2.6-5.9,5.9-5.9h15.8c3.2,0,5.9,2.6,5.9,5.9v42.4c0,2.7,2.2,4.9,4.9,4.9h7.1
			c2.7,0,4.9-2.2,4.9-4.9v-5.1c0-3.2,2.6-5.9,5.9-5.9h13.3c3.2,0,5.9,2.6,5.9,5.9v34.7c0,2.7,2.2,4.9,4.9,4.9h22.5
			c3.2,0,5.9,2.6,5.9,5.9v2.9c0,2.7,2.2,4.9,4.9,4.9h7c2.7,0,4.9-2.2,4.9-4.9V73.9c0-3.2,2.6-5.9,5.9-5.9H239c3.2,0,5.9,2.6,5.9,5.9
			v4.9c0,2.7,2.2,4.9,4.9,4.9H270c2.7,0,4.9-2.2,4.9-4.9v-4.9c0-3.2,2.6-5.9,5.9-5.9h30.8c3.2,0,5.9,2.6,5.9,5.9V81
			c0,2.7,2.2,4.9,4.9,4.9h5.8c2.7,0,4.9-2.2,4.9-4.9V62.1c0-3.2,2.6-5.9,5.9-5.9h14.5c3.2,0,5.9,2.6,5.9,5.9v16.6
			c0,2.7,2.2,4.9,4.9,4.9h11.7c2.7,0,4.9-2.2,4.9-4.9V45.8c0-3.2,2.6-5.9,5.9-5.9h19.7c3.2,0,5.9,2.6,5.9,5.9c0,2.7,2.2,4.9,4.9,4.9
			h8.7c2.7,0,4.9-2.2,4.9-4.9V5.9c0-3.2,2.6-5.9,5.9-5.9H450c3.2,0,5.9,2.6,5.9,5.9v20.5c0,2.7,2.2,4.9,4.9,4.9h11.7
			c3.2,0,5.9,2.6,5.9,5.9v34.7c0,2.7,2.2,4.9,4.9,4.9h14.3c2.7,0,4.9-2.2,4.9-4.9V61.1c0-3.2,2.6-5.9,5.9-5.9h17.9
			c3.2,0,5.9,2.6,5.9,5.9v44.2c0,2.7,2.2,4.9,4.9,4.9h13.3c2.7,0,4.9-2.2,4.9-4.9v-81c0-3.2,2.6-5.9,5.9-5.9h13.3
			c3.2,0,5.9,2.6,5.9,5.9v58.7c0,2.7,2.2,4.9,4.9,4.9h10.3c2.7,0,4.9-2.2,4.9-4.9V42.2c0-3.2,2.6-5.9,5.9-5.9h9.1
			c3.2,0,5.9,2.6,5.9,5.9V81c0,2.7,2.2,4.9,4.9,4.9h5.1c2.7,0,4.9-2.2,4.9-4.9V66.2c0-3.2,2.6-5.9,5.9-5.9h11.2
			c3.2,0,5.9,2.6,5.9,5.9v35.1c0,2.7,2.2,4.9,4.9,4.9h8.7c2.7,0,4.9-2.2,4.9-4.9V11.1c0-3.2,2.6-5.9,5.9-5.9h15.8
			c3.2,0,5.9,2.6,5.9,5.9v42.4c0,2.7,2.2,4.9,4.9,4.9h7.1c2.7,0,4.9-2.2,4.9-4.9v-5.1c0-3.2,2.6-5.9,5.9-5.9h13.3
			c3.2,0,5.9,2.6,5.9,5.9v34.7c0,2.7,2.2,4.9,4.9,4.9h22.5c3.2,0,5.9,2.6,5.9,5.9v2.9c0,2.7,2.2,4.9,4.9,4.9h7
			c2.7,0,4.9-2.2,4.9-4.9V73.9c0-3.2,2.6-5.9,5.9-5.9H839c3.2,0,5.9,2.6,5.9,5.9v4.9c0,2.7,2.2,4.9,4.9,4.9H870
			c2.7,0,4.9-2.2,4.9-4.9v-4.9c0-3.2,2.6-5.9,5.9-5.9h30.8c3.2,0,5.9,2.6,5.9,5.9V81c0,2.7,2.2,4.9,4.9,4.9h5.8
			c2.7,0,4.9-2.2,4.9-4.9V62.1c0-3.2,2.6-5.9,5.9-5.9h14.5c3.2,0,5.9,2.6,5.9,5.9v16.6c0,2.7,2.2,4.9,4.9,4.9h11.7
			c2.7,0,4.9-2.2,4.9-4.9V45.8c0-3.2,2.6-5.9,5.9-5.9h19.7c3.2,0,5.9,2.6,5.9,5.9c0,2.7,2.2,4.9,4.9,4.9h8.7c2.7,0,4.9-2.2,4.9-4.9
			V5.9c0-3.2,2.6-5.9,5.9-5.9h13.8c3.2,0,5.9,2.6,5.9,5.9v20.5c0,2.7,2.2,4.9,4.9,4.9h11.7c3.2,0,5.9,2.6,5.9,5.9v34.7
			c0,2.7,2.2,4.9,4.9,4.9h14.3c2.7,0,4.9-2.2,4.9-4.9V61.1c0-3.2,2.6-5.9,5.9-5.9h17.9c3.2,0,5.9,2.6,5.9,5.9v44.2
			c0,2.7,2.2,4.9,4.9,4.9h13.3c2.7,0,4.9-2.2,4.9-4.9v-81c0-3.2,2.6-5.9,5.9-5.9h13.3c3.2,0,5.9,2.6,5.9,5.9v110.4
			c0,2.7,2.2,4.9,4.9,4.9h15.7c0.3,0,0.5,0.2,0.5,0.5s-0.2,0.5-0.5,0.5h-15.7c-3.2,0-5.9-2.6-5.9-5.9V24.3c0-2.7-2.2-4.9-4.9-4.9
			h-13.3c-2.7,0-4.9,2.2-4.9,4.9v81c0,3.2-2.6,5.9-5.9,5.9h-13.3c-3.2,0-5.9-2.6-5.9-5.9V61.1c0-2.7-2.2-4.9-4.9-4.9h-17.9
			c-2.7,0-4.9,2.2-4.9,4.9v10.7c0,3.2-2.6,5.9-5.9,5.9h-14.3c-3.2,0-5.9-2.6-5.9-5.9V37.1c0-2.7-2.2-4.9-4.9-4.9h-11.7
			c-3.2,0-5.9-2.6-5.9-5.9V5.9c0-2.7-2.2-4.9-4.9-4.9h-13.8c-2.7,0-4.9,2.2-4.9,4.9v39.9c0,3.2-2.6,5.9-5.9,5.9h-8.7
			c-3.2,0-5.9-2.6-5.9-5.9c0-2.7-2.2-4.9-4.9-4.9h-19.7c-2.7,0-4.9,2.2-4.9,4.9v32.9c0,3.2-2.6,5.9-5.9,5.9H964
			c-3.2,0-5.9-2.6-5.9-5.9V62.1c0-2.7-2.2-4.9-4.9-4.9h-14.5c-2.7,0-4.9,2.2-4.9,4.9V81c0,3.2-2.6,5.9-5.9,5.9h-5.8
			c-3.2,0-5.9-2.6-5.9-5.9v-7.1c0-2.7-2.2-4.9-4.9-4.9h-30.8c-2.7,0-4.9,2.2-4.9,4.9v4.9c0,3.2-2.6,5.9-5.9,5.9h-20.3
			c-3.2,0-5.9-2.6-5.9-5.9v-4.9c0-2.7-2.2-4.9-4.9-4.9h-36.8c-2.7,0-4.9,2.2-4.9,4.9v22.9c0,3.2-2.6,5.9-5.9,5.9h-7
			c-3.2,0-5.9-2.6-5.9-5.9v-2.9c0-2.7-2.2-4.9-4.9-4.9h-22.5c-3.2,0-5.9-2.6-5.9-5.9V48.3c0-2.7-2.2-4.9-4.9-4.9h-13.3
			c-2.7,0-4.9,2.2-4.9,4.9v5.1c0,3.2-2.6,5.9-5.9,5.9h-7.1c-3.2,0-5.9-2.6-5.9-5.9V11.1c0-2.7-2.2-4.9-4.9-4.9h-15.8
			c-2.7,0-4.9,2.2-4.9,4.9v90.2c0,3.2-2.6,5.9-5.9,5.9h-8.7c-3.2,0-5.9-2.6-5.9-5.9V66.2c0-2.7-2.2-4.9-4.9-4.9h-11.2
			c-2.7,0-4.9,2.2-4.9,4.9V81c0,3.2-2.6,5.9-5.9,5.9h-5.1c-3.2,0-5.9-2.6-5.9-5.9V42.2c0-2.7-2.2-4.9-4.9-4.9h-9.1
			c-2.7,0-4.9,2.2-4.9,4.9v40.9c0,3.2-2.6,5.9-5.9,5.9h-10.3c-3.2,0-5.9-2.6-5.9-5.9V24.3c0-2.7-2.2-4.9-4.9-4.9h-13.3
			c-2.7,0-4.9,2.2-4.9,4.9v81c0,3.2-2.6,5.9-5.9,5.9h-13.3c-3.2,0-5.9-2.6-5.9-5.9V61.1c0-2.7-2.2-4.9-4.9-4.9h-17.9
			c-2.7,0-4.9,2.2-4.9,4.9v10.7c0,3.2-2.6,5.9-5.9,5.9h-14.3c-3.2,0-5.9-2.6-5.9-5.9V37.1c0-2.7-2.2-4.9-4.9-4.9h-11.7
			c-3.2,0-5.9-2.6-5.9-5.9V5.9c0-2.7-2.2-4.9-4.9-4.9h-13.8c-2.7,0-4.9,2.2-4.9,4.9v39.9c0,3.2-2.6,5.9-5.9,5.9h-8.7
			c-3.2,0-5.9-2.6-5.9-5.9c0-2.7-2.2-4.9-4.9-4.9h-19.7c-2.7,0-4.9,2.2-4.9,4.9v32.9c0,3.2-2.6,5.9-5.9,5.9H364
			c-3.2,0-5.9-2.6-5.9-5.9V62.1c0-2.7-2.2-4.9-4.9-4.9h-14.5c-2.7,0-4.9,2.2-4.9,4.9V81c0,3.2-2.6,5.9-5.9,5.9h-5.8
			c-3.2,0-5.9-2.6-5.9-5.9v-7.1c0-2.7-2.2-4.9-4.9-4.9h-30.8c-2.7,0-4.9,2.2-4.9,4.9v4.9c0,3.2-2.6,5.9-5.9,5.9h-20.3
			c-3.2,0-5.9-2.6-5.9-5.9v-4.9c0-2.7-2.2-4.9-4.9-4.9h-36.8c-2.7,0-4.9,2.2-4.9,4.9v22.9c0,3.2-2.6,5.9-5.9,5.9h-7
			c-3.2,0-5.9-2.6-5.9-5.9v-2.9c0-2.7-2.2-4.9-4.9-4.9h-22.5c-3.2,0-5.9-2.6-5.9-5.9V48.3c0-2.7-2.2-4.9-4.9-4.9h-13.3
			c-2.7,0-4.9,2.2-4.9,4.9v5.1c0,3.2-2.6,5.9-5.9,5.9h-7.1c-3.2,0-5.9-2.6-5.9-5.9V11.1c0-2.7-2.2-4.9-4.9-4.9H82.9
			c-2.7,0-4.9,2.2-4.9,4.9v90.2c0,3.2-2.6,5.9-5.9,5.9h-8.7c-3.2,0-5.9-2.6-5.9-5.9V66.2c0-2.7-2.2-4.9-4.9-4.9H41.5
			c-2.7,0-4.9,2.2-4.9,4.9V81c0,3.2-2.6,5.9-5.9,5.9h-5.1c-3.2,0-5.9-2.6-5.9-5.9V42.2c0-2.7-2.2-4.9-4.9-4.9H5.9
			c-2.7,0-4.9,2.2-4.9,4.9v98.2C1,140.7,0.8,140.9,0.5,140.9z"/>
	</g>
	<g class="st2">
		<path class="st11" d="M1200.5,141.9h-15.7c-3,0-5.4-2.4-5.4-5.4l0-105.7c0-3-2.4-5.4-5.4-5.4h-13.3c-3,0-5.4,2.4-5.4,5.4v81
			c0,3-2.4,5.4-5.4,5.4h-13.3c-3,0-5.4-2.4-5.4-5.4V67.6c0-3-2.4-5.4-5.4-5.4h-17.9c-3,0-5.4,2.4-5.4,5.4v10.7c0,3-2.4,5.4-5.4,5.4
			h-14.3c-3,0-5.4-2.4-5.4-5.4V43.6c0-3-2.4-5.4-5.4-5.4h-11.7c-3,0-5.4-2.4-5.4-5.4V12.4c0-3-2.4-5.4-5.4-5.4h-13.8
			c-3,0-5.4,2.4-5.4,5.4v39.9c0,3-2.4,5.4-5.4,5.4h-8.7c-3,0-5.4-2.4-5.4-5.4v0c0-3-2.4-5.4-5.4-5.4h-19.7c-3,0-5.4,2.4-5.4,5.4
			v32.9c0,3-2.4,5.4-5.4,5.4H964c-3,0-5.4-2.4-5.4-5.4V68.6c0-3-2.4-5.4-5.4-5.4h-14.5c-3,0-5.4,2.4-5.4,5.4v18.9
			c0,3-2.4,5.4-5.4,5.4h-5.8c-3,0-5.4-2.4-5.4-5.4v-7.1c0-3-2.4-5.4-5.4-5.4h-30.8c-3,0-5.4,2.4-5.4,5.4v4.9c0,3-2.4,5.4-5.4,5.4
			h-20.3c-3,0-5.4-2.4-5.4-5.4v-4.9c0-3-2.4-5.4-5.4-5.4h-36.8c-3,0-5.4,2.4-5.4,5.4v22.9c0,3-2.4,5.4-5.4,5.4h-7
			c-3,0-5.4-2.4-5.4-5.4v-2.9c0-3-2.4-5.4-5.4-5.4h-22.5c-3,0-5.4-2.4-5.4-5.4V54.8c0-3-2.4-5.4-5.4-5.4h-13.3c-3,0-5.4,2.4-5.4,5.4
			v5.1c0,3-2.4,5.4-5.4,5.4h-7.1c-3,0-5.4-2.4-5.4-5.4V17.6c0-3-2.4-5.4-5.4-5.4h-15.8c-3,0-5.4,2.4-5.4,5.4v90.2
			c0,3-2.4,5.4-5.4,5.4h-8.7c-3,0-5.4-2.4-5.4-5.4V72.7c0-3-2.4-5.4-5.4-5.4h-11.2c-3,0-5.4,2.4-5.4,5.4v14.8c0,3-2.4,5.4-5.4,5.4
			h-5.1c-3,0-5.4-2.4-5.4-5.4V48.7c0-3-2.4-5.4-5.4-5.4h-9.1c-3,0-5.4,2.4-5.4,5.4v40.9c0,3-2.4,5.4-5.4,5.4h-10.3
			c-3,0-5.4-2.4-5.4-5.4V30.8c0-3-2.4-5.4-5.4-5.4h-13.3c-3,0-5.4,2.4-5.4,5.4v81c0,3-2.4,5.4-5.4,5.4h-13.3c-3,0-5.4-2.4-5.4-5.4
			V67.6c0-3-2.4-5.4-5.4-5.4h-17.9c-3,0-5.4,2.4-5.4,5.4v10.7c0,3-2.4,5.4-5.4,5.4h-14.3c-3,0-5.4-2.4-5.4-5.4V43.6
			c0-3-2.4-5.4-5.4-5.4h-11.7c-3,0-5.4-2.4-5.4-5.4V12.4c0-3-2.4-5.4-5.4-5.4h-13.8c-3,0-5.4,2.4-5.4,5.4v39.9c0,3-2.4,5.4-5.4,5.4
			h-8.7c-3,0-5.4-2.4-5.4-5.4v0c0-3-2.4-5.4-5.4-5.4h-19.7c-3,0-5.4,2.4-5.4,5.4v32.9c0,3-2.4,5.4-5.4,5.4H364c-3,0-5.4-2.4-5.4-5.4
			V68.6c0-3-2.4-5.4-5.4-5.4h-14.5c-3,0-5.4,2.4-5.4,5.4v18.9c0,3-2.4,5.4-5.4,5.4h-5.8c-3,0-5.4-2.4-5.4-5.4v-7.1
			c0-3-2.4-5.4-5.4-5.4h-30.8c-3,0-5.4,2.4-5.4,5.4v4.9c0,3-2.4,5.4-5.4,5.4h-20.3c-3,0-5.4-2.4-5.4-5.4v-4.9c0-3-2.4-5.4-5.4-5.4
			h-36.8c-3,0-5.4,2.4-5.4,5.4v22.9c0,3-2.4,5.4-5.4,5.4h-7c-3,0-5.4-2.4-5.4-5.4v-2.9c0-3-2.4-5.4-5.4-5.4h-22.5
			c-3,0-5.4-2.4-5.4-5.4V54.8c0-3-2.4-5.4-5.4-5.4h-13.3c-3,0-5.4,2.4-5.4,5.4v5.1c0,3-2.4,5.4-5.4,5.4h-7.1c-3,0-5.4-2.4-5.4-5.4
			V17.6c0-3-2.4-5.4-5.4-5.4H82.9c-3,0-5.4,2.4-5.4,5.4v90.2c0,3-2.4,5.4-5.4,5.4h-8.7c-3,0-5.4-2.4-5.4-5.4V72.7
			c0-3-2.4-5.4-5.4-5.4H41.5c-3,0-5.4,2.4-5.4,5.4v14.8c0,3-2.4,5.4-5.4,5.4h-5.1c-3,0-5.4-2.4-5.4-5.4V48.7c0-3-2.4-5.4-5.4-5.4
			H5.9c-3,0-5.4,2.4-5.4,5.4v93.2"/>
		<path d="M1200.5,142.4h-15.7c-3.2,0-5.9-2.6-5.9-5.9l0-105.7c0-2.7-2.2-4.9-4.9-4.9h-13.3c-2.7,0-4.9,2.2-4.9,4.9v81
			c0,3.2-2.6,5.9-5.9,5.9h-13.3c-3.2,0-5.9-2.6-5.9-5.9V67.6c0-2.7-2.2-4.9-4.9-4.9h-17.9c-2.7,0-4.9,2.2-4.9,4.9v10.7
			c0,3.2-2.6,5.9-5.9,5.9h-14.3c-3.2,0-5.9-2.6-5.9-5.9V43.6c0-2.7-2.2-4.9-4.9-4.9h-11.7c-3.2,0-5.9-2.6-5.9-5.9V12.4
			c0-2.7-2.2-4.9-4.9-4.9h-13.8c-2.7,0-4.9,2.2-4.9,4.9v39.9c0,3.2-2.6,5.9-5.9,5.9h-8.7c-3.2,0-5.9-2.6-5.9-5.9
			c0-2.7-2.2-4.9-4.9-4.9h-19.7c-2.7,0-4.9,2.2-4.9,4.9v32.9c0,3.2-2.6,5.9-5.9,5.9H964c-3.2,0-5.9-2.6-5.9-5.9V68.6
			c0-2.7-2.2-4.9-4.9-4.9h-14.5c-2.7,0-4.9,2.2-4.9,4.9v18.9c0,3.2-2.6,5.9-5.9,5.9h-5.8c-3.2,0-5.9-2.6-5.9-5.9v-7.1
			c0-2.7-2.2-4.9-4.9-4.9h-30.8c-2.7,0-4.9,2.2-4.9,4.9v4.9c0,3.2-2.6,5.9-5.9,5.9h-20.3c-3.2,0-5.9-2.6-5.9-5.9v-4.9
			c0-2.7-2.2-4.9-4.9-4.9h-36.8c-2.7,0-4.9,2.2-4.9,4.9v22.9c0,3.2-2.6,5.9-5.9,5.9h-7c-3.2,0-5.9-2.6-5.9-5.9v-2.9
			c0-2.7-2.2-4.9-4.9-4.9h-22.5c-3.2,0-5.9-2.6-5.9-5.9V54.8c0-2.7-2.2-4.9-4.9-4.9h-13.3c-2.7,0-4.9,2.2-4.9,4.9v5.1
			c0,3.2-2.6,5.9-5.9,5.9h-7.1c-3.2,0-5.9-2.6-5.9-5.9V17.6c0-2.7-2.2-4.9-4.9-4.9h-15.8c-2.7,0-4.9,2.2-4.9,4.9v90.2
			c0,3.2-2.6,5.9-5.9,5.9h-8.7c-3.2,0-5.9-2.6-5.9-5.9V72.7c0-2.7-2.2-4.9-4.9-4.9h-11.2c-2.7,0-4.9,2.2-4.9,4.9v14.8
			c0,3.2-2.6,5.9-5.9,5.9h-5.1c-3.2,0-5.9-2.6-5.9-5.9V48.7c0-2.7-2.2-4.9-4.9-4.9h-9.1c-2.7,0-4.9,2.2-4.9,4.9v40.9
			c0,3.2-2.6,5.9-5.9,5.9h-10.3c-3.2,0-5.9-2.6-5.9-5.9V30.8c0-2.7-2.2-4.9-4.9-4.9h-13.3c-2.7,0-4.9,2.2-4.9,4.9v81
			c0,3.2-2.6,5.9-5.9,5.9h-13.3c-3.2,0-5.9-2.6-5.9-5.9V67.6c0-2.7-2.2-4.9-4.9-4.9h-17.9c-2.7,0-4.9,2.2-4.9,4.9v10.7
			c0,3.2-2.6,5.9-5.9,5.9h-14.3c-3.2,0-5.9-2.6-5.9-5.9V43.6c0-2.7-2.2-4.9-4.9-4.9h-11.7c-3.2,0-5.9-2.6-5.9-5.9V12.4
			c0-2.7-2.2-4.9-4.9-4.9h-13.8c-2.7,0-4.9,2.2-4.9,4.9v39.9c0,3.2-2.6,5.9-5.9,5.9h-8.7c-3.2,0-5.9-2.6-5.9-5.9
			c0-2.7-2.2-4.9-4.9-4.9h-19.7c-2.7,0-4.9,2.2-4.9,4.9v32.9c0,3.2-2.6,5.9-5.9,5.9H364c-3.2,0-5.9-2.6-5.9-5.9V68.6
			c0-2.7-2.2-4.9-4.9-4.9h-14.5c-2.7,0-4.9,2.2-4.9,4.9v18.9c0,3.2-2.6,5.9-5.9,5.9h-5.8c-3.2,0-5.9-2.6-5.9-5.9v-7.1
			c0-2.7-2.2-4.9-4.9-4.9h-30.8c-2.7,0-4.9,2.2-4.9,4.9v4.9c0,3.2-2.6,5.9-5.9,5.9h-20.3c-3.2,0-5.9-2.6-5.9-5.9v-4.9
			c0-2.7-2.2-4.9-4.9-4.9h-36.8c-2.7,0-4.9,2.2-4.9,4.9v22.9c0,3.2-2.6,5.9-5.9,5.9h-7c-3.2,0-5.9-2.6-5.9-5.9v-2.9
			c0-2.7-2.2-4.9-4.9-4.9h-22.5c-3.2,0-5.9-2.6-5.9-5.9V54.8c0-2.7-2.2-4.9-4.9-4.9h-13.3c-2.7,0-4.9,2.2-4.9,4.9v5.1
			c0,3.2-2.6,5.9-5.9,5.9h-7.1c-3.2,0-5.9-2.6-5.9-5.9V17.6c0-2.7-2.2-4.9-4.9-4.9H82.9c-2.7,0-4.9,2.2-4.9,4.9v90.2
			c0,3.2-2.6,5.9-5.9,5.9h-8.7c-3.2,0-5.9-2.6-5.9-5.9V72.7c0-2.7-2.2-4.9-4.9-4.9H41.5c-2.7,0-4.9,2.2-4.9,4.9v14.8
			c0,3.2-2.6,5.9-5.9,5.9h-5.1c-3.2,0-5.9-2.6-5.9-5.9V48.7c0-2.7-2.2-4.9-4.9-4.9H5.9C3.2,43.8,1,46,1,48.7v93.2
			c0,0.3-0.2,0.5-0.5,0.5S0,142.2,0,141.9V48.7c0-3.2,2.6-5.9,5.9-5.9h9.1c3.2,0,5.9,2.6,5.9,5.9v38.8c0,2.7,2.2,4.9,4.9,4.9h5.1
			c2.7,0,4.9-2.2,4.9-4.9V72.7c0-3.2,2.6-5.9,5.9-5.9h11.2c3.2,0,5.9,2.6,5.9,5.9v35.1c0,2.7,2.2,4.9,4.9,4.9h8.7
			c2.7,0,4.9-2.2,4.9-4.9V17.6c0-3.2,2.6-5.9,5.9-5.9h15.8c3.2,0,5.9,2.6,5.9,5.9v42.4c0,2.7,2.2,4.9,4.9,4.9h7.1
			c2.7,0,4.9-2.2,4.9-4.9v-5.1c0-3.2,2.6-5.9,5.9-5.9h13.3c3.2,0,5.9,2.6,5.9,5.9v34.7c0,2.7,2.2,4.9,4.9,4.9h22.5
			c3.2,0,5.9,2.6,5.9,5.9v2.9c0,2.7,2.2,4.9,4.9,4.9h7c2.7,0,4.9-2.2,4.9-4.9V80.4c0-3.2,2.6-5.9,5.9-5.9H239c3.2,0,5.9,2.6,5.9,5.9
			v4.9c0,2.7,2.2,4.9,4.9,4.9H270c2.7,0,4.9-2.2,4.9-4.9v-4.9c0-3.2,2.6-5.9,5.9-5.9h30.8c3.2,0,5.9,2.6,5.9,5.9v7.1
			c0,2.7,2.2,4.9,4.9,4.9h5.8c2.7,0,4.9-2.2,4.9-4.9V68.6c0-3.2,2.6-5.9,5.9-5.9h14.5c3.2,0,5.9,2.6,5.9,5.9v16.6
			c0,2.7,2.2,4.9,4.9,4.9h11.7c2.7,0,4.9-2.2,4.9-4.9V52.3c0-3.2,2.6-5.9,5.9-5.9h19.7c3.2,0,5.9,2.6,5.9,5.9c0,2.7,2.2,4.9,4.9,4.9
			h8.7c2.7,0,4.9-2.2,4.9-4.9V12.4c0-3.2,2.6-5.9,5.9-5.9H450c3.2,0,5.9,2.6,5.9,5.9v20.5c0,2.7,2.2,4.9,4.9,4.9h11.7
			c3.2,0,5.9,2.6,5.9,5.9v34.7c0,2.7,2.2,4.9,4.9,4.9h14.3c2.7,0,4.9-2.2,4.9-4.9V67.6c0-3.2,2.6-5.9,5.9-5.9h17.9
			c3.2,0,5.9,2.6,5.9,5.9v44.2c0,2.7,2.2,4.9,4.9,4.9h13.3c2.7,0,4.9-2.2,4.9-4.9v-81c0-3.2,2.6-5.9,5.9-5.9h13.3
			c3.2,0,5.9,2.6,5.9,5.9v58.7c0,2.7,2.2,4.9,4.9,4.9h10.3c2.7,0,4.9-2.2,4.9-4.9V48.7c0-3.2,2.6-5.9,5.9-5.9h9.1
			c3.2,0,5.9,2.6,5.9,5.9v38.8c0,2.7,2.2,4.9,4.9,4.9h5.1c2.7,0,4.9-2.2,4.9-4.9V72.7c0-3.2,2.6-5.9,5.9-5.9h11.2
			c3.2,0,5.9,2.6,5.9,5.9v35.1c0,2.7,2.2,4.9,4.9,4.9h8.7c2.7,0,4.9-2.2,4.9-4.9V17.6c0-3.2,2.6-5.9,5.9-5.9h15.8
			c3.2,0,5.9,2.6,5.9,5.9v42.4c0,2.7,2.2,4.9,4.9,4.9h7.1c2.7,0,4.9-2.2,4.9-4.9v-5.1c0-3.2,2.6-5.9,5.9-5.9h13.3
			c3.2,0,5.9,2.6,5.9,5.9v34.7c0,2.7,2.2,4.9,4.9,4.9h22.5c3.2,0,5.9,2.6,5.9,5.9v2.9c0,2.7,2.2,4.9,4.9,4.9h7
			c2.7,0,4.9-2.2,4.9-4.9V80.4c0-3.2,2.6-5.9,5.9-5.9H839c3.2,0,5.9,2.6,5.9,5.9v4.9c0,2.7,2.2,4.9,4.9,4.9H870
			c2.7,0,4.9-2.2,4.9-4.9v-4.9c0-3.2,2.6-5.9,5.9-5.9h30.8c3.2,0,5.9,2.6,5.9,5.9v7.1c0,2.7,2.2,4.9,4.9,4.9h5.8
			c2.7,0,4.9-2.2,4.9-4.9V68.6c0-3.2,2.6-5.9,5.9-5.9h14.5c3.2,0,5.9,2.6,5.9,5.9v16.6c0,2.7,2.2,4.9,4.9,4.9h11.7
			c2.7,0,4.9-2.2,4.9-4.9V52.3c0-3.2,2.6-5.9,5.9-5.9h19.7c3.2,0,5.9,2.6,5.9,5.9c0,2.7,2.2,4.9,4.9,4.9h8.7c2.7,0,4.9-2.2,4.9-4.9
			V12.4c0-3.2,2.6-5.9,5.9-5.9h13.8c3.2,0,5.9,2.6,5.9,5.9v20.5c0,2.7,2.2,4.9,4.9,4.9h11.7c3.2,0,5.9,2.6,5.9,5.9v34.7
			c0,2.7,2.2,4.9,4.9,4.9h14.3c2.7,0,4.9-2.2,4.9-4.9V67.6c0-3.2,2.6-5.9,5.9-5.9h17.9c3.2,0,5.9,2.6,5.9,5.9v44.2
			c0,2.7,2.2,4.9,4.9,4.9h13.3c2.7,0,4.9-2.2,4.9-4.9v-81c0-3.2,2.6-5.9,5.9-5.9h13.3c3.2,0,5.9,2.6,5.9,5.9l0,105.7
			c0,2.7,2.2,4.9,4.9,4.9h15.7c0.3,0,0.5,0.2,0.5,0.5S1200.8,142.4,1200.5,142.4z"/>
	</g>
</g>
<g class="st1">
	<g class="st2">
		<path d="M316.7,177.5c-3.8,5-9.7,8.2-16.4,8.2c-11.4,0-20.6-9.2-20.6-20.6c0-11.4,9.2-20.6,20.6-20.6c6.7,0,12.7,3.2,16.4,8.2
			c-2-1.1-4.4-1.8-6.8-1.8c-7.8,0-14.2,6.3-14.2,14.2c0,7.8,6.3,14.2,14.2,14.2C312.3,179.3,314.7,178.6,316.7,177.5z"/>
		<path d="M300.3,186.2c-11.6,0-21.1-9.5-21.1-21.1c0-11.6,9.5-21.1,21.1-21.1c6.7,0,12.8,3,16.8,8.4c0.1,0.2,0.1,0.4,0,0.6
			s-0.4,0.2-0.6,0.1c-2-1.1-4.3-1.7-6.6-1.7c-7.5,0-13.7,6.1-13.7,13.7s6.1,13.7,13.7,13.7c2.3,0,4.6-0.6,6.6-1.7
			c0.2-0.1,0.5-0.1,0.6,0.1s0.2,0.4,0,0.6C313.1,183.1,306.9,186.2,300.3,186.2z M300.3,145c-11.1,0-20.1,9-20.1,20.1
			c0,11.1,9,20.1,20.1,20.1c5.6,0,10.8-2.3,14.6-6.3c-1.6,0.6-3.3,0.9-5.1,0.9c-8.1,0-14.7-6.6-14.7-14.7s6.6-14.7,14.7-14.7
			c1.7,0,3.4,0.3,5,0.9C311.1,147.3,305.9,145,300.3,145z"/>
	</g>
	<g class="st2">
		<path d="M316.7,178.9c-3.8,5-9.7,8.2-16.4,8.2c-11.4,0-20.6-9.2-20.6-20.6c0-11.4,9.2-20.6,20.6-20.6c6.7,0,12.7,3.2,16.4,8.2
			c-2-1.1-4.4-1.8-6.8-1.8c-7.8,0-14.2,6.3-14.2,14.2c0,7.8,6.3,14.2,14.2,14.2C312.3,180.7,314.7,180.1,316.7,178.9z"/>
		<path d="M300.3,187.6c-11.6,0-21.1-9.5-21.1-21.1c0-11.6,9.5-21.1,21.1-21.1c6.7,0,12.8,3,16.8,8.4c0.1,0.2,0.1,0.4,0,0.6
			c-0.2,0.2-0.4,0.2-0.6,0.1c-2-1.1-4.3-1.7-6.6-1.7c-7.5,0-13.7,6.1-13.7,13.7c0,7.5,6.1,13.7,13.7,13.7c2.3,0,4.6-0.6,6.6-1.7
			c0.2-0.1,0.5-0.1,0.6,0.1c0.2,0.2,0.2,0.4,0,0.6C313.1,184.6,306.9,187.6,300.3,187.6z M300.3,146.4c-11.1,0-20.1,9-20.1,20.1
			c0,11.1,9,20.1,20.1,20.1c5.6,0,10.8-2.3,14.6-6.3c-1.6,0.6-3.3,0.9-5.1,0.9c-8.1,0-14.7-6.6-14.7-14.7s6.6-14.7,14.7-14.7
			c1.7,0,3.4,0.3,5,0.9C311.1,148.7,305.9,146.4,300.3,146.4z"/>
	</g>
</g>
<g class="st1">
	<rect x="0" y="215.5" class="st6" width="600" height="50"/>
</g>
<g class="st1">
	<path class="st2" d="M600.2,215.5H0.2c-0.3,0-0.5-0.2-0.5-0.5s0.2-0.5,0.5-0.5h600c0.3,0,0.5,0.2,0.5,0.5S600.5,215.5,600.2,215.5z
		"/>
</g>
<g class="st1">
	<g class="st2">
		<g>
			
				<rect x="325.5" y="165.8" transform="matrix(0.7071 -0.7071 0.7071 0.7071 -25.0539 280.7673)" class="st11" width="1.7" height="9.7"/>
			<path d="M329.2,175.2c-0.1,0-0.3,0-0.4-0.1l-6.9-6.9c-0.1-0.1-0.1-0.2-0.1-0.4s0.1-0.3,0.1-0.4l1.2-1.2c0.2-0.2,0.5-0.2,0.7,0
				l6.9,6.9c0.1,0.1,0.1,0.2,0.1,0.4s-0.1,0.3-0.1,0.4l-1.2,1.2C329.5,175.1,329.3,175.2,329.2,175.2z M323.1,167.8l6.2,6.2l0.5-0.5
				l-6.2-6.2L323.1,167.8z"/>
		</g>
		<g>
			
				<rect x="321.8" y="162.3" transform="matrix(0.7071 0.7071 -0.7071 0.7071 212.6856 -179.2342)" class="st11" width="1.7" height="9.7"/>
			<path d="M319.9,171.6c-0.1,0-0.3,0-0.4-0.1l-1.2-1.2c-0.2-0.2-0.2-0.5,0-0.7l6.9-6.9c0.2-0.2,0.5-0.2,0.7,0l1.2,1.2
				c0.2,0.2,0.2,0.5,0,0.7l-6.9,6.9C320.1,171.6,320,171.6,319.9,171.6z M319.4,169.9l0.5,0.5l6.2-6.2l-0.5-0.5L319.4,169.9z"/>
		</g>
	</g>
	<g class="st2">
		<polygon class="st11" points="384.2,190.5 229.1,190.5 229.1,173.1 376.4,173.1 		"/>
		<path d="M384.2,191H229.1c-0.3,0-0.5-0.2-0.5-0.5v-17.4c0-0.3,0.2-0.5,0.5-0.5h147.3c0.2,0,0.4,0.1,0.5,0.3l7.8,17.4
			c0.1,0.2,0.1,0.3,0,0.5C384.5,190.9,384.4,191,384.2,191z M229.6,190h153.8l-7.3-16.4H229.6V190z"/>
	</g>
	<g class="st2">
		<polygon class="st11" points="337.6,173.1 330.9,151.7 328.8,151.7 328.8,173.1 		"/>
		<path d="M337.6,173.6h-8.8c-0.3,0-0.5-0.2-0.5-0.5v-21.4c0-0.3,0.2-0.5,0.5-0.5h2.1c0.2,0,0.4,0.1,0.5,0.4l6.6,21.4
			c0,0.2,0,0.3-0.1,0.4C337.9,173.5,337.7,173.6,337.6,173.6z M329.3,172.6h7.6l-6.3-20.4h-1.3V172.6z"/>
	</g>
	<g class="st2">
		<rect x="229.1" y="190.5" class="st11" width="155.1" height="9.7"/>
		<path d="M384.2,200.7H229.1c-0.3,0-0.5-0.2-0.5-0.5v-9.7c0-0.3,0.2-0.5,0.5-0.5h155.1c0.3,0,0.5,0.2,0.5,0.5v9.7
			C384.7,200.4,384.5,200.7,384.2,200.7z M229.6,199.7h154.1V191H229.6V199.7z"/>
	</g>
	<g class="st2">
		<polygon class="st11" points="291.4,173.1 291.4,166 294.1,166 297.6,173.1 		"/>
		<path d="M297.6,173.6h-6.3c-0.3,0-0.5-0.2-0.5-0.5V166c0-0.3,0.2-0.5,0.5-0.5h2.7c0.2,0,0.4,0.1,0.4,0.3l3.6,7.1
			c0.1,0.2,0.1,0.3,0,0.5C298,173.5,297.8,173.6,297.6,173.6z M291.9,172.6h5l-3.1-6.1h-1.9V172.6z"/>
	</g>
	<g class="st2">
		<polygon class="st11" points="377.3,175.1 384.2,175.1 384.2,183.4 381.1,183.4 		"/>
		<path d="M384.2,183.9h-3.1c-0.2,0-0.4-0.1-0.5-0.3l-3.8-8.4c-0.1-0.2-0.1-0.3,0-0.5c0.1-0.1,0.3-0.2,0.4-0.2h6.9
			c0.3,0,0.5,0.2,0.5,0.5v8.4C384.7,183.7,384.5,183.9,384.2,183.9z M381.4,182.9h2.3v-7.4h-5.6L381.4,182.9z"/>
	</g>
	<g class="st2">
		<rect x="286.4" y="200.2" class="st11" width="42.4" height="4.3"/>
		<path d="M328.8,205h-42.4c-0.3,0-0.5-0.2-0.5-0.5v-4.3c0-0.3,0.2-0.5,0.5-0.5h42.4c0.3,0,0.5,0.2,0.5,0.5v4.3
			C329.3,204.8,329.1,205,328.8,205z M286.9,204h41.4v-3.3h-41.4V204z"/>
	</g>
	<g class="st2">
		<rect x="328.8" y="200.2" class="st11" width="27.3" height="2.2"/>
		<path d="M356.1,202.8h-27.3c-0.3,0-0.5-0.2-0.5-0.5v-2.2c0-0.3,0.2-0.5,0.5-0.5h27.3c0.3,0,0.5,0.2,0.5,0.5v2.2
			C356.6,202.6,356.4,202.8,356.1,202.8z M329.3,201.8h26.3v-1.2h-26.3V201.8z"/>
	</g>
	<g class="st2">
		<rect x="242.3" y="200.2" class="st11" width="44.2" height="2.2"/>
		<path d="M286.4,202.8h-44.2c-0.3,0-0.5-0.2-0.5-0.5v-2.2c0-0.3,0.2-0.5,0.5-0.5h44.2c0.3,0,0.5,0.2,0.5,0.5v2.2
			C286.9,202.6,286.7,202.8,286.4,202.8z M242.8,201.8h43.2v-1.2h-43.2V201.8z"/>
	</g>
	<g class="st2">
		<rect x="222.5" y="200.2" class="st11" width="19.8" height="4.1"/>
		<path d="M242.3,204.8h-19.8c-0.3,0-0.5-0.2-0.5-0.5v-4.1c0-0.3,0.2-0.5,0.5-0.5h19.8c0.3,0,0.5,0.2,0.5,0.5v4.1
			C242.8,204.5,242.5,204.8,242.3,204.8z M223,203.8h18.8v-3.1H223V203.8z"/>
	</g>
	<g class="st2">
		<rect x="212.2" y="201.4" class="st11" width="10.3" height="1.9"/>
		<path d="M222.5,203.8h-10.3c-0.3,0-0.5-0.2-0.5-0.5v-1.9c0-0.3,0.2-0.5,0.5-0.5h10.3c0.3,0,0.5,0.2,0.5,0.5v1.9
			C223,203.6,222.8,203.8,222.5,203.8z M212.7,202.8h9.3v-0.9h-9.3V202.8z"/>
	</g>
	<g class="st2">
		<rect x="294.5" y="173.1" class="st11" width="34.3" height="27.1"/>
		<path d="M328.8,200.7h-34.3c-0.3,0-0.5-0.2-0.5-0.5v-27.1c0-0.3,0.2-0.5,0.5-0.5h34.3c0.3,0,0.5,0.2,0.5,0.5v27.1
			C329.3,200.4,329.1,200.7,328.8,200.7z M295,199.7h33.3v-26.1H295V199.7z"/>
	</g>
	<g class="st2">
		<line class="st11" x1="328.8" y1="195.3" x2="272.6" y2="195.3"/>
		<path d="M328.8,195.8h-56.2c-0.3,0-0.5-0.2-0.5-0.5s0.2-0.5,0.5-0.5h56.2c0.3,0,0.5,0.2,0.5,0.5S329.1,195.8,328.8,195.8z"/>
	</g>
	<g class="st2">
		<rect x="287.8" y="156.8" class="st11" width="3.2" height="16.3"/>
		<path d="M291.1,173.6h-3.2c-0.3,0-0.5-0.2-0.5-0.5v-16.3c0-0.3,0.2-0.5,0.5-0.5h3.2c0.3,0,0.5,0.2,0.5,0.5v16.3
			C291.6,173.4,291.4,173.6,291.1,173.6z M288.3,172.6h2.2v-15.3h-2.2V172.6z"/>
	</g>
	<g class="st2">
		<rect x="231.4" y="165" class="st11" width="25.6" height="8.1"/>
		<path d="M256.9,173.6h-25.6c-0.3,0-0.5-0.2-0.5-0.5V165c0-0.3,0.2-0.5,0.5-0.5h25.6c0.3,0,0.5,0.2,0.5,0.5v8.1
			C257.4,173.4,257.2,173.6,256.9,173.6z M231.9,172.6h24.6v-7.1h-24.6V172.6z"/>
	</g>
	<g class="st2">
		<rect x="228.7" y="156.8" class="st11" width="25.6" height="8.1"/>
		<path d="M254.3,165.5h-25.6c-0.3,0-0.5-0.2-0.5-0.5v-8.1c0-0.3,0.2-0.5,0.5-0.5h25.6c0.3,0,0.5,0.2,0.5,0.5v8.1
			C254.8,165.2,254.6,165.5,254.3,165.5z M229.2,164.5h24.6v-7.1h-24.6V164.5z"/>
	</g>
	<g class="st2">
		<rect x="229.1" y="148.7" class="st11" width="25.6" height="8.1"/>
		<path d="M254.7,157.3h-25.6c-0.3,0-0.5-0.2-0.5-0.5v-8.1c0-0.3,0.2-0.5,0.5-0.5h25.6c0.3,0,0.5,0.2,0.5,0.5v8.1
			C255.2,157.1,255,157.3,254.7,157.3z M229.6,156.3h24.6v-7.1h-24.6V156.3z"/>
	</g>
	<g class="st2">
		<rect x="232.9" y="144.1" class="st11" width="22.4" height="4.5"/>
		<path d="M255.4,149.2h-22.4c-0.3,0-0.5-0.2-0.5-0.5v-4.5c0-0.3,0.2-0.5,0.5-0.5h22.4c0.3,0,0.5,0.2,0.5,0.5v4.5
			C255.9,148.9,255.6,149.2,255.4,149.2z M233.4,148.2h21.4v-3.5h-21.4V148.2z"/>
	</g>
	<g class="st2">
		<rect x="242" y="142.3" class="st11" width="3.5" height="30.8"/>
		<path d="M245.5,173.6H242c-0.3,0-0.5-0.2-0.5-0.5v-30.8c0-0.3,0.2-0.5,0.5-0.5h3.5c0.3,0,0.5,0.2,0.5,0.5v30.8
			C246,173.4,245.8,173.6,245.5,173.6z M242.5,172.6h2.5v-29.8h-2.5V172.6z"/>
	</g>
	<g class="st2">
		<rect x="297.6" y="176.9" class="st11" width="8.2" height="1.5"/>
		<path d="M305.9,179h-8.2c-0.3,0-0.5-0.2-0.5-0.5v-1.5c0-0.3,0.2-0.5,0.5-0.5h8.2c0.3,0,0.5,0.2,0.5,0.5v1.5
			C306.4,178.7,306.2,179,305.9,179z M298.1,178h7.2v-0.5h-7.2V178z"/>
	</g>
	<g class="st2">
		<rect x="227.1" y="191.7" class="st11" width="2" height="6.5"/>
		<path d="M229.1,198.8h-2c-0.3,0-0.5-0.2-0.5-0.5v-6.5c0-0.3,0.2-0.5,0.5-0.5h2c0.3,0,0.5,0.2,0.5,0.5v6.5
			C229.6,198.5,229.4,198.8,229.1,198.8z M227.6,197.8h1v-5.5h-1V197.8z"/>
	</g>
	<g class="st2">
		<rect x="384.2" y="190.5" class="st11" width="4.1" height="9.7"/>
		<path d="M388.3,200.7h-4.1c-0.3,0-0.5-0.2-0.5-0.5v-9.7c0-0.3,0.2-0.5,0.5-0.5h4.1c0.3,0,0.5,0.2,0.5,0.5v9.7
			C388.8,200.4,388.6,200.7,388.3,200.7z M384.7,199.7h3.1V191h-3.1V199.7z"/>
	</g>
	<g class="st2">
		<polygon class="st11" points="388.3,200.2 384.2,204.5 370.2,204.5 370.2,200.2 		"/>
		<path d="M384.2,205h-14c-0.3,0-0.5-0.2-0.5-0.5v-4.3c0-0.3,0.2-0.5,0.5-0.5h18.1c0.2,0,0.4,0.1,0.5,0.3c0.1,0.2,0,0.4-0.1,0.5
			l-4.1,4.3C384.5,205,384.4,205,384.2,205z M370.7,204H384l3.1-3.3h-16.4V204z"/>
	</g>
	<g class="st2">
		<rect x="256.9" y="130.5" class="st11" width="30.9" height="42.6"/>
		<path d="M287.8,173.6h-30.9c-0.3,0-0.5-0.2-0.5-0.5v-42.6c0-0.3,0.2-0.5,0.5-0.5h30.9c0.3,0,0.5,0.2,0.5,0.5v42.6
			C288.3,173.4,288.1,173.6,287.8,173.6z M257.4,172.6h29.9V131h-29.9V172.6z"/>
	</g>
	<g class="st2">
		<rect x="271.7" y="128.4" class="st11" width="3.5" height="44.7"/>
		<path d="M275.2,173.6h-3.5c-0.3,0-0.5-0.2-0.5-0.5v-44.7c0-0.3,0.2-0.5,0.5-0.5h3.5c0.3,0,0.5,0.2,0.5,0.5v44.7
			C275.7,173.4,275.4,173.6,275.2,173.6z M272.2,172.6h2.5v-43.7h-2.5V172.6z"/>
	</g>
</g>
<g class="st1">
	<g class="st2">
		<circle class="st11" cx="300.3" cy="168.8" r="14.8"/>
		<path d="M300.3,184.1c-8.4,0-15.3-6.9-15.3-15.3s6.9-15.3,15.3-15.3s15.3,6.9,15.3,15.3S308.7,184.1,300.3,184.1z M300.3,154.5
			c-7.9,0-14.3,6.4-14.3,14.3s6.4,14.3,14.3,14.3s14.3-6.4,14.3-14.3S308.1,154.5,300.3,154.5z"/>
	</g>
	<g class="st2">
		<circle class="st11" cx="300.3" cy="168.8" r="11"/>
		<path d="M300.3,180.4c-6.4,0-11.5-5.2-11.5-11.5c0-6.4,5.2-11.5,11.5-11.5s11.5,5.2,11.5,11.5
			C311.8,175.2,306.6,180.4,300.3,180.4z M300.3,158.3c-5.8,0-10.5,4.7-10.5,10.5c0,5.8,4.7,10.5,10.5,10.5s10.5-4.7,10.5-10.5
			C310.8,163,306.1,158.3,300.3,158.3z"/>
	</g>
	<g class="st2">
		<g>
			<path d="M300.3,180.4c-0.3,0-0.5-0.2-0.5-0.5v-22.1c0-0.3,0.2-0.5,0.5-0.5s0.5,0.2,0.5,0.5v22.1
				C300.8,180.1,300.5,180.4,300.3,180.4z"/>
		</g>
		<g>
			<path d="M292.4,177.1c-0.1,0-0.3,0-0.4-0.1c-0.2-0.2-0.2-0.5,0-0.7l15.6-15.6c0.2-0.2,0.5-0.2,0.7,0s0.2,0.5,0,0.7L292.8,177
				C292.7,177.1,292.6,177.1,292.4,177.1z"/>
		</g>
		<g>
			<path d="M311.3,169.3h-22.1c-0.3,0-0.5-0.2-0.5-0.5s0.2-0.5,0.5-0.5h22.1c0.3,0,0.5,0.2,0.5,0.5S311.6,169.3,311.3,169.3z"/>
		</g>
		<g>
			<path d="M308.1,177.1c-0.1,0-0.3,0-0.4-0.1l-15.6-15.6c-0.2-0.2-0.2-0.5,0-0.7s0.5-0.2,0.7,0l15.6,15.6c0.2,0.2,0.2,0.5,0,0.7
				C308.3,177.1,308.2,177.1,308.1,177.1z"/>
		</g>
	</g>
	<g class="st2">
		<circle class="st11" cx="300.3" cy="168.8" r="2.3"/>
		<path d="M300.3,171.6c-1.5,0-2.8-1.3-2.8-2.8s1.3-2.8,2.8-2.8s2.8,1.3,2.8,2.8S301.8,171.6,300.3,171.6z M300.3,167
			c-1,0-1.8,0.8-1.8,1.8s0.8,1.8,1.8,1.8s1.8-0.8,1.8-1.8S301.2,167,300.3,167z"/>
	</g>
</g>
<g class="st1">
	<polygon class="st6" points="297.6,173 304.9,173 304.9,171.4 307.9,171.4 307.9,169.4 306.5,169.4 306.5,166.6 303.1,166.6 
		303.1,167.5 300.3,167.5 300.3,164.6 297.1,164.6 297.1,166.6 292.6,166.6 292.6,169.4 294.2,169.4 294.2,171.2 297.6,171.2 	"/>
	<path class="st2" d="M304.9,173.5h-7.3c-0.3,0-0.5-0.2-0.5-0.5v-1.3h-2.9c-0.3,0-0.5-0.2-0.5-0.5v-1.3h-1.1c-0.3,0-0.5-0.2-0.5-0.5
		v-2.9c0-0.3,0.2-0.5,0.5-0.5h4v-1.5c0-0.3,0.2-0.5,0.5-0.5h3.1c0.3,0,0.5,0.2,0.5,0.5v2.4h1.9v-0.5c0-0.3,0.2-0.5,0.5-0.5h3.3
		c0.3,0,0.5,0.2,0.5,0.5v2.4h0.9c0.3,0,0.5,0.2,0.5,0.5v2c0,0.3-0.2,0.5-0.5,0.5h-2.5v1.1C305.4,173.3,305.2,173.5,304.9,173.5z
		 M298.1,172.5h6.3v-1.1c0-0.3,0.2-0.5,0.5-0.5h2.5v-1h-0.9c-0.3,0-0.5-0.2-0.5-0.5v-2.4h-2.3v0.5c0,0.3-0.2,0.5-0.5,0.5h-2.9
		c-0.3,0-0.5-0.2-0.5-0.5v-2.4h-2.1v1.5c0,0.3-0.2,0.5-0.5,0.5h-4v1.9h1.1c0.3,0,0.5,0.2,0.5,0.5v1.3h2.9c0.3,0,0.5,0.2,0.5,0.5
		V172.5z"/>
</g>
<g class="st1">
	<polygon class="st6" points="300.3,156.6 309.6,146.3 308.9,160.2 322.8,159.5 312.4,168.8 322.8,178.1 308.9,177.4 309.6,191.3 
		300.3,181 290.9,191.3 291.6,177.4 277.8,178.1 288.1,168.8 277.8,159.5 291.6,160.2 290.9,146.3 	"/>
	<path class="st2" d="M290.9,191.8c-0.1,0-0.1,0-0.2,0c-0.2-0.1-0.3-0.3-0.3-0.5l0.7-13.3l-13.3,0.7c-0.2,0-0.4-0.1-0.5-0.3
		c-0.1-0.2,0-0.4,0.1-0.6l9.9-8.9l-9.9-8.9c-0.2-0.1-0.2-0.4-0.1-0.6c0.1-0.2,0.3-0.3,0.5-0.3l13.3,0.7l-0.7-13.3
		c0-0.2,0.1-0.4,0.3-0.5c0.2-0.1,0.4,0,0.6,0.1l8.9,9.9l8.9-9.9c0.1-0.2,0.4-0.2,0.6-0.1c0.2,0.1,0.3,0.3,0.3,0.5l-0.7,13.3
		l13.3-0.7c0.2,0,0.4,0.1,0.5,0.3c0.1,0.2,0,0.4-0.1,0.6l-9.9,8.9l9.9,8.9c0.2,0.1,0.2,0.4,0.1,0.6c-0.1,0.2-0.3,0.3-0.5,0.3
		l-13.3-0.7l0.7,13.3c0,0.2-0.1,0.4-0.3,0.5c-0.2,0.1-0.4,0-0.6-0.1l-8.9-9.9l-8.9,9.9C291.2,191.8,291.1,191.8,290.9,191.8z
		 M291.6,176.9c0.1,0,0.3,0.1,0.4,0.1c0.1,0.1,0.2,0.2,0.1,0.4l-0.6,12.5l8.4-9.3c0.1-0.1,0.2-0.2,0.4-0.2l0,0
		c0.1,0,0.3,0.1,0.4,0.2l8.4,9.3l-0.6-12.5c0-0.1,0-0.3,0.1-0.4c0.1-0.1,0.2-0.2,0.4-0.1l12.5,0.6l-9.3-8.4
		c-0.1-0.1-0.2-0.2-0.2-0.4s0.1-0.3,0.2-0.4l9.3-8.4l-12.5,0.6c-0.1,0-0.3,0-0.4-0.1c-0.1-0.1-0.2-0.2-0.1-0.4l0.6-12.5l-8.4,9.3
		c-0.2,0.2-0.6,0.2-0.7,0l-8.4-9.3l0.6,12.5c0,0.1,0,0.3-0.1,0.4c-0.1,0.1-0.2,0.2-0.4,0.1l-12.5-0.6l9.3,8.4
		c0.1,0.1,0.2,0.2,0.2,0.4s-0.1,0.3-0.2,0.4l-9.3,8.4L291.6,176.9C291.6,176.9,291.6,176.9,291.6,176.9z"/>
</g>
<g class="st1">
	<g class="st2">
		<circle cx="300.3" cy="168.2" r="8.9"/>
		<path d="M300.3,177.7c-5.2,0-9.4-4.2-9.4-9.4s4.2-9.4,9.4-9.4c5.2,0,9.4,4.2,9.4,9.4S305.4,177.7,300.3,177.7z M300.3,159.8
			c-4.6,0-8.4,3.8-8.4,8.4s3.8,8.4,8.4,8.4c4.6,0,8.4-3.8,8.4-8.4S304.9,159.8,300.3,159.8z"/>
	</g>
	<g class="st2">
		<circle class="st11" cx="300.3" cy="169.4" r="8.9"/>
		<path d="M300.3,178.8c-5.2,0-9.4-4.2-9.4-9.4s4.2-9.4,9.4-9.4c5.2,0,9.4,4.2,9.4,9.4S305.4,178.8,300.3,178.8z M300.3,160.9
			c-4.6,0-8.4,3.8-8.4,8.4s3.8,8.4,8.4,8.4c4.6,0,8.4-3.8,8.4-8.4S304.9,160.9,300.3,160.9z"/>
	</g>
</g>
<g>
	<path class="st3" d="M0.2,140.4V42.2c0-3,2.4-5.4,5.4-5.4h9.1c3,0,5.4,2.4,5.4,5.4V81c0,3,2.4,5.4,5.4,5.4h5.1c3,0,5.4-2.4,5.4-5.4
		V66.2c0-3,2.4-5.4,5.4-5.4h11.2c3,0,5.4,2.4,5.4,5.4v35.1c0,3,2.4,5.4,5.4,5.4h8.7c3,0,5.4-2.4,5.4-5.4V11.1c0-3,2.4-5.4,5.4-5.4
		h15.8c3,0,5.4,2.4,5.4,5.4v42.4c0,3,2.4,5.4,5.4,5.4h7.1c3,0,5.4-2.4,5.4-5.4v-5.1c0-3,2.4-5.4,5.4-5.4h13.3c3,0,5.4,2.4,5.4,5.4
		v34.7c0,3,2.4,5.4,5.4,5.4h22.5c3,0,5.4,2.4,5.4,5.4v2.9c0,3,2.4,5.4,5.4,5.4h7c3,0,5.4-2.4,5.4-5.4V73.9c0-3,2.4-5.4,5.4-5.4h36.8
		c3,0,5.4,2.4,5.4,5.4v4.9c0,3,2.4,5.4,5.4,5.4h20.3c3,0,5.4-2.4,5.4-5.4v-4.9c0-3,2.4-5.4,5.4-5.4h30.8c3,0,5.4,2.4,5.4,5.4V81
		c0,3,2.4,5.4,5.4,5.4h5.8c3,0,5.4-2.4,5.4-5.4V62.1c0-3,2.4-5.4,5.4-5.4H353c3,0,5.4,2.4,5.4,5.4v16.6c0,3,2.4,5.4,5.4,5.4h11.7
		c3,0,5.4-2.4,5.4-5.4V45.8c0-3,2.4-5.4,5.4-5.4h19.7c3,0,5.4,2.4,5.4,5.4v0c0,3,2.4,5.4,5.4,5.4h8.7c3,0,5.4-2.4,5.4-5.4V5.9
		c0-3,2.4-5.4,5.4-5.4h13.8c3,0,5.4,2.4,5.4,5.4v20.5c0,3,2.4,5.4,5.4,5.4h11.7c3,0,5.4,2.4,5.4,5.4v34.7c0,3,2.4,5.4,5.4,5.4h14.3
		c3,0,5.4-2.4,5.4-5.4V61.1c0-3,2.4-5.4,5.4-5.4h17.9c3,0,5.4,2.4,5.4,5.4v44.2c0,3,2.4,5.4,5.4,5.4h13.3c3,0,5.4-2.4,5.4-5.4v-81
		c0-3,2.4-5.4,5.4-5.4h13.3c3,0,5.4,2.4,5.4,5.4v58.7c0,3,2.4,5.4,5.4,5.4h10.3c3,0,5.4-2.4,5.4-5.4V42.2c0-3,2.4-5.4,5.4-5.4h9.1
		c3,0,5.4,2.4,5.4,5.4V81c0,3,2.4,5.4,5.4,5.4h5.1c3,0,5.4-2.4,5.4-5.4V66.2c0-3,2.4-5.4,5.4-5.4h11.2c3,0,5.4,2.4,5.4,5.4v35.1
		c0,3,2.4,5.4,5.4,5.4h8.7c3,0,5.4-2.4,5.4-5.4V11.1c0-3,2.4-5.4,5.4-5.4h15.8c3,0,5.4,2.4,5.4,5.4v42.4c0,3,2.4,5.4,5.4,5.4h7.1
		c3,0,5.4-2.4,5.4-5.4v-5.1c0-3,2.4-5.4,5.4-5.4h13.3c3,0,5.4,2.4,5.4,5.4v34.7c0,3,2.4,5.4,5.4,5.4h22.5c3,0,5.4,2.4,5.4,5.4v2.9
		c0,3,2.4,5.4,5.4,5.4h7c3,0,5.4-2.4,5.4-5.4V73.9c0-3,2.4-5.4,5.4-5.4h36.8c3,0,5.4,2.4,5.4,5.4v4.9c0,3,2.4,5.4,5.4,5.4h20.3
		c3,0,5.4-2.4,5.4-5.4v-4.9c0-3,2.4-5.4,5.4-5.4h30.8c3,0,5.4,2.4,5.4,5.4V81c0,3,2.4,5.4,5.4,5.4h5.8c3,0,5.4-2.4,5.4-5.4V62.1
		c0-3,2.4-5.4,5.4-5.4H953c3,0,5.4,2.4,5.4,5.4v16.6c0,3,2.4,5.4,5.4,5.4h11.7c3,0,5.4-2.4,5.4-5.4V45.8c0-3,2.4-5.4,5.4-5.4h19.7
		c3,0,5.4,2.4,5.4,5.4v0c0,3,2.4,5.4,5.4,5.4h8.7c3,0,5.4-2.4,5.4-5.4V5.9c0-3,2.4-5.4,5.4-5.4h13.8c3,0,5.4,2.4,5.4,5.4v20.5
		c0,3,2.4,5.4,5.4,5.4h11.7c3,0,5.4,2.4,5.4,5.4v34.7c0,3,2.4,5.4,5.4,5.4h14.3c3,0,5.4-2.4,5.4-5.4V61.1c0-3,2.4-5.4,5.4-5.4h17.9
		c3,0,5.4,2.4,5.4,5.4v44.2c0,3,2.4,5.4,5.4,5.4h13.3c3,0,5.4-2.4,5.4-5.4v-81c0-3,2.4-5.4,5.4-5.4h13.3c3,0,5.4,2.4,5.4,5.4v110.4
		c0,3,2.4,5.4,5.4,5.4h15.7"/>
	<path class="st4" d="M1200.2,141.9h-15.7c-3,0-5.4-2.4-5.4-5.4l0-105.7c0-3-2.4-5.4-5.4-5.4h-13.3c-3,0-5.4,2.4-5.4,5.4v81
		c0,3-2.4,5.4-5.4,5.4h-13.3c-3,0-5.4-2.4-5.4-5.4V67.6c0-3-2.4-5.4-5.4-5.4H1108c-3,0-5.4,2.4-5.4,5.4v10.7c0,3-2.4,5.4-5.4,5.4
		H1083c-3,0-5.4-2.4-5.4-5.4V43.6c0-3-2.4-5.4-5.4-5.4h-11.7c-3,0-5.4-2.4-5.4-5.4V12.4c0-3-2.4-5.4-5.4-5.4H1036
		c-3,0-5.4,2.4-5.4,5.4v39.9c0,3-2.4,5.4-5.4,5.4h-8.7c-3,0-5.4-2.4-5.4-5.4v0c0-3-2.4-5.4-5.4-5.4h-19.7c-3,0-5.4,2.4-5.4,5.4v32.9
		c0,3-2.4,5.4-5.4,5.4h-11.7c-3,0-5.4-2.4-5.4-5.4V68.6c0-3-2.4-5.4-5.4-5.4h-14.5c-3,0-5.4,2.4-5.4,5.4v18.9c0,3-2.4,5.4-5.4,5.4
		H922c-3,0-5.4-2.4-5.4-5.4v-7.1c0-3-2.4-5.4-5.4-5.4h-30.8c-3,0-5.4,2.4-5.4,5.4v4.9c0,3-2.4,5.4-5.4,5.4h-20.3
		c-3,0-5.4-2.4-5.4-5.4v-4.9c0-3-2.4-5.4-5.4-5.4H802c-3,0-5.4,2.4-5.4,5.4v22.9c0,3-2.4,5.4-5.4,5.4h-7c-3,0-5.4-2.4-5.4-5.4v-2.9
		c0-3-2.4-5.4-5.4-5.4H751c-3,0-5.4-2.4-5.4-5.4V54.8c0-3-2.4-5.4-5.4-5.4H727c-3,0-5.4,2.4-5.4,5.4v5.1c0,3-2.4,5.4-5.4,5.4h-7.1
		c-3,0-5.4-2.4-5.4-5.4V17.6c0-3-2.4-5.4-5.4-5.4h-15.8c-3,0-5.4,2.4-5.4,5.4v90.2c0,3-2.4,5.4-5.4,5.4h-8.7c-3,0-5.4-2.4-5.4-5.4
		V72.7c0-3-2.4-5.4-5.4-5.4h-11.2c-3,0-5.4,2.4-5.4,5.4v14.8c0,3-2.4,5.4-5.4,5.4h-5.1c-3,0-5.4-2.4-5.4-5.4V48.7
		c0-3-2.4-5.4-5.4-5.4h-9.1c-3,0-5.4,2.4-5.4,5.4v40.9c0,3-2.4,5.4-5.4,5.4h-10.3c-3,0-5.4-2.4-5.4-5.4V30.8c0-3-2.4-5.4-5.4-5.4
		h-13.3c-3,0-5.4,2.4-5.4,5.4v81c0,3-2.4,5.4-5.4,5.4h-13.3c-3,0-5.4-2.4-5.4-5.4V67.6c0-3-2.4-5.4-5.4-5.4H508
		c-3,0-5.4,2.4-5.4,5.4v10.7c0,3-2.4,5.4-5.4,5.4H483c-3,0-5.4-2.4-5.4-5.4V43.6c0-3-2.4-5.4-5.4-5.4h-11.7c-3,0-5.4-2.4-5.4-5.4
		V12.4c0-3-2.4-5.4-5.4-5.4H436c-3,0-5.4,2.4-5.4,5.4v39.9c0,3-2.4,5.4-5.4,5.4h-8.7c-3,0-5.4-2.4-5.4-5.4v0c0-3-2.4-5.4-5.4-5.4
		h-19.7c-3,0-5.4,2.4-5.4,5.4v32.9c0,3-2.4,5.4-5.4,5.4h-11.7c-3,0-5.4-2.4-5.4-5.4V68.6c0-3-2.4-5.4-5.4-5.4h-14.5
		c-3,0-5.4,2.4-5.4,5.4v18.9c0,3-2.4,5.4-5.4,5.4H322c-3,0-5.4-2.4-5.4-5.4v-7.1c0-3-2.4-5.4-5.4-5.4h-30.8c-3,0-5.4,2.4-5.4,5.4
		v4.9c0,3-2.4,5.4-5.4,5.4h-20.3c-3,0-5.4-2.4-5.4-5.4v-4.9c0-3-2.4-5.4-5.4-5.4H202c-3,0-5.4,2.4-5.4,5.4v22.9c0,3-2.4,5.4-5.4,5.4
		h-7c-3,0-5.4-2.4-5.4-5.4v-2.9c0-3-2.4-5.4-5.4-5.4H151c-3,0-5.4-2.4-5.4-5.4V54.8c0-3-2.4-5.4-5.4-5.4H127c-3,0-5.4,2.4-5.4,5.4
		v5.1c0,3-2.4,5.4-5.4,5.4h-7.1c-3,0-5.4-2.4-5.4-5.4V17.6c0-3-2.4-5.4-5.4-5.4H82.6c-3,0-5.4,2.4-5.4,5.4v90.2c0,3-2.4,5.4-5.4,5.4
		h-8.7c-3,0-5.4-2.4-5.4-5.4V72.7c0-3-2.4-5.4-5.4-5.4H41.3c-3,0-5.4,2.4-5.4,5.4v14.8c0,3-2.4,5.4-5.4,5.4h-5.1
		c-3,0-5.4-2.4-5.4-5.4V48.7c0-3-2.4-5.4-5.4-5.4H5.6c-3,0-5.4,2.4-5.4,5.4v93.2"/>
</g>
</svg>
