<?xml version="1.0" encoding="utf-8"?>
<!-- Generator: Adobe Illustrator 23.1.0, SVG Export Plug-In . SVG Version: 6.00 Build 0)  -->
<svg version="1.1" id="Layer_1" xmlns="http://www.w3.org/2000/svg" xmlns:xlink="http://www.w3.org/1999/xlink" x="0px" y="0px"
	 viewBox="0 0 500 500" style="enable-background:new 0 0 500 500;" xml:space="preserve">
<style type="text/css">
	.st0{display:none;}
	.st1{display:inline;fill:#FFFFFF;stroke:#000000;stroke-miterlimit:10;}
	.st2{display:inline;stroke:#000000;stroke-miterlimit:10;}
	.st3{display:none;fill:#FFFFFF;}
	.st4{display:inline;fill:#FFFFFF;stroke:#000000;stroke-width:2;stroke-miterlimit:10;}
	.st5{display:inline;}
	.st6{fill:#FFFFFF;stroke:#000000;stroke-width:2;stroke-miterlimit:10;}
	.st7{fill:#FFFFFF;stroke:#000000;stroke-miterlimit:10;}
	.st8{fill:#FFFFFF;stroke:#000000;}
	.st9{stroke:#000000;}
	.st10{fill:#FFFFFF;stroke:#000000;stroke-linecap:round;stroke-linejoin:round;stroke-miterlimit:10;}
	.st11{fill:#262626;stroke:#000000;stroke-linecap:round;stroke-linejoin:round;stroke-miterlimit:10;}
	.st12{fill:none;stroke:#000000;stroke-linecap:round;stroke-linejoin:round;stroke-miterlimit:10;}
</style>
<g class="st0">
	<path class="st1" d="M493.1,258.8l-194.5,18.5c-3.1,0.3-5.7-3.7-5.7-8.8v-36.9c0-5.1,2.6-9.1,5.7-8.8l194.5,18.5
		c2.8,0.3,5,4.1,5,8.8v0C498.1,254.7,495.9,258.6,493.1,258.8z"/>
	<path class="st1" d="M146.4,345.6V154.4h143.8c52.8,0,95.6,42.8,95.6,95.6c0,52.8-42.8,95.6-95.6,95.6H146.4z"/>
	<circle class="st1" cx="146.4" cy="250" r="95.6"/>
	<path class="st1" d="M109,357.1V142.9h37.4c59.1,0,107.1,48,107.1,107.1c0,59.1-48,107.1-107.1,107.1H109z"/>
	<circle class="st1" cx="109" cy="250" r="107.1"/>
	<circle class="st1" cx="109" cy="250" r="80.7"/>
	<path class="st2" d="M28.3,250c0-44.5,36.1-80.7,80.7-80.7c2.8,0,5.5,0.1,8.2,0.4c-40.7,4.1-72.5,38.5-72.5,80.3
		c0,41.8,31.8,76.2,72.5,80.3c-2.7,0.3-5.4,0.4-8.2,0.4C64.4,330.7,28.3,294.6,28.3,250z"/>
</g>
<rect y="500" class="st3" width="500" height="500"/>
<rect x="-500" y="500" class="st3" width="500" height="500"/>
<rect x="-500" y="0" class="st3" width="500" height="500"/>
<g class="st0">
	<path class="st4" d="M479.4,232.6v34.9c0,126.7-102.7,229.4-229.4,229.4c-126.7,0-229.4-102.7-229.4-229.4v-34.9H479.4z"/>
	<circle class="st4" cx="250" cy="232.6" r="229.4"/>
	<g class="st5">
		<line class="st6" x1="250" y1="496.8" x2="250" y2="462"/>
		<line class="st6" x1="390.9" y1="448.5" x2="390.9" y2="413.6"/>
		<line class="st6" x1="109.1" y1="413.6" x2="109.1" y2="448.5"/>
	</g>
	<g class="st5">
		<circle class="st6" cx="250" cy="232.6" r="198.8"/>
		<g>
			<circle class="st6" cx="323.5" cy="286.7" r="50.5"/>
			<path class="st6" d="M189.4,61v38.8c0,6.2,5,11.2,11.2,11.2h58.3c6.2,0,11.2,5,11.2,11.2v29.7c0,6.2,5,11.2,11.2,11.2h64
				c6.2,0,11.2,5,11.2,11.2v30.7c0,6.2-5,11.2-11.2,11.2h-79.7c-6.2,0-11.2,5-11.2,11.2v8.9c0,6.2,5,11.2,11.2,11.2h51
				c6.2,0,11.2,5,11.2,11.2v19.3c0,6.2-5,11.2-11.2,11.2H299c-6.2,0-11.2,5-11.2,11.2v3.1c0,6.2-5,11.2-11.2,11.2h-37.5
				c-6.2,0-11.2,5-11.2,11.2v0c0,6.2-5,11.2-11.2,11.2h-16.1c-6.2,0-11.2,5-11.2,11.2v46.1"/>
			<path class="st6" d="M189.4,143.7v12.4c0,6.1,5,11.1,11.1,11.1h22.1c6.1,0,11.1,5,11.1,11.1v15.9c0,6.1-5,11.1-11.1,11.1h0
				c-6.1,0-11.1,5-11.1,11.1v56.5c0,6.1-5,11.1-11.1,11.1h0c-6.1,0-11.1,5-11.1,11.1v9.2"/>
		</g>
	</g>
</g>
<g class="st0">
	<circle class="st4" cx="250" cy="291.3" r="198"/>
	<g class="st5">
		<circle class="st6" cx="250" cy="272.9" r="198"/>
		<circle class="st7" cx="250" cy="272.9" r="180"/>
		<circle class="st8" cx="250" cy="51.8" r="41.1"/>
		<g>
			<path class="st9" d="M233.9,71.2V32.4h10.3l8.1,14.2c2.3,4.1,4.6,8.9,6.3,13.3h0.2c-0.6-5.1-0.7-10.4-0.7-16.2V32.4h8.1v38.8
				h-9.2l-8.3-15c-2.3-4.1-4.8-9.2-6.7-13.7l-0.2,0.1c0.2,5.1,0.3,10.6,0.3,16.9v11.7H233.9z"/>
		</g>
	</g>
</g>
<g>
	<g>
		<g>
			<polygon class="st10" points="430,250 278.4,273.6 250,278.1 250,250 			"/>
		</g>
		<g>
			<polygon class="st10" points="430,250 250,250 250,221.9 250,221.9 278.4,226.4 			"/>
		</g>
	</g>
	<g>
		<g>
			<polygon class="st11" points="250,221.9 250,250 70,250 221.6,226.4 			"/>
		</g>
		<g>
			<polygon class="st11" points="250,250 250,278.1 221.6,273.6 70,250 			"/>
			<line class="st12" x1="250" y1="278.1" x2="250" y2="278.1"/>
			<line class="st12" x1="250" y1="278.1" x2="250" y2="278.1"/>
		</g>
	</g>
	<g>
		<circle class="st10" cx="250" cy="250" r="22.8"/>
		<circle class="st10" cx="250" cy="250" r="12"/>
	</g>
</g>
<g class="st0">
	<path class="st2" d="M-50.9,261.2c0,19.4-15.7,35.1-35.1,35.1h-328.6c-28.5,0-51.6-23.1-51.6-51.6c0-28.5,23.1-51.6,51.6-51.6
		c5.4,0,10.6,0.8,15.5,2.4c0-0.8,0-1.6,0-2.4c0-39.2,31.8-71,71-71c26.4,0,49.5,14.4,61.7,35.9c0.3,0,0.7,0,1,0
		c12.3,0,23.2,6.4,29.5,16c9.4-9.9,22.6-16,37.3-16c23.4,0,43.2,15.6,49.5,37c4.9-2.6,10.5-4.1,16.4-4.1c19.4,0,35.1,15.7,35.1,35.1
		c0,0.7,0,1.3-0.1,2c3.6-1.3,7.5-2,11.6-2C-66.7,226.1-50.9,241.8-50.9,261.2z"/>
	<path class="st1" d="M-42.7,278.7c0,20.2-16.3,36.5-36.5,36.5h-341.6c-29.6,0-53.6-24-53.6-53.6c0-29.6,24-53.6,53.6-53.6
		c5.6,0,11,0.9,16.1,2.5c0-0.8,0-1.6,0-2.5c0-40.8,33-73.8,73.8-73.8c27.5,0,51.4,15,64.1,37.3c0.4,0,0.7,0,1.1,0
		c12.8,0,24.1,6.6,30.6,16.6c9.8-10.3,23.5-16.6,38.8-16.6c24.4,0,44.9,16.2,51.5,38.5c5.1-2.7,10.9-4.3,17.1-4.3
		c20.2,0,36.5,16.4,36.5,36.5c0,0.7,0,1.4-0.1,2c3.8-1.3,7.8-2,12.1-2C-59,242.2-42.7,258.6-42.7,278.7z"/>
	<path class="st2" d="M-414.9,271.9c0-17.8,14.4-32.2,32.2-32.2c8.7,0,16.5,3.4,22.3,9c4.2-18.5,20.8-32.3,40.6-32.3
		c20.5,0,37.6,14.9,41,34.5c6-7.3,15.2-11.9,25.4-11.9c13.2,0,24.6,7.8,29.9,19.1c4.7-4.2,10.9-6.7,17.7-6.7
		c14.8,0,26.7,12,26.7,26.7"/>
	<path class="st2" d="M-264.9,223.7c0-13.6,11-24.6,24.6-24.6c10.8,0,20,7,23.3,16.7c4.4-4.1,10.3-6.6,16.8-6.6
		c13.6,0,24.6,11,24.6,24.6"/>
	<path class="st2" d="M-374.7,200.8c0-16,13-28.9,28.9-28.9c16,0,28.9,13,28.9,28.9"/>
	<path class="st1" d="M-418.5,281.9c0-18.3,14.9-33.2,33.2-33.2c8.9,0,17.1,3.5,23,9.3c4.4-19.1,21.4-33.3,41.8-33.3
		c21.2,0,38.8,15.4,42.3,35.5c6.2-7.5,15.6-12.3,26.2-12.3c13.6,0,25.4,8,30.8,19.7c4.9-4.3,11.2-6.9,18.2-6.9
		c15.2,0,27.6,12.4,27.6,27.6"/>
	<path class="st1" d="M-268.4,232.6c0-14.7,11.9-26.5,26.6-26.5c11.7,0,21.6,7.5,25.1,18c4.7-4.4,11.1-7.1,18.1-7.1
		c14.7,0,26.5,11.9,26.5,26.6"/>
	<path class="st1" d="M-376.4,209.3c0-16.9,13.7-30.6,30.6-30.6c16.9,0,30.6,13.7,30.6,30.6"/>
</g>
</svg>
