<?xml version="1.0" encoding="utf-8"?>
<!-- Generator: Adobe Illustrator 23.1.0, SVG Export Plug-In . SVG Version: 6.00 Build 0)  -->
<svg version="1.1" id="Layer_1" xmlns="http://www.w3.org/2000/svg" xmlns:xlink="http://www.w3.org/1999/xlink" x="0px" y="0px"
	 viewBox="0 0 46 46" style="enable-background:new 0 0 46 46;" xml:space="preserve">
<style type="text/css">
	.st0{display:none;fill:#FFFFFF;}
	.st1{display:none;}
	.st2{display:inline;}
	.st3{stroke:#000000;stroke-linecap:round;stroke-linejoin:round;stroke-miterlimit:10;}
	.st4{fill:#FFFFFF;stroke:#000000;stroke-linecap:round;stroke-linejoin:round;stroke-miterlimit:10;}
	.st5{display:inline;fill:#FFFFFF;stroke:#000000;stroke-linecap:round;stroke-linejoin:round;stroke-miterlimit:10;}
	.st6{display:inline;fill:#FFFFFF;}
	.st7{display:inline;fill:none;stroke:#000000;stroke-linecap:round;stroke-linejoin:round;stroke-miterlimit:10;}
	.st8{fill:none;stroke:#000000;stroke-linecap:round;stroke-linejoin:round;stroke-miterlimit:10;}
	.st9{stroke:#000000;stroke-miterlimit:10;}
	.st10{fill:#FFFFFF;stroke:#000000;stroke-miterlimit:10;}
	.st11{fill:#FFFFFF;}
</style>
<rect x="-277" y="-180.8" class="st0" width="600" height="300"/>
<g class="st1">
	<g class="st2">
		<path class="st3" d="M-277-5.4v-98.2c0-3,2.4-5.4,5.4-5.4h9.1c3,0,5.4,2.4,5.4,5.4v38.8c0,3,2.4,5.4,5.4,5.4h5.1
			c3,0,5.4-2.4,5.4-5.4v-14.8c0-3,2.4-5.4,5.4-5.4h11.2c3,0,5.4,2.4,5.4,5.4v35.1c0,3,2.4,5.4,5.4,5.4h8.7c3,0,5.4-2.4,5.4-5.4
			v-90.2c0-3,2.4-5.4,5.4-5.4h15.8c3,0,5.4,2.4,5.4,5.4v42.4c0,3,2.4,5.4,5.4,5.4h7.1c3,0,5.4-2.4,5.4-5.4v-5.1c0-3,2.4-5.4,5.4-5.4
			h13.3c3,0,5.4,2.4,5.4,5.4v34.7c0,3,2.4,5.4,5.4,5.4h22.5c3,0,5.4,2.4,5.4,5.4v2.9c0,3,2.4,5.4,5.4,5.4h7c3,0,5.4-2.4,5.4-5.4
			v-22.9c0-3,2.4-5.4,5.4-5.4h36.8c3,0,5.4,2.4,5.4,5.4v4.9c0,3,2.4,5.4,5.4,5.4h20.3c3,0,5.4-2.4,5.4-5.4v-4.9c0-3,2.4-5.4,5.4-5.4
			h30.8c3,0,5.4,2.4,5.4,5.4v7.1c0,3,2.4,5.4,5.4,5.4h5.8c3,0,5.4-2.4,5.4-5.4v-18.9c0-3,2.4-5.4,5.4-5.4h14.5c3,0,5.4,2.4,5.4,5.4
			v16.6c0,3,2.4,5.4,5.4,5.4h11.7c3,0,5.4-2.4,5.4-5.4V-100c0-3,2.4-5.4,5.4-5.4h19.7c3,0,5.4,2.4,5.4,5.4v0c0,3,2.4,5.4,5.4,5.4
			h8.7c3,0,5.4-2.4,5.4-5.4v-39.9c0-3,2.4-5.4,5.4-5.4h13.8c3,0,5.4,2.4,5.4,5.4v20.5c0,3,2.4,5.4,5.4,5.4H195c3,0,5.4,2.4,5.4,5.4
			V-74c0,3,2.4,5.4,5.4,5.4H220c3,0,5.4-2.4,5.4-5.4v-10.7c0-3,2.4-5.4,5.4-5.4h17.9c3,0,5.4,2.4,5.4,5.4v44.2c0,3,2.4,5.4,5.4,5.4
			h13.3c3,0,5.4-2.4,5.4-5.4v-81c0-3,2.4-5.4,5.4-5.4h13.3c3,0,5.4,2.4,5.4,5.4v58.7c0,3,2.4,5.4,5.4,5.4h10.3c3,0,5.4-2.4,5.4-5.4
			v-40.9c0-3,2.4-5.4,5.4-5.4h9.1c3,0,5.4,2.4,5.4,5.4v38.8c0,3,2.4,5.4,5.4,5.4h5.1c3,0,5.4-2.4,5.4-5.4v-14.8c0-3,2.4-5.4,5.4-5.4
			h11.2c3,0,5.4,2.4,5.4,5.4v35.1c0,3,2.4,5.4,5.4,5.4h8.7c3,0,5.4-2.4,5.4-5.4v-90.2c0-3,2.4-5.4,5.4-5.4h15.8c3,0,5.4,2.4,5.4,5.4
			v42.4c0,3,2.4,5.4,5.4,5.4h7.1c3,0,5.4-2.4,5.4-5.4v-5.1c0-3,2.4-5.4,5.4-5.4h13.3c3,0,5.4,2.4,5.4,5.4v34.7c0,3,2.4,5.4,5.4,5.4
			h22.5c3,0,5.4,2.4,5.4,5.4v2.9c0,3,2.4,5.4,5.4,5.4h7c3,0,5.4-2.4,5.4-5.4v-22.9c0-3,2.4-5.4,5.4-5.4h36.8c3,0,5.4,2.4,5.4,5.4
			v4.9c0,3,2.4,5.4,5.4,5.4h20.3c3,0,5.4-2.4,5.4-5.4v-4.9c0-3,2.4-5.4,5.4-5.4h30.8c3,0,5.4,2.4,5.4,5.4v7.1c0,3,2.4,5.4,5.4,5.4
			h5.8c3,0,5.4-2.4,5.4-5.4v-18.9c0-3,2.4-5.4,5.4-5.4h14.5c3,0,5.4,2.4,5.4,5.4v16.6c0,3,2.4,5.4,5.4,5.4h11.7c3,0,5.4-2.4,5.4-5.4
			V-100c0-3,2.4-5.4,5.4-5.4h19.7c3,0,5.4,2.4,5.4,5.4v0c0,3,2.4,5.4,5.4,5.4h8.7c3,0,5.4-2.4,5.4-5.4v-39.9c0-3,2.4-5.4,5.4-5.4
			h13.8c3,0,5.4,2.4,5.4,5.4v20.5c0,3,2.4,5.4,5.4,5.4H795c3,0,5.4,2.4,5.4,5.4V-74c0,3,2.4,5.4,5.4,5.4H820c3,0,5.4-2.4,5.4-5.4
			v-10.7c0-3,2.4-5.4,5.4-5.4h17.9c3,0,5.4,2.4,5.4,5.4v44.2c0,3,2.4,5.4,5.4,5.4h13.3c3,0,5.4-2.4,5.4-5.4v-81c0-3,2.4-5.4,5.4-5.4
			h13.3c3,0,5.4,2.4,5.4,5.4V-11c0,3,2.4,5.4,5.4,5.4H923"/>
		<path class="st4" d="M923-3.9h-15.7c-3,0-5.4-2.4-5.4-5.4l0-105.7c0-3-2.4-5.4-5.4-5.4h-13.3c-3,0-5.4,2.4-5.4,5.4v81
			c0,3-2.4,5.4-5.4,5.4h-13.3c-3,0-5.4-2.4-5.4-5.4v-44.2c0-3-2.4-5.4-5.4-5.4h-17.9c-3,0-5.4,2.4-5.4,5.4v10.7c0,3-2.4,5.4-5.4,5.4
			h-14.3c-3,0-5.4-2.4-5.4-5.4v-34.7c0-3-2.4-5.4-5.4-5.4h-11.7c-3,0-5.4-2.4-5.4-5.4v-20.5c0-3-2.4-5.4-5.4-5.4h-13.8
			c-3,0-5.4,2.4-5.4,5.4v39.9c0,3-2.4,5.4-5.4,5.4h-8.7c-3,0-5.4-2.4-5.4-5.4v0c0-3-2.4-5.4-5.4-5.4h-19.7c-3,0-5.4,2.4-5.4,5.4
			v32.9c0,3-2.4,5.4-5.4,5.4h-11.7c-3,0-5.4-2.4-5.4-5.4v-16.6c0-3-2.4-5.4-5.4-5.4h-14.5c-3,0-5.4,2.4-5.4,5.4v18.9
			c0,3-2.4,5.4-5.4,5.4h-5.8c-3,0-5.4-2.4-5.4-5.4v-7.1c0-3-2.4-5.4-5.4-5.4h-30.8c-3,0-5.4,2.4-5.4,5.4v4.9c0,3-2.4,5.4-5.4,5.4
			h-20.3c-3,0-5.4-2.4-5.4-5.4v-4.9c0-3-2.4-5.4-5.4-5.4h-36.8c-3,0-5.4,2.4-5.4,5.4v22.9c0,3-2.4,5.4-5.4,5.4h-7
			c-3,0-5.4-2.4-5.4-5.4v-2.9c0-3-2.4-5.4-5.4-5.4h-22.5c-3,0-5.4-2.4-5.4-5.4V-91c0-3-2.4-5.4-5.4-5.4h-13.3c-3,0-5.4,2.4-5.4,5.4
			v5.1c0,3-2.4,5.4-5.4,5.4h-7.1c-3,0-5.4-2.4-5.4-5.4v-42.4c0-3-2.4-5.4-5.4-5.4h-15.8c-3,0-5.4,2.4-5.4,5.4v90.2
			c0,3-2.4,5.4-5.4,5.4H386c-3,0-5.4-2.4-5.4-5.4v-35.1c0-3-2.4-5.4-5.4-5.4H364c-3,0-5.4,2.4-5.4,5.4v14.8c0,3-2.4,5.4-5.4,5.4
			h-5.1c-3,0-5.4-2.4-5.4-5.4v-38.8c0-3-2.4-5.4-5.4-5.4h-9.1c-3,0-5.4,2.4-5.4,5.4v40.9c0,3-2.4,5.4-5.4,5.4h-10.3
			c-3,0-5.4-2.4-5.4-5.4V-115c0-3-2.4-5.4-5.4-5.4h-13.3c-3,0-5.4,2.4-5.4,5.4v81c0,3-2.4,5.4-5.4,5.4h-13.3c-3,0-5.4-2.4-5.4-5.4
			v-44.2c0-3-2.4-5.4-5.4-5.4h-17.9c-3,0-5.4,2.4-5.4,5.4v10.7c0,3-2.4,5.4-5.4,5.4h-14.3c-3,0-5.4-2.4-5.4-5.4v-34.7
			c0-3-2.4-5.4-5.4-5.4h-11.7c-3,0-5.4-2.4-5.4-5.4v-20.5c0-3-2.4-5.4-5.4-5.4h-13.8c-3,0-5.4,2.4-5.4,5.4v39.9c0,3-2.4,5.4-5.4,5.4
			h-8.7c-3,0-5.4-2.4-5.4-5.4v0c0-3-2.4-5.4-5.4-5.4h-19.7c-3,0-5.4,2.4-5.4,5.4v32.9c0,3-2.4,5.4-5.4,5.4H86.5
			c-3,0-5.4-2.4-5.4-5.4v-16.6c0-3-2.4-5.4-5.4-5.4H61.3c-3,0-5.4,2.4-5.4,5.4v18.9c0,3-2.4,5.4-5.4,5.4h-5.8c-3,0-5.4-2.4-5.4-5.4
			v-7.1c0-3-2.4-5.4-5.4-5.4H3.3c-3,0-5.4,2.4-5.4,5.4v4.9c0,3-2.4,5.4-5.4,5.4h-20.3c-3,0-5.4-2.4-5.4-5.4v-4.9
			c0-3-2.4-5.4-5.4-5.4h-36.8c-3,0-5.4,2.4-5.4,5.4v22.9c0,3-2.4,5.4-5.4,5.4h-7c-3,0-5.4-2.4-5.4-5.4v-2.9c0-3-2.4-5.4-5.4-5.4
			h-22.5c-3,0-5.4-2.4-5.4-5.4V-91c0-3-2.4-5.4-5.4-5.4h-13.3c-3,0-5.4,2.4-5.4,5.4v5.1c0,3-2.4,5.4-5.4,5.4h-7.1
			c-3,0-5.4-2.4-5.4-5.4v-42.4c0-3-2.4-5.4-5.4-5.4h-15.8c-3,0-5.4,2.4-5.4,5.4v90.2c0,3-2.4,5.4-5.4,5.4h-8.7c-3,0-5.4-2.4-5.4-5.4
			v-35.1c0-3-2.4-5.4-5.4-5.4H-236c-3,0-5.4,2.4-5.4,5.4v14.8c0,3-2.4,5.4-5.4,5.4h-5.1c-3,0-5.4-2.4-5.4-5.4v-38.8
			c0-3-2.4-5.4-5.4-5.4h-9.1c-3,0-5.4,2.4-5.4,5.4v93.2"/>
	</g>
	<polygon class="st5" points="23,-154.2 32.3,-164.5 31.6,-150.6 45.5,-151.3 35.2,-142 45.5,-132.7 31.6,-133.4 32.3,-119.5 
		23,-129.8 13.7,-119.5 14.4,-133.4 0.5,-132.7 10.8,-142 0.5,-151.3 14.4,-150.6 13.7,-164.5 	"/>
	<g class="st2">
		<path class="st3" d="M39.4,106.7c-3.8,5-9.7,8.2-16.4,8.2c-11.4,0-20.6-9.2-20.6-20.6c0-11.4,9.2-20.6,20.6-20.6
			c6.7,0,12.7,3.2,16.4,8.2c-2-1.1-4.4-1.8-6.8-1.8c-7.8,0-14.2,6.3-14.2,14.2c0,7.8,6.3,14.2,14.2,14.2
			C35.1,108.5,37.4,107.8,39.4,106.7z"/>
		<path class="st3" d="M39.4,108.1c-3.8,5-9.7,8.2-16.4,8.2c-11.4,0-20.6-9.2-20.6-20.6c0-11.4,9.2-20.6,20.6-20.6
			c6.7,0,12.7,3.2,16.4,8.2c-2-1.1-4.4-1.8-6.8-1.8c-7.8,0-14.2,6.3-14.2,14.2c0,7.8,6.3,14.2,14.2,14.2
			C35.1,109.9,37.4,109.3,39.4,108.1z"/>
	</g>
	<rect x="-277" y="69.2" class="st6" width="600" height="50"/>
	<line class="st7" x1="-277" y1="69.2" x2="323" y2="69.2"/>
	<g class="st2">
		<g>
			<rect x="48.3" y="20" transform="matrix(0.7071 -0.7071 0.7071 0.7071 -3.1568 42.0155)" class="st4" width="1.7" height="9.7"/>
			
				<rect x="44.6" y="16.5" transform="matrix(0.7071 0.7071 -0.7071 0.7071 28.3789 -25.8947)" class="st4" width="1.7" height="9.7"/>
		</g>
		<polygon class="st4" points="107,44.7 -48.1,44.7 -48.1,27.3 99.2,27.3 		"/>
		<polygon class="st4" points="60.3,27.3 53.7,5.9 51.6,5.9 51.6,27.3 		"/>
		<rect x="-48.1" y="44.7" class="st4" width="155.1" height="9.7"/>
		<polygon class="st4" points="14.1,27.3 14.1,20.2 16.8,20.2 20.4,27.3 		"/>
		<polygon class="st4" points="100.1,29.3 107,29.3 107,37.6 103.8,37.6 		"/>
		<rect x="9.2" y="54.4" class="st4" width="42.4" height="4.3"/>
		<rect x="51.6" y="54.4" class="st4" width="27.3" height="2.2"/>
		<rect x="-35" y="54.4" class="st4" width="44.2" height="2.2"/>
		<rect x="-54.8" y="54.4" class="st4" width="19.8" height="4.1"/>
		<rect x="-65.1" y="55.6" class="st4" width="10.3" height="1.9"/>
		<rect x="17.3" y="27.3" class="st4" width="34.3" height="27.1"/>
		<line class="st4" x1="51.6" y1="49.5" x2="-4.7" y2="49.5"/>
		<rect x="10.6" y="11" class="st4" width="3.2" height="16.3"/>
		<rect x="-45.9" y="19.2" class="st4" width="25.6" height="8.1"/>
		<rect x="-48.5" y="11" class="st4" width="25.6" height="8.1"/>
		<rect x="-48.1" y="2.9" class="st4" width="25.6" height="8.1"/>
		<rect x="-44.3" y="-1.7" class="st4" width="22.4" height="4.5"/>
		<rect x="-35.2" y="-3.5" class="st4" width="3.5" height="30.8"/>
		<rect x="20.4" y="31.1" class="st4" width="8.2" height="1.5"/>
		<rect x="-50.2" y="45.9" class="st4" width="2" height="6.5"/>
		<rect x="107" y="44.7" class="st4" width="4.1" height="9.7"/>
		<polygon class="st4" points="111.1,54.4 107,58.7 93,58.7 93,54.4 		"/>
		<rect x="-20.3" y="-15.3" class="st4" width="30.9" height="42.6"/>
		<rect x="-5.6" y="-17.4" class="st4" width="3.5" height="44.7"/>
	</g>
	<g class="st2">
		<circle class="st4" cx="-18.6" cy="54.4" r="14.8"/>
		<circle class="st4" cx="-18.6" cy="54.4" r="11"/>
		<g>
			<line class="st8" x1="-18.6" y1="43.3" x2="-18.6" y2="65.4"/>
			<line class="st8" x1="-10.8" y1="46.6" x2="-26.5" y2="62.2"/>
			<line class="st8" x1="-7.6" y1="54.4" x2="-29.7" y2="54.4"/>
			<line class="st8" x1="-10.8" y1="62.2" x2="-26.5" y2="46.6"/>
		</g>
		<circle class="st4" cx="-18.6" cy="54.4" r="2.3"/>
	</g>
	<polygon class="st5" points="-83.1,59.6 -75.8,59.6 -75.8,57.9 -72.8,57.9 -72.8,56 -74.3,56 -74.3,53.1 -77.6,53.1 -77.6,54.1 
		-80.5,54.1 -80.5,51.1 -83.6,51.1 -83.6,53.1 -88.1,53.1 -88.1,56 -86.5,56 -86.5,57.8 -83.1,57.8 	"/>
	<g class="st2">
		<circle class="st9" cx="23" cy="-142.6" r="8.9"/>
		<circle class="st10" cx="23" cy="-141.4" r="8.9"/>
	</g>
</g>
<g class="st1">
	<g class="st2">
		<path d="M-277-5.4v-98.2c0-3,2.4-5.4,5.4-5.4h9.1c3,0,5.4,2.4,5.4,5.4v38.8c0,3,2.4,5.4,5.4,5.4h5.1c3,0,5.4-2.4,5.4-5.4v-14.8
			c0-3,2.4-5.4,5.4-5.4h11.2c3,0,5.4,2.4,5.4,5.4v35.1c0,3,2.4,5.4,5.4,5.4h8.7c3,0,5.4-2.4,5.4-5.4v-90.2c0-3,2.4-5.4,5.4-5.4h15.8
			c3,0,5.4,2.4,5.4,5.4v42.4c0,3,2.4,5.4,5.4,5.4h7.1c3,0,5.4-2.4,5.4-5.4v-5.1c0-3,2.4-5.4,5.4-5.4h13.3c3,0,5.4,2.4,5.4,5.4v34.7
			c0,3,2.4,5.4,5.4,5.4h22.5c3,0,5.4,2.4,5.4,5.4v2.9c0,3,2.4,5.4,5.4,5.4h7c3,0,5.4-2.4,5.4-5.4v-22.9c0-3,2.4-5.4,5.4-5.4h36.8
			c3,0,5.4,2.4,5.4,5.4v4.9c0,3,2.4,5.4,5.4,5.4h20.3c3,0,5.4-2.4,5.4-5.4v-4.9c0-3,2.4-5.4,5.4-5.4h30.8c3,0,5.4,2.4,5.4,5.4v7.1
			c0,3,2.4,5.4,5.4,5.4h5.8c3,0,5.4-2.4,5.4-5.4v-18.9c0-3,2.4-5.4,5.4-5.4h14.5c3,0,5.4,2.4,5.4,5.4v16.6c0,3,2.4,5.4,5.4,5.4h11.7
			c3,0,5.4-2.4,5.4-5.4V-100c0-3,2.4-5.4,5.4-5.4h19.7c3,0,5.4,2.4,5.4,5.4v0c0,3,2.4,5.4,5.4,5.4h8.7c3,0,5.4-2.4,5.4-5.4v-39.9
			c0-3,2.4-5.4,5.4-5.4h13.8c3,0,5.4,2.4,5.4,5.4v20.5c0,3,2.4,5.4,5.4,5.4H195c3,0,5.4,2.4,5.4,5.4V-74c0,3,2.4,5.4,5.4,5.4H220
			c3,0,5.4-2.4,5.4-5.4v-10.7c0-3,2.4-5.4,5.4-5.4h17.9c3,0,5.4,2.4,5.4,5.4v44.2c0,3,2.4,5.4,5.4,5.4h13.3c3,0,5.4-2.4,5.4-5.4v-81
			c0-3,2.4-5.4,5.4-5.4h13.3c3,0,5.4,2.4,5.4,5.4v58.7c0,3,2.4,5.4,5.4,5.4h10.3c3,0,5.4-2.4,5.4-5.4v-40.9c0-3,2.4-5.4,5.4-5.4h9.1
			c3,0,5.4,2.4,5.4,5.4v38.8c0,3,2.4,5.4,5.4,5.4h5.1c3,0,5.4-2.4,5.4-5.4v-14.8c0-3,2.4-5.4,5.4-5.4h11.2c3,0,5.4,2.4,5.4,5.4v35.1
			c0,3,2.4,5.4,5.4,5.4h8.7c3,0,5.4-2.4,5.4-5.4v-90.2c0-3,2.4-5.4,5.4-5.4h15.8c3,0,5.4,2.4,5.4,5.4v42.4c0,3,2.4,5.4,5.4,5.4h7.1
			c3,0,5.4-2.4,5.4-5.4v-5.1c0-3,2.4-5.4,5.4-5.4h13.3c3,0,5.4,2.4,5.4,5.4v34.7c0,3,2.4,5.4,5.4,5.4h22.5c3,0,5.4,2.4,5.4,5.4v2.9
			c0,3,2.4,5.4,5.4,5.4h7c3,0,5.4-2.4,5.4-5.4v-22.9c0-3,2.4-5.4,5.4-5.4h36.8c3,0,5.4,2.4,5.4,5.4v4.9c0,3,2.4,5.4,5.4,5.4h20.3
			c3,0,5.4-2.4,5.4-5.4v-4.9c0-3,2.4-5.4,5.4-5.4h30.8c3,0,5.4,2.4,5.4,5.4v7.1c0,3,2.4,5.4,5.4,5.4h5.8c3,0,5.4-2.4,5.4-5.4v-18.9
			c0-3,2.4-5.4,5.4-5.4h14.5c3,0,5.4,2.4,5.4,5.4v16.6c0,3,2.4,5.4,5.4,5.4h11.7c3,0,5.4-2.4,5.4-5.4V-100c0-3,2.4-5.4,5.4-5.4h19.7
			c3,0,5.4,2.4,5.4,5.4v0c0,3,2.4,5.4,5.4,5.4h8.7c3,0,5.4-2.4,5.4-5.4v-39.9c0-3,2.4-5.4,5.4-5.4h13.8c3,0,5.4,2.4,5.4,5.4v20.5
			c0,3,2.4,5.4,5.4,5.4H795c3,0,5.4,2.4,5.4,5.4V-74c0,3,2.4,5.4,5.4,5.4H820c3,0,5.4-2.4,5.4-5.4v-10.7c0-3,2.4-5.4,5.4-5.4h17.9
			c3,0,5.4,2.4,5.4,5.4v44.2c0,3,2.4,5.4,5.4,5.4h13.3c3,0,5.4-2.4,5.4-5.4v-81c0-3,2.4-5.4,5.4-5.4h13.3c3,0,5.4,2.4,5.4,5.4V-11
			c0,3,2.4,5.4,5.4,5.4H923"/>
		<path d="M-277-4.9c-0.3,0-0.5-0.2-0.5-0.5v-98.2c0-3.2,2.6-5.9,5.9-5.9h9.1c3.2,0,5.9,2.6,5.9,5.9v38.8c0,2.7,2.2,4.9,4.9,4.9h5.1
			c2.7,0,4.9-2.2,4.9-4.9v-14.8c0-3.2,2.6-5.9,5.9-5.9h11.2c3.2,0,5.9,2.6,5.9,5.9v35.1c0,2.7,2.2,4.9,4.9,4.9h8.7
			c2.7,0,4.9-2.2,4.9-4.9v-90.2c0-3.2,2.6-5.9,5.9-5.9h15.8c3.2,0,5.9,2.6,5.9,5.9v42.4c0,2.7,2.2,4.9,4.9,4.9h7.1
			c2.7,0,4.9-2.2,4.9-4.9v-5.1c0-3.2,2.6-5.9,5.9-5.9h13.3c3.2,0,5.9,2.6,5.9,5.9v34.7c0,2.7,2.2,4.9,4.9,4.9h22.5
			c3.2,0,5.9,2.6,5.9,5.9v2.9c0,2.7,2.2,4.9,4.9,4.9h7c2.7,0,4.9-2.2,4.9-4.9v-22.9c0-3.2,2.6-5.9,5.9-5.9h36.8
			c3.2,0,5.9,2.6,5.9,5.9v4.9c0,2.7,2.2,4.9,4.9,4.9h20.3c2.7,0,4.9-2.2,4.9-4.9v-4.9c0-3.2,2.6-5.9,5.9-5.9h30.8
			c3.2,0,5.9,2.6,5.9,5.9v7.1c0,2.7,2.2,4.9,4.9,4.9h5.8c2.7,0,4.9-2.2,4.9-4.9v-18.9c0-3.2,2.6-5.9,5.9-5.9h14.5
			c3.2,0,5.9,2.6,5.9,5.9v16.6c0,2.7,2.2,4.9,4.9,4.9h11.7c2.7,0,4.9-2.2,4.9-4.9V-100c0-3.2,2.6-5.9,5.9-5.9h19.7
			c3.2,0,5.9,2.6,5.9,5.9c0,2.7,2.2,4.9,4.9,4.9h8.7c2.7,0,4.9-2.2,4.9-4.9v-39.9c0-3.2,2.6-5.9,5.9-5.9h13.8c3.2,0,5.9,2.6,5.9,5.9
			v20.5c0,2.7,2.2,4.9,4.9,4.9H195c3.2,0,5.9,2.6,5.9,5.9V-74c0,2.7,2.2,4.9,4.9,4.9H220c2.7,0,4.9-2.2,4.9-4.9v-10.7
			c0-3.2,2.6-5.9,5.9-5.9h17.9c3.2,0,5.9,2.6,5.9,5.9v44.2c0,2.7,2.2,4.9,4.9,4.9h13.3c2.7,0,4.9-2.2,4.9-4.9v-81
			c0-3.2,2.6-5.9,5.9-5.9h13.3c3.2,0,5.9,2.6,5.9,5.9v58.7c0,2.7,2.2,4.9,4.9,4.9h10.3c2.7,0,4.9-2.2,4.9-4.9v-40.9
			c0-3.2,2.6-5.9,5.9-5.9h9.1c3.2,0,5.9,2.6,5.9,5.9v38.8c0,2.7,2.2,4.9,4.9,4.9h5.1c2.7,0,4.9-2.2,4.9-4.9v-14.8
			c0-3.2,2.6-5.9,5.9-5.9h11.2c3.2,0,5.9,2.6,5.9,5.9v35.1c0,2.7,2.2,4.9,4.9,4.9h8.7c2.7,0,4.9-2.2,4.9-4.9v-90.2
			c0-3.2,2.6-5.9,5.9-5.9h15.8c3.2,0,5.9,2.6,5.9,5.9v42.4c0,2.7,2.2,4.9,4.9,4.9h7.1c2.7,0,4.9-2.2,4.9-4.9v-5.1
			c0-3.2,2.6-5.9,5.9-5.9h13.3c3.2,0,5.9,2.6,5.9,5.9v34.7c0,2.7,2.2,4.9,4.9,4.9h22.5c3.2,0,5.9,2.6,5.9,5.9v2.9
			c0,2.7,2.2,4.9,4.9,4.9h7c2.7,0,4.9-2.2,4.9-4.9v-22.9c0-3.2,2.6-5.9,5.9-5.9h36.8c3.2,0,5.9,2.6,5.9,5.9v4.9
			c0,2.7,2.2,4.9,4.9,4.9h20.3c2.7,0,4.9-2.2,4.9-4.9v-4.9c0-3.2,2.6-5.9,5.9-5.9h30.8c3.2,0,5.9,2.6,5.9,5.9v7.1
			c0,2.7,2.2,4.9,4.9,4.9h5.8c2.7,0,4.9-2.2,4.9-4.9v-18.9c0-3.2,2.6-5.9,5.9-5.9h14.5c3.2,0,5.9,2.6,5.9,5.9v16.6
			c0,2.7,2.2,4.9,4.9,4.9h11.7c2.7,0,4.9-2.2,4.9-4.9V-100c0-3.2,2.6-5.9,5.9-5.9h19.7c3.2,0,5.9,2.6,5.9,5.9c0,2.7,2.2,4.9,4.9,4.9
			h8.7c2.7,0,4.9-2.2,4.9-4.9v-39.9c0-3.2,2.6-5.9,5.9-5.9h13.8c3.2,0,5.9,2.6,5.9,5.9v20.5c0,2.7,2.2,4.9,4.9,4.9H795
			c3.2,0,5.9,2.6,5.9,5.9V-74c0,2.7,2.2,4.9,4.9,4.9H820c2.7,0,4.9-2.2,4.9-4.9v-10.7c0-3.2,2.6-5.9,5.9-5.9h17.9
			c3.2,0,5.9,2.6,5.9,5.9v44.2c0,2.7,2.2,4.9,4.9,4.9h13.3c2.7,0,4.9-2.2,4.9-4.9v-81c0-3.2,2.6-5.9,5.9-5.9h13.3
			c3.2,0,5.9,2.6,5.9,5.9V-11c0,2.7,2.2,4.9,4.9,4.9H923c0.3,0,0.5,0.2,0.5,0.5s-0.2,0.5-0.5,0.5h-15.7c-3.2,0-5.9-2.6-5.9-5.9
			v-110.4c0-2.7-2.2-4.9-4.9-4.9h-13.3c-2.7,0-4.9,2.2-4.9,4.9v81c0,3.2-2.6,5.9-5.9,5.9h-13.3c-3.2,0-5.9-2.6-5.9-5.9v-44.2
			c0-2.7-2.2-4.9-4.9-4.9h-17.9c-2.7,0-4.9,2.2-4.9,4.9V-74c0,3.2-2.6,5.9-5.9,5.9h-14.3c-3.2,0-5.9-2.6-5.9-5.9v-34.7
			c0-2.7-2.2-4.9-4.9-4.9h-11.7c-3.2,0-5.9-2.6-5.9-5.9v-20.5c0-2.7-2.2-4.9-4.9-4.9h-13.8c-2.7,0-4.9,2.2-4.9,4.9v39.9
			c0,3.2-2.6,5.9-5.9,5.9h-8.7c-3.2,0-5.9-2.6-5.9-5.9c0-2.7-2.2-4.9-4.9-4.9h-19.7c-2.7,0-4.9,2.2-4.9,4.9v32.9
			c0,3.2-2.6,5.9-5.9,5.9h-11.7c-3.2,0-5.9-2.6-5.9-5.9v-16.6c0-2.7-2.2-4.9-4.9-4.9h-14.5c-2.7,0-4.9,2.2-4.9,4.9v18.9
			c0,3.2-2.6,5.9-5.9,5.9h-5.8c-3.2,0-5.9-2.6-5.9-5.9v-7.1c0-2.7-2.2-4.9-4.9-4.9h-30.8c-2.7,0-4.9,2.2-4.9,4.9v4.9
			c0,3.2-2.6,5.9-5.9,5.9h-20.3c-3.2,0-5.9-2.6-5.9-5.9v-4.9c0-2.7-2.2-4.9-4.9-4.9h-36.8c-2.7,0-4.9,2.2-4.9,4.9v22.9
			c0,3.2-2.6,5.9-5.9,5.9h-7c-3.2,0-5.9-2.6-5.9-5.9V-52c0-2.7-2.2-4.9-4.9-4.9h-22.5c-3.2,0-5.9-2.6-5.9-5.9v-34.7
			c0-2.7-2.2-4.9-4.9-4.9h-13.3c-2.7,0-4.9,2.2-4.9,4.9v5.1c0,3.2-2.6,5.9-5.9,5.9h-7.1c-3.2,0-5.9-2.6-5.9-5.9v-42.4
			c0-2.7-2.2-4.9-4.9-4.9h-15.8c-2.7,0-4.9,2.2-4.9,4.9v90.2c0,3.2-2.6,5.9-5.9,5.9H386c-3.2,0-5.9-2.6-5.9-5.9v-35.1
			c0-2.7-2.2-4.9-4.9-4.9H364c-2.7,0-4.9,2.2-4.9,4.9v14.8c0,3.2-2.6,5.9-5.9,5.9h-5.1c-3.2,0-5.9-2.6-5.9-5.9v-38.8
			c0-2.7-2.2-4.9-4.9-4.9h-9.1c-2.7,0-4.9,2.2-4.9,4.9v40.9c0,3.2-2.6,5.9-5.9,5.9h-10.3c-3.2,0-5.9-2.6-5.9-5.9v-58.7
			c0-2.7-2.2-4.9-4.9-4.9h-13.3c-2.7,0-4.9,2.2-4.9,4.9v81c0,3.2-2.6,5.9-5.9,5.9h-13.3c-3.2,0-5.9-2.6-5.9-5.9v-44.2
			c0-2.7-2.2-4.9-4.9-4.9h-17.9c-2.7,0-4.9,2.2-4.9,4.9V-74c0,3.2-2.6,5.9-5.9,5.9h-14.3c-3.2,0-5.9-2.6-5.9-5.9v-34.7
			c0-2.7-2.2-4.9-4.9-4.9h-11.7c-3.2,0-5.9-2.6-5.9-5.9v-20.5c0-2.7-2.2-4.9-4.9-4.9h-13.8c-2.7,0-4.9,2.2-4.9,4.9v39.9
			c0,3.2-2.6,5.9-5.9,5.9h-8.7c-3.2,0-5.9-2.6-5.9-5.9c0-2.7-2.2-4.9-4.9-4.9h-19.7c-2.7,0-4.9,2.2-4.9,4.9v32.9
			c0,3.2-2.6,5.9-5.9,5.9H86.5c-3.2,0-5.9-2.6-5.9-5.9v-16.6c0-2.7-2.2-4.9-4.9-4.9H61.3c-2.7,0-4.9,2.2-4.9,4.9v18.9
			c0,3.2-2.6,5.9-5.9,5.9h-5.8c-3.2,0-5.9-2.6-5.9-5.9v-7.1c0-2.7-2.2-4.9-4.9-4.9H3.3c-2.7,0-4.9,2.2-4.9,4.9v4.9
			c0,3.2-2.6,5.9-5.9,5.9h-20.3c-3.2,0-5.9-2.6-5.9-5.9v-4.9c0-2.7-2.2-4.9-4.9-4.9h-36.8c-2.7,0-4.9,2.2-4.9,4.9v22.9
			c0,3.2-2.6,5.9-5.9,5.9h-7c-3.2,0-5.9-2.6-5.9-5.9V-52c0-2.7-2.2-4.9-4.9-4.9h-22.5c-3.2,0-5.9-2.6-5.9-5.9v-34.7
			c0-2.7-2.2-4.9-4.9-4.9h-13.3c-2.7,0-4.9,2.2-4.9,4.9v5.1c0,3.2-2.6,5.9-5.9,5.9h-7.1c-3.2,0-5.9-2.6-5.9-5.9v-42.4
			c0-2.7-2.2-4.9-4.9-4.9h-15.8c-2.7,0-4.9,2.2-4.9,4.9v90.2c0,3.2-2.6,5.9-5.9,5.9h-8.7c-3.2,0-5.9-2.6-5.9-5.9v-35.1
			c0-2.7-2.2-4.9-4.9-4.9H-236c-2.7,0-4.9,2.2-4.9,4.9v14.8c0,3.2-2.6,5.9-5.9,5.9h-5.1c-3.2,0-5.9-2.6-5.9-5.9v-38.8
			c0-2.7-2.2-4.9-4.9-4.9h-9.1c-2.7,0-4.9,2.2-4.9,4.9v98.2C-276.5-5.1-276.7-4.9-277-4.9z"/>
	</g>
	<g class="st2">
		<path class="st11" d="M923-3.9h-15.7c-3,0-5.4-2.4-5.4-5.4l0-105.7c0-3-2.4-5.4-5.4-5.4h-13.3c-3,0-5.4,2.4-5.4,5.4v81
			c0,3-2.4,5.4-5.4,5.4h-13.3c-3,0-5.4-2.4-5.4-5.4v-44.2c0-3-2.4-5.4-5.4-5.4h-17.9c-3,0-5.4,2.4-5.4,5.4v10.7c0,3-2.4,5.4-5.4,5.4
			h-14.3c-3,0-5.4-2.4-5.4-5.4v-34.7c0-3-2.4-5.4-5.4-5.4h-11.7c-3,0-5.4-2.4-5.4-5.4v-20.5c0-3-2.4-5.4-5.4-5.4h-13.8
			c-3,0-5.4,2.4-5.4,5.4v39.9c0,3-2.4,5.4-5.4,5.4h-8.7c-3,0-5.4-2.4-5.4-5.4v0c0-3-2.4-5.4-5.4-5.4h-19.7c-3,0-5.4,2.4-5.4,5.4
			v32.9c0,3-2.4,5.4-5.4,5.4h-11.7c-3,0-5.4-2.4-5.4-5.4v-16.6c0-3-2.4-5.4-5.4-5.4h-14.5c-3,0-5.4,2.4-5.4,5.4v18.9
			c0,3-2.4,5.4-5.4,5.4h-5.8c-3,0-5.4-2.4-5.4-5.4v-7.1c0-3-2.4-5.4-5.4-5.4h-30.8c-3,0-5.4,2.4-5.4,5.4v4.9c0,3-2.4,5.4-5.4,5.4
			h-20.3c-3,0-5.4-2.4-5.4-5.4v-4.9c0-3-2.4-5.4-5.4-5.4h-36.8c-3,0-5.4,2.4-5.4,5.4v22.9c0,3-2.4,5.4-5.4,5.4h-7
			c-3,0-5.4-2.4-5.4-5.4v-2.9c0-3-2.4-5.4-5.4-5.4h-22.5c-3,0-5.4-2.4-5.4-5.4V-91c0-3-2.4-5.4-5.4-5.4h-13.3c-3,0-5.4,2.4-5.4,5.4
			v5.1c0,3-2.4,5.4-5.4,5.4h-7.1c-3,0-5.4-2.4-5.4-5.4v-42.4c0-3-2.4-5.4-5.4-5.4h-15.8c-3,0-5.4,2.4-5.4,5.4v90.2
			c0,3-2.4,5.4-5.4,5.4H386c-3,0-5.4-2.4-5.4-5.4v-35.1c0-3-2.4-5.4-5.4-5.4H364c-3,0-5.4,2.4-5.4,5.4v14.8c0,3-2.4,5.4-5.4,5.4
			h-5.1c-3,0-5.4-2.4-5.4-5.4v-38.8c0-3-2.4-5.4-5.4-5.4h-9.1c-3,0-5.4,2.4-5.4,5.4v40.9c0,3-2.4,5.4-5.4,5.4h-10.3
			c-3,0-5.4-2.4-5.4-5.4V-115c0-3-2.4-5.4-5.4-5.4h-13.3c-3,0-5.4,2.4-5.4,5.4v81c0,3-2.4,5.4-5.4,5.4h-13.3c-3,0-5.4-2.4-5.4-5.4
			v-44.2c0-3-2.4-5.4-5.4-5.4h-17.9c-3,0-5.4,2.4-5.4,5.4v10.7c0,3-2.4,5.4-5.4,5.4h-14.3c-3,0-5.4-2.4-5.4-5.4v-34.7
			c0-3-2.4-5.4-5.4-5.4h-11.7c-3,0-5.4-2.4-5.4-5.4v-20.5c0-3-2.4-5.4-5.4-5.4h-13.8c-3,0-5.4,2.4-5.4,5.4v39.9c0,3-2.4,5.4-5.4,5.4
			h-8.7c-3,0-5.4-2.4-5.4-5.4v0c0-3-2.4-5.4-5.4-5.4h-19.7c-3,0-5.4,2.4-5.4,5.4v32.9c0,3-2.4,5.4-5.4,5.4H86.5
			c-3,0-5.4-2.4-5.4-5.4v-16.6c0-3-2.4-5.4-5.4-5.4H61.3c-3,0-5.4,2.4-5.4,5.4v18.9c0,3-2.4,5.4-5.4,5.4h-5.8c-3,0-5.4-2.4-5.4-5.4
			v-7.1c0-3-2.4-5.4-5.4-5.4H3.3c-3,0-5.4,2.4-5.4,5.4v4.9c0,3-2.4,5.4-5.4,5.4h-20.3c-3,0-5.4-2.4-5.4-5.4v-4.9
			c0-3-2.4-5.4-5.4-5.4h-36.8c-3,0-5.4,2.4-5.4,5.4v22.9c0,3-2.4,5.4-5.4,5.4h-7c-3,0-5.4-2.4-5.4-5.4v-2.9c0-3-2.4-5.4-5.4-5.4
			h-22.5c-3,0-5.4-2.4-5.4-5.4V-91c0-3-2.4-5.4-5.4-5.4h-13.3c-3,0-5.4,2.4-5.4,5.4v5.1c0,3-2.4,5.4-5.4,5.4h-7.1
			c-3,0-5.4-2.4-5.4-5.4v-42.4c0-3-2.4-5.4-5.4-5.4h-15.8c-3,0-5.4,2.4-5.4,5.4v90.2c0,3-2.4,5.4-5.4,5.4h-8.7c-3,0-5.4-2.4-5.4-5.4
			v-35.1c0-3-2.4-5.4-5.4-5.4H-236c-3,0-5.4,2.4-5.4,5.4v14.8c0,3-2.4,5.4-5.4,5.4h-5.1c-3,0-5.4-2.4-5.4-5.4v-38.8
			c0-3-2.4-5.4-5.4-5.4h-9.1c-3,0-5.4,2.4-5.4,5.4v93.2"/>
		<path d="M923-3.4h-15.7c-3.2,0-5.9-2.6-5.9-5.9l0-105.7c0-2.7-2.2-4.9-4.9-4.9h-13.3c-2.7,0-4.9,2.2-4.9,4.9v81
			c0,3.2-2.6,5.9-5.9,5.9h-13.3c-3.2,0-5.9-2.6-5.9-5.9v-44.2c0-2.7-2.2-4.9-4.9-4.9h-17.9c-2.7,0-4.9,2.2-4.9,4.9v10.7
			c0,3.2-2.6,5.9-5.9,5.9h-14.3c-3.2,0-5.9-2.6-5.9-5.9v-34.7c0-2.7-2.2-4.9-4.9-4.9h-11.7c-3.2,0-5.9-2.6-5.9-5.9v-20.5
			c0-2.7-2.2-4.9-4.9-4.9h-13.8c-2.7,0-4.9,2.2-4.9,4.9v39.9c0,3.2-2.6,5.9-5.9,5.9h-8.7c-3.2,0-5.9-2.6-5.9-5.9
			c0-2.7-2.2-4.9-4.9-4.9h-19.7c-2.7,0-4.9,2.2-4.9,4.9v32.9c0,3.2-2.6,5.9-5.9,5.9h-11.7c-3.2,0-5.9-2.6-5.9-5.9v-16.6
			c0-2.7-2.2-4.9-4.9-4.9h-14.5c-2.7,0-4.9,2.2-4.9,4.9v18.9c0,3.2-2.6,5.9-5.9,5.9h-5.8c-3.2,0-5.9-2.6-5.9-5.9v-7.1
			c0-2.7-2.2-4.9-4.9-4.9h-30.8c-2.7,0-4.9,2.2-4.9,4.9v4.9c0,3.2-2.6,5.9-5.9,5.9h-20.3c-3.2,0-5.9-2.6-5.9-5.9v-4.9
			c0-2.7-2.2-4.9-4.9-4.9h-36.8c-2.7,0-4.9,2.2-4.9,4.9v22.9c0,3.2-2.6,5.9-5.9,5.9h-7c-3.2,0-5.9-2.6-5.9-5.9v-2.9
			c0-2.7-2.2-4.9-4.9-4.9h-22.5c-3.2,0-5.9-2.6-5.9-5.9V-91c0-2.7-2.2-4.9-4.9-4.9h-13.3c-2.7,0-4.9,2.2-4.9,4.9v5.1
			c0,3.2-2.6,5.9-5.9,5.9h-7.1c-3.2,0-5.9-2.6-5.9-5.9v-42.4c0-2.7-2.2-4.9-4.9-4.9h-15.8c-2.7,0-4.9,2.2-4.9,4.9v90.2
			c0,3.2-2.6,5.9-5.9,5.9H386c-3.2,0-5.9-2.6-5.9-5.9v-35.1c0-2.7-2.2-4.9-4.9-4.9H364c-2.7,0-4.9,2.2-4.9,4.9v14.8
			c0,3.2-2.6,5.9-5.9,5.9h-5.1c-3.2,0-5.9-2.6-5.9-5.9v-38.8c0-2.7-2.2-4.9-4.9-4.9h-9.1c-2.7,0-4.9,2.2-4.9,4.9v40.9
			c0,3.2-2.6,5.9-5.9,5.9h-10.3c-3.2,0-5.9-2.6-5.9-5.9V-115c0-2.7-2.2-4.9-4.9-4.9h-13.3c-2.7,0-4.9,2.2-4.9,4.9v81
			c0,3.2-2.6,5.9-5.9,5.9h-13.3c-3.2,0-5.9-2.6-5.9-5.9v-44.2c0-2.7-2.2-4.9-4.9-4.9h-17.9c-2.7,0-4.9,2.2-4.9,4.9v10.7
			c0,3.2-2.6,5.9-5.9,5.9h-14.3c-3.2,0-5.9-2.6-5.9-5.9v-34.7c0-2.7-2.2-4.9-4.9-4.9h-11.7c-3.2,0-5.9-2.6-5.9-5.9v-20.5
			c0-2.7-2.2-4.9-4.9-4.9h-13.8c-2.7,0-4.9,2.2-4.9,4.9v39.9c0,3.2-2.6,5.9-5.9,5.9h-8.7c-3.2,0-5.9-2.6-5.9-5.9
			c0-2.7-2.2-4.9-4.9-4.9h-19.7c-2.7,0-4.9,2.2-4.9,4.9v32.9c0,3.2-2.6,5.9-5.9,5.9H86.5c-3.2,0-5.9-2.6-5.9-5.9v-16.6
			c0-2.7-2.2-4.9-4.9-4.9H61.3c-2.7,0-4.9,2.2-4.9,4.9v18.9c0,3.2-2.6,5.9-5.9,5.9h-5.8c-3.2,0-5.9-2.6-5.9-5.9v-7.1
			c0-2.7-2.2-4.9-4.9-4.9H3.3c-2.7,0-4.9,2.2-4.9,4.9v4.9c0,3.2-2.6,5.9-5.9,5.9h-20.3c-3.2,0-5.9-2.6-5.9-5.9v-4.9
			c0-2.7-2.2-4.9-4.9-4.9h-36.8c-2.7,0-4.9,2.2-4.9,4.9v22.9c0,3.2-2.6,5.9-5.9,5.9h-7c-3.2,0-5.9-2.6-5.9-5.9v-2.9
			c0-2.7-2.2-4.9-4.9-4.9h-22.5c-3.2,0-5.9-2.6-5.9-5.9V-91c0-2.7-2.2-4.9-4.9-4.9h-13.3c-2.7,0-4.9,2.2-4.9,4.9v5.1
			c0,3.2-2.6,5.9-5.9,5.9h-7.1c-3.2,0-5.9-2.6-5.9-5.9v-42.4c0-2.7-2.2-4.9-4.9-4.9h-15.8c-2.7,0-4.9,2.2-4.9,4.9v90.2
			c0,3.2-2.6,5.9-5.9,5.9h-8.7c-3.2,0-5.9-2.6-5.9-5.9v-35.1c0-2.7-2.2-4.9-4.9-4.9H-236c-2.7,0-4.9,2.2-4.9,4.9v14.8
			c0,3.2-2.6,5.9-5.9,5.9h-5.1c-3.2,0-5.9-2.6-5.9-5.9v-38.8c0-2.7-2.2-4.9-4.9-4.9h-9.1c-2.7,0-4.9,2.2-4.9,4.9v93.2
			c0,0.3-0.2,0.5-0.5,0.5s-0.5-0.2-0.5-0.5v-93.2c0-3.2,2.6-5.9,5.9-5.9h9.1c3.2,0,5.9,2.6,5.9,5.9v38.8c0,2.7,2.2,4.9,4.9,4.9h5.1
			c2.7,0,4.9-2.2,4.9-4.9v-14.8c0-3.2,2.6-5.9,5.9-5.9h11.2c3.2,0,5.9,2.6,5.9,5.9v35.1c0,2.7,2.2,4.9,4.9,4.9h8.7
			c2.7,0,4.9-2.2,4.9-4.9v-90.2c0-3.2,2.6-5.9,5.9-5.9h15.8c3.2,0,5.9,2.6,5.9,5.9v42.4c0,2.7,2.2,4.9,4.9,4.9h7.1
			c2.7,0,4.9-2.2,4.9-4.9V-91c0-3.2,2.6-5.9,5.9-5.9h13.3c3.2,0,5.9,2.6,5.9,5.9v34.7c0,2.7,2.2,4.9,4.9,4.9h22.5
			c3.2,0,5.9,2.6,5.9,5.9v2.9c0,2.7,2.2,4.9,4.9,4.9h7c2.7,0,4.9-2.2,4.9-4.9v-22.9c0-3.2,2.6-5.9,5.9-5.9h36.8
			c3.2,0,5.9,2.6,5.9,5.9v4.9c0,2.7,2.2,4.9,4.9,4.9h20.3c2.7,0,4.9-2.2,4.9-4.9v-4.9c0-3.2,2.6-5.9,5.9-5.9h30.8
			c3.2,0,5.9,2.6,5.9,5.9v7.1c0,2.7,2.2,4.9,4.9,4.9h5.8c2.7,0,4.9-2.2,4.9-4.9v-18.9c0-3.2,2.6-5.9,5.9-5.9h14.5
			c3.2,0,5.9,2.6,5.9,5.9v16.6c0,2.7,2.2,4.9,4.9,4.9h11.7c2.7,0,4.9-2.2,4.9-4.9v-32.9c0-3.2,2.6-5.9,5.9-5.9h19.7
			c3.2,0,5.9,2.6,5.9,5.9c0,2.7,2.2,4.9,4.9,4.9h8.7c2.7,0,4.9-2.2,4.9-4.9v-39.9c0-3.2,2.6-5.9,5.9-5.9h13.8c3.2,0,5.9,2.6,5.9,5.9
			v20.5c0,2.7,2.2,4.9,4.9,4.9H195c3.2,0,5.9,2.6,5.9,5.9v34.7c0,2.7,2.2,4.9,4.9,4.9H220c2.7,0,4.9-2.2,4.9-4.9v-10.7
			c0-3.2,2.6-5.9,5.9-5.9h17.9c3.2,0,5.9,2.6,5.9,5.9V-34c0,2.7,2.2,4.9,4.9,4.9h13.3c2.7,0,4.9-2.2,4.9-4.9v-81
			c0-3.2,2.6-5.9,5.9-5.9h13.3c3.2,0,5.9,2.6,5.9,5.9v58.7c0,2.7,2.2,4.9,4.9,4.9h10.3c2.7,0,4.9-2.2,4.9-4.9v-40.9
			c0-3.2,2.6-5.9,5.9-5.9h9.1c3.2,0,5.9,2.6,5.9,5.9v38.8c0,2.7,2.2,4.9,4.9,4.9h5.1c2.7,0,4.9-2.2,4.9-4.9v-14.8
			c0-3.2,2.6-5.9,5.9-5.9h11.2c3.2,0,5.9,2.6,5.9,5.9v35.1c0,2.7,2.2,4.9,4.9,4.9h8.7c2.7,0,4.9-2.2,4.9-4.9v-90.2
			c0-3.2,2.6-5.9,5.9-5.9h15.8c3.2,0,5.9,2.6,5.9,5.9v42.4c0,2.7,2.2,4.9,4.9,4.9h7.1c2.7,0,4.9-2.2,4.9-4.9V-91
			c0-3.2,2.6-5.9,5.9-5.9h13.3c3.2,0,5.9,2.6,5.9,5.9v34.7c0,2.7,2.2,4.9,4.9,4.9h22.5c3.2,0,5.9,2.6,5.9,5.9v2.9
			c0,2.7,2.2,4.9,4.9,4.9h7c2.7,0,4.9-2.2,4.9-4.9v-22.9c0-3.2,2.6-5.9,5.9-5.9h36.8c3.2,0,5.9,2.6,5.9,5.9v4.9
			c0,2.7,2.2,4.9,4.9,4.9h20.3c2.7,0,4.9-2.2,4.9-4.9v-4.9c0-3.2,2.6-5.9,5.9-5.9h30.8c3.2,0,5.9,2.6,5.9,5.9v7.1
			c0,2.7,2.2,4.9,4.9,4.9h5.8c2.7,0,4.9-2.2,4.9-4.9v-18.9c0-3.2,2.6-5.9,5.9-5.9h14.5c3.2,0,5.9,2.6,5.9,5.9v16.6
			c0,2.7,2.2,4.9,4.9,4.9h11.7c2.7,0,4.9-2.2,4.9-4.9v-32.9c0-3.2,2.6-5.9,5.9-5.9h19.7c3.2,0,5.9,2.6,5.9,5.9
			c0,2.7,2.2,4.9,4.9,4.9h8.7c2.7,0,4.9-2.2,4.9-4.9v-39.9c0-3.2,2.6-5.9,5.9-5.9h13.8c3.2,0,5.9,2.6,5.9,5.9v20.5
			c0,2.7,2.2,4.9,4.9,4.9H795c3.2,0,5.9,2.6,5.9,5.9v34.7c0,2.7,2.2,4.9,4.9,4.9H820c2.7,0,4.9-2.2,4.9-4.9v-10.7
			c0-3.2,2.6-5.9,5.9-5.9h17.9c3.2,0,5.9,2.6,5.9,5.9V-34c0,2.7,2.2,4.9,4.9,4.9h13.3c2.7,0,4.9-2.2,4.9-4.9v-81
			c0-3.2,2.6-5.9,5.9-5.9h13.3c3.2,0,5.9,2.6,5.9,5.9l0,105.7c0,2.7,2.2,4.9,4.9,4.9H923c0.3,0,0.5,0.2,0.5,0.5S923.3-3.4,923-3.4z"
			/>
	</g>
</g>
<g class="st1">
	<g class="st2">
		<path d="M39.4,31.7c-3.8,5-9.7,8.2-16.4,8.2c-11.4,0-20.6-9.2-20.6-20.6C2.4,7.9,11.6-1.3,23-1.3c6.7,0,12.7,3.2,16.4,8.2
			c-2-1.1-4.4-1.8-6.8-1.8c-7.8,0-14.2,6.3-14.2,14.2c0,7.8,6.3,14.2,14.2,14.2C35.1,33.5,37.4,32.8,39.4,31.7z"/>
		<path d="M23,40.4c-11.6,0-21.1-9.5-21.1-21.1C1.9,7.7,11.4-1.8,23-1.8c6.7,0,12.8,3,16.8,8.4C40,6.7,40,7,39.8,7.2
			s-0.4,0.2-0.6,0.1c-2-1.1-4.3-1.7-6.6-1.7c-7.5,0-13.7,6.1-13.7,13.7S25,33,32.6,33c2.3,0,4.6-0.6,6.6-1.7
			c0.2-0.1,0.5-0.1,0.6,0.1s0.2,0.4,0,0.6C35.8,37.3,29.7,40.4,23,40.4z M23-0.8c-11.1,0-20.1,9-20.1,20.1c0,11.1,9,20.1,20.1,20.1
			c5.6,0,10.8-2.3,14.6-6.3C36,33.7,34.3,34,32.6,34c-8.1,0-14.7-6.6-14.7-14.7S24.5,4.6,32.6,4.6c1.7,0,3.4,0.3,5,0.9
			C33.8,1.5,28.6-0.8,23-0.8z"/>
	</g>
	<g class="st2">
		<path d="M39.4,33.1c-3.8,5-9.7,8.2-16.4,8.2c-11.4,0-20.6-9.2-20.6-20.6C2.4,9.4,11.6,0.1,23,0.1c6.7,0,12.7,3.2,16.4,8.2
			c-2-1.1-4.4-1.8-6.8-1.8c-7.8,0-14.2,6.3-14.2,14.2c0,7.8,6.3,14.2,14.2,14.2C35.1,34.9,37.4,34.3,39.4,33.1z"/>
		<path d="M23,41.8c-11.6,0-21.1-9.5-21.1-21.1C1.9,9.1,11.4-0.4,23-0.4c6.7,0,12.8,3,16.8,8.4c0.1,0.2,0.1,0.4,0,0.6
			c-0.2,0.2-0.4,0.2-0.6,0.1c-2-1.1-4.3-1.7-6.6-1.7C25,7,18.9,13.2,18.9,20.7c0,7.5,6.1,13.7,13.7,13.7c2.3,0,4.6-0.6,6.6-1.7
			c0.2-0.1,0.5-0.1,0.6,0.1c0.2,0.2,0.2,0.4,0,0.6C35.8,38.8,29.7,41.8,23,41.8z M23,0.6c-11.1,0-20.1,9-20.1,20.1
			c0,11.1,9,20.1,20.1,20.1c5.6,0,10.8-2.3,14.6-6.3c-1.6,0.6-3.3,0.9-5.1,0.9c-8.1,0-14.7-6.6-14.7-14.7S24.5,6,32.6,6
			c1.7,0,3.4,0.3,5,0.9C33.8,2.9,28.6,0.6,23,0.6z"/>
	</g>
</g>
<g class="st1">
	<rect x="-277" y="69.2" class="st6" width="600" height="50"/>
</g>
<g class="st1">
	<path class="st2" d="M323,69.7h-600c-0.3,0-0.5-0.2-0.5-0.5s0.2-0.5,0.5-0.5h600c0.3,0,0.5,0.2,0.5,0.5S323.3,69.7,323,69.7z"/>
</g>
<g class="st1">
	<g class="st2">
		<g>
			
				<rect x="48.3" y="20" transform="matrix(0.7071 -0.7071 0.7071 0.7071 -3.1568 42.0155)" class="st11" width="1.7" height="9.7"/>
			<path d="M52,29.4c-0.1,0-0.3,0-0.4-0.1l-6.9-6.9c-0.1-0.1-0.1-0.2-0.1-0.4s0.1-0.3,0.1-0.4l1.2-1.2c0.2-0.2,0.5-0.2,0.7,0
				l6.9,6.9c0.1,0.1,0.1,0.2,0.1,0.4s-0.1,0.3-0.1,0.4l-1.2,1.2C52.2,29.3,52.1,29.4,52,29.4z M45.8,22l6.2,6.2l0.5-0.5l-6.2-6.2
				L45.8,22z"/>
		</g>
		<g>
			
				<rect x="44.6" y="16.5" transform="matrix(0.7071 0.7071 -0.7071 0.7071 28.3789 -25.8947)" class="st11" width="1.7" height="9.7"/>
			<path d="M42.6,25.8c-0.1,0-0.3,0-0.4-0.1l-1.2-1.2c-0.2-0.2-0.2-0.5,0-0.7l6.9-6.9c0.2-0.2,0.5-0.2,0.7,0l1.2,1.2
				c0.2,0.2,0.2,0.5,0,0.7L43,25.7C42.9,25.8,42.7,25.8,42.6,25.8z M42.1,24.1l0.5,0.5l6.2-6.2L48.3,18L42.1,24.1z"/>
		</g>
	</g>
	<g class="st2">
		<polygon class="st11" points="107,44.7 -48.1,44.7 -48.1,27.3 99.2,27.3 		"/>
		<path d="M107,45.2H-48.1c-0.3,0-0.5-0.2-0.5-0.5V27.3c0-0.3,0.2-0.5,0.5-0.5H99.2c0.2,0,0.4,0.1,0.5,0.3l7.8,17.4
			c0.1,0.2,0.1,0.3,0,0.5C107.3,45.1,107.1,45.2,107,45.2z M-47.6,44.2h153.8l-7.3-16.4H-47.6V44.2z"/>
	</g>
	<g class="st2">
		<polygon class="st11" points="60.3,27.3 53.7,5.9 51.6,5.9 51.6,27.3 		"/>
		<path d="M60.3,27.8h-8.8c-0.3,0-0.5-0.2-0.5-0.5V5.9c0-0.3,0.2-0.5,0.5-0.5h2.1c0.2,0,0.4,0.1,0.5,0.4l6.6,21.4
			c0,0.2,0,0.3-0.1,0.4C60.6,27.7,60.5,27.8,60.3,27.8z M52.1,26.8h7.6L53.3,6.4h-1.3V26.8z"/>
	</g>
	<g class="st2">
		<rect x="-48.1" y="44.7" class="st11" width="155.1" height="9.7"/>
		<path d="M107,54.9H-48.1c-0.3,0-0.5-0.2-0.5-0.5v-9.7c0-0.3,0.2-0.5,0.5-0.5H107c0.3,0,0.5,0.2,0.5,0.5v9.7
			C107.5,54.6,107.2,54.9,107,54.9z M-47.6,53.9h154.1v-8.7H-47.6V53.9z"/>
	</g>
	<g class="st2">
		<polygon class="st11" points="14.1,27.3 14.1,20.2 16.8,20.2 20.4,27.3 		"/>
		<path d="M20.4,27.8h-6.3c-0.3,0-0.5-0.2-0.5-0.5v-7.1c0-0.3,0.2-0.5,0.5-0.5h2.7c0.2,0,0.4,0.1,0.4,0.3l3.6,7.1
			c0.1,0.2,0.1,0.3,0,0.5C20.7,27.7,20.6,27.8,20.4,27.8z M14.6,26.8h5l-3.1-6.1h-1.9V26.8z"/>
	</g>
	<g class="st2">
		<polygon class="st11" points="100.1,29.3 107,29.3 107,37.6 103.8,37.6 		"/>
		<path d="M107,38.1h-3.1c-0.2,0-0.4-0.1-0.5-0.3l-3.8-8.4c-0.1-0.2-0.1-0.3,0-0.5c0.1-0.1,0.3-0.2,0.4-0.2h6.9
			c0.3,0,0.5,0.2,0.5,0.5v8.4C107.5,37.9,107.2,38.1,107,38.1z M104.1,37.1h2.3v-7.4h-5.6L104.1,37.1z"/>
	</g>
	<g class="st2">
		<rect x="9.2" y="54.4" class="st11" width="42.4" height="4.3"/>
		<path d="M51.6,59.2H9.2c-0.3,0-0.5-0.2-0.5-0.5v-4.3c0-0.3,0.2-0.5,0.5-0.5h42.4c0.3,0,0.5,0.2,0.5,0.5v4.3
			C52.1,59,51.8,59.2,51.6,59.2z M9.7,58.2h41.4v-3.3H9.7V58.2z"/>
	</g>
	<g class="st2">
		<rect x="51.6" y="54.4" class="st11" width="27.3" height="2.2"/>
		<path d="M78.8,57H51.6c-0.3,0-0.5-0.2-0.5-0.5v-2.2c0-0.3,0.2-0.5,0.5-0.5h27.3c0.3,0,0.5,0.2,0.5,0.5v2.2
			C79.3,56.8,79.1,57,78.8,57z M52.1,56h26.3v-1.2H52.1V56z"/>
	</g>
	<g class="st2">
		<rect x="-35" y="54.4" class="st11" width="44.2" height="2.2"/>
		<path d="M9.2,57H-35c-0.3,0-0.5-0.2-0.5-0.5v-2.2c0-0.3,0.2-0.5,0.5-0.5H9.2c0.3,0,0.5,0.2,0.5,0.5v2.2C9.7,56.8,9.5,57,9.2,57z
			 M-34.5,56H8.7v-1.2h-43.2V56z"/>
	</g>
	<g class="st2">
		<rect x="-54.8" y="54.4" class="st11" width="19.8" height="4.1"/>
		<path d="M-35,58.9h-19.8c-0.3,0-0.5-0.2-0.5-0.5v-4.1c0-0.3,0.2-0.5,0.5-0.5H-35c0.3,0,0.5,0.2,0.5,0.5v4.1
			C-34.5,58.7-34.7,58.9-35,58.9z M-54.3,57.9h18.8v-3.1h-18.8V57.9z"/>
	</g>
	<g class="st2">
		<rect x="-65.1" y="55.6" class="st11" width="10.3" height="1.9"/>
		<path d="M-54.8,58h-10.3c-0.3,0-0.5-0.2-0.5-0.5v-1.9c0-0.3,0.2-0.5,0.5-0.5h10.3c0.3,0,0.5,0.2,0.5,0.5v1.9
			C-54.3,57.8-54.5,58-54.8,58z M-64.6,57h9.3v-0.9h-9.3V57z"/>
	</g>
	<g class="st2">
		<rect x="17.3" y="27.3" class="st11" width="34.3" height="27.1"/>
		<path d="M51.6,54.9H17.3c-0.3,0-0.5-0.2-0.5-0.5V27.3c0-0.3,0.2-0.5,0.5-0.5h34.3c0.3,0,0.5,0.2,0.5,0.5v27.1
			C52.1,54.6,51.8,54.9,51.6,54.9z M17.8,53.9h33.3V27.8H17.8V53.9z"/>
	</g>
	<g class="st2">
		<line class="st11" x1="51.6" y1="49.5" x2="-4.7" y2="49.5"/>
		<path d="M51.6,50H-4.7c-0.3,0-0.5-0.2-0.5-0.5S-4.9,49-4.7,49h56.2c0.3,0,0.5,0.2,0.5,0.5S51.8,50,51.6,50z"/>
	</g>
	<g class="st2">
		<rect x="10.6" y="11" class="st11" width="3.2" height="16.3"/>
		<path d="M13.8,27.8h-3.2c-0.3,0-0.5-0.2-0.5-0.5V11c0-0.3,0.2-0.5,0.5-0.5h3.2c0.3,0,0.5,0.2,0.5,0.5v16.3
			C14.3,27.6,14.1,27.8,13.8,27.8z M11.1,26.8h2.2V11.5h-2.2V26.8z"/>
	</g>
	<g class="st2">
		<rect x="-45.9" y="19.2" class="st11" width="25.6" height="8.1"/>
		<path d="M-20.3,27.8h-25.6c-0.3,0-0.5-0.2-0.5-0.5v-8.1c0-0.3,0.2-0.5,0.5-0.5h25.6c0.3,0,0.5,0.2,0.5,0.5v8.1
			C-19.8,27.6-20,27.8-20.3,27.8z M-45.4,26.8h24.6v-7.1h-24.6V26.8z"/>
	</g>
	<g class="st2">
		<rect x="-48.5" y="11" class="st11" width="25.6" height="8.1"/>
		<path d="M-23,19.6h-25.6c-0.3,0-0.5-0.2-0.5-0.5V11c0-0.3,0.2-0.5,0.5-0.5H-23c0.3,0,0.5,0.2,0.5,0.5v8.1
			C-22.5,19.4-22.7,19.6-23,19.6z M-48,18.6h24.6v-7.1H-48V18.6z"/>
	</g>
	<g class="st2">
		<rect x="-48.1" y="2.9" class="st11" width="25.6" height="8.1"/>
		<path d="M-22.6,11.5h-25.6c-0.3,0-0.5-0.2-0.5-0.5V2.9c0-0.3,0.2-0.5,0.5-0.5h25.6c0.3,0,0.5,0.2,0.5,0.5V11
			C-22.1,11.3-22.3,11.5-22.6,11.5z M-47.6,10.5h24.6V3.4h-24.6V10.5z"/>
	</g>
	<g class="st2">
		<rect x="-44.3" y="-1.7" class="st11" width="22.4" height="4.5"/>
		<path d="M-21.9,3.4h-22.4c-0.3,0-0.5-0.2-0.5-0.5v-4.5c0-0.3,0.2-0.5,0.5-0.5h22.4c0.3,0,0.5,0.2,0.5,0.5v4.5
			C-21.4,3.1-21.6,3.4-21.9,3.4z M-43.8,2.4h21.4v-3.5h-21.4V2.4z"/>
	</g>
	<g class="st2">
		<rect x="-35.2" y="-3.5" class="st11" width="3.5" height="30.8"/>
		<path d="M-31.7,27.8h-3.5c-0.3,0-0.5-0.2-0.5-0.5V-3.5c0-0.3,0.2-0.5,0.5-0.5h3.5c0.3,0,0.5,0.2,0.5,0.5v30.8
			C-31.2,27.6-31.4,27.8-31.7,27.8z M-34.7,26.8h2.5V-3h-2.5V26.8z"/>
	</g>
	<g class="st2">
		<rect x="20.4" y="31.1" class="st11" width="8.2" height="1.5"/>
		<path d="M28.6,33.2h-8.2c-0.3,0-0.5-0.2-0.5-0.5v-1.5c0-0.3,0.2-0.5,0.5-0.5h8.2c0.3,0,0.5,0.2,0.5,0.5v1.5
			C29.1,32.9,28.9,33.2,28.6,33.2z M20.9,32.2h7.2v-0.5h-7.2V32.2z"/>
	</g>
	<g class="st2">
		<rect x="-50.2" y="45.9" class="st11" width="2" height="6.5"/>
		<path d="M-48.1,52.9h-2c-0.3,0-0.5-0.2-0.5-0.5v-6.5c0-0.3,0.2-0.5,0.5-0.5h2c0.3,0,0.5,0.2,0.5,0.5v6.5
			C-47.6,52.7-47.9,52.9-48.1,52.9z M-49.7,51.9h1v-5.5h-1V51.9z"/>
	</g>
	<g class="st2">
		<rect x="107" y="44.7" class="st11" width="4.1" height="9.7"/>
		<path d="M111.1,54.9H107c-0.3,0-0.5-0.2-0.5-0.5v-9.7c0-0.3,0.2-0.5,0.5-0.5h4.1c0.3,0,0.5,0.2,0.5,0.5v9.7
			C111.6,54.6,111.3,54.9,111.1,54.9z M107.5,53.9h3.1v-8.7h-3.1V53.9z"/>
	</g>
	<g class="st2">
		<polygon class="st11" points="111.1,54.4 107,58.7 93,58.7 93,54.4 		"/>
		<path d="M107,59.2H93c-0.3,0-0.5-0.2-0.5-0.5v-4.3c0-0.3,0.2-0.5,0.5-0.5h18.1c0.2,0,0.4,0.1,0.5,0.3c0.1,0.2,0,0.4-0.1,0.5
			l-4.1,4.3C107.2,59.1,107.1,59.2,107,59.2z M93.5,58.2h13.3l3.1-3.3H93.5V58.2z"/>
	</g>
	<g class="st2">
		<rect x="-20.3" y="-15.3" class="st11" width="30.9" height="42.6"/>
		<path d="M10.6,27.8h-30.9c-0.3,0-0.5-0.2-0.5-0.5v-42.6c0-0.3,0.2-0.5,0.5-0.5h30.9c0.3,0,0.5,0.2,0.5,0.5v42.6
			C11.1,27.6,10.9,27.8,10.6,27.8z M-19.8,26.8h29.9v-41.6h-29.9V26.8z"/>
	</g>
	<g class="st2">
		<rect x="-5.6" y="-17.4" class="st11" width="3.5" height="44.7"/>
		<path d="M-2.1,27.8h-3.5c-0.3,0-0.5-0.2-0.5-0.5v-44.7c0-0.3,0.2-0.5,0.5-0.5h3.5c0.3,0,0.5,0.2,0.5,0.5v44.7
			C-1.6,27.6-1.8,27.8-2.1,27.8z M-5.1,26.8h2.5v-43.7h-2.5V26.8z"/>
	</g>
</g>
<g class="st1">
	<g class="st2">
		<circle class="st11" cx="-18.6" cy="54.4" r="14.8"/>
		<path d="M-18.6,69.7c-8.4,0-15.3-6.9-15.3-15.3s6.9-15.3,15.3-15.3s15.3,6.9,15.3,15.3S-10.2,69.7-18.6,69.7z M-18.6,40.1
			c-7.9,0-14.3,6.4-14.3,14.3s6.4,14.3,14.3,14.3s14.3-6.4,14.3-14.3S-10.8,40.1-18.6,40.1z"/>
	</g>
	<g class="st2">
		<circle class="st11" cx="-18.6" cy="54.4" r="11"/>
		<path d="M-18.6,65.9c-6.4,0-11.5-5.2-11.5-11.5c0-6.4,5.2-11.5,11.5-11.5S-7.1,48-7.1,54.4C-7.1,60.7-12.3,65.9-18.6,65.9z
			 M-18.6,43.8c-5.8,0-10.5,4.7-10.5,10.5c0,5.8,4.7,10.5,10.5,10.5s10.5-4.7,10.5-10.5C-8.1,48.5-12.8,43.8-18.6,43.8z"/>
	</g>
	<g class="st2">
		<g>
			<path d="M-18.6,65.9c-0.3,0-0.5-0.2-0.5-0.5V43.3c0-0.3,0.2-0.5,0.5-0.5s0.5,0.2,0.5,0.5v22.1C-18.1,65.7-18.4,65.9-18.6,65.9z"
				/>
		</g>
		<g>
			<path d="M-26.5,62.7c-0.1,0-0.3,0-0.4-0.1c-0.2-0.2-0.2-0.5,0-0.7l15.6-15.6c0.2-0.2,0.5-0.2,0.7,0s0.2,0.5,0,0.7l-15.6,15.6
				C-26.2,62.6-26.3,62.7-26.5,62.7z"/>
		</g>
		<g>
			<path d="M-7.6,54.9h-22.1c-0.3,0-0.5-0.2-0.5-0.5s0.2-0.5,0.5-0.5h22.1c0.3,0,0.5,0.2,0.5,0.5S-7.3,54.9-7.6,54.9z"/>
		</g>
		<g>
			<path d="M-10.8,62.7c-0.1,0-0.3,0-0.4-0.1l-15.6-15.6c-0.2-0.2-0.2-0.5,0-0.7s0.5-0.2,0.7,0l15.6,15.6c0.2,0.2,0.2,0.5,0,0.7
				C-10.6,62.6-10.7,62.7-10.8,62.7z"/>
		</g>
	</g>
	<g class="st2">
		<circle class="st11" cx="-18.6" cy="54.4" r="2.3"/>
		<path d="M-18.6,57.2c-1.5,0-2.8-1.3-2.8-2.8s1.3-2.8,2.8-2.8s2.8,1.3,2.8,2.8S-17.1,57.2-18.6,57.2z M-18.6,52.6
			c-1,0-1.8,0.8-1.8,1.8s0.8,1.8,1.8,1.8s1.8-0.8,1.8-1.8S-17.7,52.6-18.6,52.6z"/>
	</g>
</g>
<g class="st1">
	<polygon class="st6" points="-83.1,59.6 -75.8,59.6 -75.8,57.9 -72.8,57.9 -72.8,56 -74.3,56 -74.3,53.1 -77.6,53.1 -77.6,54.1 
		-80.5,54.1 -80.5,51.1 -83.6,51.1 -83.6,53.1 -88.1,53.1 -88.1,56 -86.5,56 -86.5,57.8 -83.1,57.8 	"/>
	<path class="st2" d="M-75.8,60.1h-7.3c-0.3,0-0.5-0.2-0.5-0.5v-1.3h-2.9c-0.3,0-0.5-0.2-0.5-0.5v-1.3h-1.1c-0.3,0-0.5-0.2-0.5-0.5
		v-2.9c0-0.3,0.2-0.5,0.5-0.5h4v-1.5c0-0.3,0.2-0.5,0.5-0.5h3.1c0.3,0,0.5,0.2,0.5,0.5v2.4h1.9v-0.5c0-0.3,0.2-0.5,0.5-0.5h3.3
		c0.3,0,0.5,0.2,0.5,0.5v2.4h0.9c0.3,0,0.5,0.2,0.5,0.5v2c0,0.3-0.2,0.5-0.5,0.5h-2.5v1.1C-75.3,59.8-75.5,60.1-75.8,60.1z
		 M-82.6,59.1h6.3v-1.1c0-0.3,0.2-0.5,0.5-0.5h2.5v-1h-0.9c-0.3,0-0.5-0.2-0.5-0.5v-2.4h-2.3v0.5c0,0.3-0.2,0.5-0.5,0.5h-2.9
		c-0.3,0-0.5-0.2-0.5-0.5v-2.4h-2.1v1.5c0,0.3-0.2,0.5-0.5,0.5h-4v1.9h1.1c0.3,0,0.5,0.2,0.5,0.5v1.3h2.9c0.3,0,0.5,0.2,0.5,0.5
		V59.1z"/>
</g>
<g>
	<polygon class="st11" points="23,10.8 32.3,0.5 31.6,14.4 45.5,13.7 35.2,23 45.5,32.3 31.6,31.6 32.3,45.5 23,35.2 13.7,45.5 
		14.4,31.6 0.5,32.3 10.8,23 0.5,13.7 14.4,14.4 13.7,0.5 	"/>
	<path d="M13.7,46c-0.1,0-0.1,0-0.2,0c-0.2-0.1-0.3-0.3-0.3-0.5l0.7-13.3L0.5,32.8c-0.2,0-0.4-0.1-0.5-0.3c-0.1-0.2,0-0.4,0.1-0.6
		l9.9-8.9l-9.9-8.9C0,13.9,0,13.7,0,13.5c0.1-0.2,0.3-0.3,0.5-0.3l13.3,0.7L13.2,0.5c0-0.2,0.1-0.4,0.3-0.5c0.2-0.1,0.4,0,0.6,0.1
		l8.9,9.9l8.9-9.9C32.1,0,32.3,0,32.5,0c0.2,0.1,0.3,0.3,0.3,0.5l-0.7,13.3l13.3-0.7c0.2,0,0.4,0.1,0.5,0.3c0.1,0.2,0,0.4-0.1,0.6
		L35.9,23l9.9,8.9c0.2,0.1,0.2,0.4,0.1,0.6c-0.1,0.2-0.3,0.3-0.5,0.3l-13.3-0.7l0.7,13.3c0,0.2-0.1,0.4-0.3,0.5
		c-0.2,0.1-0.4,0-0.6-0.1L23,35.9l-8.9,9.9C14,45.9,13.8,46,13.7,46z M14.4,31.1c0.1,0,0.3,0.1,0.4,0.1c0.1,0.1,0.2,0.2,0.1,0.4
		l-0.6,12.5l8.4-9.3c0.1-0.1,0.2-0.2,0.4-0.2l0,0c0.1,0,0.3,0.1,0.4,0.2l8.4,9.3l-0.6-12.5c0-0.1,0-0.3,0.1-0.4
		c0.1-0.1,0.2-0.2,0.4-0.1l12.5,0.6l-9.3-8.4c-0.1-0.1-0.2-0.2-0.2-0.4s0.1-0.3,0.2-0.4l9.3-8.4l-12.5,0.6c-0.1,0-0.3,0-0.4-0.1
		c-0.1-0.1-0.2-0.2-0.1-0.4l0.6-12.5l-8.4,9.3c-0.2,0.2-0.6,0.2-0.7,0l-8.4-9.3l0.6,12.5c0,0.1,0,0.3-0.1,0.4
		c-0.1,0.1-0.2,0.2-0.4,0.1L1.9,14.3l9.3,8.4c0.1,0.1,0.2,0.2,0.2,0.4s-0.1,0.3-0.2,0.4l-9.3,8.4L14.4,31.1
		C14.4,31.1,14.4,31.1,14.4,31.1z"/>
</g>
<g class="st1">
	<g class="st2">
		<circle cx="23" cy="22.4" r="8.9"/>
		<path d="M23,31.9c-5.2,0-9.4-4.2-9.4-9.4S17.8,13,23,13c5.2,0,9.4,4.2,9.4,9.4S28.2,31.9,23,31.9z M23,14c-4.6,0-8.4,3.8-8.4,8.4
			s3.8,8.4,8.4,8.4c4.6,0,8.4-3.8,8.4-8.4S27.6,14,23,14z"/>
	</g>
	<g class="st2">
		<circle class="st11" cx="23" cy="23.6" r="8.9"/>
		<path d="M23,33c-5.2,0-9.4-4.2-9.4-9.4s4.2-9.4,9.4-9.4c5.2,0,9.4,4.2,9.4,9.4S28.2,33,23,33z M23,15.1c-4.6,0-8.4,3.8-8.4,8.4
			S18.4,32,23,32c4.6,0,8.4-3.8,8.4-8.4S27.6,15.1,23,15.1z"/>
	</g>
</g>
</svg>
