<?xml version="1.0" encoding="utf-8"?>
<!-- Generator: Adobe Illustrator 23.1.0, SVG Export Plug-In . SVG Version: 6.00 Build 0)  -->
<svg version="1.1" id="Layer_1" xmlns="http://www.w3.org/2000/svg" xmlns:xlink="http://www.w3.org/1999/xlink" x="0px" y="0px"
	 viewBox="0 0 1920 200" style="enable-background:new 0 0 1920 200;" xml:space="preserve">
<style type="text/css">
	.st0{stroke:#000000;stroke-miterlimit:10;}
	.st1{fill:#FFFFFF;stroke:#000000;stroke-miterlimit:10;}
	.st2{fill:#FFFFFF;stroke:#000000;stroke-width:2;stroke-linecap:round;stroke-linejoin:round;stroke-miterlimit:10;}
	.st3{fill:none;stroke:#000000;stroke-width:2;stroke-linecap:round;stroke-linejoin:round;stroke-miterlimit:10;}
	.st4{display:none;}
	.st5{display:inline;}
	.st6{fill:#FFFFFF;stroke:#000000;stroke-linecap:round;stroke-linejoin:round;stroke-miterlimit:10;}
	.st7{fill:#FFFFFF;stroke:#000000;stroke-linecap:round;stroke-linejoin:round;}
	.st8{stroke:#000000;stroke-linecap:round;stroke-linejoin:round;}
	.st9{fill:#262626;stroke:#000000;stroke-linecap:round;stroke-linejoin:round;stroke-miterlimit:10;}
	.st10{fill:none;stroke:#000000;stroke-linecap:round;stroke-linejoin:round;stroke-miterlimit:10;}
	.st11{fill:none;stroke:#000000;stroke-linecap:round;stroke-linejoin:round;}
	.st12{fill:none;stroke:#000000;stroke-linecap:round;stroke-linejoin:round;stroke-dasharray:11.8575,11.8575;}
</style>
<rect class="st0" width="1920" height="200"/>
<g id="WoodGround">
	<rect class="st1" width="1920" height="50"/>
	<rect y="50" class="st1" width="369.3" height="50"/>
	<rect x="379.9" y="50" class="st1" width="988.2" height="50"/>
	<rect x="1386.9" y="50" class="st1" width="512.3" height="50"/>
	<rect x="1603.6" y="100" class="st1" width="316.4" height="50"/>
	<rect x="771.7" y="100" class="st1" width="821.1" height="50"/>
	<rect y="100" class="st1" width="756.4" height="50"/>
	<rect x="1294.1" y="150" class="st1" width="625.9" height="50"/>
	<rect x="656.8" y="150" class="st1" width="625.9" height="50"/>
	<rect y="150" class="st1" width="648.8" height="50"/>
</g>
<g>
	<path class="st2" d="M178.7,156.9v11.4c0,41.4-33.6,75-75,75c-41.4,0-75-33.6-75-75v-11.4H178.7z"/>
	<circle class="st2" cx="103.7" cy="156.9" r="75"/>
	<circle class="st2" cx="103.7" cy="156.9" r="65"/>
	<g>
		<line class="st2" x1="103.7" y1="243.3" x2="103.7" y2="231.9"/>
		<line class="st2" x1="149.8" y1="227.5" x2="149.8" y2="216.1"/>
		<line class="st2" x1="57.6" y1="216.1" x2="57.6" y2="227.5"/>
	</g>
	<path class="st3" d="M103.7,156.9"/>
	<circle class="st2" cx="121.4" cy="132.9" r="16.5"/>
	<path class="st2" d="M47.6,176.7h12.7c2,0,3.7-1.6,3.7-3.7V154c0-2,1.6-3.7,3.7-3.7h9.7c2,0,3.7-1.6,3.7-3.7v-20.9
		c0-2,1.6-3.7,3.7-3.7h10c2,0,3.7,1.6,3.7,3.7v26c0,2,1.6,3.7,3.7,3.7h2.9c2,0,3.7-1.6,3.7-3.7v-16.7c0-2,1.6-3.7,3.7-3.7h6.3
		c2,0,3.7,1.6,3.7,3.7v5.8c0,2,1.6,3.7,3.7,3.7h1c2,0,3.7,1.6,3.7,3.7v12.3c0,2,1.6,3.7,3.7,3.7h0c2,0,3.7,1.6,3.7,3.7v5.3
		c0,2,1.6,3.7,3.7,3.7h15.1"/>
	<path class="st2" d="M74.7,176.7h4c2,0,3.6-1.6,3.6-3.6v-7.2c0-2,1.6-3.6,3.6-3.6h5.2c2,0,3.6,1.6,3.6,3.6v0c0,2,1.6,3.6,3.6,3.6
		h18.5c2,0,3.6,1.6,3.6,3.6l0,0c0,2,1.6,3.6,3.6,3.6h3"/>
</g>
<g>
	<path class="st2" d="M324.4,13.6V25c0,41.4-33.6,75-75,75c-41.4,0-75-33.6-75-75V13.6H324.4z"/>
	<circle class="st2" cx="249.4" cy="13.6" r="75"/>
	<circle class="st2" cx="249.4" cy="13.6" r="65"/>
	<g>
		<line class="st2" x1="249.4" y1="100" x2="249.4" y2="88.6"/>
		<line class="st2" x1="295.5" y1="84.2" x2="295.5" y2="72.8"/>
		<line class="st2" x1="203.4" y1="72.8" x2="203.4" y2="84.2"/>
	</g>
	<path class="st3" d="M249.4,13.6"/>
	<circle class="st2" cx="278.9" cy="9.1" r="16.5"/>
	<path class="st2" d="M195.7-12.1l9,9c1.4,1.4,3.7,1.4,5.2,0l13.5-13.5c1.4-1.4,3.7-1.4,5.2,0l6.9,6.9c1.4,1.4,3.7,1.4,5.2,0
		l14.8-14.8c1.4-1.4,3.7-1.4,5.2,0l7.1,7.1c1.4,1.4,1.4,3.7,0,5.2L249.2,6.2c-1.4,1.4-1.4,3.7,0,5.2l2,2c1.4,1.4,3.7,1.4,5.2,0
		l11.8-11.8c1.4-1.4,3.7-1.4,5.2,0l4.5,4.5c1.4,1.4,1.4,3.7,0,5.2l-4.1,4.1c-1.4,1.4-1.4,3.7,0,5.2l0.7,0.7c1.4,1.4,1.4,3.7,0,5.2
		l-8.7,8.7c-1.4,1.4-1.4,3.7,0,5.2v0c1.4,1.4,1.4,3.7,0,5.2l-3.7,3.7c-1.4,1.4-1.4,3.7,0,5.2L272.8,65"/>
	<path class="st2" d="M214.9,7.1l2.9,2.9c1.4,1.4,3.7,1.4,5.1,0l5.1-5.1c1.4-1.4,3.7-1.4,5.1,0l3.7,3.7c1.4,1.4,1.4,3.7,0,5.1v0
		c-1.4,1.4-1.4,3.7,0,5.1l13.1,13.1c1.4,1.4,1.4,3.7,0,5.1v0c-1.4,1.4-1.4,3.7,0,5.1l2.1,2.1"/>
</g>
<g>
	<path class="st2" d="M1643.1,171v11.4c0,41.4-33.6,75-75,75s-75-33.6-75-75V171H1643.1z"/>
	<circle class="st2" cx="1568.1" cy="171" r="75"/>
	<circle class="st2" cx="1568.1" cy="171" r="65"/>
	<g>
		<line class="st2" x1="1568.1" y1="257.4" x2="1568.1" y2="246"/>
		<line class="st2" x1="1614.1" y1="241.6" x2="1614.1" y2="230.2"/>
		<line class="st2" x1="1522" y1="230.2" x2="1522" y2="241.6"/>
	</g>
	<path class="st3" d="M1568.1,171"/>
	<circle class="st2" cx="1550.4" cy="195" r="16.5"/>
	<path class="st2" d="M1624.2,151.2h-12.7c-2,0-3.7,1.6-3.7,3.7v19.1c0,2-1.6,3.7-3.7,3.7h-9.7c-2,0-3.7,1.6-3.7,3.7v20.9
		c0,2-1.6,3.7-3.7,3.7h-10c-2,0-3.7-1.6-3.7-3.7v-26c0-2-1.6-3.7-3.7-3.7h-2.9c-2,0-3.7,1.6-3.7,3.7v16.7c0,2-1.6,3.7-3.7,3.7h-6.3
		c-2,0-3.7-1.6-3.7-3.7V187c0-2-1.6-3.7-3.7-3.7h-1c-2,0-3.7-1.6-3.7-3.7v-12.3c0-2-1.6-3.7-3.7-3.7h0c-2,0-3.7-1.6-3.7-3.7v-5.3
		c0-2-1.6-3.7-3.7-3.7h-15.1"/>
	<path class="st2" d="M1597.1,151.2h-4c-2,0-3.6,1.6-3.6,3.6v7.2c0,2-1.6,3.6-3.6,3.6h-5.2c-2,0-3.6-1.6-3.6-3.6v0
		c0-2-1.6-3.6-3.6-3.6h-18.5c-2,0-3.6-1.6-3.6-3.6v0c0-2-1.6-3.6-3.6-3.6h-3"/>
</g>
<g>
	<path class="st2" d="M1878.2,19.3v11.4c0,41.4-33.6,75-75,75c-41.4,0-75-33.6-75-75V19.3H1878.2z"/>
	<circle class="st2" cx="1803.2" cy="19.3" r="75"/>
	<circle class="st2" cx="1803.2" cy="19.3" r="65"/>
	<g>
		<line class="st2" x1="1803.2" y1="105.7" x2="1803.2" y2="94.3"/>
		<line class="st2" x1="1849.3" y1="89.9" x2="1849.3" y2="78.5"/>
		<line class="st2" x1="1757.2" y1="78.5" x2="1757.2" y2="89.9"/>
	</g>
	<path class="st3" d="M1803.2,19.3"/>
	<circle class="st2" cx="1827.2" cy="37" r="16.5"/>
	<path class="st2" d="M1783.4-36.8v12.7c0,2,1.6,3.7,3.7,3.7h19.1c2,0,3.7,1.6,3.7,3.7v9.7c0,2,1.6,3.7,3.7,3.7h20.9
		c2,0,3.7,1.6,3.7,3.7v10c0,2-1.6,3.7-3.7,3.7h-26c-2,0-3.7,1.6-3.7,3.7v2.9c0,2,1.6,3.7,3.7,3.7h16.7c2,0,3.7,1.6,3.7,3.7v6.3
		c0,2-1.6,3.7-3.7,3.7h-5.8c-2,0-3.7,1.6-3.7,3.7v1c0,2-1.6,3.7-3.7,3.7h-12.3c-2,0-3.7,1.6-3.7,3.7v0c0,2-1.6,3.7-3.7,3.7h-5.3
		c-2,0-3.7,1.6-3.7,3.7v15.1"/>
	<path class="st2" d="M1783.4-9.7v4c0,2,1.6,3.6,3.6,3.6h7.2c2,0,3.6,1.6,3.6,3.6v5.2c0,2-1.6,3.6-3.6,3.6l0,0c-2,0-3.6,1.6-3.6,3.6
		v18.5c0,2-1.6,3.6-3.6,3.6l0,0c-2,0-3.6,1.6-3.6,3.6v3"/>
</g>
<g>
	<path class="st2" d="M1005,151.2v11.4c0,41.4-33.6,75-75,75c-41.4,0-75-33.6-75-75v-11.4H1005z"/>
	<circle class="st2" cx="930" cy="151.2" r="75"/>
	<circle class="st2" cx="930" cy="151.2" r="65"/>
	<g>
		<line class="st2" x1="930" y1="237.6" x2="930" y2="226.2"/>
		<line class="st2" x1="976.1" y1="221.8" x2="976.1" y2="210.4"/>
		<line class="st2" x1="883.9" y1="210.4" x2="883.9" y2="221.8"/>
	</g>
	<path class="st3" d="M930,151.2"/>
	<circle class="st2" cx="947.7" cy="127.2" r="16.5"/>
	<path class="st2" d="M873.9,171h12.7c2,0,3.7-1.6,3.7-3.7v-19.1c0-2,1.6-3.7,3.7-3.7h9.7c2,0,3.7-1.6,3.7-3.7V120
		c0-2,1.6-3.7,3.7-3.7h10c2,0,3.7,1.6,3.7,3.7v26c0,2,1.6,3.7,3.7,3.7h2.9c2,0,3.7-1.6,3.7-3.7v-16.7c0-2,1.6-3.7,3.7-3.7h6.3
		c2,0,3.7,1.6,3.7,3.7v5.8c0,2,1.6,3.7,3.7,3.7h1c2,0,3.7,1.6,3.7,3.7v12.3c0,2,1.6,3.7,3.7,3.7l0,0c2,0,3.7,1.6,3.7,3.7v5.3
		c0,2,1.6,3.7,3.7,3.7h15.1"/>
	<path class="st2" d="M900.9,171h4c2,0,3.6-1.6,3.6-3.6v-7.2c0-2,1.6-3.6,3.6-3.6h5.2c2,0,3.6,1.6,3.6,3.6v0c0,2,1.6,3.6,3.6,3.6
		h18.5c2,0,3.6,1.6,3.6,3.6l0,0c0,2,1.6,3.6,3.6,3.6h3"/>
</g>
<g>
	<path class="st2" d="M656.8,76.2v11.4c0,41.4-33.6,75-75,75c-41.4,0-75-33.6-75-75V76.2H656.8z"/>
	<circle class="st2" cx="581.8" cy="76.2" r="75"/>
	<circle class="st2" cx="581.8" cy="76.2" r="65"/>
	<g>
		<line class="st2" x1="581.8" y1="162.6" x2="581.8" y2="151.2"/>
		<line class="st2" x1="627.9" y1="146.8" x2="627.9" y2="135.4"/>
		<line class="st2" x1="535.8" y1="135.4" x2="535.8" y2="146.8"/>
	</g>
	<path class="st3" d="M581.8,76.2"/>
	<circle class="st2" cx="577.4" cy="46.7" r="16.5"/>
	<path class="st2" d="M556.2,129.9l9-9c1.4-1.4,1.4-3.7,0-5.2l-13.5-13.5c-1.4-1.4-1.4-3.7,0-5.2l6.9-6.9c1.4-1.4,1.4-3.7,0-5.2
		l-14.8-14.8c-1.4-1.4-1.4-3.7,0-5.2l7.1-7.1c1.4-1.4,3.7-1.4,5.2,0l18.4,18.4c1.4,1.4,3.7,1.4,5.2,0l2-2c1.4-1.4,1.4-3.7,0-5.2
		l-11.8-11.8c-1.4-1.4-1.4-3.7,0-5.2l4.5-4.5c1.4-1.4,3.7-1.4,5.2,0l4.1,4.1c1.4,1.4,3.7,1.4,5.2,0l0.7-0.7c1.4-1.4,3.7-1.4,5.2,0
		l8.7,8.7c1.4,1.4,3.7,1.4,5.2,0v0c1.4-1.4,3.7-1.4,5.2,0l3.7,3.7c1.4,1.4,3.7,1.4,5.2,0l10.7-10.7"/>
	<path class="st2" d="M575.3,110.7l2.9-2.9c1.4-1.4,1.4-3.7,0-5.1l-5.1-5.1c-1.4-1.4-1.4-3.7,0-5.1l3.7-3.7c1.4-1.4,3.7-1.4,5.1,0
		l0,0c1.4,1.4,3.7,1.4,5.1,0L600,75.8c1.4-1.4,3.7-1.4,5.1,0l0,0c1.4,1.4,3.7,1.4,5.1,0l2.1-2.1"/>
</g>
<g class="st4">
	<g class="st5">
		<circle class="st2" cx="369.3" cy="744.8" r="165"/>
		<g>
			<circle class="st2" cx="369.3" cy="729.5" r="165"/>
			<circle class="st6" cx="369.3" cy="729.5" r="150"/>
			<circle class="st7" cx="369.3" cy="545.2" r="34.3"/>
			<g>
				<path class="st8" d="M355.9,561.4V529h8.5l6.7,11.9c1.9,3.4,3.8,7.4,5.3,11.1h0.1c-0.5-4.3-0.6-8.6-0.6-13.5V529h6.7v32.4h-7.7
					l-6.9-12.5c-1.9-3.5-4-7.6-5.6-11.4l-0.1,0c0.2,4.3,0.3,8.8,0.3,14.1v9.7H355.9z"/>
			</g>
		</g>
	</g>
	<g class="st5">
		<g>
			<g>
				<polygon class="st6" points="519.3,729.5 393,749.2 369.3,752.8 369.3,729.5 				"/>
			</g>
			<g>
				<polygon class="st6" points="519.3,729.5 369.3,729.5 369.3,706.1 369.4,706.1 393,709.8 				"/>
			</g>
		</g>
		<g>
			<g>
				<polygon class="st9" points="369.3,706.1 369.3,729.5 219.3,729.5 345.7,709.8 				"/>
			</g>
			<g>
				<polygon class="st9" points="369.3,729.5 369.3,752.8 345.7,749.2 219.3,729.5 				"/>
				<line class="st10" x1="369.3" y1="752.8" x2="369.3" y2="752.8"/>
				<line class="st10" x1="369.3" y1="752.8" x2="369.3" y2="752.8"/>
			</g>
		</g>
		<g>
			<circle class="st6" cx="369.3" cy="729.5" r="19"/>
			<circle class="st6" cx="369.3" cy="729.5" r="10"/>
		</g>
	</g>
</g>
<path class="st2" d="M195.7,143.6c0,0,11.9-26.9,50.9-18.6C246.6,125,228.7,157.5,195.7,143.6z"/>
<path class="st2" d="M305.6,179.1c0,0-8.7,27.3,16.3,41.9C321.9,221,334.7,191.9,305.6,179.1z"/>
<path class="st2" d="M407.9,23.9c0,0-12.3,27.9,14.6,44.8C422.4,68.7,437.8,35.8,407.9,23.9z"/>
<g>
	<g>
		<path class="st2" d="M1511.7,60c25.9,25.9,66.2,28.4,94.9,7.7L1793,254.1l16.7-16.7l-11.3-11.3l69.8-69.8l-23.5-23.5l-69.8,69.8
			l-9-9l47.2-47.2l-21.1-21.1l-47.2,47.2L1623.3,51c20.7-28.7,18.2-69.1-7.7-94.9c-28.7-28.7-75.2-28.7-103.9,0S1483,31.3,1511.7,60
			z M1590.7-19c14.9,14.9,14.9,39.2,0,54.1s-39.2,14.9-54.1,0c-14.9-14.9-14.9-39.2,0-54.1C1551.6-34,1575.8-34,1590.7-19z"/>
		<path class="st2" d="M1511.7,50c25.9,25.9,66.2,28.4,94.9,7.7L1793,244.1l16.7-16.7l-11.3-11.3l69.8-69.8l-23.5-23.5l-69.8,69.8
			l-9-9l47.2-47.2l-21.1-21.1l-47.2,47.2L1623.3,41c20.7-28.7,18.2-69.1-7.7-94.9c-28.7-28.7-75.2-28.7-103.9,0S1483,21.3,1511.7,50
			z M1590.7-29c14.9,14.9,14.9,39.2,0,54.1s-39.2,14.9-54.1,0c-14.9-14.9-14.9-39.2,0-54.1C1551.6-44,1575.8-44,1590.7-29z"/>
		<polygon class="st2" points="1868.2,146.3 1868.2,156.3 1803.2,220.9 1798.5,216.1 		"/>
		<polygon class="st2" points="1813.2,136.5 1813.2,146.5 1771,188.7 1766,183.7 		"/>
		<polygon class="st2" points="1809.7,227.4 1809.7,237.4 1793,254.1 1793,244.1 		"/>
	</g>
	<path class="st3" d="M1527.9,11.5c0,0-21.2,8.9-30.7,17.9c-3.4,1.4-0.7,8.4-0.7,8.4"/>
	<path class="st3" d="M1529.3,14.8c0,0-26.5,12.9-30.5,17.8c-3.2,2-0.8,8.5-0.8,8.5"/>
	<path class="st3" d="M1496.9,38.7c0,0-9,75.7-103.9,88.5S1252,33.6,1055.1,36.3S761.8,4.8,731.9-30.2"/>
</g>
<polygon class="st2" points="1158,58.1 1305.1,205.1 1191,319.2 1043.9,172.2 1054.5,161.6 1069.4,168.7 1061.7,154.4 1069.2,146.9 
	1077.3,149.8 1075.2,140.9 1134.1,82 1143.2,85.1 1140.8,81.4 1147.5,82.5 1146.9,76.1 1150.4,76.7 1148.3,67.8 "/>
<path class="st2" d="M409.2,141.1c0,0,6.1,21.6,41.9,21.5C451,162.6,443.9,134.5,409.2,141.1z"/>
<path class="st2" d="M756.4,25c0,0-36,7.3-44.4,38.2C712,63.2,751.8,66.4,756.4,25z"/>
<path class="st2" d="M791.1,139c0,0-7.7,29.1,23.5,41.9C814.6,180.8,825.9,148.7,791.1,139z"/>
<path class="st2" d="M1054.6,20.5c0,0-8.2,23,25.5,40.9C1080.1,61.3,1083.7,27.1,1054.6,20.5z"/>
<path class="st2" d="M1248.1,119.6c0,0-31.1-4.6-42.4,16.3C1205.8,135.9,1232.8,149.2,1248.1,119.6z"/>
<path class="st2" d="M1939.6,120.6c0,0-28.6-10.6-48.5,15.9C1891,136.5,1923.7,146.6,1939.6,120.6z"/>
<path class="st2" d="M1350.3-20.9c0,0-8.7,35.2,22,51.1C1372.2,30.2,1384.5-8.1,1350.3-20.9z"/>
<path class="st2" d="M1368.1,143c0,0,7.7,28.8,46,27.9C1414.1,171,1411,141.5,1368.1,143z"/>
<path class="st2" d="M569.3,67.4c0,0,7.7,28.8,46,27.9C615.3,95.3,612.2,65.9,569.3,67.4z"/>
<circle class="st2" cx="1163.6" cy="82.1" r="4.1"/>
<g>
	<polygon class="st2" points="401.2,127.7 377.1,103.7 359.1,97.7 365.1,115.7 389.1,139.8 407.2,145.8 	"/>
	<polygon class="st2" points="314.4,190.4 377.4,167.3 337.5,127.5 	"/>
	<polygon class="st2" points="337.5,127.5 365.1,115.7 389.1,139.8 377.4,167.3 	"/>
	<polygon class="st2" points="365.1,115.7 359.1,97.7 327.6,96.9 337.5,127.5 	"/>
	<polygon class="st2" points="327.6,96.9 314.4,190.4 337.5,127.5 	"/>
	<polygon class="st2" points="389.1,139.8 407.2,145.8 407.9,177.3 377.4,167.3 	"/>
	<polygon class="st2" points="407.9,177.3 314.4,190.4 377.4,167.3 	"/>
</g>
<g>
	<polygon class="st2" points="826.5,17.2 810.3,33.4 806.2,45.6 818.4,41.5 834.5,25.3 838.6,13.2 	"/>
	<polygon class="st2" points="868.7,75.6 853.1,33.2 826.3,60.1 	"/>
	<polygon class="st2" points="826.3,60.1 818.4,41.5 834.5,25.3 853.1,33.2 	"/>
	<polygon class="st2" points="818.4,41.5 806.2,45.6 805.7,66.8 826.3,60.1 	"/>
	<polygon class="st2" points="805.7,66.8 868.7,75.6 826.3,60.1 	"/>
	<polygon class="st2" points="834.5,25.3 838.6,13.2 859.8,12.7 853.1,33.2 	"/>
	<polygon class="st2" points="859.8,12.7 868.7,75.6 853.1,33.2 	"/>
</g>
<g>
	<polygon class="st2" points="1342.1,117.4 1342.1,94.5 1336.4,83.1 1330.6,94.5 1330.6,117.4 1336.4,128.9 	"/>
	<polygon class="st2" points="1270.9,106 1311.9,125 1311.9,87 	"/>
	<polygon class="st2" points="1311.9,87 1330.6,94.5 1330.6,117.4 1311.9,125 	"/>
	<polygon class="st2" points="1330.6,94.5 1336.4,83.1 1321.7,67.7 1311.9,87 	"/>
	<polygon class="st2" points="1321.7,67.7 1270.9,106 1311.9,87 	"/>
	<polygon class="st2" points="1330.6,117.4 1336.4,128.9 1321.7,144.2 1311.9,125 	"/>
	<polygon class="st2" points="1321.7,144.2 1270.9,106 1311.9,125 	"/>
</g>
<path class="st3" d="M116.4-48.2c4.4,12.1,7.4,24.9,6.9,37.8c-0.5,12.9-4.6,25.9-13.1,35.6c-10.1,11.5-25.1,17.2-39.7,22
	c-21.8,7.1-44.1,13-65.1,22s-41.2,21.7-55.2,39.9"/>
<path class="st2" d="M34.4,33.4c0,0-4,27.1,32.7,42.8C67,76.2,68.7,45.3,34.4,33.4z"/>
<g>
	<g>
		<path class="st11" d="M1158.5,97.4c-1.7,1-3.4,2-5.1,3.1"/>
		<path class="st12" d="M1143.3,106.8c-6.6,4.4-13,9.2-18.8,14.5c-10.2,9.4-18.8,20.9-23,34.1c-1.8,5.5-2.8,11.4-1.8,17.1
			c1,5.7,4.1,11.2,9.1,14.1c5.2,3,11.8,2.8,17.6,0.9c5.7-1.9,10.8-5.4,15.7-8.9c4.6-3.2,9.3-6.5,13.9-9.7c8-5.6,16.4-11.3,26.1-12.9
			c1.5-0.2,3-0.4,4.4-0.1c2.3,0.5,4.2,2.2,5.6,4c4.7,6,5.2,14.4,3.6,21.8s-5.3,14.3-8.4,21.2c-3.4,7.6-6.2,15.5-7.8,23.7
			c-1.5,7.5-1.9,15.7,1.9,22.4c4.1,7.3,12.8,11.3,21.2,11.3c4.4,0,8.8-0.9,12.9-2.5"/>
		<path class="st11" d="M1220.8,255.4c1.8-0.9,3.5-2,5.1-3.1"/>
	</g>
</g>
</svg>
