<?xml version="1.0" encoding="utf-8"?>
<!-- Generator: Adobe Illustrator 23.1.0, SVG Export Plug-In . SVG Version: 6.00 Build 0)  -->
<svg version="1.1" id="Layer_1" xmlns="http://www.w3.org/2000/svg" xmlns:xlink="http://www.w3.org/1999/xlink" x="0px" y="0px"
	 viewBox="0 0 505 505" style="enable-background:new 0 0 505 505;" xml:space="preserve">
<style type="text/css">
	.st0{fill:#FFFFFF;stroke:#000000;stroke-width:2;stroke-miterlimit:10;}
	.st1{display:none;fill:#FFFFFF;stroke:#000000;stroke-width:2;stroke-miterlimit:10;}
</style>
<path class="st0" d="M0,2.5h281c9.1,0,16.4,8.2,16.4,18.2v0c0,10.1,7.3,18.2,16.4,18.2h96.8c9.1,0,16.4,8.2,16.4,18.2v40.1
	c0,10.1-7.3,18.2-16.4,18.2H209c-9.1,0-16.4,8.2-16.4,18.2v8c0,10.1,7.3,18.2,16.4,18.2h274.6c9.1,0,16.4,8.2,16.4,18.2v32.5
	c0,10.1-7.3,18.2-16.4,18.2H377.2c-9.1,0-16.4,8.2-16.4,18.2v4.9c0,10.1,7.3,18.2,16.4,18.2h29.2c9.1,0,16.4,8.2,16.4,18.2v46.3
	c0,10.1-7.3,18.2-16.4,18.2H255.9c-9.1,0-16.4,8.2-16.4,18.2v9.5c0,10.1,7.3,18.2,16.4,18.2h56.8c9.1,0,16.4,8.2,16.4,18.2v14.1
	c0,10.1-7.3,18.2-16.4,18.2h-25.1c-9.1,0-16.4,8.2-16.4,18.2v16.6c0,10.1-7.3,18.2-16.4,18.2H0"/>
<path class="st1" d="M502.5,502.5h-281c-9.1,0-16.4-8.2-16.4-18.2v0c0-10.1-7.3-18.2-16.4-18.2H91.9c-9.1,0-16.4-8.2-16.4-18.2
	v-40.1c0-10.1,7.3-18.2,16.4-18.2h201.5c9.1,0,16.4-8.2,16.4-18.2v-8c0-10.1-7.3-18.2-16.4-18.2H18.9c-9.1,0-16.4-8.2-16.4-18.2
	v-32.5c0-10.1,7.3-18.2,16.4-18.2h106.4c9.1,0,16.4-8.2,16.4-18.2V253c0-10.1-7.3-18.2-16.4-18.2H96.1c-9.1,0-16.4-8.2-16.4-18.2
	v-46.3c0-10.1,7.3-18.2,16.4-18.2h150.5c9.1,0,16.4-8.2,16.4-18.2v-9.5c0-10.1-7.3-18.2-16.4-18.2h-56.8c-9.1,0-16.4-8.2-16.4-18.2
	V73.7c0-10.1,7.3-18.2,16.4-18.2h25.1c9.1,0,16.4-8.2,16.4-18.2V20.7c0-10.1,7.3-18.2,16.4-18.2h254.8"/>
</svg>
