<?xml version="1.0" encoding="utf-8"?>
<!-- Generator: Adobe Illustrator 23.1.0, SVG Export Plug-In . SVG Version: 6.00 Build 0)  -->
<svg version="1.1" id="Layer_1" xmlns="http://www.w3.org/2000/svg" xmlns:xlink="http://www.w3.org/1999/xlink" x="0px" y="0px"
	 viewBox="0 0 914.3 2093.2" style="enable-background:new 0 0 914.3 2093.2;" xml:space="preserve">
<style type="text/css">
	.st0{fill:none;}
	.st1{fill:none;stroke:#000000;stroke-width:2;stroke-linecap:round;stroke-linejoin:round;stroke-miterlimit:10;}
	.st2{fill:#FFFFFF;}
	.st3{fill:none;stroke:#E2E2E2;stroke-linecap:round;stroke-linejoin:round;stroke-miterlimit:10;}
	.st4{fill:#FFFFFF;stroke:#000000;stroke-linecap:round;stroke-linejoin:round;stroke-miterlimit:10;}
	.st5{fill:#FFFFFF;stroke:#000000;stroke-miterlimit:10;}
	.st6{fill:url(#SVGID_1_);stroke:#000000;stroke-linecap:round;stroke-linejoin:round;stroke-miterlimit:10;}
	.st7{fill:url(#SVGID_2_);stroke:#000000;stroke-linecap:round;stroke-linejoin:round;stroke-miterlimit:10;}
	.st8{fill:url(#SVGID_3_);stroke:#000000;stroke-linecap:round;stroke-linejoin:round;stroke-miterlimit:10;}
	.st9{fill:url(#SVGID_4_);stroke:#000000;stroke-linecap:round;stroke-linejoin:round;stroke-miterlimit:10;}
	.st10{fill:url(#SVGID_5_);stroke:#000000;stroke-linecap:round;stroke-linejoin:round;stroke-miterlimit:10;}
	.st11{display:none;}
	.st12{display:inline;}
	.st13{fill:#5A8DFF;}
	.st14{font-family:'MyriadPro-Light';}
	.st15{font-size:9.0198px;}
	.st16{font-family:'MyriadPro-Bold';}
	.st17{display:inline;fill:#FFFFFF;}
	.st18{stroke:#000000;stroke-linecap:round;stroke-linejoin:round;stroke-miterlimit:10;}
	.st19{fill:#FFFFFF;stroke:#000000;stroke-width:1;stroke-linecap:round;stroke-linejoin:round;stroke-miterlimit:10.0004;}
	.st20{fill:none;stroke:#000000;stroke-miterlimit:10;}
	.st21{fill:#FFFFFF;stroke:#000000;stroke-width:2;stroke-miterlimit:10;}
	.st22{fill:#FFFFFF;stroke:#000000;}
	.st23{stroke:#000000;}
	.st24{fill:#262626;stroke:#000000;stroke-linecap:round;stroke-linejoin:round;stroke-miterlimit:10;}
	.st25{fill:none;stroke:#000000;stroke-linecap:round;stroke-linejoin:round;stroke-miterlimit:10;}
	.st26{fill:none;stroke:#000000;stroke-width:2;stroke-linecap:round;stroke-linejoin:round;}
	.st27{fill:none;stroke:#000000;stroke-width:2;stroke-linecap:round;stroke-linejoin:round;stroke-dasharray:30.4138,30.4138;}
	.st28{fill:none;stroke:#000000;stroke-width:2;stroke-linecap:round;stroke-linejoin:round;stroke-dasharray:29.8461,29.8461;}
</style>
<pattern  y="2093.2" width="157.2" height="133.1" patternUnits="userSpaceOnUse" id="SVGID_10_" viewBox="0 -133.1 157.2 133.1" style="overflow:visible;">
	<g>
		<rect y="-133.1" class="st0" width="157.2" height="133.1"/>
		<g>
			<rect y="-133.1" class="st0" width="157.2" height="133.1"/>
			<g>
				<rect y="-133.1" class="st0" width="157.2" height="133.1"/>
				<path class="st1" d="M1-1c24.5,0,24.5-42.4,77.6-42.4S131.7-1,156.2-1"/>
				<path class="st1" d="M1-45.4c24.5,0,24.5-42.4,77.6-42.4s53.1,42.4,77.6,42.4"/>
				<path class="st1" d="M1-89.8c24.5,0,24.5-42.4,77.6-42.4s53.1,42.4,77.6,42.4"/>
			</g>
		</g>
	</g>
</pattern>
<pattern  y="2093.2" width="157.2" height="133.1" patternUnits="userSpaceOnUse" id="SVGID_6_" viewBox="0 -133.1 157.2 133.1" style="overflow:visible;">
	<g>
		<rect y="-133.1" class="st0" width="157.2" height="133.1"/>
		<g>
			<rect y="-133.1" class="st0" width="157.2" height="133.1"/>
			<g>
				<rect y="-133.1" class="st0" width="157.2" height="133.1"/>
				<path class="st1" d="M1-1c24.5,0,24.5-42.4,77.6-42.4S131.7-1,156.2-1"/>
				<path class="st1" d="M1-45.4c24.5,0,24.5-42.4,77.6-42.4s53.1,42.4,77.6,42.4"/>
				<path class="st1" d="M1-89.8c24.5,0,24.5-42.4,77.6-42.4s53.1,42.4,77.6,42.4"/>
			</g>
		</g>
	</g>
</pattern>
<pattern  y="2093.2" width="157.2" height="133.1" patternUnits="userSpaceOnUse" id="SVGID_7_" viewBox="0 -133.1 157.2 133.1" style="overflow:visible;">
	<g>
		<rect y="-133.1" class="st0" width="157.2" height="133.1"/>
		<g>
			<rect y="-133.1" class="st0" width="157.2" height="133.1"/>
			<g>
				<rect y="-133.1" class="st0" width="157.2" height="133.1"/>
				<path class="st1" d="M1-1c24.5,0,24.5-42.4,77.6-42.4S131.7-1,156.2-1"/>
				<path class="st1" d="M1-45.4c24.5,0,24.5-42.4,77.6-42.4s53.1,42.4,77.6,42.4"/>
				<path class="st1" d="M1-89.8c24.5,0,24.5-42.4,77.6-42.4s53.1,42.4,77.6,42.4"/>
			</g>
		</g>
	</g>
</pattern>
<pattern  y="2093.2" width="157.2" height="133.1" patternUnits="userSpaceOnUse" id="SVGID_8_" viewBox="0 -133.1 157.2 133.1" style="overflow:visible;">
	<g>
		<rect y="-133.1" class="st0" width="157.2" height="133.1"/>
		<g>
			<rect y="-133.1" class="st0" width="157.2" height="133.1"/>
			<g>
				<rect y="-133.1" class="st0" width="157.2" height="133.1"/>
				<path class="st1" d="M1-1c24.5,0,24.5-42.4,77.6-42.4S131.7-1,156.2-1"/>
				<path class="st1" d="M1-45.4c24.5,0,24.5-42.4,77.6-42.4s53.1,42.4,77.6,42.4"/>
				<path class="st1" d="M1-89.8c24.5,0,24.5-42.4,77.6-42.4s53.1,42.4,77.6,42.4"/>
			</g>
		</g>
	</g>
</pattern>
<pattern  y="2093.2" width="157.2" height="133.1" patternUnits="userSpaceOnUse" id="SVGID_9_" viewBox="0 -133.1 157.2 133.1" style="overflow:visible;">
	<g>
		<rect y="-133.1" class="st0" width="157.2" height="133.1"/>
		<g>
			<rect y="-133.1" class="st0" width="157.2" height="133.1"/>
			<g>
				<rect y="-133.1" class="st0" width="157.2" height="133.1"/>
				<path class="st1" d="M1-1c24.5,0,24.5-42.4,77.6-42.4S131.7-1,156.2-1"/>
				<path class="st1" d="M1-45.4c24.5,0,24.5-42.4,77.6-42.4s53.1,42.4,77.6,42.4"/>
				<path class="st1" d="M1-89.8c24.5,0,24.5-42.4,77.6-42.4s53.1,42.4,77.6,42.4"/>
			</g>
		</g>
	</g>
</pattern>
<rect x="1.2" y="1.7" class="st2" width="912" height="2089.7"/>
<g>
	<rect x="1.2" y="1.7" class="st3" width="912" height="2090"/>
	<line class="st3" x1="1.2" y1="1901.7" x2="913.2" y2="1901.7"/>
	<line class="st3" x1="1.2" y1="1711.7" x2="913.2" y2="1711.7"/>
	<line class="st3" x1="1.2" y1="1521.7" x2="913.2" y2="1521.7"/>
	<line class="st3" x1="1.2" y1="1331.7" x2="913.2" y2="1331.7"/>
	<line class="st3" x1="1.2" y1="1141.7" x2="913.2" y2="1141.7"/>
	<line class="st3" x1="1.2" y1="951.7" x2="913.2" y2="951.7"/>
	<line class="st3" x1="1.2" y1="761.7" x2="913.2" y2="761.7"/>
	<line class="st3" x1="1.2" y1="571.7" x2="913.2" y2="571.7"/>
	<line class="st3" x1="1.2" y1="381.7" x2="913.2" y2="381.7"/>
	<line class="st3" x1="1.2" y1="191.7" x2="913.2" y2="191.7"/>
	<line class="st3" x1="830.3" y1="1.7" x2="830.3" y2="2091.7"/>
	<line class="st3" x1="747.4" y1="1.7" x2="747.4" y2="2091.7"/>
	<line class="st3" x1="664.4" y1="1.7" x2="664.4" y2="2091.7"/>
	<line class="st3" x1="581.5" y1="1.7" x2="581.5" y2="2091.7"/>
	<line class="st3" x1="498.6" y1="1.7" x2="498.6" y2="2091.7"/>
	<line class="st3" x1="415.7" y1="1.7" x2="415.7" y2="2091.7"/>
	<line class="st3" x1="332.8" y1="1.7" x2="332.8" y2="2091.7"/>
	<line class="st3" x1="249.9" y1="1.7" x2="249.9" y2="2091.7"/>
	<line class="st3" x1="167" y1="1.7" x2="167" y2="2091.7"/>
	<line class="st3" x1="84.1" y1="1.7" x2="84.1" y2="2091.7"/>
</g>
<path class="st4" d="M427.5,69.1v7c0,4.7-3.8,8.4-8.4,8.4H189.4c-4.7,0-8.4,3.8-8.4,8.4v109.5c0,4.7,3.8,8.4,8.4,8.4h69.1
	c4.7,0,8.4,3.8,8.4,8.4v14c0,4.7-3.8,8.4-8.4,8.4H151.9c-4.7,0-8.4,3.8-8.4,8.4v66.1c0,4.7,3.8,8.4,8.4,8.4h145.5
	c4.7,0,8.4,3.8,8.4,8.4v5.1c0,4.7-3.8,8.4-8.4,8.4h-60.2c-4.7,0-8.4,3.8-8.4,8.4v37.1c0,4.7,3.8,8.4,8.4,8.4h47.7
	c4.7,0,8.4,3.8,8.4,8.4v2.5c0,4.7-3.8,8.4-8.4,8.4h-73.5c-4.7,0-8.4,3.8-8.4,8.4v20.6c0,4.7-3.8,8.4-8.4,8.4h-11.8
	c-4.7,0-8.4,3.8-8.4,8.4v44.1c0,4.7,3.8,8.4,8.4,8.4h47.7c4.7,0,8.4,3.8,8.4,8.4v5.9c0,4.7,3.8,8.4,8.4,8.4h130
	c4.7,0,8.4,3.8,8.4,8.4v17.6c0,4.7-3.8,8.4-8.4,8.4h-47c-4.7,0-8.4,3.8-8.4,8.4v14.7c0,4.7-3.8,8.4-8.4,8.4h-94.8
	c-4.7,0-8.4,3.8-8.4,8.4v24.2c0,4.7,3.8,8.4,8.4,8.4h126.4c4.7,0,8.4,3.8,8.4,8.4v8.1c0,4.7-3.8,8.4-8.4,8.4h-40.4
	c-4.7,0-8.4,3.8-8.4,8.4v20.6c0,4.7,3.8,8.4,8.4,8.4h83.7c4.7,0,8.4,3.8,8.4,8.4V732c0,4.7,3.8,8.4,8.4,8.4h131.5
	c4.7,0,8.4-3.8,8.4-8.4v-10.3c0-4.7,3.8-8.4,8.4-8.4h98.4c4.7,0,8.4-3.8,8.4-8.4v-21.3c0-4.7-3.8-8.4-8.4-8.4H610
	c-4.7,0-8.4-3.8-8.4-8.4v-5.9c0-4.7,3.8-8.4,8.4-8.4h94c4.7,0,8.4-3.8,8.4-8.4v-24.2c0-4.7-3.8-8.4-8.4-8.4h-45.5
	c-4.7,0-8.4-3.8-8.4-8.4v-11c0-4.7,3.8-8.4,8.4-8.4h103.6c4.7,0,8.4-3.8,8.4-8.4v-22.8c0-4.7-3.8-8.4-8.4-8.4h-17.6
	c-4.7,0-8.4-3.8-8.4-8.4v-11.8c0-4.7-3.8-8.4-8.4-8.4h-38.9c-4.7,0-8.4-3.8-8.4-8.4v-10.3c0-4.7,3.8-8.4,8.4-8.4h56.6
	c4.7,0,8.4-3.8,8.4-8.4v-15.4c0-4.7-3.8-8.4-8.4-8.4H658c-4.7,0-8.4-3.8-8.4-8.4V410c0-4.7,3.8-8.4,8.4-8.4h8.8
	c4.7,0,8.4-3.8,8.4-8.4v-11.4c0-4.7,3.8-8.4,8.4-8.4h28.6c4.7,0,8.4-3.8,8.4-8.4v-33.1c0-4.7-3.8-8.4-8.4-8.4H603.7
	c-4.7,0-8.4-3.8-8.4-8.4v-5.9c0-4.7,3.8-8.4,8.4-8.4h158.7c4.7,0,8.4-3.8,8.4-8.4V178.9c0-4.7-3.8-8.4-8.4-8.4H660.3
	c-4.7,0-8.4-3.8-8.4-8.4l0,0c0-4.7,3.8-8.4,8.4-8.4h17.6c4.7,0,8.4-3.8,8.4-8.4v-44.8c0-4.7-3.8-8.4-8.4-8.4h-181
	c-4.7,0-8.4-3.8-8.4-8.4V69.1"/>
<path class="st5" d="M753.1,792.5h-46c-1.7,0-3.1,1.4-3.1,3.1v9.3c0,1.7-1.4,3.1-3.1,3.1h-22.2c-1.7,0-3.1,1.4-3.1,3.1v11.2
	c0,1.7,1.4,3.1,3.1,3.1h34.1c1.7,0,3.1,1.4,3.1,3.1v6.4c0,1.7-1.4,3.1-3.1,3.1h-13.9c-1.7,0-3.1,1.4-3.1,3.1v8.3
	c0,1.7,1.4,3.1,3.1,3.1h32c1.7,0,3.1,1.4,3.1,3.1v3.6c0,1.7,1.4,3.1,3.1,3.1h31.5c1.7,0,3.1-1.4,3.1-3.1v-2.6c0-1.7,1.4-3.1,3.1-3.1
	h12.4c1.7,0,3.1-1.4,3.1-3.1v-7.2c0-1.7,1.4-3.1,3.1-3.1h26.8c1.7,0,3.1-1.4,3.1-3.1v-12.2c0-1.7-1.4-3.1-3.1-3.1h-40.8
	c-1.7,0-3.1-1.4-3.1-3.1v-3.8c0-1.7,1.4-3.1,3.1-3.1H794c1.7,0,3.1-1.4,3.1-3.1v-6.7c0-1.7-1.4-3.1-3.1-3.1h-34.8
	c-1.7,0-3.1-1.4-3.1-3.1l0,0C756.2,793.9,754.8,792.5,753.1,792.5z"/>
<path class="st5" d="M192.4,737.4h-42.3c-3.7,0-6.7,3-6.7,6.7v5.2c0,3.7-3,6.7-6.7,6.7h-26.3c-3.7,0-6.7,3-6.7,6.7v15.4
	c0,3.7,3,6.7,6.7,6.7h46.1c3.7,0,6.7,3,6.7,6.7v7.2c0,3.7,3,6.7,6.7,6.7H217c3.7,0,6.7-3,6.7-6.7v-7.2c0-3.7,3-6.7,6.7-6.7H263
	c3.7,0,6.7-3,6.7-6.7V774c0-3.7-3-6.7-6.7-6.7h-21.5c-3.7,0-6.7-3-6.7-6.7l0,0c0-3.7-3-6.7-6.7-6.7h-22.5c-3.7,0-6.7-3-6.7-6.7v-3.1
	C199.1,740.4,196.1,737.4,192.4,737.4z"/>
<path class="st4" d="M814.6,372.5h-20c-1.5,0-2.7,1.2-2.7,2.7v2.7c0,1.5-1.2,2.7-2.7,2.7h-15.7c-1.5,0-2.7,1.2-2.7,2.7v5.4
	c0,1.5,1.2,2.7,2.7,2.7h7.3c1.5,0,2.7,1.2,2.7,2.7v1.2c0,1.5-1.2,2.7-2.7,2.7h-1.5c-1.5,0-2.7,1.2-2.7,2.7v1.5
	c0,1.5,1.2,2.7,2.7,2.7h15c1.5,0,2.7,1.2,2.7,2.7l0,0c0,1.5,1.2,2.7,2.7,2.7h21.9c1.5,0,2.7-1.2,2.7-2.7v-3.1c0-1.5,1.2-2.7,2.7-2.7
	h8.8c1.5,0,2.7-1.2,2.7-2.7V396c0-1.5,1.2-2.7,2.7-2.7h14.2c1.5,0,2.7-1.2,2.7-2.7v-9.2c0-1.5-1.2-2.7-2.7-2.7H820
	c-1.5,0-2.7-1.2-2.7-2.7v-0.8C817.3,373.7,816.1,372.5,814.6,372.5z"/>
<pattern  id="SVGID_1_" xlink:href="#SVGID_6_" patternTransform="matrix(0.2 0 0 0.2 -18496.2461 -2462.2258)">
</pattern>
<path class="st6" d="M403.6,170h-23.5c-1.2,0-2.2,1-2.2,2.2v8.3c0,1.2-1,2.2-2.2,2.2h-20.4c-1.2,0-2.2,1-2.2,2.2v23.5
	c0,1.2,1,2.2,2.2,2.2H381c1.2,0,2.2,1,2.2,2.2v11.3c0,1.2,1,2.2,2.2,2.2h57.4c1.2,0,2.2-1,2.2-2.2v-16.6c0-1.2,1-2.2,2.2-2.2h16.3
	c1.2,0,2.2-1,2.2-2.2V191c0-1.2-1-2.2-2.2-2.2h-29.3c-1.2,0-2.2-1-2.2-2.2V184c0-1.2,1-2.2,2.2-2.2h5.5c1.2,0,2.2-1,2.2-2.2v-3
	c0-1.2-1-2.2-2.2-2.2H408c-1.2,0-2.2-1-2.2-2.2l0,0C405.8,171,404.8,170,403.6,170z"/>
<pattern  id="SVGID_2_" xlink:href="#SVGID_7_" patternTransform="matrix(0.2 0 0 0.2 -18484.2168 -2460.282)">
</pattern>
<path class="st7" d="M558.5,411v-10.2c0-3.4-2.8-6.2-6.2-6.2h-66.5c-3.4,0-6.2,2.8-6.2,6.2V411c0,3.4-2.8,6.2-6.2,6.2h-67.9
	c-3.4,0-6.2,2.8-6.2,6.2V459c0,3.4,2.8,6.2,6.2,6.2H434c3.4,0,6.2,2.8,6.2,6.2v23.1c0,3.4,2.8,6.2,6.2,6.2h79.9
	c3.4,0,6.2,2.8,6.2,6.2v25.9c0,3.4,2.8,6.2,6.2,6.2h30.9c3.4,0,6.2-2.8,6.2-6.2V489c0-3.4,2.8-6.2,6.2-6.2h18.5
	c3.4,0,6.2-2.8,6.2-6.2v-27.3c0-3.4-2.8-6.2-6.2-6.2H577c-3.4,0-6.2-2.8-6.2-6.2v-13.4c0-3.4-2.8-6.2-6.2-6.2l0,0
	C561.2,417.2,558.5,414.4,558.5,411z"/>
<path class="st5" d="M622.8,917.6h-46.1c-4,0-7.2,3.2-7.2,7.2v18c0,4-3.2,7.2-7.2,7.2H334.2c-4,0-7.2-3.2-7.2-7.2v-18
	c0-4-3.2-7.2-7.2-7.2H238c-4,0-7.2-3.2-7.2-7.2v-24.6c0-4,3.2-7.2,7.2-7.2h31.7c4,0,7.2-3.2,7.2-7.2v-7.2c0-4,3.2-7.2,7.2-7.2h34.8
	c4,0,7.2-3.2,7.2-7.2V846c0-4-3.2-7.2-7.2-7.2h-13.3c-4,0-7.2-3.2-7.2-7.2v-4.1c0-4,3.2-7.2,7.2-7.2h54.2c4,0,7.2-3.2,7.2-7.2V804
	c0-4,3.2-7.2,7.2-7.2h91.1c4,0,7.2-3.2,7.2-7.2l0,0c0-4,3.2-7.2,7.2-7.2H537c4,0,7.2,3.2,7.2,7.2v15.2c0,4,3.2,7.2,7.2,7.2H623
	c4,0,7.2,3.2,7.2,7.2v20.3c0,4-3.2,7.2-7.2,7.2h-42c-4,0-7.2,3.2-7.2,7.2v5.3c0,4,3.2,7.2,7.2,7.2h74.7c4,0,7.2,3.2,7.2,7.2v21.7
	c0,4-3.2,7.2-7.2,7.2h-18.4c-4,0-7.2,3.2-7.2,7.2v1C630,914.4,626.8,917.6,622.8,917.6z"/>
<path class="st5" d="M77.5,421.8h16.4c2.4,0,4.3,1.9,4.3,4.3v8.7c0,2.4,1.9,4.3,4.3,4.3H126c2.4,0,4.3,1.9,4.3,4.3v8.7
	c0,2.4-1.9,4.3-4.3,4.3h-13.3c-2.4,0-4.3,1.9-4.3,4.3v6c0,2.4,1.9,4.3,4.3,4.3h35.8c2.4,0,4.3,1.9,4.3,4.3V486
	c0,2.4-1.9,4.3-4.3,4.3H124c-2.4,0-4.3,1.9-4.3,4.3v9.7c0,2.4,1.9,4.3,4.3,4.3h4.1c2.4,0,4.3,1.9,4.3,4.3v11.3
	c0,2.4-1.9,4.3-4.3,4.3h-19.4c-2.4,0-4.3,1.9-4.3,4.3v10.7c0,2.4,1.9,4.3,4.3,4.3l0,0c2.4,0,4.3,1.9,4.3,4.3v22
	c0,2.4-1.9,4.3-4.3,4.3H95.9c-2.4,0-4.3,1.9-4.3,4.3v18.1c0,2.4-1.9,4.3-4.3,4.3H71.9c-2.4,0-4.3-1.9-4.3-4.3v-30.9
	c0-2.4-1.9-4.3-4.3-4.3H51.9c-2.4,0-4.3-1.9-4.3-4.3v-24c0-2.4,1.9-4.3,4.3-4.3h8.2c2.4,0,4.3-1.9,4.3-4.3v-14.9
	c0-2.4-1.9-4.3-4.3-4.3H42.2c-2.4,0-4.3-1.9-4.3-4.3v-26.1c0-2.4,1.9-4.3,4.3-4.3h2c2.4,0,4.3-1.9,4.3-4.3v-10.7
	c0-2.4,1.9-4.3,4.3-4.3h2.6c2.4,0,4.3-1.9,4.3-4.3v-6.7c0-2.4,1.9-4.3,4.3-4.3h4.6c2.4,0,4.3-1.9,4.3-4.3v-9.7
	C73.1,423.7,75.1,421.8,77.5,421.8z"/>
<g>
	<path class="st4" d="M215.1,102.9h0.8c3.3,0,5.9-2.6,5.9-5.9V73c0-3.3,2.6-5.9,5.9-5.9h6.7c3.3,0,5.9-2.6,5.9-5.9V48.7
		c0-3.3,2.6-5.9,5.9-5.9H260c3.3,0,5.9,2.6,5.9,5.9v2c0,3.3,2.6,5.9,5.9,5.9h2.3c3.3,0,5.9,2.6,5.9,5.9V97c0,3.3,2.6,5.9,5.9,5.9
		l0,0"/>
	<path class="st4" d="M243.8,102.9L243.8,102.9c2.4,0,4.4-2,4.4-4.4V83.1c0-2.4,2-4.4,4.4-4.4h3.8c2.4,0,4.4,2,4.4,4.4v15.4
		c0,2.4,2,4.4,4.4,4.4h2.7"/>
</g>
<g>
	<path class="st4" d="M499.1,248.1h5.6c2.9,0,5.2-2.3,5.2-5.2v-15.7c0-2.9,2.3-5.2,5.2-5.2h4.2c2.9,0,5.2-2.3,5.2-5.2v-10.4
		c0-2.9,2.3-5.2,5.2-5.2H542c2.9,0,5.2,2.3,5.2,5.2v2.7c0,2.9,2.3,5.2,5.2,5.2l0,0c2.9,0,5.2-2.3,5.2-5.2v-15c0-2.9,2.3-5.2,5.2-5.2
		h13.8c2.9,0,5.2,2.3,5.2,5.2v6.9c0,2.9,2.3,5.2,5.2,5.2h8.8c2.9,0,5.2,2.3,5.2,5.2v6.5c0,2.9,2.3,5.2,5.2,5.2h9.6
		c2.9,0,5.2,2.3,5.2,5.2V243c0,2.9,2.3,5.2,5.2,5.2h11.3"/>
	<path class="st4" d="M536,248.1h2c2.2,0,4-1.8,4-4v-6.7c0-2.2,1.8-4,4-4h11c2.2,0,4-1.8,4-4v-0.5c0-2.2,1.8-4,4-4h17.1
		c2.2,0,4,1.8,4,4v5.5c0,2.2,1.8,4,4,4l0,0c2.2,0,4,1.8,4,4v1.7c0,2.2,1.8,4,4,4h4"/>
</g>
<g>
	<path class="st4" d="M366.3,635h8.4c4,0,7.3-3.3,7.3-7.3v-9.2c0-4,3.3-7.3,7.3-7.3l0,0c4,0,7.3-3.3,7.3-7.3v-15.4
		c0-4,3.3-7.3,7.3-7.3h6.7c4,0,7.3,3.3,7.3,7.3v39.1c0,4,3.3,7.3,7.3,7.3h5.6"/>
</g>
<path class="st5" d="M369,897.6h16.5c2.8,0,5-2.2,5-5v-8.1c0-2.8,2.2-5,5-5h27.6c2.8,0,5-2.2,5-5l0,0c0-2.8,2.2-5,5-5h58
	c2.8,0,5,2.2,5,5v6.5c0,2.8,2.2,5,5,5h43c2.8,0,5,2.2,5,5v1.5c0,2.8,2.2,5,5,5h29.2"/>
<g>
	<g>
		<polyline class="st4" points="185.9,281.9 185.9,271.8 201.7,271.8 201.7,281.9 		"/>
		<polygon class="st4" points="185.9,271.8 193.7,264.1 201.7,271.8 		"/>
	</g>
	<g>
		<polyline class="st4" points="181,289.4 181,279.4 165.2,279.4 165.2,289.4 157.1,289.4 		"/>
		<polygon class="st4" points="165.2,279.4 173,271.6 181,279.4 		"/>
	</g>
	<g>
		<polyline class="st4" points="189.3,289.4 189.3,281.3 205.2,281.3 205.2,289.4 220,289.4 		"/>
		<polygon class="st4" points="189.3,281.3 197.2,273.6 205.2,281.3 		"/>
	</g>
	<g>
		<polyline class="st4" points="178,291.9 178,273 193.8,273 193.8,291.9 		"/>
		<polygon class="st4" points="178,273 185.8,265.2 193.8,273 		"/>
	</g>
</g>
<g>
	<g>
		<polyline class="st4" points="617.9,362.4 617.9,352.4 633.8,352.4 633.8,362.4 		"/>
		<polygon class="st4" points="617.9,352.4 625.8,344.6 633.8,352.4 		"/>
	</g>
	<g>
		<polyline class="st4" points="613.1,370 613.1,359.9 597.2,359.9 597.2,370 589.2,370 		"/>
		<polygon class="st4" points="597.2,359.9 605,352.2 613.1,359.9 		"/>
	</g>
	<g>
		<polyline class="st4" points="621.4,370 621.4,361.9 637.3,361.9 637.3,370 644.5,370 		"/>
		<polygon class="st4" points="621.4,361.9 629.2,354.2 637.3,361.9 		"/>
	</g>
	<g>
		<polyline class="st4" points="610,372.5 610,353.5 625.9,353.5 625.9,372.5 		"/>
		<polygon class="st4" points="610,353.5 617.8,345.8 625.9,353.5 		"/>
	</g>
</g>
<g>
	<g>
		<polyline class="st4" points="244.5,484.6 244.5,474.6 260.3,474.6 260.3,484.6 		"/>
		<polygon class="st4" points="244.5,474.6 252.3,466.8 260.3,474.6 		"/>
	</g>
	<g>
		<polyline class="st4" points="239.6,492.2 239.6,482.1 223.7,482.1 223.7,492.2 214.4,492.2 		"/>
		<polygon class="st4" points="223.7,482.1 231.6,474.4 239.6,482.1 		"/>
	</g>
	<g>
		<polyline class="st4" points="247.9,492.2 247.9,484.1 263.8,484.1 263.8,492.2 276.1,492.2 		"/>
		<polygon class="st4" points="247.9,484.1 255.7,476.4 263.8,484.1 		"/>
	</g>
	<g>
		<polyline class="st4" points="236.5,494.7 236.5,475.7 252.4,475.7 252.4,494.7 		"/>
		<polygon class="st4" points="236.5,475.7 244.4,468 252.4,475.7 		"/>
	</g>
</g>
<g>
	<g>
		<polyline class="st4" points="556.7,625.9 556.7,615.9 572.6,615.9 572.6,625.9 		"/>
		<polygon class="st4" points="556.7,615.9 564.5,608.2 572.6,615.9 		"/>
	</g>
	<g>
		<polyline class="st4" points="551.8,633.5 551.8,623.4 536,623.4 536,633.5 524.3,633.5 		"/>
		<polygon class="st4" points="536,623.4 543.8,615.7 551.8,623.4 		"/>
	</g>
	<g>
		<polyline class="st4" points="560.2,633.5 560.2,625.4 576,625.4 576,633.5 591.8,633.5 		"/>
		<polygon class="st4" points="560.2,625.4 568,617.7 576,625.4 		"/>
	</g>
	<g>
		<polyline class="st4" points="548.8,636 548.8,617.1 564.6,617.1 564.6,636 		"/>
		<polygon class="st4" points="548.8,617.1 556.6,609.3 564.6,617.1 		"/>
	</g>
</g>
<path class="st4" d="M611.4,1018.2H469c-6.6,0-11.9,5.3-11.9,11.9v2.8c0,6.6-5.3,11.9-11.9,11.9h-78.9c-6.6,0-11.9,5.3-11.9,11.9
	v69.4c0,6.6-5.3,11.9-11.9,11.9h-32.3c-6.6,0-11.9-5.3-11.9-11.9v-82.6c0-6.6-5.3-11.9-11.9-11.9h-44c-6.6,0-11.9,5.3-11.9,11.9v5.9
	c0,6.6-5.3,11.9-11.9,11.9h-44.4c-6.6,0-11.9,5.3-11.9,11.9v15.1c0,6.6-5.3,11.9-11.9,11.9h-78c-6.6,0-11.9,5.3-11.9,11.9v98.8
	c0,6.6,5.3,11.9,11.9,11.9h11.1c6.6,0,11.9,5.3,11.9,11.9v41.6c0,6.6,5.3,11.9,11.9,11.9h99.6c6.6,0,11.9,5.3,11.9,11.9v42.6
	c0,6.6-5.3,11.9-11.9,11.9h-112c-6.6,0-11.9,5.3-11.9,11.9v60c0,6.6,5.3,11.9,11.9,11.9h3.8c6.6,0,11.9,5.3,11.9,11.9v19.1
	c0,6.6,5.3,11.9,11.9,11.9h52.4c6.6,0,11.9,5.3,11.9,11.9v6.9c0,6.6,5.3,11.9,11.9,11.9h31.8c6.6,0,11.9,5.3,11.9,11.9v61
	c0,6.6,5.3,11.9,11.9,11.9h24.2c6.6,0,11.9-5.3,11.9-11.9v-18.1c0-6.6,5.3-11.9,11.9-11.9h14c6.6,0,11.9-5.3,11.9-11.9v-48.8
	c0-6.6,5.3-11.9,11.9-11.9h56.4c6.6,0,11.9,5.3,11.9,11.9v20.2c0,6.6-5.3,11.9-11.9,11.9l0,0c-6.6,0-11.9,5.3-11.9,11.9v55.9
	c0,6.6,5.3,11.9,11.9,11.9h72c6.6,0,11.9-5.3,11.9-11.9v-28.3c0-6.6,5.3-11.9,11.9-11.9h8.9c6.6,0,11.9-5.3,11.9-11.9v-30.4
	c0-6.6,5.3-11.9,11.9-11.9h63.1c6.6,0,11.9-5.3,11.9-11.9v-62.9c0-6.6,5.3-11.9,11.9-11.9h46.7c6.6,0,11.9,5.3,11.9,11.9v42.5
	c0,6.6,5.3,11.9,11.9,11.9h86.5c6.6,0,11.9-5.3,11.9-11.9v-40.6c0-6.6,5.3-11.9,11.9-11.9h56.9c6.6,0,11.9-5.3,11.9-11.9v-117.2
	c0-6.6-5.3-11.9-11.9-11.9H745.1c-6.6,0-11.9-5.3-11.9-11.9v-38.5c0-6.6,5.3-11.9,11.9-11.9h88c6.6,0,11.9-5.3,11.9-11.9V1156
	c0-6.6-5.3-11.9-11.9-11.9h-50.3c-6.6,0-11.9-5.3-11.9-11.9V1108c0-6.6-5.3-11.9-11.9-11.9h-98.3c-6.6,0-11.9-5.3-11.9-11.9v-0.8
	c0-6.6,5.3-11.9,11.9-11.9h48.8c6.6,0,11.9-5.3,11.9-11.9v-3.8c0-6.6-5.3-11.9-11.9-11.9h-74.3c-6.6,0-11.9-5.3-11.9-11.9v-1.8
	C623.3,1023.5,618,1018.2,611.4,1018.2z"/>
<path class="st4" d="M734.1,1610.6H633c-4.2,0-7.7,3.4-7.7,7.7v17.4c0,4.2-3.4,7.7-7.7,7.7h-57.2c-4.2,0-7.7,3.4-7.7,7.7v60.4
	c0,4.2-3.4,7.7-7.7,7.7h-23.5c-4.2,0-7.7-3.4-7.7-7.7v-43.1c0-4.2-3.4-7.7-7.7-7.7h-37.8c-4.2,0-7.7,3.4-7.7,7.7v29.6
	c0,4.2-3.4,7.7-7.7,7.7h-17.4c-4.2,0-7.7,3.4-7.7,7.7v64.3c0,4.2-3.4,7.7-7.7,7.7h-11.2c-4.2,0-7.7,3.4-7.7,7.7v48
	c0,4.2,3.4,7.7,7.7,7.7h85.8c4.2,0,7.7,3.4,7.7,7.7v51.1c0,4.2-3.4,7.7-7.7,7.7H358.3c-4.2,0-7.7,3.4-7.7,7.7v17.4
	c0,4.2-3.4,7.7-7.7,7.7H173.4c-4.2,0-7.7,3.4-7.7,7.7v28.6c0,4.2,3.4,7.7,7.7,7.7H202c4.2,0,7.7,3.4,7.7,7.7v9.2
	c0,4.2,3.4,7.7,7.7,7.7h42.9c4.2,0,7.7,3.4,7.7,7.7v10.2c0,4.2-3.4,7.7-7.7,7.7H197c-4.2,0-7.7,3.4-7.7,7.7v16.3
	c0,4.2,3.4,7.7,7.7,7.7h260.4c4.2,0,7.7,3.4,7.7,7.7v2.9c0,4.2,3.4,7.7,7.7,7.7H779c4.2,0,7.7-3.4,7.7-7.7v-17.2
	c0-4.2,3.4-7.7,7.7-7.7h8.2c4.2,0,7.7-3.4,7.7-7.7v-43.9c0-4.2,3.4-7.7,7.7-7.7h13.3c4.2,0,7.7-3.4,7.7-7.7v-118.5
	c0-4.2-3.4-7.7-7.7-7.7h-56.2c-4.2,0-7.7-3.4-7.7-7.7V1846c0-4.2,3.4-7.7,7.7-7.7h95c4.2,0,7.7-3.4,7.7-7.7v-104.2
	c0-4.2-3.4-7.7-7.7-7.7h-24.5c-4.2,0-7.7-3.4-7.7-7.7v-11.2c0-4.2-3.4-7.7-7.7-7.7h-38.8c-4.2,0-7.7-3.4-7.7-7.7v-35.7
	c0-4.2-3.4-7.7-7.7-7.7h-26.6c-4.2,0-7.7-3.4-7.7-7.7V1618C741.7,1614,738.3,1610.6,734.1,1610.6z"/>
<path class="st4" d="M813.3,1506.9h20.5c2.3,0,4.2-1.9,4.2-4.2v-10.4c0-2.3,1.9-4.2,4.2-4.2h26.6c2.3,0,4.2,1.9,4.2,4.2v16.6
	c0,2.3,1.9,4.2,4.2,4.2h9.3c2.3,0,4.2,1.9,4.2,4.2v47.1c0,2.3-1.9,4.2-4.2,4.2h-32.4c-2.3,0-4.2,1.9-4.2,4.2v3.5
	c0,2.3,1.9,4.2,4.2,4.2h18.5c2.3,0,4.2,1.9,4.2,4.2l0,0c0,2.3-1.9,4.2-4.2,4.2h-50.9c-2.3,0-4.2-1.9-4.2-4.2v-6.2
	c0-2.3-1.9-4.2-4.2-4.2h-72.2c-2.3,0-4.2-1.9-4.2-4.2v-5c0-2.3,1.9-4.2,4.2-4.2h46.3c2.3,0,4.2-1.9,4.2-4.2v-5
	c0-2.3-1.9-4.2-4.2-4.2h-22c-2.3,0-4.2-1.9-4.2-4.2v-8.9c0-2.3,1.9-4.2,4.2-4.2h39.4c2.3,0,4.2-1.9,4.2-4.2v-14.7
	C809,1508.8,810.9,1506.9,813.3,1506.9z"/>
<path class="st4" d="M261.5,1681.8h-12c-4.5,0-8.2-3.7-8.2-8.2v-5.1c0-4.5-3.7-8.2-8.2-8.2h-14.3c-4.5,0-8.2-3.7-8.2-8.2V1634
	c0-4.5-3.7-8.2-8.2-8.2H117c-4.5,0-8.2,3.7-8.2,8.2l0,0c0,4.5,3.7,8.2,8.2,8.2h9.7c4.5,0,8.2,3.7,8.2,8.2v2.6c0,4.5-3.7,8.2-8.2,8.2
	H71c-4.5,0-8.2,3.7-8.2,8.2v10.5c0,4.5,3.7,8.2,8.2,8.2h55.7c4.5,0,8.2,3.7,8.2,8.2v7.4c0,4.5-3.7,8.2-8.2,8.2H47.3
	c-4.5,0-8.2,3.7-8.2,8.2v12c0,4.5,3.7,8.2,8.2,8.2h37.3c4.5,0,8.2,3.7,8.2,8.2v16.6c0,4.5-3.7,8.2-8.2,8.2h-4.3
	c-4.5,0-8.2,3.7-8.2,8.2v27.3c0,4.5,3.7,8.2,8.2,8.2h37.3c4.5,0,8.2,3.7,8.2,8.2v32.7c0,4.5,3.7,8.2,8.2,8.2h26
	c4.5,0,8.2-3.7,8.2-8.2v-21.2c0-4.5,3.7-8.2,8.2-8.2h34c4.5,0,8.2-3.7,8.2-8.2v-8.2c0-4.5,3.7-8.2,8.2-8.2h25.8
	c4.5,0,8.2-3.7,8.2-8.2v-15.1c0-4.5-3.7-8.2-8.2-8.2h-41.9c-4.5,0-8.2-3.7-8.2-8.2v-10.1c0-4.5,3.7-8.2,8.2-8.2h51.1
	c4.5,0,8.2-3.7,8.2-8.2V1690C269.7,1685.4,266,1681.8,261.5,1681.8z"/>
<g>
	<path class="st5" d="M68.6,1126.2h0.8c3.3,0,5.9-2.6,5.9-5.9v-24.1c0-3.3,2.6-5.9,5.9-5.9h6.7c3.3,0,5.9-2.6,5.9-5.9V1072
		c0-3.3,2.6-5.9,5.9-5.9h13.8c3.3,0,5.9,2.6,5.9,5.9v2c0,3.3,2.6,5.9,5.9,5.9h2.3c3.3,0,5.9,2.6,5.9,5.9v34.5c0,3.3,2.6,5.9,5.9,5.9
		l0,0"/>
	<path class="st5" d="M97.3,1126.2L97.3,1126.2c2.4,0,4.4-2,4.4-4.4v-15.4c0-2.4,2-4.4,4.4-4.4h3.8c2.4,0,4.4,2,4.4,4.4v15.4
		c0,2.4,2,4.4,4.4,4.4h2.7"/>
</g>
<g>
	<path class="st5" d="M514.1,1185.4h5.6c2.9,0,5.2-2.3,5.2-5.2v-15.7c0-2.9,2.3-5.2,5.2-5.2h4.2c2.9,0,5.2-2.3,5.2-5.2v-10.4
		c0-2.9,2.3-5.2,5.2-5.2H557c2.9,0,5.2,2.3,5.2,5.2v2.7c0,2.9,2.3,5.2,5.2,5.2l0,0c2.9,0,5.2-2.3,5.2-5.2v-15c0-2.9,2.3-5.2,5.2-5.2
		h13.8c2.9,0,5.2,2.3,5.2,5.2v6.9c0,2.9,2.3,5.2,5.2,5.2h8.8c2.9,0,5.2,2.3,5.2,5.2v6.5c0,2.9,2.3,5.2,5.2,5.2h9.6
		c2.9,0,5.2,2.3,5.2,5.2v14.6c0,2.9,2.3,5.2,5.2,5.2h11.3"/>
	<path class="st5" d="M550.9,1185.4h2c2.2,0,4-1.8,4-4v-6.7c0-2.2,1.8-4,4-4H572c2.2,0,4-1.8,4-4v-0.5c0-2.2,1.8-4,4-4h17.1
		c2.2,0,4,1.8,4,4v5.5c0,2.2,1.8,4,4,4l0,0c2.2,0,4,1.8,4,4v1.7c0,2.2,1.8,4,4,4h4"/>
</g>
<g>
	<path class="st4" d="M237.4,1433.5h8.4c4,0,7.3-3.3,7.3-7.3v-9.2c0-4,3.3-7.3,7.3-7.3l0,0c4,0,7.3-3.3,7.3-7.3V1387
		c0-4,3.3-7.3,7.3-7.3h6.7c4,0,7.3,3.3,7.3,7.3v39.1c0,4,3.3,7.3,7.3,7.3h5.6"/>
</g>
<g>
	<path class="st4" d="M215.9,1954.7h8.4c4,0,7.3-3.3,7.3-7.3v-9.2c0-4,3.3-7.3,7.3-7.3l0,0c4,0,7.3-3.3,7.3-7.3v-15.4
		c0-4,3.3-7.3,7.3-7.3h6.7c4,0,7.3,3.3,7.3,7.3v39.1c0,4,3.3,7.3,7.3,7.3h5.6"/>
</g>
<g>
	<path class="st5" d="M707.6,1625.9h-8.4c-4,0-7.3-3.3-7.3-7.3v-9.2c0-4-3.3-7.3-7.3-7.3l0,0c-4,0-7.3-3.3-7.3-7.3v-15.4
		c0-4-3.3-7.3-7.3-7.3h-6.7c-4,0-7.3,3.3-7.3,7.3v39.1c0,4-3.3,7.3-7.3,7.3h-5.6"/>
</g>
<g>
	<path class="st5" d="M280.4,1285.8h9.2c6.5,0,11.7-5.3,11.7-11.7v-13.8c0-6.5,5.3-11.7,11.7-11.7h1.5c6.5,0,11.7-5.3,11.7-11.7
		v-2.6c0-6.5,5.3-11.7,11.7-11.7h59.7c6.5,0,11.7,5.3,11.7,11.7v15.8c0,6.5,5.3,11.7,11.7,11.7h39.8c6.5,0,11.7,5.3,11.7,11.7v0.5
		c0,6.5,5.3,11.7,11.7,11.7h32.2"/>
	<path class="st5" d="M324.8,1285.8h4.6c6.5,0,11.7-5.3,11.7-11.7l0,0c0-6.5,5.3-11.7,11.7-11.7h18.9c6.5,0,11.7,5.3,11.7,11.7l0,0
		c0,6.5,5.3,11.7,11.7,11.7h25"/>
</g>
<pattern  id="SVGID_3_" xlink:href="#SVGID_8_" patternTransform="matrix(0.2 0 0 0.2 -18491.3672 -2440.2903)">
</pattern>
<path class="st8" d="M439.4,1332.9v-2.8c0-3.3,2.7-6,6-6h71.8c3.3,0,6-2.7,6-6v-6.9c0-3.3,2.7-6,6-6h39.1c3.3,0,6-2.7,6-6v-7.4
	c0-3.3,2.7-6,6-6h98.8c3.3,0,6,2.7,6,6v4.3c0,3.3,2.7,6,6,6h11.5c3.3,0,6,2.7,6,6v16.1c0,3.3-2.7,6-6,6h-32.5c-3.3,0-6,2.7-6,6v12.5
	c0,3.3,2.7,6,6,6h14.1c3.3,0,6,2.7,6,6v15.1c0,3.3-2.7,6-6,6H574.1c-3.3,0-6,2.7-6,6v12c0,3.3-2.7,6-6,6h-25.2c-3.3,0-6,2.7-6,6v0.8
	c0,3.3-2.7,6-6,6h-57c-3.3,0-6-2.7-6-6v-11.5c0-3.3,2.7-6,6-6H486c3.3,0,6-2.7,6-6v-10c0-3.3-2.7-6-6-6h-7.4c-3.3,0-6-2.7-6-6v-22.2
	c0-3.3-2.7-6-6-6h-21.2C442.1,1338.9,439.4,1336.2,439.4,1332.9z"/>
<pattern  id="SVGID_4_" xlink:href="#SVGID_9_" patternTransform="matrix(0.2 0 0 0.2 -18491.3672 -2440.2903)">
</pattern>
<path class="st9" d="M253.2,1117.8H231c-3.3,0-6,2.7-6,6v3.3c0,3.3-2.7,6-6,6h-47.8c-3.3,0-6,2.7-6,6v6.4c0,3.3-2.7,6-6,6h-36.5
	c-3.3,0-6,2.7-6,6v41.6c0,3.3,2.7,6,6,6h21.7c3.3,0,6,2.7,6,6v18.6c0,3.3,2.7,6,6,6h44.7c3.3,0,6-2.7,6-6v-1.2c0-3.3,2.7-6,6-6h27.8
	c3.3,0,6-2.7,6-6v-15.1c0-3.3,2.7-6,6-6h0.3c3.3,0,6-2.7,6-6v-65.6C259.2,1120.5,256.5,1117.8,253.2,1117.8z"/>
<pattern  id="SVGID_5_" xlink:href="#SVGID_10_" patternTransform="matrix(0.2 0 0 0.2 -18495.4512 -2445.1414)">
</pattern>
<path class="st10" d="M789.2,1788.1v-36c0-3.3-2.7-6-6-6h-14.5c-3.3,0-6-2.7-6-6v-26.3c0-3.3-2.7-6-6-6H690c-3.3,0-6,2.7-6,6v4.9
	c0,3.3-2.7,6-6,6h-63.5c-3.3,0-6,2.7-6,6v0.2c0,3.3,2.7,6,6,6h14c3.3,0,6,2.7,6,6v2.1c0,3.3-2.7,6-6,6h-56.4c-3.3,0-6-2.7-6-6l0,0
	c0-3.3-2.7-6-6-6h-10.5c-3.3,0-6,2.7-6,6v7.9c0,3.3-2.7,6-6,6h-9.9c-3.3,0-6,2.7-6,6v27.3c0,3.3,2.7,6,6,6h21.2c3.3,0,6,2.7,6,6
	v17.1c0,3.3,2.7,6,6,6h42.6c3.3,0,6-2.7,6-6v-4.3c0-3.3,2.7-6,6-6h47.2c3.3,0,6,2.7,6,6v12c0,3.3,2.7,6,6,6h24.8c3.3,0,6-2.7,6-6
	v-28.9c0-3.3,2.7-6,6-6h71.7C786.5,1794.1,789.2,1791.4,789.2,1788.1z"/>
<path class="st4" d="M356.7,2049.2h21.4c3.1,0,5.6-2.5,5.6-5.6v-12.3c0-3.1,2.5-5.6,5.6-5.6h17.9c3.1,0,5.6-2.5,5.6-5.6v-59.7
	c0-3.1,2.5-5.6,5.6-5.6h17.4c3.1,0,5.6,2.5,5.6,5.6v31.7c0,3.1,2.5,5.6,5.6,5.6h4.4c3.1,0,5.6-2.5,5.6-5.6v-13.8
	c0-3.1,2.5-5.6,5.6-5.6h4.2c3.1,0,5.6,2.5,5.6,5.6v35.7c0,3.1,2.5,5.6,5.6,5.6h8.2c3.1,0,5.6-2.5,5.6-5.6v-3.1
	c0-3.1,2.5-5.6,5.6-5.6h9.2c3.1,0,5.6-2.5,5.6-5.6v-7.7c0-3.1,2.5-5.6,5.6-5.6h52.1c3.1,0,5.6,2.5,5.6,5.6v25c0,3.1,2.5,5.6,5.6,5.6
	h7.7c3.1,0,5.6-2.5,5.6-5.6v-5.1c0-3.1,2.5-5.6,5.6-5.6h17.9c3.1,0,5.6,2.5,5.6,5.6v31.7c0,3.1,2.5,5.6,5.6,5.6h46"/>
<path class="st5" d="M424.1,2049.2h12.3c3.1,0,5.6-2.5,5.6-5.6v-10.7c0-3.1,2.5-5.6,5.6-5.6h9.7c3.1,0,5.6,2.5,5.6,5.6v2
	c0,3.1,2.5,5.6,5.6,5.6h24c3.1,0,5.6-2.5,5.6-5.6v-2c0-3.1,2.5-5.6,5.6-5.6H516c3.1,0,5.6-2.5,5.6-5.6v-1c0-3.1,2.5-5.6,5.6-5.6
	h28.6c3.1,0,5.6,2.5,5.6,5.6v11.7c0,3.1,2.5,5.6,5.6,5.6h9.2c3.1,0,5.6,2.5,5.6,5.6l0,0c0,3.1,2.5,5.6,5.6,5.6h20.9"/>
<g>
	<g>
		<polyline class="st4" points="431,1135.6 431,1125.5 446.9,1125.5 446.9,1135.6 		"/>
		<polygon class="st4" points="431,1125.5 438.8,1117.8 446.9,1125.5 		"/>
	</g>
	<g>
		<polyline class="st4" points="426.1,1143.1 426.1,1133.1 410.3,1133.1 410.3,1143.1 398.6,1143.1 		"/>
		<polygon class="st4" points="410.3,1133.1 418.1,1125.3 426.1,1133.1 		"/>
	</g>
	<g>
		<polyline class="st4" points="434.5,1143.1 434.5,1135 450.3,1135 450.3,1143.1 466.1,1143.1 		"/>
		<polygon class="st4" points="434.5,1135 442.3,1127.3 450.3,1135 		"/>
	</g>
	<g>
		<polyline class="st4" points="423.1,1145.6 423.1,1126.7 438.9,1126.7 438.9,1145.6 		"/>
		<polygon class="st4" points="423.1,1126.7 430.9,1119 438.9,1126.7 		"/>
	</g>
</g>
<g>
	<g>
		<polyline class="st4" points="754.1,1972.5 754.1,1962.4 770,1962.4 770,1972.5 		"/>
		<polygon class="st4" points="754.1,1962.4 761.9,1954.7 770,1962.4 		"/>
	</g>
	<g>
		<polyline class="st4" points="749.2,1980.1 749.2,1970 733.4,1970 733.4,1980.1 721.7,1980.1 		"/>
		<polygon class="st4" points="733.4,1970 741.2,1962.3 749.2,1970 		"/>
	</g>
	<g>
		<polyline class="st4" points="757.5,1980.1 757.5,1972 773.4,1972 773.4,1980.1 789.2,1980.1 		"/>
		<polygon class="st4" points="757.5,1972 765.4,1964.3 773.4,1972 		"/>
	</g>
	<g>
		<polyline class="st4" points="746.2,1982.6 746.2,1963.6 762,1963.6 762,1982.6 		"/>
		<polygon class="st4" points="746.2,1963.6 754,1955.9 762,1963.6 		"/>
	</g>
</g>
<g>
	<g>
		<polyline class="st4" points="164.4,1405.1 164.4,1395 180.2,1395 180.2,1405.1 		"/>
		<polygon class="st4" points="164.4,1395 172.2,1387.3 180.2,1395 		"/>
	</g>
	<g>
		<polyline class="st4" points="159.5,1412.6 159.5,1402.6 143.7,1402.6 143.7,1412.6 132,1412.6 		"/>
		<polygon class="st4" points="143.7,1402.6 151.5,1394.9 159.5,1402.6 		"/>
	</g>
	<g>
		<polyline class="st4" points="167.8,1412.6 167.8,1404.6 183.7,1404.6 183.7,1412.6 199.5,1412.6 		"/>
		<polygon class="st4" points="167.8,1404.6 175.7,1396.8 183.7,1404.6 		"/>
	</g>
	<g>
		<polyline class="st4" points="156.4,1415.1 156.4,1396.2 172.3,1396.2 172.3,1415.1 		"/>
		<polygon class="st4" points="156.4,1396.2 164.3,1388.5 172.3,1396.2 		"/>
	</g>
</g>
<g>
	<g>
		<rect x="546.6" y="1034.6" class="st4" width="9.3" height="21.6"/>
		<polygon class="st4" points="574.1,1034.6 528.4,1034.6 541.2,1020.9 531.1,1020.9 543.3,1007.8 535.3,1007.8 545.8,996.6 
			540.3,996.6 548,988.3 544.8,988.3 551.2,981.4 557.7,988.3 554.5,988.3 562.2,996.6 556.7,996.6 567.2,1007.8 559.2,1007.8 
			571.4,1020.9 561.3,1020.9 		"/>
	</g>
	<g>
		<rect x="537.6" y="1028.4" class="st4" width="4.1" height="27.9"/>
		<polygon class="st4" points="554,1028.4 525.3,1028.4 533.4,1010.7 527,1010.7 534.7,993.9 529.7,993.9 536.2,979.4 532.8,979.4 
			537.7,968.7 535.6,968.7 539.7,959.8 543.7,968.7 541.7,968.7 546.5,979.4 543.1,979.4 549.7,993.9 544.7,993.9 552.3,1010.7 
			546,1010.7 		"/>
	</g>
	<g>
		<rect x="526.6" y="1031.8" class="st4" width="5" height="24.5"/>
		<polygon class="st4" points="546.7,1031.8 511.5,1031.8 521.4,1016.3 513.6,1016.3 523,1001.5 516.9,1001.5 524.9,988.8 
			520.7,988.8 526.7,979.4 524.2,979.4 529.1,971.6 534.1,979.4 531.6,979.4 537.5,988.8 533.3,988.8 541.4,1001.5 535.3,1001.5 
			544.6,1016.3 536.9,1016.3 		"/>
	</g>
	<g>
		<rect x="513.6" y="1037.6" class="st4" width="3.2" height="18.6"/>
		<polygon class="st4" points="526.6,1037.6 503.8,1037.6 510.2,1025.8 505.2,1025.8 511.3,1014.6 507.3,1014.6 512.5,1004.9 
			509.8,1004.9 513.6,997.7 512,997.7 515.2,991.8 518.4,997.7 516.8,997.7 520.7,1004.9 518,1004.9 523.2,1014.6 519.2,1014.6 
			525.3,1025.8 520.3,1025.8 		"/>
	</g>
	<g>
		<rect x="591.9" y="1029.3" class="st4" width="4.4" height="26.9"/>
		<polygon class="st4" points="609.6,1029.3 578.6,1029.3 587.2,1012.3 580.4,1012.3 588.7,996.1 583.3,996.1 590.4,982.1 
			586.6,982.1 591.9,971.8 589.7,971.8 594.1,963.2 598.4,971.8 596.3,971.8 601.5,982.1 597.8,982.1 604.9,996.1 599.5,996.1 
			607.7,1012.3 600.9,1012.3 		"/>
	</g>
	<g>
		<rect x="571.6" y="1025.5" class="st4" width="5" height="30.7"/>
		<polygon class="st4" points="591.7,1025.5 556.5,1025.5 566.3,1006.1 558.6,1006.1 568,987.5 561.8,987.5 569.9,971.6 
			565.7,971.6 571.6,959.8 569.1,959.8 574.1,950 579,959.8 576.6,959.8 582.5,971.6 578.3,971.6 586.4,987.5 580.2,987.5 
			589.6,1006.1 581.8,1006.1 		"/>
	</g>
	<path class="st4" d="M507.3,1057.3h2.6c0.9,0,1.6-0.7,1.6-1.6l0,0c0-0.9,0.7-1.6,1.6-1.6h19.2c0.9,0,1.6-0.7,1.6-1.6v-1
		c0-0.9,0.7-1.6,1.6-1.6h26.4c0.9,0,1.6,0.7,1.6,1.6v0.5c0,0.9,0.7,1.6,1.6,1.6h32.3c0.9,0,1.6,0.7,1.6,1.6v0.5
		c0,0.9,0.7,1.6,1.6,1.6h7.7"/>
</g>
<g>
	<g>
		<rect x="328.5" y="257.2" class="st4" width="9.3" height="21.6"/>
		<polygon class="st4" points="358.4,257.2 307.8,257.2 321.9,243.5 310.8,243.5 324.3,230.4 315.4,230.4 327,219.2 321,219.2 
			329.5,210.9 326,210.9 333.1,204 340.2,210.9 336.7,210.9 345.2,219.2 339.2,219.2 350.8,230.4 341.9,230.4 355.4,243.5 
			344.3,243.5 		"/>
	</g>
	<g>
		<rect x="319.5" y="250.9" class="st4" width="4.1" height="27.9"/>
		<polygon class="st4" points="335.9,250.9 307.2,250.9 315.2,233.3 308.9,233.3 316.5,216.4 311.5,216.4 318.1,202 314.6,202 
			319.5,191.3 317.5,191.3 321.5,182.4 325.6,191.3 323.5,191.3 328.4,202 325,202 331.5,216.4 326.5,216.4 334.2,233.3 
			327.8,233.3 		"/>
	</g>
	<g>
		<rect x="308.5" y="254.3" class="st4" width="5" height="24.5"/>
		<polygon class="st4" points="328.5,254.3 293.4,254.3 303.2,238.8 295.5,238.8 304.8,224.1 298.7,224.1 306.8,211.4 302.5,211.4 
			308.5,202 306,202 311,194.2 315.9,202 313.4,202 319.4,211.4 315.2,211.4 323.2,224.1 317.1,224.1 326.5,238.8 318.7,238.8 		"/>
	</g>
	<g>
		<rect x="295.5" y="260.2" class="st4" width="3.2" height="18.6"/>
		<polygon class="st4" points="308.5,260.2 285.7,260.2 292,248.4 287,248.4 293.1,237.1 289.1,237.1 294.3,227.5 291.6,227.5 
			295.5,220.3 293.9,220.3 297.1,214.4 300.3,220.3 298.7,220.3 302.5,227.5 299.8,227.5 305,237.1 301.1,237.1 307.1,248.4 
			302.1,248.4 		"/>
	</g>
	<g>
		<rect x="373.7" y="251.9" class="st4" width="4.4" height="26.9"/>
		<polygon class="st4" points="391.4,251.9 360.4,251.9 369.1,234.9 362.2,234.9 370.5,218.7 365.1,218.7 372.2,204.7 368.5,204.7 
			373.7,194.4 371.6,194.4 375.9,185.8 380.3,194.4 378.1,194.4 383.3,204.7 379.6,204.7 386.7,218.7 381.3,218.7 389.6,234.9 
			382.7,234.9 		"/>
	</g>
	<g>
		<rect x="353.4" y="248.1" class="st4" width="5" height="30.7"/>
		<polygon class="st4" points="373.5,248.1 338.4,248.1 348.2,228.7 340.4,228.7 349.8,210.1 343.7,210.1 351.7,194.2 347.5,194.2 
			353.5,182.4 351,182.4 355.9,172.6 360.9,182.4 358.4,182.4 364.4,194.2 360.1,194.2 368.2,210.1 362.1,210.1 371.4,228.7 
			363.7,228.7 		"/>
	</g>
	<path class="st4" d="M289.1,279.9h2.6c0.9,0,1.6-0.7,1.6-1.6l0,0c0-0.9,0.7-1.6,1.6-1.6h19.2c0.9,0,1.6-0.7,1.6-1.6v-1
		c0-0.9,0.7-1.6,1.6-1.6h26.4c0.9,0,1.6,0.7,1.6,1.6v0.5c0,0.9,0.7,1.6,1.6,1.6h32.3c0.9,0,1.6,0.7,1.6,1.6v0.5
		c0,0.9,0.7,1.6,1.6,1.6h7.7"/>
</g>
<g>
	<g>
		<rect x="483.6" y="1422.1" class="st4" width="6.5" height="21.6"/>
		<polygon class="st4" points="509.7,1422.1 464,1422.1 476.8,1408.4 466.7,1408.4 478.9,1395.3 470.9,1395.3 481.4,1384.1 
			475.9,1384.1 483.7,1375.8 480.4,1375.8 486.9,1368.9 493.3,1375.8 490.1,1375.8 497.8,1384.1 492.3,1384.1 502.8,1395.3 
			494.8,1395.3 507,1408.4 496.9,1408.4 		"/>
	</g>
	<g>
		<rect x="473.3" y="1415.8" class="st4" width="4.1" height="27.9"/>
		<polygon class="st4" points="489.6,1415.8 460.9,1415.8 469,1398.2 462.6,1398.2 470.3,1381.3 465.3,1381.3 471.8,1366.9 
			468.4,1366.9 473.3,1356.2 471.3,1356.2 475.3,1347.3 479.3,1356.2 477.3,1356.2 482.2,1366.9 478.7,1366.9 485.3,1381.3 
			480.3,1381.3 487.9,1398.2 481.6,1398.2 		"/>
	</g>
	<g>
		<rect x="462.2" y="1419.2" class="st4" width="5" height="24.5"/>
		<polygon class="st4" points="482.3,1419.2 447.2,1419.2 457,1403.7 449.2,1403.7 458.6,1389 452.5,1389 460.5,1376.3 
			456.3,1376.3 462.3,1366.9 459.8,1366.9 464.7,1359.1 469.7,1366.9 467.2,1366.9 473.2,1376.3 468.9,1376.3 477,1389 470.9,1389 
			480.2,1403.7 472.5,1403.7 		"/>
	</g>
	<g>
		<rect x="507.2" y="1413" class="st4" width="5" height="30.7"/>
		<polygon class="st4" points="527.3,1413 492.1,1413 502,1393.6 494.2,1393.6 503.6,1375 497.4,1375 505.5,1359.1 501.3,1359.1 
			507.2,1347.3 504.8,1347.3 509.7,1337.5 514.6,1347.3 512.2,1347.3 518.1,1359.1 513.9,1359.1 522,1375 515.8,1375 525.2,1393.6 
			517.5,1393.6 		"/>
	</g>
	<path class="st4" d="M442.9,1444.8h2.6c0.9,0,1.6-0.7,1.6-1.6l0,0c0-0.9,0.7-1.6,1.6-1.6H468c0.9,0,1.6-0.7,1.6-1.6v-1
		c0-0.9,0.7-1.6,1.6-1.6h26.4c0.9,0,1.6,0.7,1.6,1.6v0.5c0,0.9,0.7,1.6,1.6,1.6h32.3c0.9,0,1.6,0.7,1.6,1.6v0.5
		c0,0.9,0.7,1.6,1.6,1.6h7.7"/>
</g>
<g>
	<g>
		<rect x="685.6" y="534.9" class="st4" width="6.5" height="21.6"/>
		<polygon class="st4" points="711.7,534.9 666,534.9 678.8,521.2 668.7,521.2 680.9,508.2 672.9,508.2 683.4,496.9 677.9,496.9 
			685.6,488.6 682.4,488.6 688.8,481.7 695.3,488.6 692.1,488.6 699.8,496.9 694.3,496.9 704.8,508.2 696.8,508.2 709,521.2 
			698.9,521.2 		"/>
	</g>
	<g>
		<rect x="675.2" y="528.7" class="st4" width="4.1" height="27.9"/>
		<polygon class="st4" points="691.6,528.7 662.9,528.7 670.9,511 664.6,511 672.3,494.2 667.3,494.2 673.8,479.7 670.4,479.7 
			675.3,469 673.2,469 677.3,460.1 681.3,469 679.3,469 684.1,479.7 680.7,479.7 687.3,494.2 682.3,494.2 689.9,511 683.6,511 		"/>
	</g>
	<g>
		<rect x="664.2" y="532.1" class="st4" width="5" height="24.5"/>
		<polygon class="st4" points="684.3,532.1 649.1,532.1 659,516.6 651.2,516.6 660.6,501.8 654.4,501.8 662.5,489.1 658.3,489.1 
			664.2,479.7 661.8,479.7 666.7,471.9 671.7,479.7 669.2,479.7 675.1,489.1 670.9,489.1 679,501.8 672.8,501.8 682.2,516.6 
			674.5,516.6 		"/>
	</g>
	<g>
		<rect x="709.2" y="525.9" class="st4" width="5" height="30.7"/>
		<polygon class="st4" points="729.3,525.9 694.1,525.9 703.9,506.4 696.2,506.4 705.6,487.9 699.4,487.9 707.5,471.9 703.3,471.9 
			709.2,460.1 706.7,460.1 711.7,450.3 716.6,460.1 714.2,460.1 720.1,471.9 715.9,471.9 723.9,487.9 717.8,487.9 727.2,506.4 
			719.4,506.4 		"/>
	</g>
	<path class="st4" d="M644.9,557.7h2.6c0.9,0,1.6-0.7,1.6-1.6l0,0c0-0.9,0.7-1.6,1.6-1.6H670c0.9,0,1.6-0.7,1.6-1.6v-1
		c0-0.9,0.7-1.6,1.6-1.6h26.4c0.9,0,1.6,0.7,1.6,1.6v0.5c0,0.9,0.7,1.6,1.6,1.6h32.3c0.9,0,1.6,0.7,1.6,1.6v0.5
		c0,0.9,0.7,1.6,1.6,1.6h7.7"/>
</g>
<g>
	<g>
		<rect x="328.1" y="427.9" class="st4" width="4.1" height="27.9"/>
		<polygon class="st4" points="344.5,427.9 315.8,427.9 323.9,410.3 317.5,410.3 325.2,393.4 320.2,393.4 326.7,379 323.3,379 
			328.2,368.3 326.1,368.3 330.2,359.4 334.2,368.3 332.2,368.3 337,379 333.6,379 340.2,393.4 335.2,393.4 342.8,410.3 
			336.5,410.3 		"/>
	</g>
	<g>
		<rect x="282.1" y="431.3" class="st4" width="5" height="24.5"/>
		<polygon class="st4" points="302.2,431.3 267,431.3 276.9,415.8 269.1,415.8 278.5,401.1 272.4,401.1 280.4,388.4 276.2,388.4 
			282.2,379 279.7,379 284.6,371.2 289.6,379 287.1,379 293,388.4 288.8,388.4 296.9,401.1 290.8,401.1 300.1,415.8 292.4,415.8 		
			"/>
	</g>
	<g>
		<rect x="307.1" y="425.1" class="st4" width="5" height="30.7"/>
		<polygon class="st4" points="327.2,425.1 292,425.1 301.8,405.7 294.1,405.7 303.5,387.1 297.3,387.1 305.4,371.2 301.2,371.2 
			307.1,359.4 304.6,359.4 309.6,349.6 314.5,359.4 312.1,359.4 318,371.2 313.8,371.2 321.9,387.1 315.7,387.1 325.1,405.7 
			317.3,405.7 		"/>
	</g>
	<path class="st4" d="M262.8,456.9h2.6c0.9,0,1.6-0.7,1.6-1.6l0,0c0-0.9,0.7-1.6,1.6-1.6h19.2c0.9,0,1.6-0.7,1.6-1.6v-1
		c0-0.9,0.7-1.6,1.6-1.6h26.4c0.9,0,1.6,0.7,1.6,1.6v0.5c0,0.9,0.7,1.6,1.6,1.6h32.3c0.9,0,1.6,0.7,1.6,1.6v0.5
		c0,0.9,0.7,1.6,1.6,1.6h7.7"/>
</g>
<g>
	<g>
		<rect x="390.5" y="821.7" class="st4" width="3.3" height="22.8"/>
		<polygon class="st4" points="403.8,821.7 380.4,821.7 387,807.3 381.8,807.3 388,793.5 383.9,793.5 389.3,781.7 386.5,781.7 
			390.5,772.9 388.8,772.9 392.1,765.7 395.4,772.9 393.8,772.9 397.7,781.7 394.9,781.7 400.3,793.5 396.2,793.5 402.5,807.3 
			397.3,807.3 		"/>
	</g>
	<g>
		<rect x="352.8" y="824.5" class="st4" width="4.1" height="20"/>
		<polygon class="st4" points="369.2,824.5 340.5,824.5 348.5,811.8 342.2,811.8 349.9,799.8 344.8,799.8 351.4,789.4 348,789.4 
			352.9,781.7 350.8,781.7 354.9,775.3 358.9,781.7 356.9,781.7 361.8,789.4 358.3,789.4 364.9,799.8 359.9,799.8 367.6,811.8 
			361.2,811.8 		"/>
	</g>
	<g>
		<rect x="373.3" y="819.4" class="st4" width="4.1" height="25.1"/>
		<polygon class="st4" points="389.7,819.4 360.9,819.4 369,803.5 362.6,803.5 370.3,788.4 365.3,788.4 371.9,775.3 368.4,775.3 
			373.3,765.7 371.2,765.7 375.3,757.7 379.3,765.7 377.3,765.7 382.2,775.3 378.7,775.3 385.3,788.4 380.3,788.4 388,803.5 
			381.6,803.5 		"/>
	</g>
	<path class="st4" d="M337,845.4h2.2c0.7,0,1.3-0.6,1.3-1.3l0,0c0-0.7,0.6-1.3,1.3-1.3h15.7c0.7,0,1.3-0.6,1.3-1.3v-0.8
		c0-0.7,0.6-1.3,1.3-1.3h21.6c0.7,0,1.3,0.6,1.3,1.3v0.4c0,0.7,0.6,1.3,1.3,1.3h26.4c0.7,0,1.3,0.6,1.3,1.3v0.4
		c0,0.7,0.6,1.3,1.3,1.3h6.3"/>
</g>
<g>
	<g>
		<rect x="621.6" y="1635.2" class="st4" width="3.3" height="22.8"/>
		<polygon class="st4" points="635,1635.2 611.5,1635.2 618.1,1620.7 612.9,1620.7 619.1,1607 615.1,1607 620.4,1595.1 
			617.6,1595.1 621.6,1586.4 619.9,1586.4 623.2,1579.1 626.5,1586.4 624.9,1586.4 628.9,1595.1 626,1595.1 631.4,1607 627.3,1607 
			633.6,1620.7 628.4,1620.7 		"/>
	</g>
	<g>
		<rect x="584" y="1637.9" class="st4" width="4.1" height="20"/>
		<polygon class="st4" points="600.4,1637.9 571.6,1637.9 579.7,1625.3 573.3,1625.3 581,1613.2 576,1613.2 582.6,1602.8 
			579.1,1602.8 584,1595.1 581.9,1595.1 586,1588.7 590,1595.1 588,1595.1 592.9,1602.8 589.4,1602.8 596,1613.2 591,1613.2 
			598.7,1625.3 592.3,1625.3 		"/>
	</g>
	<g>
		<rect x="604.4" y="1632.9" class="st4" width="4.1" height="25.1"/>
		<polygon class="st4" points="620.8,1632.9 592,1632.9 600.1,1617 593.7,1617 601.4,1601.8 596.4,1601.8 603,1588.7 599.5,1588.7 
			604.4,1579.1 602.4,1579.1 606.4,1571.1 610.4,1579.1 608.4,1579.1 613.3,1588.7 609.9,1588.7 616.4,1601.8 611.4,1601.8 
			619.1,1617 612.7,1617 		"/>
	</g>
	<path class="st4" d="M568.1,1658.9h2.2c0.7,0,1.3-0.6,1.3-1.3l0,0c0-0.7,0.6-1.3,1.3-1.3h15.7c0.7,0,1.3-0.6,1.3-1.3v-0.8
		c0-0.7,0.6-1.3,1.3-1.3h21.6c0.7,0,1.3,0.6,1.3,1.3v0.4c0,0.7,0.6,1.3,1.3,1.3H642c0.7,0,1.3,0.6,1.3,1.3v0.4
		c0,0.7,0.6,1.3,1.3,1.3h6.3"/>
</g>
<g>
	<g>
		<rect x="497.3" y="1934.3" class="st4" width="6.5" height="21.6"/>
		<polygon class="st4" points="523.3,1934.3 477.7,1934.3 490.4,1920.6 480.4,1920.6 492.5,1907.5 484.6,1907.5 495,1896.3 
			489.6,1896.3 497.3,1888 494.1,1888 500.5,1881.1 506.9,1888 503.7,1888 511.4,1896.3 506,1896.3 516.4,1907.5 508.5,1907.5 
			520.6,1920.6 510.6,1920.6 		"/>
	</g>
	<g>
		<rect x="486.9" y="1928.1" class="st4" width="4.1" height="27.9"/>
		<polygon class="st4" points="503.3,1928.1 474.6,1928.1 482.6,1910.4 476.3,1910.4 483.9,1893.6 478.9,1893.6 485.5,1879.1 
			482.1,1879.1 486.9,1868.4 484.9,1868.4 488.9,1859.5 493,1868.4 490.9,1868.4 495.8,1879.1 492.4,1879.1 498.9,1893.6 
			493.9,1893.6 501.6,1910.4 495.2,1910.4 		"/>
	</g>
	<g>
		<rect x="475.9" y="1931.5" class="st4" width="5" height="24.5"/>
		<polygon class="st4" points="495.9,1931.5 460.8,1931.5 470.6,1916 462.9,1916 472.2,1901.2 466.1,1901.2 474.2,1888.5 
			470,1888.5 475.9,1879.1 473.4,1879.1 478.4,1871.3 483.3,1879.1 480.8,1879.1 486.8,1888.5 482.6,1888.5 490.6,1901.2 
			484.5,1901.2 493.9,1916 486.1,1916 		"/>
	</g>
	<g>
		<rect x="520.8" y="1925.2" class="st4" width="5" height="30.7"/>
		<polygon class="st4" points="540.9,1925.2 505.8,1925.2 515.6,1905.8 507.8,1905.8 517.2,1887.2 511.1,1887.2 519.1,1871.3 
			514.9,1871.3 520.9,1859.5 518.4,1859.5 523.3,1849.7 528.3,1859.5 525.8,1859.5 531.8,1871.3 527.6,1871.3 535.6,1887.2 
			529.5,1887.2 538.8,1905.8 531.1,1905.8 		"/>
	</g>
	<path class="st4" d="M456.5,1957h2.6c0.9,0,1.6-0.7,1.6-1.6l0,0c0-0.9,0.7-1.6,1.6-1.6h19.2c0.9,0,1.6-0.7,1.6-1.6v-1
		c0-0.9,0.7-1.6,1.6-1.6h26.4c0.9,0,1.6,0.7,1.6,1.6v0.5c0,0.9,0.7,1.6,1.6,1.6h32.3c0.9,0,1.6,0.7,1.6,1.6v0.5
		c0,0.9,0.7,1.6,1.6,1.6h7.7"/>
</g>
<g>
	<g>
		<rect x="200.3" y="1697.1" class="st4" width="9.3" height="21.6"/>
		<polygon class="st4" points="172.3,1697.1 237.7,1697.1 219.4,1683.4 233.8,1683.4 216.4,1670.4 227.8,1670.4 212.8,1659.1 
			220.7,1659.1 209.6,1650.8 214.2,1650.8 205,1643.9 195.8,1650.8 200.4,1650.8 189.3,1659.1 197.1,1659.1 182.1,1670.4 
			193.6,1670.4 176.1,1683.4 190.5,1683.4 		"/>
	</g>
	<g>
		<rect x="214.5" y="1690.9" class="st4" width="4.1" height="27.9"/>
		<polygon class="st4" points="202.2,1690.9 230.9,1690.9 222.9,1673.2 229.2,1673.2 221.6,1656.4 226.6,1656.4 220,1641.9 
			223.4,1641.9 218.6,1631.2 220.6,1631.2 216.6,1622.3 212.5,1631.2 214.5,1631.2 209.7,1641.9 213.1,1641.9 206.5,1656.4 
			211.5,1656.4 203.9,1673.2 210.2,1673.2 		"/>
	</g>
	<g>
		<rect x="224.6" y="1694.3" class="st4" width="5" height="24.5"/>
		<polygon class="st4" points="209.5,1694.3 244.7,1694.3 234.9,1678.8 242.6,1678.8 233.2,1664 239.4,1664 231.3,1651.3 
			235.5,1651.3 229.6,1641.9 232.1,1641.9 227.1,1634.1 222.2,1641.9 224.6,1641.9 218.7,1651.3 222.9,1651.3 214.8,1664 221,1664 
			211.6,1678.8 219.4,1678.8 		"/>
	</g>
	<g>
		<rect x="239.4" y="1700.1" class="st4" width="3.2" height="18.6"/>
		<polygon class="st4" points="229.6,1700.1 252.4,1700.1 246,1688.3 251.1,1688.3 245,1677.1 249,1677.1 243.7,1667.4 
			246.5,1667.4 242.6,1660.3 244.2,1660.3 241,1654.3 237.8,1660.3 239.4,1660.3 235.5,1667.4 238.3,1667.4 233,1677.1 237,1677.1 
			230.9,1688.3 236,1688.3 		"/>
	</g>
	<g>
		<rect x="160" y="1691.9" class="st4" width="4.4" height="26.9"/>
		<polygon class="st4" points="146.7,1691.9 177.7,1691.9 169,1674.8 175.8,1674.8 167.6,1658.6 173,1658.6 165.9,1644.6 
			169.6,1644.6 164.3,1634.3 166.5,1634.3 162.2,1625.8 157.8,1634.3 160,1634.3 154.7,1644.6 158.4,1644.6 151.3,1658.6 
			156.7,1658.6 148.5,1674.8 155.3,1674.8 		"/>
	</g>
	<g>
		<rect x="179.6" y="1688.1" class="st4" width="5" height="30.7"/>
		<polygon class="st4" points="164.6,1688.1 199.7,1688.1 189.9,1668.6 197.6,1668.6 188.3,1650.1 194.4,1650.1 186.3,1634.1 
			190.6,1634.1 184.6,1622.3 187.1,1622.3 182.1,1612.5 177.2,1622.3 179.7,1622.3 173.7,1634.1 177.9,1634.1 169.9,1650.1 
			176,1650.1 166.6,1668.6 174.4,1668.6 		"/>
	</g>
	<path class="st4" d="M249,1719.9h-2.6c-0.9,0-1.6-0.7-1.6-1.6l0,0c0-0.9-0.7-1.6-1.6-1.6H224c-0.9,0-1.6-0.7-1.6-1.6v-1
		c0-0.9-0.7-1.6-1.6-1.6h-26.4c-0.9,0-1.6,0.7-1.6,1.6v0.5c0,0.9-0.7,1.6-1.6,1.6h-32.3c-0.9,0-1.6,0.7-1.6,1.6v0.5
		c0,0.9-0.7,1.6-1.6,1.6H148"/>
</g>
<g class="st11">
	<text transform="matrix(1 0 0 1 427.5252 -17.9792)" class="st12 st16" style="font-size:30.0659px;">Map</text>
	<g class="st12">
		<circle class="st13" cx="457.2" cy="41.1" r="10"/>
		<text transform="matrix(1 0 0 1 444.0027 59.2966)" class="st13 st14 st15">Week 1</text>
		<text transform="matrix(1 0 0 1 447.3027 66.2966)" class="st13 st16 st15">Start</text>
	</g>
	<rect x="1033.2" y="-68.6" class="st17" width="400" height="640"/>
	<g class="st12">
		<path class="st4" d="M856.7,731l141.2-13.4c2.2-0.2,4.1,2.7,4.1,6.4v26.8c0,3.7-1.9,6.6-4.1,6.4l-141.2-13.4
			c-2.1-0.2-3.7-3-3.7-6.4l0,0C853,734,854.6,731.2,856.7,731z"/>
		<path class="st4" d="M1108.4,668v138.8H1004c-38.3,0-69.4-31.1-69.4-69.4c0-38.3,31.1-69.4,69.4-69.4L1108.4,668L1108.4,668z"/>
		<circle class="st4" cx="1108.4" cy="737.4" r="69.4"/>
		<path class="st4" d="M1135.6,659.7v155.5h-27.2c-42.9,0-77.8-34.8-77.8-77.8c0-42.9,34.8-77.7,77.8-77.7H1135.6z"/>
		<circle class="st4" cx="1135.6" cy="737.4" r="77.7"/>
		<circle class="st4" cx="1135.6" cy="737.4" r="58.6"/>
		<path class="st18" d="M1194.2,737.4c0,32.3-26.2,58.6-58.6,58.6c-2,0-4-0.1-5.9-0.3c29.6-3,52.7-27.9,52.7-58.3
			c0-30.4-23.1-55.3-52.7-58.3c2-0.2,3.9-0.3,5.9-0.3C1167.9,678.9,1194.2,705.1,1194.2,737.4z"/>
	</g>
	<g class="st12">
		<path class="st4" d="M147.8,1919.1L6.6,1932.6c-2.2,0.2-4.1-2.7-4.1-6.4v-26.8c0-3.7,1.9-6.6,4.1-6.4l141.2,13.4
			c2.1,0.2,3.7,3,3.7,6.4l0,0C151.5,1916.1,149.9,1918.9,147.8,1919.1z"/>
		<path class="st4" d="M-103.9,1982.1v-138.8H0.5c38.3,0,69.4,31.1,69.4,69.4s-31.1,69.4-69.4,69.4H-103.9z"/>
		<circle class="st4" cx="-103.9" cy="1912.7" r="69.4"/>
		<path class="st4" d="M-131.1,1990.5V1835h27.2c42.9,0,77.8,34.8,77.8,77.8c0,42.9-34.8,77.7-77.8,77.7H-131.1z"/>
		<circle class="st4" cx="-131.1" cy="1912.7" r="77.7"/>
		
			<ellipse transform="matrix(0.9971 -7.669507e-02 7.669507e-02 0.9971 -147.0862 -4.4212)" class="st19" cx="-131.1" cy="1912.8" rx="58.6" ry="58.6"/>
		<path class="st18" d="M-189.6,1912.7c0-32.3,26.2-58.6,58.6-58.6c2,0,4,0.1,5.9,0.3c-29.6,3-52.7,27.9-52.7,58.3
			s23.1,55.3,52.7,58.3c-2,0.2-3.9,0.3-5.9,0.3C-163.4,1971.3-189.6,1945.1-189.6,1912.7z"/>
	</g>
	<g class="st12">
		<path class="st5" d="M84.1,944.3v11.4c0,41.4-33.6,75-75,75s-75-33.6-75-75v-11.4L84.1,944.3L84.1,944.3z"/>
		<circle class="st5" cx="9.1" cy="944.3" r="75"/>
		<circle class="st5" cx="9.1" cy="944.3" r="65"/>
		<g>
			<line class="st20" x1="9.1" y1="1030.7" x2="9.1" y2="1019.3"/>
			<line class="st20" x1="55.1" y1="1014.9" x2="55.1" y2="1003.5"/>
			<line class="st20" x1="-37" y1="1003.5" x2="-37" y2="1014.9"/>
		</g>
		<path class="st20" d="M9.1,944.3"/>
		<circle class="st5" cx="26.8" cy="920.3" r="16.5"/>
		<path class="st5" d="M-47,964.1h12.7c2,0,3.7-1.6,3.7-3.7v-19.1c0-2,1.6-3.7,3.7-3.7h9.7c2,0,3.7-1.6,3.7-3.7V913
			c0-2,1.6-3.7,3.7-3.7H0c2,0,3.7,1.6,3.7,3.7v26c0,2,1.6,3.7,3.7,3.7h2.9c2,0,3.7-1.6,3.7-3.7v-16.7c0-2,1.6-3.7,3.7-3.7H24
			c2,0,3.7,1.6,3.7,3.7v5.8c0,2,1.6,3.7,3.7,3.7h1c2,0,3.7,1.6,3.7,3.7v12.3c0,2,1.6,3.7,3.7,3.7l0,0c2,0,3.7,1.6,3.7,3.7v5.3
			c0,2,1.6,3.7,3.7,3.7h15.1"/>
		<path class="st5" d="M-20,964.1h4c2,0,3.6-1.6,3.6-3.6v-7.2c0-2,1.6-3.6,3.6-3.6h5.2c2,0,3.6,1.6,3.6,3.6l0,0c0,2,1.6,3.6,3.6,3.6
			h18.5c2,0,3.6,1.6,3.6,3.6l0,0c0,2,1.6,3.6,3.6,3.6h3"/>
	</g>
	<g class="st12">
		<path class="st5" d="M965.9,1682.4v11.4c0,41.4-33.6,75-75,75s-75-33.6-75-75v-11.4H965.9z"/>
		<circle class="st5" cx="890.9" cy="1682.4" r="75"/>
		<circle class="st5" cx="890.9" cy="1682.4" r="65"/>
		<g>
			<line class="st20" x1="890.9" y1="1768.8" x2="890.9" y2="1757.4"/>
			<line class="st20" x1="936.9" y1="1752.9" x2="936.9" y2="1741.5"/>
			<line class="st20" x1="844.8" y1="1741.5" x2="844.8" y2="1752.9"/>
		</g>
		<path class="st20" d="M890.9,1682.4"/>
		<circle class="st5" cx="908.6" cy="1658.3" r="16.5"/>
		<path class="st5" d="M834.7,1702.2h12.7c2,0,3.7-1.6,3.7-3.7v-19.1c0-2,1.6-3.7,3.7-3.7h9.7c2,0,3.7-1.6,3.7-3.7v-20.9
			c0-2,1.6-3.7,3.7-3.7h10c2,0,3.7,1.6,3.7,3.7v26c0,2,1.6,3.7,3.7,3.7h2.9c2,0,3.7-1.6,3.7-3.7v-16.7c0-2,1.6-3.7,3.7-3.7h6.3
			c2,0,3.7,1.6,3.7,3.7v5.8c0,2,1.6,3.7,3.7,3.7h1c2,0,3.7,1.6,3.7,3.7v12.3c0,2,1.6,3.7,3.7,3.7l0,0c2,0,3.7,1.6,3.7,3.7v5.3
			c0,2,1.6,3.7,3.7,3.7h15.1"/>
		<path class="st5" d="M861.8,1702.2h4c2,0,3.6-1.6,3.6-3.6v-7.2c0-2,1.6-3.6,3.6-3.6h5.2c2,0,3.6,1.6,3.6,3.6l0,0
			c0,2,1.6,3.6,3.6,3.6H904c2,0,3.6,1.6,3.6,3.6l0,0c0,2,1.6,3.6,3.6,3.6h3"/>
	</g>
	<g class="st12">
		<g>
			<circle class="st21" cx="925.1" cy="1.7" r="165"/>
			<g>
				<circle class="st21" cx="925.1" cy="-13.5" r="165"/>
				<circle class="st5" cx="925.1" cy="-13.5" r="150"/>
				<circle class="st22" cx="925.1" cy="-197.8" r="34.3"/>
				<g>
					<path class="st23" d="M911.7-181.6V-214h8.5l6.7,11.9c1.9,3.4,3.8,7.4,5.3,11.1h0.1c-0.5-4.3-0.6-8.6-0.6-13.5v-9.5h6.7v32.4
						h-7.7l-6.9-12.5c-1.9-3.5-4-7.6-5.6-11.4h-0.1c0.2,4.3,0.3,8.8,0.3,14.1v9.7L911.7-181.6L911.7-181.6z"/>
				</g>
			</g>
		</g>
		<g>
			<g>
				<g>
					<polygon class="st4" points="1075.1,-13.5 948.7,6.2 925.1,9.8 925.1,-13.5 					"/>
				</g>
				<g>
					<polygon class="st4" points="1075.1,-13.5 925.1,-13.5 925.1,-36.9 925.1,-36.9 948.7,-33.2 					"/>
				</g>
			</g>
			<g>
				<g>
					<polygon class="st24" points="925.1,-36.9 925.1,-13.5 775.1,-13.5 901.4,-33.2 					"/>
				</g>
				<g>
					<polygon class="st24" points="925.1,-13.5 925.1,9.8 901.4,6.2 775.1,-13.5 					"/>
					<line class="st25" x1="925.1" y1="9.8" x2="925.1" y2="9.8"/>
					<line class="st25" x1="925.1" y1="9.8" x2="925.1" y2="9.8"/>
				</g>
			</g>
			<g>
				<circle class="st4" cx="925.1" cy="-13.5" r="19"/>
				<circle class="st4" cx="925.1" cy="-13.5" r="10"/>
			</g>
		</g>
	</g>
</g>
<g>
	<g>
		<rect x="611.1" y="93.7" class="st4" width="4.1" height="27.9"/>
		<polygon class="st4" points="627.4,93.7 598.8,93.7 606.8,76.1 600.5,76.1 608.1,59.2 603.1,59.2 609.7,44.8 606.2,44.8 
			611.1,34.1 609.1,34.1 613.1,25.2 617.1,34.1 615.1,34.1 620,44.8 616.5,44.8 623.1,59.2 618.1,59.2 625.8,76.1 619.4,76.1 		"/>
	</g>
	<g>
		<rect x="590.1" y="97.1" class="st4" width="5" height="24.5"/>
		<polygon class="st4" points="610.1,97.1 575,97.1 584.8,81.6 577.1,81.6 586.4,66.9 580.3,66.9 588.3,54.2 584.1,54.2 590.1,44.8 
			587.6,44.8 592.6,37 597.5,44.8 595,44.8 601,54.2 596.8,54.2 604.8,66.9 598.7,66.9 608.1,81.6 600.3,81.6 		"/>
	</g>
	<g>
		<rect x="635" y="90.9" class="st4" width="5" height="30.7"/>
		<polygon class="st4" points="655.1,90.9 619.9,90.9 629.8,71.5 622,71.5 631.4,52.9 625.3,52.9 633.3,37 629.1,37 635,25.2 
			632.6,25.2 637.5,15.4 642.5,25.2 640,25.2 645.9,37 641.7,37 649.8,52.9 643.7,52.9 653,71.5 645.3,71.5 		"/>
	</g>
	<path class="st4" d="M570.7,122.7h2.6c0.9,0,1.6-0.7,1.6-1.6l0,0c0-0.9,0.7-1.6,1.6-1.6h19.2c0.9,0,1.6-0.7,1.6-1.6v-1
		c0-0.9,0.7-1.6,1.6-1.6h26.4c0.9,0,1.6,0.7,1.6,1.6v0.5c0,0.9,0.7,1.6,1.6,1.6h32.3c0.9,0,1.6,0.7,1.6,1.6v0.5
		c0,0.9,0.7,1.6,1.6,1.6h7.7"/>
</g>
<g>
	<g>
		<polyline class="st26" points="913.2,2076.1 913.2,2091.1 898.2,2091.1 		"/>
		<line class="st27" x1="867.8" y1="2091.1" x2="31.4" y2="2091.1"/>
		<polyline class="st26" points="16.2,2091.1 1.2,2091.1 1.2,2076.1 		"/>
		<line class="st28" x1="1.2" y1="2046.3" x2="1.2" y2="31.7"/>
		<polyline class="st26" points="1.2,16.7 1.2,1.7 16.2,1.7 		"/>
		<line class="st27" x1="46.6" y1="1.7" x2="883" y2="1.7"/>
		<polyline class="st26" points="898.2,1.7 913.2,1.7 913.2,16.7 		"/>
		<line class="st28" x1="913.2" y1="46.6" x2="913.2" y2="2061.2"/>
	</g>
</g>
</svg>
