<?xml version="1.0" encoding="utf-8"?>
<!-- Generator: Adobe Illustrator 23.1.0, SVG Export Plug-In . SVG Version: 6.00 Build 0)  -->
<svg version="1.1" id="Layer_1" xmlns="http://www.w3.org/2000/svg" xmlns:xlink="http://www.w3.org/1999/xlink" x="0px" y="0px"
	 viewBox="0 0 450.1 109" style="enable-background:new 0 0 450.1 109;" xml:space="preserve">
<style type="text/css">
	.st0{display:none;opacity:0.5;fill:#FFFFFF;enable-background:new    ;}
	.st1{display:none;fill:#FFFFFF;}
	.st2{display:none;}
	.st3{display:inline;fill:#FFFFFF;}
	.st4{display:inline;fill:#FF4848;}
	.st5{display:inline;fill:#5A8DFF;}
	.st6{display:inline;}
	.st7{font-family:'MyriadPro-Bold';}
	.st8{font-size:72px;}
	.st9{font-family:'MyriadPro-Light';}
	.st10{font-size:20px;}
	.st11{display:inline;fill:#FFFFFF;stroke:#000000;stroke-width:2;stroke-miterlimit:10;}
	.st12{display:inline;fill:none;stroke:#FFFFFF;stroke-width:2;stroke-linecap:round;stroke-linejoin:round;stroke-miterlimit:10;}
	.st13{display:inline;fill:none;stroke:#FF33FF;stroke-miterlimit:10;}
	.st14{display:inline;fill:#FF33FF;}
	.st15{display:inline;fill:#FFFFFF;stroke:#000000;stroke-miterlimit:10;}
	.st16{fill:none;stroke:#000000;stroke-miterlimit:10;}
	.st17{fill:#FFFFFF;}
	.st18{fill:#FF4848;}
	.st19{fill:#5A8DFF;}
</style>
<g class="st2">
	<rect x="-734.9" y="-485.5" class="st3" width="1920" height="1080"/>
	<circle class="st4" cx="31.2" cy="44.3" r="34.7"/>
	<circle class="st5" cx="422.1" cy="30" r="24.5"/>
	<text transform="matrix(1 0 0 1 24.6955 54.501)" class="st6 st7 st8">Self-Practice</text>
	<text transform="matrix(1 0 0 1 146.62 99.0756)" class="st6 st9 st10">The Journey Marker</text>
	<rect x="-734.9" y="-40.7" class="st13" width="1920" height="165"/>
	<rect x="140.2" y="81.2" class="st13" width="169.8" height="22.5"/>
	<line class="st13" x1="225.1" y1="211" x2="225.1" y2="103.7"/>
</g>
<rect class="st17" width="450.1" height="109"/>
<g>
	<circle class="st18" cx="34.7" cy="49.6" r="34.7"/>
	<circle class="st19" cx="425.6" cy="35.3" r="24.5"/>
	<g>
		<path d="M33.8,48.5c3,1.5,7.5,3,12.2,3c5,0,7.7-2.1,7.7-5.3c0-3-2.3-4.8-8.1-6.8c-8.1-2.8-13.3-7.3-13.3-14.3
			c0-8.3,6.9-14.6,18.4-14.6c5.5,0,9.5,1.2,12.4,2.4l-2.4,8.9c-1.9-0.9-5.4-2.3-10.2-2.3s-7.1,2.2-7.1,4.7c0,3.1,2.7,4.5,9,6.8
			C61,34.2,65,38.6,65,45.5c0,8.1-6.3,15-19.6,15c-5.5,0-11-1.4-13.8-3L33.8,48.5z"/>
		<path d="M80.8,45.7c0.4,4.5,4.8,6.7,9.9,6.7c3.7,0,6.8-0.5,9.7-1.4l1.4,7.4c-3.6,1.4-8,2.2-12.7,2.2c-12,0-18.8-6.9-18.8-17.9
			c0-8.9,5.5-18.8,17.8-18.8c11.4,0,15.7,8.9,15.7,17.6c0,1.9-0.2,3.5-0.4,4.3H80.8V45.7z M93.7,38.2c0-2.7-1.2-7.1-6.2-7.1
			c-4.6,0-6.5,4.2-6.8,7.1H93.7z"/>
		<path d="M110.4,8.7h10.9v51.1h-10.9V8.7z"/>
		<path d="M131.5,59.8V32.7h-4.6v-8.1h4.6v-1.4c0-4.2,1.3-8.9,4.5-11.8c2.7-2.6,6.6-3.5,9.7-3.5c2.4,0,4.3,0.3,5.8,0.7l-0.4,8.4
			c-0.9-0.3-2.1-0.5-3.5-0.5c-3.6,0-5.1,2.8-5.1,6.3v1.8h7.1v8.1h-7v27.1H131.5z"/>
		<path d="M171.2,37.3v7.3h-18.9v-7.3H171.2z"/>
		<path d="M178.1,12c3.4-0.6,8.1-1,14.8-1c6.8,0,11.6,1.3,14.8,3.9c3.1,2.4,5.2,6.5,5.2,11.2s-1.6,8.8-4.5,11.5
			c-3.7,3.5-9.3,5.1-15.8,5.1c-1.4,0-2.7-0.1-3.7-0.2v17.4H178V12H178.1z M189,34c0.9,0.2,2.1,0.3,3.7,0.3c5.8,0,9.4-3,9.4-7.9
			c0-4.5-3.1-7.1-8.6-7.1c-2.2,0-3.7,0.2-4.5,0.4V34z"/>
		<path d="M218.9,36.2c0-5.2-0.1-8.6-0.3-11.6h9.4l0.4,6.5h0.3c1.8-5.1,6.1-7.3,9.5-7.3c1,0,1.5,0,2.3,0.1v10.3
			c-0.8-0.1-1.7-0.3-3-0.3c-4,0-6.8,2.2-7.5,5.5c-0.1,0.7-0.2,1.6-0.2,2.4v17.9h-10.9L218.9,36.2L218.9,36.2z"/>
		<path d="M265.5,59.8l-0.6-3.5h-0.2c-2.3,2.8-5.9,4.3-10.1,4.3c-7.1,0-11.4-5.2-11.4-10.8c0-9.1,8.2-13.5,20.7-13.5v-0.4
			c0-1.9-1-4.5-6.4-4.5c-3.6,0-7.4,1.2-9.7,2.7l-2-7.1c2.4-1.4,7.3-3.1,13.7-3.1c11.7,0,15.5,6.9,15.5,15.2v12.2
			c0,3.4,0.1,6.6,0.5,8.6L265.5,59.8L265.5,59.8z M264.2,43.2c-5.8-0.1-10.2,1.3-10.2,5.5c0,2.8,1.9,4.2,4.3,4.2c2.7,0,5-1.8,5.7-4
			c0.1-0.6,0.2-1.2,0.2-1.9V43.2z"/>
		<path d="M309.9,59c-1.9,0.9-5.6,1.6-9.8,1.6c-11.4,0-18.7-6.9-18.7-18c0-10.3,7.1-18.7,20.2-18.7c2.9,0,6,0.5,8.4,1.4l-1.7,8.1
			c-1.3-0.6-3.2-1.1-6.1-1.1c-5.8,0-9.5,4.1-9.4,9.9c0,6.5,4.3,9.9,9.6,9.9c2.6,0,4.6-0.4,6.3-1.1L309.9,59z"/>
		<path d="M329.4,14.6v10.1h7.8v8.1h-7.8v12.7c0,4.2,1,6.2,4.3,6.2c1.4,0,2.4-0.1,3.2-0.3l0.1,8.3c-1.4,0.6-4,0.9-7.1,0.9
			c-3.5,0-6.5-1.2-8.2-3c-2-2.1-3-5.5-3-10.4V32.8H314v-8.1h4.7v-7.6L329.4,14.6z"/>
		<path d="M354.9,14.8c0,3-2.3,5.5-5.9,5.5c-3.5,0-5.8-2.4-5.7-5.5c-0.1-3.2,2.2-5.5,5.8-5.5S354.8,11.7,354.9,14.8z M343.6,59.8
			V24.6h10.9v35.2H343.6z"/>
		<path d="M389.7,59c-1.9,0.9-5.6,1.6-9.8,1.6c-11.4,0-18.7-6.9-18.7-18c0-10.3,7.1-18.7,20.2-18.7c2.9,0,6,0.5,8.4,1.4l-1.7,8.1
			c-1.3-0.6-3.2-1.1-6.1-1.1c-5.8,0-9.5,4.1-9.4,9.9c0,6.5,4.3,9.9,9.6,9.9c2.6,0,4.6-0.4,6.3-1.1L389.7,59z"/>
		<path d="M403.4,45.7c0.4,4.5,4.8,6.7,9.9,6.7c3.7,0,6.8-0.5,9.7-1.4l1.4,7.4c-3.6,1.4-8,2.2-12.7,2.2c-12,0-18.8-6.9-18.8-17.9
			c0-8.9,5.5-18.8,17.8-18.8c11.4,0,15.7,8.9,15.7,17.6c0,1.9-0.2,3.5-0.4,4.3h-22.6V45.7z M416.3,38.2c0-2.7-1.2-7.1-6.2-7.1
			c-4.6,0-6.5,4.2-6.8,7.1H416.3z"/>
	</g>
	<g>
		<path d="M154.4,91.7H150v-0.8h9.8v0.8h-4.4v12.7h-1L154.4,91.7L154.4,91.7z"/>
		<path d="M161,90.2h1v6.3l0,0c0.3-0.5,0.7-1.1,1.3-1.4c0.6-0.4,1.2-0.6,1.9-0.6c0.9,0,3.3,0.5,3.3,4v5.8h-1v-5.7
			c0-1.7-0.7-3.3-2.6-3.3c-1.4,0-2.5,1-2.9,2.2c-0.1,0.3-0.1,0.6-0.1,1v5.9h-1V90.2H161z"/>
		<path d="M171.9,99.5c0,3.1,1.7,4.3,3.7,4.3c1.4,0,2.1-0.3,2.7-0.5l0.2,0.7c-0.4,0.2-1.3,0.6-3,0.6c-2.8,0-4.5-2-4.5-4.8
			c0-3.2,1.8-5.2,4.3-5.2c3.1,0,3.7,3,3.7,4.3c0,0.3,0,0.4,0,0.6H171.9z M178,98.8c0-1.3-0.5-3.4-2.9-3.4c-2.1,0-3,1.9-3.2,3.4H178z
			"/>
		<path d="M188.7,90.9h1v9.3c0,3.4-1.7,4.4-3.6,4.4c-0.6,0-1.3-0.2-1.6-0.3l0.2-0.8c0.3,0.1,0.8,0.3,1.4,0.3c1.7,0,2.7-0.8,2.7-3.8
			v-9.1H188.7z"/>
		<path d="M201,99.5c0,3.6-2.5,5.1-4.6,5.1c-2.5,0-4.4-1.9-4.4-4.9c0-3.3,2.2-5.1,4.5-5.1C199.2,94.6,201,96.6,201,99.5z M193,99.6
			c0,2.4,1.5,4.2,3.5,4.2s3.6-1.8,3.6-4.3c0-1.8-1-4.2-3.5-4.2C194.1,95.4,193,97.6,193,99.6z"/>
		<path d="M210.8,102.1c0,0.8,0,1.6,0.1,2.3H210l-0.1-1.7l0,0c-0.5,0.9-1.6,1.9-3.3,1.9c-1.2,0-3.3-0.6-3.3-4.2v-5.6h1v5.4
			c0,2.1,0.6,3.6,2.5,3.6c1.4,0,2.4-1,2.8-1.9c0.1-0.3,0.2-0.7,0.2-1.1v-6h1L210.8,102.1L210.8,102.1z"/>
		<path d="M214,97.7c0-1,0-1.9-0.1-2.9h0.9v1.9h0.1c0.4-1.2,1.4-2.2,2.7-2.2c0.1,0,0.3,0,0.4,0v0.9c-0.1,0-0.3,0-0.5,0
			c-1.3,0-2.3,1.1-2.5,2.7c-0.1,0.3-0.1,0.6-0.1,0.9v5.3h-1v-6.6H214z"/>
		<path d="M220.1,97.1c0-0.9,0-1.5-0.1-2.3h0.9l0.1,1.7l0,0c0.5-1.1,1.7-2,3.3-2c0.9,0,3.4,0.5,3.4,4.1v5.8h-1v-5.7
			c0-1.7-0.7-3.3-2.7-3.3c-1.3,0-2.5,1-2.9,2.2c-0.1,0.2-0.1,0.6-0.1,0.9v5.9h-1v-7.3H220.1z"/>
		<path d="M231,99.5c0,3.1,1.7,4.3,3.7,4.3c1.4,0,2.1-0.3,2.7-0.5l0.2,0.7c-0.4,0.2-1.3,0.6-3,0.6c-2.8,0-4.5-2-4.5-4.8
			c0-3.2,1.8-5.2,4.3-5.2c3.1,0,3.7,3,3.7,4.3c0,0.3,0,0.4,0,0.6H231z M237.1,98.8c0-1.3-0.5-3.4-2.9-3.4c-2.1,0-3,1.9-3.2,3.4
			H237.1z"/>
		<path d="M240.2,94.8l2.5,6.3c0.3,0.7,0.5,1.5,0.7,2.1l0,0c0.2-0.6,0.4-1.3,0.7-2.1l2.3-6.2h1l-2.9,7.2c-1.2,3-2,4.8-3.2,5.9
			c-0.8,0.6-1.4,0.9-1.7,1l-0.3-0.8c0.5-0.2,1.1-0.5,1.7-1.1c0.5-0.5,1.1-1.3,1.6-2.4c0.1-0.2,0.1-0.3,0.1-0.4s0-0.2-0.1-0.4L239,95
			h1.2V94.8z"/>
		<path d="M265.2,98c-0.1-2-0.3-4.5-0.3-6l0,0c-0.5,1.5-1,3-1.8,5l-2.8,7.3h-0.7l-2.7-7.2c-0.8-2.1-1.3-3.7-1.7-5.2l0,0
			c0,1.6-0.1,3.9-0.3,6.2l-0.4,6.2h-0.9l1-13.5h1.1l2.9,7.8c0.6,1.7,1.1,3.1,1.5,4.4h0.1c0.3-1.2,0.8-2.6,1.5-4.4l3-7.8h1.1
			l0.9,13.5h-1.1L265.2,98z"/>
		<path d="M275.5,102.1c0,0.8,0,1.5,0.1,2.3h-0.9l-0.1-1.4l0,0c-0.5,0.7-1.5,1.6-3.1,1.6c-1.9,0-2.8-1.4-2.8-2.6
			c0-2.2,1.9-3.6,5.9-3.5v-0.3c0-0.9-0.2-2.8-2.5-2.8c-0.8,0-1.7,0.2-2.4,0.7l-0.3-0.7c0.9-0.6,2-0.8,2.8-0.8c2.8,0,3.3,2.1,3.3,3.8
			V102.1z M274.5,99.3c-2.1-0.1-4.9,0.3-4.9,2.6c0,1.4,0.9,2,1.9,2c1.6,0,2.5-1,2.8-1.9c0.1-0.2,0.1-0.4,0.1-0.6v-2.1H274.5z"/>
		<path d="M278.6,97.7c0-1,0-1.9-0.1-2.9h0.9v1.9h0.1c0.4-1.2,1.4-2.2,2.7-2.2c0.1,0,0.3,0,0.4,0v0.9c-0.1,0-0.3,0-0.5,0
			c-1.3,0-2.3,1.1-2.5,2.7c-0.1,0.3-0.1,0.6-0.1,0.9v5.3h-1v-6.6H278.6z"/>
		<path d="M285.6,99.4L285.6,99.4c0.3-0.3,0.7-0.7,1-1.1l3.4-3.6h1.2l-3.9,4l4.4,5.6h-1.2l-3.9-5l-1,1v4h-1V90.1h1V99.4z"/>
		<path d="M293.5,99.5c0,3.1,1.7,4.3,3.7,4.3c1.4,0,2.1-0.3,2.7-0.5l0.2,0.7c-0.4,0.2-1.3,0.6-3,0.6c-2.8,0-4.5-2-4.5-4.8
			c0-3.2,1.8-5.2,4.3-5.2c3.1,0,3.7,3,3.7,4.3c0,0.3,0,0.4,0,0.6H293.5z M299.6,98.8c0-1.3-0.5-3.4-2.9-3.4c-2.1,0-3,1.9-3.2,3.4
			H299.6z"/>
		<path d="M303,97.7c0-1,0-1.9-0.1-2.9h0.9v1.9h0.1c0.4-1.2,1.4-2.2,2.7-2.2c0.1,0,0.3,0,0.4,0v0.9c-0.1,0-0.3,0-0.5,0
			c-1.3,0-2.3,1.1-2.5,2.7c-0.1,0.3-0.1,0.6-0.1,0.9v5.3h-1v-6.6H303z"/>
	</g>
</g>
</svg>
